<svg xmlns="http://www.w3.org/2000/svg" width="342.369" height="307.054" viewBox="0 0 342.369 307.054">
  <g id="grafico_1.2_derechos" data-name="grafico_1.2 derechos" transform="translate(-9.884 -7.36)">
    <rect id="Rectángulo_33949" data-name="Rectángulo 33949" width="28.446" height="385.273" rx="14.223" transform="translate(14.806 53.528) rotate(-47.48)" fill="#affde3"/>
    <path id="Trazado_101479" data-name="Trazado 101479" d="M354.372,154.37h0a7.515,7.515,0,0,1-10.647.461L239.159,50.505a7.515,7.515,0,0,1-.461-10.647h0a7.506,7.506,0,0,1,10.647-.461L353.91,143.749a7.515,7.515,0,0,1,.461,10.621Z" transform="translate(-25.568 -3.387)" fill="#4b9be1"/>
    <path id="Trazado_101480" data-name="Trazado 101480" d="M340.335,90.658h0a7.515,7.515,0,0,1-10.647.461l-64-64.913a7.515,7.515,0,0,1-.461-10.647h0a7.524,7.524,0,0,1,10.647-.461l64.053,64.913a7.515,7.515,0,0,1,.408,10.647Z" transform="translate(-28.559 -0.648)" fill="#a5cdf0"/>
    <g id="Grupo_87545" data-name="Grupo 87545" transform="translate(9.884 7.36)">
      <g id="Grupo_87544" data-name="Grupo 87544">
        <g id="Grupo_87543" data-name="Grupo 87543">
          <path id="Trazado_101481" data-name="Trazado 101481" d="M22.586,151.835a43.654,43.654,0,0,1,0-61.568h0a43.654,43.654,0,0,1,61.568,0h0a18.455,18.455,0,0,0,26.033,0h0a18.455,18.455,0,0,0,0-26.033l-1.544-1.553a19.2,19.2,0,0,1,0-27.071h0a19.192,19.192,0,0,1,27.062,0l4.756,4.756a7.462,7.462,0,0,0,10.532,0h0a7.471,7.471,0,0,0,0-10.541l-3.478-3.487a5.155,5.155,0,0,1,0-7.276h0a5.155,5.155,0,0,1,7.267,0L178.25,42.532a8.11,8.11,0,0,0,11.428,0h0a8.11,8.11,0,0,0,0-11.428l-7.018-7.018a5.164,5.164,0,0,1,0-7.276h0a5.164,5.164,0,0,1,7.276,0l99.819,99.828a6.734,6.734,0,0,1,0,9.494h0a6.726,6.726,0,0,1-9.485,0l-7.2-7.2a10.567,10.567,0,0,0-14.906,0h0a10.585,10.585,0,0,0,0,14.915l30.824,30.824a6.726,6.726,0,0,1,0,9.485h0a6.734,6.734,0,0,1-9.494,0l-4.552-4.552a9.76,9.76,0,0,0-13.753,0h0a9.76,9.76,0,0,0,0,13.753l6.211,6.211a25.048,25.048,0,0,1,0,35.322h0a25.048,25.048,0,0,1-35.323,0l-2.041-2.032a24.09,24.09,0,0,0-33.974,0h0a24.09,24.09,0,0,0,0,33.974l4.374,4.374a24.294,24.294,0,0,1,0,34.258h0a24.285,24.285,0,0,1-34.249,0Zm269.821-13.558a6.717,6.717,0,1,0,0-9.494,6.717,6.717,0,0,0,0,9.494ZM137.3,16.135a5.137,5.137,0,1,0-1.51-3.638,5.137,5.137,0,0,0,1.51,3.638Z" transform="translate(-9.884 -7.36)" fill="#99bdef" fill-rule="evenodd"/>
          <g id="Grupo_87533" data-name="Grupo 87533" transform="translate(10.475 89.784)">
            <path id="Trazado_101482" data-name="Trazado 101482" d="M197.9,108.55H95.223a9.635,9.635,0,0,1,.319,2.44h0a9.467,9.467,0,0,1-9.432,9.432H77.6A24.294,24.294,0,0,0,53.37,144.644h0v.213H197.9a18.207,18.207,0,0,0,18.154-18.163h0A18.207,18.207,0,0,0,197.9,108.55Z" transform="translate(-25.261 -108.55)" fill="#dce9f7" fill-rule="evenodd"/>
            <path id="Trazado_101483" data-name="Trazado 101483" d="M52.026,137.84H212.481V329.013H76.8A55.269,55.269,0,0,1,21.69,273.9h0A55.277,55.277,0,0,1,76.8,218.786h0a23.38,23.38,0,0,0,23.309-23.309h0a23.371,23.371,0,0,0-23.309-23.3H74.03A24.3,24.3,0,0,1,49.8,147.946h0A23.956,23.956,0,0,1,52.026,137.84Z" transform="translate(-21.69 -111.852)" fill="#cde0f3" fill-rule="evenodd"/>
            <path id="Trazado_101484" data-name="Trazado 101484" d="M50.4,155.29H199.42c4.268,0,7.755,4.144,7.755,9.21V330.98H76.8A55.268,55.268,0,0,1,21.69,275.871h0A55.277,55.277,0,0,1,76.8,220.753h0a23.38,23.38,0,0,0,23.309-23.309h0a23.371,23.371,0,0,0-23.309-23.3H74.03A24.329,24.329,0,0,1,50.4,155.29Z" transform="translate(-21.69 -113.819)" fill="#c1dbf2" fill-rule="evenodd"/>
            <path id="Trazado_101485" data-name="Trazado 101485" d="M108.585,194.16H216.948v15.66H108.47a23.2,23.2,0,0,0,1.42-7.985h0A23.139,23.139,0,0,0,108.585,194.16Z" transform="translate(-31.472 -118.2)" fill="#cde0f3" fill-rule="evenodd"/>
            <path id="Trazado_101486" data-name="Trazado 101486" d="M224.1,186.65H104.47a23.167,23.167,0,0,1,4.969,14.33h0v1.331H224.1a5.12,5.12,0,0,0,5.111-5.111v-5.439A5.12,5.12,0,0,0,224.1,186.65Z" transform="translate(-31.021 -117.354)" fill="#dce9f7" fill-rule="evenodd"/>
            <path id="Trazado_101487" data-name="Trazado 101487" d="M23.842,274H207.171v15.66H21.73v-.435h0A54.941,54.941,0,0,1,23.842,274Z" transform="translate(-21.694 -127.2)" fill="#cde0f3" fill-rule="evenodd"/>
            <path id="Trazado_101488" data-name="Trazado 101488" d="M214.815,266.51H26.3a54.683,54.683,0,0,0-4.206,15.669H214.815a5.128,5.128,0,0,0,5.111-5.12v-5.43A5.128,5.128,0,0,0,214.815,266.51Z" transform="translate(-21.735 -126.356)" fill="#dce9f7" fill-rule="evenodd"/>
            <path id="Trazado_101489" data-name="Trazado 101489" d="M218.57,346.38H55.4a54.576,54.576,0,0,0,25.2,6.14H223.681v-1.029A5.12,5.12,0,0,0,218.57,346.38Z" transform="translate(-25.49 -135.359)" fill="#fff" fill-rule="evenodd"/>
            <path id="Trazado_101490" data-name="Trazado 101490" d="M218.355,129H61.369a24.24,24.24,0,0,0-7.879,15.66H218.355a5.12,5.12,0,0,0,5.111-5.111v-5.439A5.12,5.12,0,0,0,218.355,129Z" transform="translate(-25.275 -110.855)" fill="#dce9f7" fill-rule="evenodd"/>
            <path id="Trazado_101491" data-name="Trazado 101491" d="M68.687,123.1H202.773c3.629,0,6.6-3.336,6.6-7.418a8.048,8.048,0,0,0-1.207-4.259c5.235,2.733,8.873,8.713,8.873,15.607H62.37a24.844,24.844,0,0,1,6.317-3.931Z" transform="translate(-26.276 -108.874)" fill="#cde0f3" fill-rule="evenodd"/>
            <g id="Grupo_87524" data-name="Grupo 87524" transform="translate(106.456 93.137)">
              <path id="Trazado_101492" data-name="Trazado 101492" d="M198.027,221.93h22.413a1.917,1.917,0,0,1,1.917,1.917v35.74a1.917,1.917,0,0,1-1.917,1.917H198.027a1.917,1.917,0,0,1-1.917-1.917V223.838a1.908,1.908,0,0,1,1.917-1.908Z" transform="translate(-147.807 -214.468)" fill="#eaeae6"/>
              <path id="Trazado_101493" data-name="Trazado 101493" d="M179.757,221.93h11.384a.976.976,0,0,1,.976.976v37.621a.976.976,0,0,1-.976.976H179.757a.967.967,0,0,1-.967-.967V222.879a.967.967,0,0,1,.967-.949Z" transform="translate(-145.854 -214.468)" fill="#e7e9e3"/>
              <path id="Trazado_101494" data-name="Trazado 101494" d="M166.856,213.52h13.22a1.127,1.127,0,0,1,1.127,1.127V259.4a1.127,1.127,0,0,1-1.127,1.127h-13.22a1.136,1.136,0,0,1-1.136-1.136V214.647a1.127,1.127,0,0,1,1.136-1.127Z" transform="translate(-144.381 -213.52)" fill="#b3ceeb"/>
              <path id="Trazado_101495" data-name="Trazado 101495" d="M161.34,245.86h22.945a1.331,1.331,0,0,1,1.331,1.331v15.652a1.331,1.331,0,0,1-1.331,1.331H161.34a1.34,1.34,0,0,1-1.34-1.331V247.2a1.34,1.34,0,0,1,1.34-1.34Z" transform="translate(-143.736 -217.165)" fill="#b8d3ee"/>
              <rect id="Rectángulo_33950" data-name="Rectángulo 33950" width="13.318" height="33.566" rx="1.09" transform="translate(0 13.46)" fill="#b8d3ee"/>
              <rect id="Rectángulo_33951" data-name="Rectángulo 33951" width="16.246" height="10.062" rx="1.45" transform="translate(53.299 16.326)" fill="#e3e2dc"/>
              <rect id="Rectángulo_33952" data-name="Rectángulo 33952" width="16.246" height="3.203" rx="1.22" transform="translate(53.299 28.695)" fill="#e3e2dc"/>
              <rect id="Rectángulo_33953" data-name="Rectángulo 33953" width="16.246" height="3.203" rx="1.22" transform="translate(53.299 34.897)" fill="#e3e2dc"/>
              <path id="Trazado_101496" data-name="Trazado 101496" d="M148.82,243.86a3.37,3.37,0,0,0-.027,6.646,3.372,3.372,0,0,0,0-6.646Z" transform="translate(-142.157 -216.94)" fill="#b3ceeb" fill-rule="evenodd"/>
            </g>
            <g id="Grupo_87525" data-name="Grupo 87525" transform="translate(83.129 43.814)">
              <rect id="Rectángulo_33954" data-name="Rectángulo 33954" width="7.568" height="6.042" rx="0.87" transform="translate(29.218 19.44)" fill="#dce9f7"/>
              <rect id="Rectángulo_33955" data-name="Rectángulo 33955" width="18.837" height="15.802" rx="1.3" transform="translate(8.678 9.68)" fill="#b8d3ee"/>
              <rect id="Rectángulo_33956" data-name="Rectángulo 33956" width="12.83" height="10.763" rx="0.88" transform="translate(6.38 14.72)" fill="#b3ceeb"/>
              <rect id="Rectángulo_33957" data-name="Rectángulo 33957" width="11.419" height="25.483" rx="0.94" fill="#dce9f7"/>
            </g>
            <g id="Grupo_87526" data-name="Grupo 87526" transform="translate(126.242 42.838)">
              <path id="Trazado_101497" data-name="Trazado 101497" d="M195.65,165.605h-.639v-1.189h.222a.8.8,0,0,0,.719-.843h0a.8.8,0,0,0-.719-.843h-.781v-5.013a.8.8,0,0,0-.719-.887h0a.79.79,0,0,0-.719.887v5.013h-.79a.79.79,0,0,0-.71.843h0a.79.79,0,0,0,.71.843h.222v1.189h-.639a.887.887,0,0,0-.8.949v15.785a.887.887,0,0,0,.8.949h3.842a.887.887,0,0,0,.8-.949V166.555A.887.887,0,0,0,195.65,165.605Z" transform="translate(-167.018 -156.83)" fill="#b3ceeb" fill-rule="evenodd"/>
              <path id="Trazado_101498" data-name="Trazado 101498" d="M202.7,167.816h-.568V166.76h.2a.71.71,0,0,0,.639-.763h0a.7.7,0,0,0-.639-.763h-.719v-4.481a.71.71,0,0,0-.639-.763h0a.71.71,0,0,0-.648.763v4.481h-.7a.7.7,0,0,0-.639.763h0a.71.71,0,0,0,.639.763h.213v1.056h-.568a.807.807,0,0,0-.719.887v14.125a.8.8,0,0,0,.719.887H202.7a.79.79,0,0,0,.719-.887V168.668A.8.8,0,0,0,202.7,167.816Z" transform="translate(-167.867 -157.186)" fill="#b3ceeb" fill-rule="evenodd"/>
              <rect id="Rectángulo_33958" data-name="Rectángulo 33958" width="11.082" height="16.707" rx="0.91" transform="translate(35.172 9.751)" fill="#dce9f7"/>
              <rect id="Rectángulo_33959" data-name="Rectángulo 33959" width="6.859" height="4.25" rx="0.61" transform="translate(37.283 13.495)" fill="#f5f6f5"/>
              <path id="Trazado_101499" data-name="Trazado 101499" d="M206.441,177.928h5.945a.452.452,0,0,1,.452.452v.435a.452.452,0,0,1-.452.453h-5.945a.461.461,0,0,1-.461-.461v-.435a.461.461,0,0,1,.461-.461Z" transform="translate(-168.705 -159.206)" fill="#f5f6f5"/>
              <path id="Trazado_101500" data-name="Trazado 101500" d="M206.441,180.88h5.945a.452.452,0,0,1,.452.452v.435a.453.453,0,0,1-.452.453h-5.945a.461.461,0,0,1-.461-.461v-.435a.461.461,0,0,1,.461-.444Z" transform="translate(-168.705 -159.541)" fill="#f5f6f5"/>
              <rect id="Rectángulo_33960" data-name="Rectángulo 33960" width="6.805" height="10.266" rx="0.56" transform="translate(27.435 16.193)" fill="#b8d3ee"/>
              <rect id="Rectángulo_33961" data-name="Rectángulo 33961" width="23.087" height="25.101" rx="1.9" transform="translate(0 1.358)" fill="#b8d3ee"/>
              <rect id="Rectángulo_33962" data-name="Rectángulo 33962" width="6.805" height="10.266" rx="0.56" transform="translate(18.855 16.193)" fill="#dce9f7"/>
            </g>
            <g id="Grupo_87527" data-name="Grupo 87527" transform="translate(58.365 53.494)">
              <path id="Trazado_101501" data-name="Trazado 101501" d="M88.6,168.84h16.53a1.153,1.153,0,0,1,1.153,1.153v13.5a1.153,1.153,0,0,1-1.153,1.153h-2.573a23.353,23.353,0,0,0-15.084-8.749v-5.9A1.153,1.153,0,0,1,88.6,168.84Z" transform="translate(-87.47 -168.84)" fill="#b3ceeb" fill-rule="evenodd"/>
              <path id="Trazado_101502" data-name="Trazado 101502" d="M97.59,174.52h11.26a.781.781,0,0,1,.781.79v9.183a.781.781,0,0,1-.781.79h-5.244a23.451,23.451,0,0,0-6.805-5.9V175.3A.79.79,0,0,1,97.59,174.52Z" transform="translate(-88.522 -169.48)" fill="#b8d3ee" fill-rule="evenodd"/>
              <path id="Trazado_101503" data-name="Trazado 101503" d="M94.179,178.11h3.744a.319.319,0,0,1,.319.319v2.493a22.856,22.856,0,0,0-4.383-2.413v-.08A.328.328,0,0,1,94.179,178.11Z" transform="translate(-88.19 -169.885)" fill="#f0f1ee" fill-rule="evenodd"/>
            </g>
            <g id="Grupo_87528" data-name="Grupo 87528" transform="translate(30.895 47.336)">
              <path id="Trazado_101504" data-name="Trazado 101504" d="M65.613,161.9h-9.1A24.462,24.462,0,0,0,66.7,172.086v-9.121a1.065,1.065,0,0,0-1.091-1.065Z" transform="translate(-56.51 -161.9)" fill="#eaeae6" fill-rule="evenodd"/>
              <path id="Trazado_101505" data-name="Trazado 101505" d="M63.592,167.45H60.38A24.711,24.711,0,0,0,64.346,171V168.16a.71.71,0,0,0-.754-.71Z" transform="translate(-56.946 -162.525)" fill="#e3e2dc" fill-rule="evenodd"/>
            </g>
            <g id="Grupo_87529" data-name="Grupo 87529" transform="translate(4.569 106.926)">
              <path id="Trazado_101506" data-name="Trazado 101506" d="M74.076,234.569h-.967v-1.908h.346a1.251,1.251,0,0,0,1.127-1.34h0A1.251,1.251,0,0,0,73.455,230H72.3c-1.579.275-3.141.63-4.667,1.047a1.561,1.561,0,0,0,0,.293h0a1.251,1.251,0,0,0,1.118,1.322H69.1v1.872H68.069a1.4,1.4,0,0,0-1.26,1.5v24.844a1.393,1.393,0,0,0,1.26,1.491h6.007a1.393,1.393,0,0,0,1.26-1.491V236.033A1.4,1.4,0,0,0,74.076,234.569Z" transform="translate(-31.345 -229.166)" fill="#b3ceeb" fill-rule="evenodd"/>
              <path id="Trazado_101507" data-name="Trazado 101507" d="M85.218,237.383h-.932v-1.677H84.6a1.109,1.109,0,0,0,1-1.2h0a1.118,1.118,0,0,0-1-1.2H83.523v-4.25H81.5v4.215H80.4a1.118,1.118,0,0,0-1.012,1.2h0a1.118,1.118,0,0,0,1.012,1.2h.337v1.677H79.85a1.251,1.251,0,0,0-1.171,1.42v22.182a1.242,1.242,0,0,0,1.127,1.331h5.412a1.242,1.242,0,0,0,1.127-1.331V238.767a1.251,1.251,0,0,0-1.127-1.384Z" transform="translate(-32.682 -229.06)" fill="#deded7" fill-rule="evenodd"/>
              <rect id="Rectángulo_33963" data-name="Rectángulo 33963" width="17.444" height="26.299" rx="1.43" transform="translate(53.068 6.93)" fill="#f9f9fa"/>
              <rect id="Rectángulo_33964" data-name="Rectángulo 33964" width="10.798" height="6.69" rx="0.96" transform="translate(56.386 12.821)" fill="#f5f6f5"/>
              <rect id="Rectángulo_33965" data-name="Rectángulo 33965" width="10.798" height="2.129" rx="0.81" transform="translate(56.386 21.055)" fill="#f5f6f5"/>
              <rect id="Rectángulo_33966" data-name="Rectángulo 33966" width="10.798" height="2.129" rx="0.81" transform="translate(56.386 25.172)" fill="#f5f6f5"/>
              <rect id="Rectángulo_33967" data-name="Rectángulo 33967" width="10.718" height="16.157" rx="0.88" transform="translate(40.877 17.071)" fill="#eaeae6"/>
              <path id="Trazado_101508" data-name="Trazado 101508" d="M26.84,262.59a2.258,2.258,0,0,0,.346,0H58.241a2.662,2.662,0,0,0,2.662-2.662V231.89A55.6,55.6,0,0,0,26.84,262.59Z" transform="translate(-26.84 -229.379)" fill="#c1dbf2" fill-rule="evenodd"/>
              <rect id="Rectángulo_33968" data-name="Rectángulo 33968" width="10.718" height="16.157" rx="0.88" transform="translate(27.381 17.071)" fill="#c1dbf2"/>
            </g>
            <g id="Grupo_87530" data-name="Grupo 87530" transform="translate(79.26 174.084)">
              <rect id="Rectángulo_33969" data-name="Rectángulo 33969" width="10.967" height="8.757" rx="1.26" transform="translate(0 28.18)" fill="#eaeae6"/>
              <rect id="Rectángulo_33970" data-name="Rectángulo 33970" width="27.31" height="22.909" rx="1.88" transform="translate(13.442 14.037)" fill="#eaeae6"/>
              <rect id="Rectángulo_33971" data-name="Rectángulo 33971" width="18.597" height="15.598" rx="1.28" transform="translate(25.483 21.339)" fill="#e1e1d9"/>
              <rect id="Rectángulo_33972" data-name="Rectángulo 33972" width="16.557" height="36.937" rx="1.36" transform="translate(36.778)" fill="#b8d3ee"/>
            </g>
            <g id="Grupo_87531" data-name="Grupo 87531" transform="translate(5.909 172.7)">
              <path id="Trazado_101509" data-name="Trazado 101509" d="M53.752,315.878h.887v-1.721H54.32a1.153,1.153,0,0,1-1.038-1.233h0a1.153,1.153,0,0,1,1.038-1.233h1.136v-7.258A1.162,1.162,0,0,1,56.5,303.19h0a1.162,1.162,0,0,1,1.038,1.242v7.258h1.136a1.153,1.153,0,0,1,1.038,1.233h0a1.145,1.145,0,0,1-1.038,1.233h-.311v1.721h.887a1.287,1.287,0,0,1,1.162,1.384v22.874a1.286,1.286,0,0,1-1.162,1.375h-4.17c-.843-.435-1.677-.887-2.493-1.375h0V317.262A1.287,1.287,0,0,1,53.752,315.878Z" transform="translate(-31.082 -303.19)" fill="#deded7" fill-rule="evenodd"/>
              <path id="Trazado_101510" data-name="Trazado 101510" d="M43.612,319.082h.825v-1.535h-.284a1.038,1.038,0,0,1-.887-1.109h0a1.038,1.038,0,0,1,.887-1.1h1.02V308.86a1.029,1.029,0,0,1,.887-1.1h0a1.029,1.029,0,0,1,.887,1.1v6.5h1.02a1.029,1.029,0,0,1,.887,1.1h0a1.029,1.029,0,0,1-.887,1.109h-.284v1.535H48.5a1.153,1.153,0,0,1,1.047,1.233v19.227a54.638,54.638,0,0,1-7.1-5.324v-13.93a1.154,1.154,0,0,1,1.162-1.233Z" transform="translate(-29.939 -303.705)" fill="#deded7" fill-rule="evenodd"/>
              <path id="Trazado_101511" data-name="Trazado 101511" d="M28.35,319.08H40.364a1.171,1.171,0,0,1,1.171,1.171v15.714A55.641,55.641,0,0,1,28.35,319.08Z" transform="translate(-28.35 -304.981)" fill="#f9f9fa" fill-rule="evenodd"/>
              <path id="Trazado_101512" data-name="Trazado 101512" d="M31.9,325.2h6.211a.79.79,0,0,1,.79.781v4.587a.79.79,0,0,1-.79.79H36.6a55.9,55.9,0,0,1-4.7-6.158Z" transform="translate(-28.75 -305.671)" fill="#f5f6f5" fill-rule="evenodd"/>
              <path id="Trazado_101513" data-name="Trazado 101513" d="M38.66,333.74h.3a.665.665,0,0,1,.665.657v.364C39.308,334.423,38.962,334.077,38.66,333.74Z" transform="translate(-29.512 -306.634)" fill="#f5f6f5" fill-rule="evenodd"/>
              <path id="Trazado_101514" data-name="Trazado 101514" d="M45.459,329.61h8.429a.719.719,0,0,1,.719.719v13.442a.728.728,0,0,1-.488.683,55.251,55.251,0,0,1-9.379-6.211v-7.986A.719.719,0,0,1,45.459,329.61Z" transform="translate(-30.198 -306.168)" fill="#eaeae6" fill-rule="evenodd"/>
              <rect id="Rectángulo_33973" data-name="Rectángulo 33973" width="33.468" height="36.387" rx="2.75" transform="translate(30.709 1.934)" fill="#eaeae6"/>
              <rect id="Rectángulo_33974" data-name="Rectángulo 33974" width="9.867" height="14.88" rx="0.81" transform="translate(26.973 23.442)" fill="#f9f9fa"/>
            </g>
            <g id="Grupo_87532" data-name="Grupo 87532" transform="translate(137.892 188.12)">
              <rect id="Rectángulo_33975" data-name="Rectángulo 33975" width="10.967" height="8.757" rx="1.26" transform="translate(33.113 14.143)" fill="#eaeae6"/>
              <rect id="Rectángulo_33976" data-name="Rectángulo 33976" width="27.31" height="22.909" rx="1.88" transform="translate(3.336)" fill="#eaeae6"/>
              <rect id="Rectángulo_33977" data-name="Rectángulo 33977" width="18.606" height="15.598" rx="1.28" transform="translate(0 7.302)" fill="#e1e1d9"/>
              <rect id="Rectángulo_33978" data-name="Rectángulo 33978" width="6.353" height="10.976" rx="0.52" transform="translate(16.033 11.925)" fill="#f0f1ee"/>
            </g>
          </g>
          <g id="Grupo_87534" data-name="Grupo 87534" transform="translate(11.504 214.632)">
            <path id="Trazado_101515" data-name="Trazado 101515" d="M55.608,250.62H35.272a55.118,55.118,0,0,0-12.422,25.4,4.889,4.889,0,0,0,2.378.612h30.38a4.942,4.942,0,0,0,4.924-4.924V255.553a4.942,4.942,0,0,0-4.924-4.933Z" transform="translate(-22.85 -249.413)" fill="#1f0829" fill-rule="evenodd"/>
            <path id="Trazado_101516" data-name="Trazado 101516" d="M44.843,250.62h30.38a4.924,4.924,0,0,1,4.924,4.924V271.7a4.924,4.924,0,0,1-4.924,4.924H44.843a4.933,4.933,0,0,1-4.933-4.933v-16.14a4.924,4.924,0,0,1,4.933-4.933Z" transform="translate(-24.773 -249.413)" fill="#954cb5"/>
            <rect id="Rectángulo_33979" data-name="Rectángulo 33979" width="7.595" height="5.572" rx="1.37" transform="translate(42.447)" fill="#1f0829"/>
            <rect id="Rectángulo_33980" data-name="Rectángulo 33980" width="6.504" height="5.572" rx="1.37" transform="translate(43.539)" fill="#954cb5"/>
            <path id="Trazado_101517" data-name="Trazado 101517" d="M76.736,251.94h0a.452.452,0,0,0-.444.444v2.041H74.677v-2.041a.452.452,0,0,0-.444-.444h0a.444.444,0,0,0-.444.444v5.448a.736.736,0,0,0,.736.736h1.917a.736.736,0,0,0,.736-.736v-5.448a.444.444,0,0,0-.444-.444Z" transform="translate(-28.592 -249.562)" fill="#3f2c44" fill-rule="evenodd"/>
            <rect id="Rectángulo_33981" data-name="Rectángulo 33981" width="7.595" height="5.572" rx="1.37" transform="translate(20.895)" fill="#1f0829"/>
            <rect id="Rectángulo_33982" data-name="Rectángulo 33982" width="6.504" height="5.572" rx="1.37" transform="translate(21.987)" fill="#954cb5"/>
            <path id="Trazado_101518" data-name="Trazado 101518" d="M52.446,251.94h0a.453.453,0,0,0-.444.444v2.041H50.387v-2.041a.444.444,0,0,0-.444-.444h0a.453.453,0,0,0-.444.444v5.448a.736.736,0,0,0,.736.736h1.917a.736.736,0,0,0,.736-.736v-5.448a.444.444,0,0,0-.444-.444Z" transform="translate(-25.854 -249.562)" fill="#5a4a60" fill-rule="evenodd"/>
            <path id="Trazado_101519" data-name="Trazado 101519" d="M76.69,261.64H44.127a.887.887,0,0,0-.887.887h0a.887.887,0,0,0,.887.887H76.69a.887.887,0,0,0,.887-.887h0A.887.887,0,0,0,76.69,261.64Z" transform="translate(-25.148 -250.656)" fill="#1f0829" fill-rule="evenodd"/>
            <path id="Trazado_101520" data-name="Trazado 101520" d="M76.69,265.87H44.127a.887.887,0,0,0-.887.887h0a.887.887,0,0,0,.887.887H76.69a.887.887,0,0,0,.887-.887h0A.887.887,0,0,0,76.69,265.87Z" transform="translate(-25.148 -251.132)" fill="#1f0829" fill-rule="evenodd"/>
            <rect id="Rectángulo_33983" data-name="Rectángulo 33983" width="34.338" height="1.775" rx="0.887" transform="translate(18.092 18.5)" fill="#1f0829"/>
            <rect id="Rectángulo_33984" data-name="Rectángulo 33984" width="34.338" height="1.775" rx="0.887" transform="translate(18.092 22.253)" fill="#1f0829"/>
          </g>
          <g id="Grupo_87535" data-name="Grupo 87535" transform="translate(10.475 239.946)">
            <rect id="Rectángulo_33985" data-name="Rectángulo 33985" width="52.145" height="33.717" rx="7.2" transform="translate(13.283 1.57)" fill="#1f0829"/>
            <path id="Trazado_101521" data-name="Trazado 101521" d="M22.666,279.559H57.8a6.406,6.406,0,0,1,6.388,6.388v20.94a6.406,6.406,0,0,1-6.388,6.388H26.934a54.621,54.621,0,0,1-5.244-23.4h0a54.945,54.945,0,0,1,.978-10.331Z" transform="translate(-21.69 -277.988)" fill="#954cb5" fill-rule="evenodd"/>
            <path id="Trazado_101522" data-name="Trazado 101522" d="M23.012,277.79h4.241a1.571,1.571,0,0,1,1.57,1.57v4.081a1.579,1.579,0,0,1-1.57,1.57H21.93a56.671,56.671,0,0,1,1.082-7.222Z" transform="translate(-21.717 -277.79)" fill="#1f0829" fill-rule="evenodd"/>
            <path id="Trazado_101523" data-name="Trazado 101523" d="M23.01,277.79h2.83a1.571,1.571,0,0,1,1.57,1.57v4.081a1.579,1.579,0,0,1-1.57,1.57H21.91a56.668,56.668,0,0,1,1.1-7.222Z" transform="translate(-21.715 -277.79)" fill="#954cb5" fill-rule="evenodd"/>
            <path id="Trazado_101524" data-name="Trazado 101524" d="M21.965,284.3v.186h2.094v-2.662a.577.577,0,0,1,.577-.577h0a.586.586,0,0,1,.577.577v7.054a.967.967,0,0,1-.932,1.02H21.69a54.443,54.443,0,0,1,.275-5.6Z" transform="translate(-21.69 -278.18)" fill="#3f2c44" fill-rule="evenodd"/>
            <rect id="Rectángulo_33986" data-name="Rectángulo 33986" width="9.84" height="7.222" rx="1.77" transform="translate(25.19 0)" fill="#1f0829"/>
            <rect id="Rectángulo_33987" data-name="Rectángulo 33987" width="8.429" height="7.222" rx="1.77" transform="translate(25.19 0)" fill="#954cb5"/>
            <path id="Trazado_101525" data-name="Trazado 101525" d="M52.787,281.27h0a.586.586,0,0,1,.577.577v2.662h2.094v-2.662a.577.577,0,0,1,.577-.577h0a.577.577,0,0,1,.568.577V288.9a.958.958,0,0,1-.949,1H53.168a.958.958,0,0,1-.958-.958v-7.054a.577.577,0,0,1,.577-.621Z" transform="translate(-25.13 -278.182)" fill="#3f2c44" fill-rule="evenodd"/>
            <path id="Trazado_101526" data-name="Trazado 101526" d="M21.75,293.83H59.237a1.154,1.154,0,0,1,1.153,1.154h0a1.153,1.153,0,0,1-1.153,1.153H21.892C21.83,295.374,21.777,294.6,21.75,293.83Z" transform="translate(-21.697 -279.598)" fill="#1f0829" fill-rule="evenodd"/>
            <path id="Trazado_101527" data-name="Trazado 101527" d="M22.22,299.32H59.29a1.153,1.153,0,0,1,1.153,1.153h0a1.153,1.153,0,0,1-1.153,1.153H22.575C22.442,300.864,22.326,300.092,22.22,299.32Z" transform="translate(-21.75 -280.217)" fill="#1f0829" fill-rule="evenodd"/>
            <path id="Trazado_101528" data-name="Trazado 101528" d="M23.2,304.81H59.4a1.153,1.153,0,0,1,1.153,1.153h0a1.153,1.153,0,0,1-1.153,1.145H23.777C23.573,306.345,23.377,305.582,23.2,304.81Z" transform="translate(-21.86 -280.836)" fill="#1f0829" fill-rule="evenodd"/>
            <path id="Trazado_101529" data-name="Trazado 101529" d="M24.72,310.3H59.572a1.153,1.153,0,0,1,1.153,1.145h0a1.153,1.153,0,0,1-1.153,1.153H25.527C25.235,311.808,24.968,311.072,24.72,310.3Z" transform="translate(-22.031 -281.455)" fill="#1f0829" fill-rule="evenodd"/>
          </g>
          <path id="Trazado_101530" data-name="Trazado 101530" d="M124.757,299.865a122.443,122.443,0,0,1,3.718,18.313H74.155c-.2-7.009.39-12.582,2.3-15.084C84.421,292.633,119.1,293.405,124.757,299.865Z" transform="translate(-17.125 -39.795)" fill="#05304b" fill-rule="evenodd"/>
          <path id="Trazado_101531" data-name="Trazado 101531" d="M120.152,272.372a75.674,75.674,0,0,0,.337,10.248c-3.62-1.6-7.693,1.145-7.533,4.161.2,3.948-.275,6.53,4.756,14.152,2.36,3.549,4.436,4.623,6.007,4.747-2.378,1.775-5.1,3.425-7.169,3.815,0,0-.4.177-.976-.665s-2.893-9.973-4.436-12.147c-.5-.692-.1-6.9.683-15.084-8.136,2.662-21.534,2.112-27.621,0a4.925,4.925,0,0,1-.79-1.686c.222-.453,4.534-6.859,9.671-14.134,4.507,7.1,8.4,13,8.4,13Z" transform="translate(-18.172 -36.49)" fill="#004268" fill-rule="evenodd"/>
          <path id="Trazado_101532" data-name="Trazado 101532" d="M81.33,269.973a15.974,15.974,0,0,0,.408-1.846,16.6,16.6,0,0,0,.133-2.325,43.583,43.583,0,0,0-3.185-20.789c-4.907-12.351-12.147-32.723-12.156-32.732.311-.319.612-.612.887-.887a10.169,10.169,0,0,1,2.875-2.121,20.93,20.93,0,0,1,7.1-2.467H77.5c5.439-.941,12.1-.772,20.922-1.908.541,0,.887.089,1.384.1,6.211.08,23.5,21.605,20.771,32.661a94.568,94.568,0,0,0-1.925,14.143c-.541,8.3-.887,22.856.053,24.9s11.614,22.413,12.173,23.806c2.449,6.087-41.1,8.4-55.357-4.01a110.088,110.088,0,0,1,3.043-15.439,92.106,92.106,0,0,0,2.768-11.082Z" transform="translate(-16.269 -29.627)" fill="#fff" fill-rule="evenodd"/>
          <path id="Trazado_101533" data-name="Trazado 101533" d="M81.33,270.042a15.972,15.972,0,0,0,.408-1.846,16.6,16.6,0,0,0,.133-2.325,43.583,43.583,0,0,0-3.185-20.789c-4.907-12.351-12.147-32.723-12.156-32.732l.887-.887a10.169,10.169,0,0,1,2.875-2.121,20.931,20.931,0,0,1,7.1-2.467H77.5c1.358-.24,3.034-1.2,4.552-1.331,2.147-.186,4.223.479,6.77.319,0,0-14.525,11.055.346,39.04,7.187,13.549.577,22.182-8.3,27A7.249,7.249,0,0,0,81.33,270.042Z" transform="translate(-16.269 -29.696)" fill="#fdf1ef" fill-rule="evenodd"/>
          <path id="Trazado_101534" data-name="Trazado 101534" d="M84.586,185l.355,4.738s.311,9.716.364,11.2a2.662,2.662,0,0,1-1.322,1.961c-.949.683,3.4,2.786,1.677,3.132,0,0,7.178,0,11.881-.1,2.964-.053,4.534,2.822,3.957-3.549h-.1c-1.056-.444-.577,0-1.491-.79-.133-.115-.266-.248-.426-.408-1.677-1.712-1.854-9.618-.3-11.73S84.586,185,84.586,185Z" transform="translate(-18.221 -27.384)" fill="#e8685b" fill-rule="evenodd"/>
          <path id="Trazado_101535" data-name="Trazado 101535" d="M147.445,225.221l4.1-.7s3.034,5.1-2.085,14.693c0,0-2.165-3.061-2.4-4.747S147.445,225.221,147.445,225.221Z" transform="translate(-25.341 -31.839)" fill="#f8cfbe" fill-rule="evenodd"/>
          <path id="Trazado_101536" data-name="Trazado 101536" d="M110.976,204.7c11.535,4.5,26.973,12.307,38.659,17.648,3.292,1.508,6.211,2.813,6.841.106,1.473-6.087,2.431-18.872,2.848-26.911.106-2.032-2.129-4.135-2.662-5.324-.3-.612,3.771-2.183,4.374-2.023,2.147.55,4.942-1.437,5.962.106a26.1,26.1,0,0,0-.7,6.468c.2,6.734,1.322,18.375-2.023,36.059-.044.133.639-2.4-.133.417-.594,2.192-3.318,4.241-5.7,4.569-4.436.63-31.33-8.261-36.041-10.647a62.479,62.479,0,0,1-7.347-4.348C116.867,216.359,109.53,208.844,110.976,204.7Z" transform="translate(-21.258 -27.689)" fill="#f4ad85" fill-rule="evenodd"/>
          <path id="Trazado_101537" data-name="Trazado 101537" d="M169.151,188.246c.887,0,1.393-.213,1.775.408a21.934,21.934,0,0,0-.887,6.211c.2,6.734,1.322,18.376-2.023,36.059-.044.133.639-2.4-.133.417-.594,2.192-3.318,4.241-5.7,4.569-2.121.3-9.441-1.6-16.991-3.913-.47-3.425-.754-5.741-.754-5.741l4.525-3.549s2.254,6.459,4.144,7.986,8.624,2.431,10.647,1.6,4.569-19.706,4.436-27.9-.71-10.843-1.429-12.422C166.338,190.952,167.82,190.091,169.151,188.246Z" transform="translate(-25.052 -27.746)" fill="#ef8871" fill-rule="evenodd"/>
          <path id="Trazado_101538" data-name="Trazado 101538" d="M109,207.168l1.34-.648a359.894,359.894,0,0,1,36.937,15.971c-1.224,1.455-4.481,9.946-2.085,14.693l-15.43-1.775Z" transform="translate(-21.057 -29.81)" fill="#fff" fill-rule="evenodd"/>
          <path id="Trazado_101539" data-name="Trazado 101539" d="M109,207.168l1.34-.648h.674l.115.044h.55l.133.053h0l.151.053.124.053h0l.16.062h.169l.169.062h.186l.177.071h.062l.133.044.2.08h0l.177.071.2.071h0l.213.08.186.071h0l.222.089.151.053h.08l.231.089.124.053.115.044h0l.461.186.257.1h.044l.213.08.266.106h0l.257.106.248.1h0l.284.115.2.08h.08l.293.115.169.071.124.053.3.115.124.053.177.071.311.124.24.089h.08l.319.133h0l.3.124.3.124h0l.328.133.266.106h.08l.337.142.213.089.133.053.355.142a36.378,36.378,0,0,0,6.513,11.765,14.046,14.046,0,0,0,16.29,4.436c-.887,3.141-1.34,7.045,0,9.76l-26.006-3.043Z" transform="translate(-21.057 -29.81)" fill="#fdf1ef" fill-rule="evenodd"/>
          <path id="Trazado_101540" data-name="Trazado 101540" d="M51.829,254l-1.349.692s.142,1.615,4.436,4.561a39.857,39.857,0,0,0,7.728,4.206l.142-3.46Z" transform="translate(-14.46 -35.162)" fill="#f8cfbe" fill-rule="evenodd"/>
          <path id="Trazado_101541" data-name="Trazado 101541" d="M101.514,205.113c15.084,15.181-5.492,23.229-15.164,11.073-6.042-7.577-8.784-9.29-8.784-9.29a.8.8,0,0,0-.639-.142c-.408.062-3.842,1.287-4.215,1.42s-.408.355-.408.355S91.2,223.178,76.848,241.1c0,0,11.606,15.013.186,39.688,0,0-9.095,19.52-4.33,23.956s60.752-2.91,60.752-2.91-8.873-16.858-10.922-20.975-3.7-8.394-3-19.281,2.8-23.149,2.351-30.061-14.374-23.451-15.084-24.6S102.207,204.811,101.514,205.113Z" transform="translate(-16.81 -29.645)" fill="#4b9be1" fill-rule="evenodd"/>
          <path id="Trazado_101542" data-name="Trazado 101542" d="M82.137,231.36c-.825,6.211-3.5,10.772-5.324,12.706,0,0,11.606,15.013.186,39.688,0,0-7.985,16.468-5.741,23.211s7.054-1.109,10.55-1.136c.479-20.594,3.549-61.107,38.508-50.442.523-4.942,1.1-9.76,1.4-13.957C108.525,246.524,84.081,251.732,82.137,231.36Z" transform="translate(-16.758 -32.61)" fill="#1762a3" fill-rule="evenodd"/>
          <path id="Trazado_101543" data-name="Trazado 101543" d="M63.707,213.977c-1.775,3.1-17.941,47.86-16.273,56.786s14.2,25.252,20.727,29.653c0,0,.736.444,1.145-.612s1.872-.843,3.381-1.775c-6.805-11.774-10.319-15.865-14.56-28.925-2.325-7.16,12.866-26.29,15.527-30.824C80.007,227.482,67.638,207.19,63.707,213.977Z" transform="translate(-14.103 -30.497)" fill="#f4ad85" fill-rule="evenodd"/>
          <path id="Trazado_101544" data-name="Trazado 101544" d="M83.675,312.217a4.969,4.969,0,0,0-4.818-5.057l-4.72-.16a4.951,4.951,0,0,0-5.066,4.809h0v.373Z" transform="translate(-16.556 -41.136)" fill="#f4ad85" fill-rule="evenodd"/>
          <g id="Grupo_87538" data-name="Grupo 87538" transform="translate(32.003 111.787)">
            <path id="Trazado_101545" data-name="Trazado 101545" d="M53.98,144.849a10.922,10.922,0,1,0,8.314,1.021A10.94,10.94,0,0,0,53.98,144.849Z" transform="translate(-45.952 -134.6)" fill="#bf8920" fill-rule="evenodd"/>
            <path id="Trazado_101546" data-name="Trazado 101546" d="M72.462,138.762s-8.269-3.549-12.688,4.915a34.524,34.524,0,0,0-2.742,26.538c.479,1.482,6.451,18.979,22.182,17.071C95.629,185.282,103.17,171.6,103.17,171.6,120.153,159.187,91.379,118.9,72.462,138.762Z" transform="translate(-47.035 -133.349)" fill="#bf8920" fill-rule="evenodd"/>
            <path id="Trazado_101547" data-name="Trazado 101547" d="M56.763,152.9a33.512,33.512,0,0,0,.257,18.908c.382,1.216,6.317,19.041,22.182,17.116-1.961-10.266-3.735-17.7-3.735-17.7l16.379-9.512L91.26,147.84C69.176,176.881,56.772,152.915,56.763,152.9Z" transform="translate(-47.032 -134.983)" fill="#7f5b16" fill-rule="evenodd"/>
            <path id="Trazado_101548" data-name="Trazado 101548" d="M103.734,176.72c-4.277-7.453-28.144-.781-28.144-.781l-4.942-3.549s-8.8,2.147-5.625,13.833a17.612,17.612,0,0,0,15.164,5.448C94.32,189.958,101.9,179.568,103.734,176.72Z" transform="translate(-48.024 -137.75)" fill="#402e0b" fill-rule="evenodd"/>
            <path id="Trazado_101549" data-name="Trazado 101549" d="M67.819,173.734A5.031,5.031,0,1,0,73.5,178.01,5.031,5.031,0,0,0,67.819,173.734Z" transform="translate(-47.929 -137.896)" fill="#e8685b" fill-rule="evenodd"/>
            <path id="Trazado_101550" data-name="Trazado 101550" d="M82.988,142.479h0a17.266,17.266,0,0,0-14.649,19.44l2.183,15.492a17.266,17.266,0,0,0,19.44,14.64h0a17.258,17.258,0,0,0,14.64-19.44l-2.174-15.492A17.266,17.266,0,0,0,82.988,142.479Z" transform="translate(-48.458 -134.36)" fill="#f4ad85" fill-rule="evenodd"/>
            <path id="Trazado_101551" data-name="Trazado 101551" d="M68.978,154.36a17.124,17.124,0,0,0-.639,7.56l2.183,15.492a17.266,17.266,0,0,0,19.44,14.64h0c.559-.08,1.1-.186,1.641-.319-18.633-.47-22.484-21.747-14.818-23.752C86.253,165.5,93.9,156.658,93.9,156.658c1.854,2.493,6.211,3.851,9.095,4.516l-.568-4.055a17.284,17.284,0,0,0-16.592-14.8c-2.733.71-5.155,1.57-6.4,1.775-3.247.461-7.329,6.406-9.849,9.618a7.5,7.5,0,0,1-.612.648Z" transform="translate(-48.457 -134.36)" fill="#ef8871" fill-rule="evenodd"/>
            <path id="Trazado_101552" data-name="Trazado 101552" d="M89.579,185.055a4.516,4.516,0,1,0,8.944-1.26h0a.772.772,0,0,0-.887-.657l-7.391,1.038a.79.79,0,0,0-.665.887Z" transform="translate(-50.869 -138.961)" fill="#fff" fill-rule="evenodd"/>
            <g id="Grupo_87536" data-name="Grupo 87536" transform="translate(28.708 39.364)">
              <path id="Trazado_101553" data-name="Trazado 101553" d="M104.357,177.737a2.493,2.493,0,1,0,2.813,2.121A2.493,2.493,0,0,0,104.357,177.737Z" transform="translate(-81.001 -177.714)" fill="#e8685b" fill-rule="evenodd"/>
              <path id="Trazado_101554" data-name="Trazado 101554" d="M80.457,181.107a2.484,2.484,0,1,0,1.847.476,2.493,2.493,0,0,0-1.847-.476Z" transform="translate(-78.307 -178.094)" fill="#e8685b" fill-rule="evenodd"/>
            </g>
            <path id="Trazado_101555" data-name="Trazado 101555" d="M67.21,173.741l3.443-2.041s2.582,4.161-.639,6.211l-.328-2.129a2.129,2.129,0,0,0-2.475-2.041Z" transform="translate(-48.349 -137.672)" fill="#1f0829" fill-rule="evenodd"/>
            <path id="Trazado_101556" data-name="Trazado 101556" d="M92.413,147.016s0,13.007-24.338,22.98L65.75,151.523,77.382,140.61l12.821-.08s7.32,6.158,8.083,7.018,6.451,9.6,6.451,9.6l-2.218,2.378S96.743,157.805,92.413,147.016Z" transform="translate(-48.184 -134.159)" fill="#bf8920" fill-rule="evenodd"/>
            <path id="Trazado_101557" data-name="Trazado 101557" d="M92.554,147.84s0,13.007-24.338,22.98L67,161.291C72.874,163.634,81.507,162.374,92.554,147.84Z" transform="translate(-48.325 -134.983)" fill="#7f5b16" fill-rule="evenodd"/>
            <path id="Trazado_101558" data-name="Trazado 101558" d="M58.239,147.579v.044c-.2.5-.382,1.011-.559,1.526C72.151,162.9,86.073,151.6,92.621,135.565a18.429,18.429,0,0,0-7.24-2.165C82.417,149.469,67.538,157,58.239,147.579Z" transform="translate(-47.274 -133.355)" fill="#fed380" fill-rule="evenodd"/>
            <g id="Grupo_87537" data-name="Grupo 87537" transform="translate(29.275 33.441)">
              <path id="Trazado_101559" data-name="Trazado 101559" d="M83.776,176.643a.63.63,0,0,0,.71.541.648.648,0,0,0,.541-.719,3.061,3.061,0,0,0-3.452-2.6,3.017,3.017,0,0,0-2.014,1.189,3.061,3.061,0,0,0-.586,2.263.648.648,0,0,0,.719.541.63.63,0,0,0,.532-.719,1.792,1.792,0,1,1,3.549-.5Z" transform="translate(-78.947 -171.354)" fill="#1f0829" fill-rule="evenodd"/>
              <path id="Trazado_101560" data-name="Trazado 101560" d="M103.383,173.844a.639.639,0,0,0,.719.541.63.63,0,0,0,.532-.719,3.071,3.071,0,1,0-6.078.887.621.621,0,0,0,.71.541.63.63,0,0,0,.541-.719,1.809,1.809,0,0,1,3.576-.532Z" transform="translate(-81.154 -171.038)" fill="#1f0829" fill-rule="evenodd"/>
            </g>
            <path id="Trazado_101561" data-name="Trazado 101561" d="M73.493,175.318l-5.324.745a.807.807,0,0,1-.222-1.6l5.324-.745-.089-.621a2.014,2.014,0,0,1,1.908-2.484l9.875-1.393a2.014,2.014,0,0,1,2.475,1.925v.337l.062.426,4.108-.577-.053-.435-.053-.337a2.023,2.023,0,0,1,1.9-2.538l8.793-1.233a2,2,0,0,1,2.52,1.863l1.091,7.187a2.83,2.83,0,0,1-2.538,3.256h-.08l-5.1.719c-4.241.6-5.545-3.452-6.149-6.894l-4.152.586c.373,3.478.231,7.728-4,8.323l-1.553.222L77.6,182.7h-.08a2.822,2.822,0,0,1-3.336-2.422l-.692-4.969Zm3.886,5.794,6.211-.887c3.549-.5,2.813-5.545,2.378-8.536v-.337a.682.682,0,0,1,0-.133s0-.515-.692-.417L75.4,172.195c-.586.08-.568.453-.55.568a.382.382,0,0,1,0,.106l.2,1.411.807,5.767a1.278,1.278,0,0,0,1.446,1.118Zm25.66-3.611a1.269,1.269,0,0,0,1.171-1.437l-1-7.178a.506.506,0,0,1,0-.115c0-.106-.106-.47-.692-.39L93.7,169.63c-.683.1-.55.594-.55.594a.524.524,0,0,1,0,.124l.053.337c.408,2.99,1.109,8.048,4.64,7.551l5.1-.719Z" transform="translate(-48.358 -137.111)" fill="#1f0829" fill-rule="evenodd"/>
          </g>
          <g id="Grupo_87539" data-name="Grupo 87539" transform="translate(88.831 222.103)">
            <rect id="Rectángulo_33988" data-name="Rectángulo 33988" width="2.768" height="11.135" transform="translate(31.277 6.353)" fill="#1f0829"/>
            <rect id="Rectángulo_33989" data-name="Rectángulo 33989" width="20.771" height="8.722" rx="1.91" transform="translate(22.271)" fill="#1f0829"/>
            <rect id="Rectángulo_33990" data-name="Rectángulo 33990" width="18.242" height="6.184" rx="0.48" transform="translate(23.531 1.269)" fill="#fff"/>
            <rect id="Rectángulo_33991" data-name="Rectángulo 33991" width="28.597" height="36.538" rx="4.15" transform="translate(9.583 15.625)" fill="#954cb5"/>
            <path id="Trazado_101562" data-name="Trazado 101562" d="M110,295.824V314.51a4.72,4.72,0,0,0,4.7,4.7h38.339a4.72,4.72,0,0,0,4.711-4.7V295.824a2.094,2.094,0,0,0-2.094-2.094H112.094A2.094,2.094,0,0,0,110,295.824Z" transform="translate(-110 -261.744)" fill="#3f2c44" fill-rule="evenodd"/>
            <path id="Trazado_101563" data-name="Trazado 101563" d="M115.82,289.845v18.686a4.72,4.72,0,0,0,4.7,4.7h28.029a4.72,4.72,0,0,0,4.711-4.7V289.845a2.1,2.1,0,0,0-2.094-2.085H117.914A2.094,2.094,0,0,0,115.82,289.845Z" transform="translate(-110.656 -261.071)" fill="#3f2c44" fill-rule="evenodd"/>
            <path id="Trazado_101564" data-name="Trazado 101564" d="M153.807,306.056V289.845a2.1,2.1,0,0,0-2.094-2.085H120.8v13.6a4.72,4.72,0,0,0,4.711,4.7h28.3Z" transform="translate(-111.217 -261.071)" fill="#954cb5" fill-rule="evenodd"/>
            <path id="Trazado_101565" data-name="Trazado 101565" d="M125.485,275.29v4.046a3.691,3.691,0,0,0,3.682,3.682h20.2v3.336H120.8v-7.382a3.7,3.7,0,0,1,3.691-3.682h.994Z" transform="translate(-111.217 -259.665)" fill="#3f2c44" fill-rule="evenodd"/>
            <path id="Trazado_101566" data-name="Trazado 101566" d="M159.567,293.73v13.114a2.094,2.094,0,0,0,2.094,2.094h1.482v1.775H157.73a4.729,4.729,0,0,0,.257-1.517V293.73Z" transform="translate(-115.38 -261.744)" fill="#1f0829" fill-rule="evenodd"/>
            <path id="Trazado_101567" data-name="Trazado 101567" d="M113.549,293.73v13.114a2.094,2.094,0,0,1-2.094,2.094H110v1.775h5.412a4.5,4.5,0,0,1-.257-1.517V293.73Z" transform="translate(-110 -261.744)" fill="#1f0829" fill-rule="evenodd"/>
            <path id="Trazado_101568" data-name="Trazado 101568" d="M152.913,290.06H137.048a.967.967,0,0,0-.958.958h0a.958.958,0,0,0,.958.958h15.865a.949.949,0,0,0,.949-.958h0a.958.958,0,0,0-.949-.958Z" transform="translate(-112.941 -261.33)" fill="#3f2c44" fill-rule="evenodd"/>
            <path id="Trazado_101569" data-name="Trazado 101569" d="M132.428,290.06h.887a.967.967,0,0,1,.958.958h0a.958.958,0,0,1-.958.958h-.887a.958.958,0,0,1-.958-.958h0A.958.958,0,0,1,132.428,290.06Z" transform="translate(-112.42 -261.33)" fill="#fff" fill-rule="evenodd"/>
            <rect id="Rectángulo_33992" data-name="Rectángulo 33992" width="8.642" height="9.21" rx="1.25" transform="translate(32.013 33.459)" fill="#fff"/>
            <path id="Trazado_101570" data-name="Trazado 101570" d="M141.439,295.39H124.58a.47.47,0,0,0-.47.47h0a.47.47,0,0,0,.47.47h16.858a.47.47,0,0,0,.47-.47h0A.47.47,0,0,0,141.439,295.39Z" transform="translate(-111.591 -261.931)" fill="#3f2c44" fill-rule="evenodd"/>
            <path id="Trazado_101571" data-name="Trazado 101571" d="M141.439,298.5H124.58a.47.47,0,0,0-.47.47h0a.47.47,0,0,0,.47.47h16.858a.47.47,0,0,0,.47-.47h0A.47.47,0,0,0,141.439,298.5Z" transform="translate(-111.591 -262.281)" fill="#3f2c44" fill-rule="evenodd"/>
            <path id="Trazado_101572" data-name="Trazado 101572" d="M141.439,301.61H124.58a.47.47,0,0,0-.47.47h0a.47.47,0,0,0,.47.47h16.858a.47.47,0,0,0,.47-.47h0a.461.461,0,0,0-.47-.47Z" transform="translate(-111.591 -262.632)" fill="#3f2c44" fill-rule="evenodd"/>
            <rect id="Rectángulo_33993" data-name="Rectángulo 33993" width="17.772" height="0.941" rx="0.47" transform="translate(12.546 41.729)" fill="#3f2c44"/>
          </g>
          <g id="Grupo_87540" data-name="Grupo 87540" transform="translate(13.962 271.081)">
            <path id="Trazado_101573" data-name="Trazado 101573" d="M238.581,327.57H33.54A55.127,55.127,0,0,0,78.135,350.4H238.581a3.31,3.31,0,0,0,3.3-3.292V330.88A3.318,3.318,0,0,0,238.581,327.57Z" transform="translate(-26.513 -314.536)" fill="#e8685b" fill-rule="evenodd"/>
            <path id="Trazado_101574" data-name="Trazado 101574" d="M197.64,351.153h-7.1v-16.9h7.1Zm-114.876,0a54.966,54.966,0,0,1-8.154-.6v-16.3h9.041v16.9Zm56.945,0H88.176v-16.9h51.551v16.9Zm23.433,0H154.1v-16.9h9.041v16.9Zm14.8,0h-5.324v-16.9h5.324Z" transform="translate(-31.142 -315.289)" fill="#ef8871" fill-rule="evenodd"/>
            <path id="Trazado_101575" data-name="Trazado 101575" d="M238.581,327.57H33.54a55.9,55.9,0,0,0,9.645,10.248h198.7v-6.947A3.318,3.318,0,0,0,238.581,327.57Z" transform="translate(-26.513 -314.536)" fill="#1f0829" fill-rule="evenodd"/>
            <path id="Trazado_101576" data-name="Trazado 101576" d="M271.733,312.88H25.62a55.411,55.411,0,0,0,12.422,19.4H271.733a2.884,2.884,0,0,0,2.866-2.866V315.755A2.884,2.884,0,0,0,271.733,312.88Z" transform="translate(-25.62 -312.88)" fill="#f4c6b3" fill-rule="evenodd"/>
            <path id="Trazado_101577" data-name="Trazado 101577" d="M109.556,312.88H102.05v19.4h7.506Zm154.573,0H251.423v19.4h12.706Zm-19.059,0H143.992v19.4H245.07Zm-109.525,0H122.839v19.4h12.706Z" transform="translate(-34.235 -312.88)" fill="#f3bba2" fill-rule="evenodd"/>
            <path id="Trazado_101578" data-name="Trazado 101578" d="M262.3,344.75a1.606,1.606,0,1,0,1.606,1.606,1.606,1.606,0,0,0-1.606-1.606Z" transform="translate(-52.118 -316.472)" fill="#1f0829" fill-rule="evenodd"/>
            <path id="Trazado_101579" data-name="Trazado 101579" d="M28.186,318.749H81.733l6.06,3.5a.532.532,0,0,0,.257.071H274.8v-1.029H88.183l-6.025-3.478a.542.542,0,0,0-.293-.089H27.68C27.84,318.066,28.008,318.4,28.186,318.749Z" transform="translate(-25.852 -313.426)" fill="#fff" fill-rule="evenodd"/>
          </g>
          <g id="Grupo_87541" data-name="Grupo 87541" transform="translate(137.766 113.397)">
            <path id="Trazado_101580" data-name="Trazado 101580" d="M183.313,214.541s-3.185,1.526-6.211,9.21-12.227,53.068-11.943,59.332,19.662,41.7,19.662,41.7,3.877-6.38,4.1-9.423-2.5-7.56-2.5-7.56-6.4-21.579-7.888-29.866,10.381-25.775,10.381-25.775l9.015-23.681S189.861,211.027,183.313,214.541Z" transform="translate(-165.153 -144.058)" fill="#97b2bc" fill-rule="evenodd"/>
            <path id="Trazado_101581" data-name="Trazado 101581" d="M180.208,280.568c-1.491-8.278,10.337-25.793,10.337-25.793l3.07-8.065c-.887-5.954-1.854-10.585-2.369-9.2-.967,2.564-9.76,28.162-11.038,32.412S180.208,280.568,180.208,280.568Z" transform="translate(-166.786 -146.672)" fill="#7d939d" fill-rule="evenodd"/>
            <path id="Trazado_101582" data-name="Trazado 101582" d="M182.929,326.241c2.174,4.1,3.673,6.841,3.673,6.841s3.877-6.38,4.1-9.423-2.5-7.56-2.5-7.56-5.794-19.52-7.639-28.579c1.074,5.563,5.324,27.506,5.767,29.325S186.141,322.55,182.929,326.241Z" transform="translate(-166.889 -152.338)" fill="#7d939d" fill-rule="evenodd"/>
            <path id="Trazado_101583" data-name="Trazado 101583" d="M255.542,223.075l9.095-6.495a28.721,28.721,0,0,1,3.647,6.317,131.159,131.159,0,0,1,5.892,22.519c2.848,17.071,5.7,40.54,4.845,48.223s-20.487,27.887-22.768,28.171-3.132-6.4-3.132-6.4,11.1-16.5,12.52-23.069-9.964-42.66-9.964-42.66Z" transform="translate(-175.069 -144.341)" fill="#7d939d" fill-rule="evenodd"/>
            <path id="Trazado_101584" data-name="Trazado 101584" d="M189.512,324.64a113.161,113.161,0,0,0-3.132,25.429h64.594s1.987-12.129-1.642-21.091Z" transform="translate(-167.546 -156.522)" fill="#1f0829" stroke="#05304b" stroke-linecap="round" stroke-linejoin="round" stroke-width="0.22" fill-rule="evenodd"/>
            <path id="Trazado_101585" data-name="Trazado 101585" d="M191.831,305.32s-2.458,14.152-2.955,17.2-.816,6.912,10.284,10.754,38.055,5.049,47.168.639c0,0,4.942-2.121,4.516-6.53s-4.019-17.914-4.019-17.914Z" transform="translate(-167.806 -154.344)" fill="#fff" fill-rule="evenodd"/>
            <path id="Trazado_101586" data-name="Trazado 101586" d="M191.831,305.32s-2.458,14.152-2.955,17.2c-.435,2.715-.736,6.051,6.956,9.449a18.722,18.722,0,0,1-.8-9.13c1.224-6.087,5.324-9.689,9.52-9.387s21.437.719,34.417.719c4.436,0,7.5.887,9.583,2.094-.887-3.718-1.775-6.823-1.775-6.823Z" transform="translate(-167.806 -154.344)" fill="#e6e4eb" fill-rule="evenodd"/>
            <path id="Trazado_101587" data-name="Trazado 101587" d="M246.477,301.991s1.145,1.428,1.358,6.761a2.546,2.546,0,0,1-1.89,1.846c-1.562.355-32.616,4.117-54.381-3.283,0,0-1.89-.781-2.351-2.094s1.775-6.371,1.775-6.371Z" transform="translate(-167.858 -153.615)" fill="#5f6879" fill-rule="evenodd"/>
            <path id="Trazado_101588" data-name="Trazado 101588" d="M185.62,213.294s33.1-21.889,67.619-1.775a18.172,18.172,0,0,1,5.235,5.634,78.47,78.47,0,0,1-.3,27.772c-3.265,17.639-9.955,37.133-10.381,45.81a4.268,4.268,0,0,1-3.842,3.771c-3.549.426-43.681,2.44-53.494-5.386a3.212,3.212,0,0,1-.816-2.662c3.381-18.242-.293-20.212-.169-32.829C189.506,253.621,197.021,221.351,185.62,213.294Z" transform="translate(-167.46 -142.812)" fill="#97b2bc" fill-rule="evenodd"/>
            <path id="Trazado_101589" data-name="Trazado 101589" d="M185.62,213.294s33.1-21.889,67.619-1.775a18.172,18.172,0,0,1,5.235,5.634,75.507,75.507,0,0,1,.887,18.917c-5.324-.648-14.3.426-27.568,8.642-20.576,12.75-37.053,16.148-34.826,47.372a18.918,18.918,0,0,1-6.477-2.964,3.212,3.212,0,0,1-.816-2.662c3.381-18.242-.293-20.212-.169-32.829C189.506,253.621,197.021,221.351,185.62,213.294Z" transform="translate(-167.46 -142.812)" fill="#8ea7b0" fill-rule="evenodd"/>
            <path id="Trazado_101590" data-name="Trazado 101590" d="M194.618,294.942a14.534,14.534,0,0,1-3.673-2.014,3.212,3.212,0,0,1-.816-2.662c3.381-18.242-.293-20.212-.169-32.829a106.8,106.8,0,0,0,2.44-20.008h0c.958-2.564,3.478,15.563,4.09,24.48C197,269.247,193.722,285.572,194.618,294.942Z" transform="translate(-167.949 -146.663)" fill="#7d939d" fill-rule="evenodd"/>
            <path id="Trazado_101591" data-name="Trazado 101591" d="M228.638,136.642s-12.085-5.324-20.052,4.232-2.564,21.907-3.842,32.829-21.49,29.28,1.562,40.123c0,0,3.7.887,4.694,6.681s10.39,19.52,27.745,9.254,23.9-30.451,11.668-48.8S254.4,136.642,228.638,136.642Z" transform="translate(-168.554 -135.164)" fill="#717d8c" fill-rule="evenodd"/>
            <path id="Trazado_101592" data-name="Trazado 101592" d="M211.611,139.4a16.619,16.619,0,0,0-1.908,1.952c-5.324,6.406-4.676,14.09-4.037,21.765,4.587,6.965,11.109,12.795,20.212,13.309,9.716.586,16.814-1.322,21.8-3.762a43.323,43.323,0,0,1-.967-4.915C236.73,171.173,213.013,175.423,211.611,139.4Z" transform="translate(-169.672 -135.641)" fill="#a0a8b2" fill-rule="evenodd"/>
            <path id="Trazado_101593" data-name="Trazado 101593" d="M204.894,176.58a17.924,17.924,0,0,1-.151,1.828c-1.287,10.958-21.49,29.28,1.562,40.123,0,0,3.7.887,4.694,6.681s10.39,19.52,27.745,9.254,23.9-30.451,11.668-48.8c-.186-.275-.355-.55-.524-.825-2.768,27.177-42.731,20.949-44.994-8.261Z" transform="translate(-168.554 -139.832)" fill="#415165" fill-rule="evenodd"/>
            <path id="Trazado_101594" data-name="Trazado 101594" d="M204.792,177.56a8.741,8.741,0,0,1-.089.958c-1.287,10.958-21.49,29.28,1.562,40.123,0,0,3.7.887,4.694,6.681s10.39,19.52,27.745,9.254,23.9-30.451,11.668-48.8a22.979,22.979,0,0,1-3.114,26.734C236.069,225.544,206.105,219.289,204.792,177.56Z" transform="translate(-168.549 -139.943)" fill="#12263f" fill-rule="evenodd"/>
            <path id="Trazado_101595" data-name="Trazado 101595" d="M185,214.93v.089c1.349,1.118,11.109,10.381,5.066,38.721-.417.665-.949,1.526-1.544,2.529.1-.461.2-.887.311-1.4,6.8-30.1-3.993-38.765-4.543-39.182l-.089-.08a7.761,7.761,0,0,1,.8-.674Z" transform="translate(-167.3 -144.155)" fill="#526675" fill-rule="evenodd"/>
          </g>
          <g id="Grupo_87542" data-name="Grupo 87542" transform="translate(213.977 91.359)">
            <path id="Trazado_101596" data-name="Trazado 101596" d="M365.764,205.052c0-.887-1.854-13.212-1.854-13.212a39.732,39.732,0,0,1,17.08,16.77c6.255,11.952,13.371,48.658,10.523,61.746s-19.343,24.755-19.343,24.755Z" transform="translate(-263.768 -119.514)" fill="#4b9be1" fill-rule="evenodd"/>
            <path id="Trazado_101597" data-name="Trazado 101597" d="M365.764,205.052c0-.887-1.854-13.212-1.854-13.212a39.732,39.732,0,0,1,17.08,16.77,42.759,42.759,0,0,1,1.9,4.294,9.028,9.028,0,0,0-5.7,7.56c-1.846,12.085.621,44.861,4.711,52.039,2.112,3.691,5.208,4.064,8.048,2.493-5.013,11.091-17.746,20.115-17.746,20.115Z" transform="translate(-263.768 -119.514)" fill="#1762a3" fill-rule="evenodd"/>
            <path id="Trazado_101598" data-name="Trazado 101598" d="M283.924,339.058s-1.349,2.795,0,12.315h72.934s4.623-3.212,4.339-15.164Z" transform="translate(-254.685 -135.788)" fill="#1f0829" fill-rule="evenodd"/>
            <path id="Trazado_101599" data-name="Trazado 101599" d="M283.675,332.624s-1.917,4.694-1.349,6.539,6.122,7.826,25.465,8.545,39.413-1.145,46.813-5.554,8.749-6.823,8.039-13.016S283.675,332.624,283.675,332.624Z" transform="translate(-254.56 -134.758)" fill="#fff" fill-rule="evenodd"/>
            <path id="Trazado_101600" data-name="Trazado 101600" d="M293.754,200.046l-9.822-3.416a86.774,86.774,0,0,0-17.213,26.184c-7.116,16.512-15.084,37.842-15.652,44.364S261.315,299.048,281.8,307.3s6.539-13.939,6.539-13.939-14.791-22.484-15.368-26.467,8.828-11.233,8.828-11.233,29.591-12.954,28.455-16.938S293.754,200.046,293.754,200.046Z" transform="translate(-251.046 -120.054)" fill="#4b9be1" fill-rule="evenodd"/>
            <path id="Trazado_101601" data-name="Trazado 101601" d="M251.06,271.693c.364,7.71,11.109,31.294,30.744,39.2,3.851,1.553,6.486,2.032,8.225,1.775a126,126,0,0,1-1.846-15.971c-1.02-1.562-6.77-10.381-10.9-17.488-2.014,9.716-11.348,13.433-17.559,7.222a36,36,0,0,1-8.66-14.755Zm21.916-1.207c-.568-3.984,8.828-11.233,8.828-11.233s4.019-1.775,9.041-4.179c2.121-20.407.887-31.135-.5-25.021-1.642,7.1-7.986,16.033-13.824,28.632s-3.549,11.8-3.549,11.8Z" transform="translate(-251.048 -123.629)" fill="#1762a3" fill-rule="evenodd"/>
            <path id="Trazado_101602" data-name="Trazado 101602" d="M321.651,117.58h0A12.422,12.422,0,0,1,334,129.913v24.6a12.369,12.369,0,0,1-12.351,12.324h0A12.369,12.369,0,0,1,309.3,154.508v-24.6A12.422,12.422,0,0,1,321.651,117.58Z" transform="translate(-257.613 -111.144)" fill="#f4ad85" fill-rule="evenodd"/>
            <path id="Trazado_101603" data-name="Trazado 101603" d="M322.221,156.66h14.463a2.05,2.05,0,0,1,2.058,2.076v28.091a2.05,2.05,0,0,1-2.05,2.05H322.23a2.05,2.05,0,0,1-2.05-2.05V158.736a2.059,2.059,0,0,1,2.041-2.076Z" transform="translate(-258.839 -115.549)" fill="#f09576"/>
            <path id="Trazado_101604" data-name="Trazado 101604" d="M305.189,135.12s-8.172-1.2-9.955-9.219,2.822-19.467,19.165-14.267h13.593c9.174,0,16.761,1.837,21.224,7.9,7.222,9.822,5.4,31.764-3.46,40.478-10.1,9.946-26.485,4.836-26.388-8.571h0a6.291,6.291,0,0,0-.5-9.352c-1.7-1.375-3.957-1.029-3.957,5V152.4a4.818,4.818,0,0,1-3.638-4.756C311.276,143.691,311.276,134.632,305.189,135.12Z" transform="translate(-255.986 -110.326)" fill="#954cb5" fill-rule="evenodd"/>
            <path id="Trazado_101605" data-name="Trazado 101605" d="M314.69,111.18c.63.16,1.278.337,1.943.55h9.911c2.271,18.881,18.775,23.069,29.36,23.806,0,1.349,0,2.706-.1,4.064C329.578,141.445,318.718,122.164,314.69,111.18Z" transform="translate(-258.22 -110.422)" fill="#b079c7" fill-rule="evenodd"/>
            <path id="Trazado_101606" data-name="Trazado 101606" d="M305.189,135.94s-8.172-1.2-9.955-9.219a14.844,14.844,0,0,1,.834-9.121c-.044.222-2.129,10.86,5.475,10.86s19.564,1.02,21.508,8.3c1.854,6.921,7.8,26.113,28.393,14.471a24.729,24.729,0,0,1-5.652,9.6c-10.1,9.946-26.485,4.836-26.388-8.571h0a6.291,6.291,0,0,0-.5-9.352c-1.7-1.375-3.957-1.029-3.957,5v5.324a4.818,4.818,0,0,1-3.638-4.756C311.275,144.511,311.275,135.452,305.189,135.94Z" transform="translate(-255.986 -111.146)" fill="#7b1fa2" fill-rule="evenodd"/>
            <path id="Trazado_101607" data-name="Trazado 101607" d="M303.271,188.121s-11.02,2.662-15.971,7.533c0,0,15.794,30.025-2.129,59.048,0,0-4.845,49.226-4.552,54.63s1.278,8.11,4.552,11.1,24.045,8.536,48.8,5.4,29.449-10.647,30.017-13.8,3.239-22.892,1.26-55.064,1.473-63.21-13.309-66.546S303.271,188.121,303.271,188.121Z" transform="translate(-254.378 -119.078)" fill="#4b9be1" fill-rule="evenodd"/>
            <path id="Trazado_101608" data-name="Trazado 101608" d="M304.712,188.126a55.748,55.748,0,0,0-11.322,4.312c.186-.071,6.211-2.4,8.6,2.742s-.754,35.11,34.142,35.11c0,0-11.4-28.677-11.4-33.273,0-2.3-4.037-5.945-8.056-9C309.7,188,304.712,188.126,304.712,188.126Z" transform="translate(-255.819 -119.084)" fill="#1762a3" fill-rule="evenodd"/>
            <path id="Trazado_101609" data-name="Trazado 101609" d="M293.675,230.058a56.982,56.982,0,0,1-8.544,29.191s-4.845,49.226-4.552,54.63,1.278,8.11,4.552,11.1c1.437,1.313,6.211,3.114,13.309,4.436-7.8-17.045-8.411-43.477-5.554-63.689,3.815-27.124,2.458-42.82.816-35.7Z" transform="translate(-254.374 -123.626)" fill="#1762a3" fill-rule="evenodd"/>
            <path id="Trazado_101610" data-name="Trazado 101610" d="M306.15,187.025a5.412,5.412,0,0,1,4.623,2.662c1.712,2.848,1.5,36.707,22.7,39.413,13.487,1.721,20.869-12.91,22.546-26.166,1.393-10.931-2-25.225-18.633-24.666-.089,0-.257,0-.257.071v2.351c-1.136,4.978-8.527,3.851-12.085,1.677C319.228,178.836,311.474,175.819,306.15,187.025Z" transform="translate(-257.258 -117.983)" fill="#fff" fill-rule="evenodd"/>
            <path id="Trazado_101611" data-name="Trazado 101611" d="M341.421,178.3H340.01c-.089,0-.257,0-.257.071V180.7c-1.012,4.436-6.947,4.028-10.763,2.36h0C346.407,194.448,348.634,179.161,341.421,178.3Z" transform="translate(-259.832 -117.988)" fill="#f8cfbe" fill-rule="evenodd"/>
          </g>
          <path id="Trazado_101612" data-name="Trazado 101612" d="M68.157,211.645l-1.9-.115s-2.3,1.5-2.893,3.079-8.784,21.632-12.866,35.26c0,0,9.946,1.233,12.2,8.766,0,0,12.972-17.444,13.682-20.336a28.393,28.393,0,0,0-8.225-26.654Z" transform="translate(-14.462 -30.375)" fill="#fff" fill-rule="evenodd"/>
          <path id="Trazado_101613" data-name="Trazado 101613" d="M69.121,211.645l-1.9-.115a11.748,11.748,0,0,0-1.819,1.517c13.061,4.649,5.253,27.337.532,34.338a12.529,12.529,0,0,1-6.885,5.324,10.834,10.834,0,0,1,4.614,5.936S76.636,241.227,77.346,238.3a28.393,28.393,0,0,0-8.225-26.654Z" transform="translate(-15.426 -30.375)" fill="#fdf1ef" fill-rule="evenodd"/>
          <path id="Trazado_101614" data-name="Trazado 101614" d="M147.645,222.59c-1.908,2.662-5.554,8.944-3.034,15.891l1.082.124c-2.759-6.85,1.02-13.141,2.839-15.589Zm1.775.887.887.426c-1.872,2.662-5.075,8.544-2.662,14.951l-1.074-.124c-2.2-6.539.949-12.457,2.875-15.27Z" transform="translate(-24.974 -31.621)" fill="#3f2c44" fill-rule="evenodd"/>
          <path id="Trazado_101615" data-name="Trazado 101615" d="M51.816,250.2c2.981.355,10.461,1.925,13.9,8.74l-.639.887c-3.212-6.965-10.843-8.4-13.566-8.7C51.612,250.821,51.71,250.51,51.816,250.2Zm-.6,1.881c-.106.319-.2.63-.293.932,3.052.417,9.893,2.05,12.954,8.456l.639-.887c-3.283-6.309-10.071-8.03-13.3-8.5Z" transform="translate(-14.51 -34.734)" fill="#3f2c44" fill-rule="evenodd"/>
          <path id="Trazado_101616" data-name="Trazado 101616" d="M97.311,208.1c-.222,15.971-22.333-3.664-12.653-3.886C84.685,204.21,87.462,207.573,97.311,208.1Z" transform="translate(-18.037 -29.549)" fill="#3f2c44" fill-rule="evenodd"/>
          <path id="Trazado_101617" data-name="Trazado 101617" d="M101.572,203.691s1.6,3.31-2.342,4.339c0,0,1.455,4.383,4.286,3.682S105.405,202.759,101.572,203.691Z" transform="translate(-19.955 -29.483)" fill="#3f2c44" fill-rule="evenodd"/>
          <path id="Trazado_101618" data-name="Trazado 101618" d="M90.532,231.925l6.495-.586a.7.7,0,0,1,.772.71v2.094a.887.887,0,0,1-.772.843l-6.495.594a.7.7,0,0,1-.772-.71v-2.059A.887.887,0,0,1,90.532,231.925Z" transform="translate(-18.888 -32.607)" fill="#fff" fill-rule="evenodd"/>
          <path id="Trazado_101619" data-name="Trazado 101619" d="M172.606,101.72H135.74a5.608,5.608,0,0,0-5.59,5.59v39.466a.6.6,0,0,0,.382.577.63.63,0,0,0,.683-.133l9.529-9.538h31.862a5.608,5.608,0,0,0,5.59-5.59v-24.8A5.608,5.608,0,0,0,172.606,101.72Z" transform="translate(-23.441 -17.997)" fill="#fff" fill-rule="evenodd"/>
          <path id="Trazado_101620" data-name="Trazado 101620" d="M230.29,77.62h36.875a5.616,5.616,0,0,1,5.6,5.6v39.457a.63.63,0,0,1-1.074.444l-9.529-9.529H230.29a5.616,5.616,0,0,1-5.59-5.6V83.219A5.616,5.616,0,0,1,230.29,77.62Z" transform="translate(-34.099 -15.28)" fill="#feb62b" fill-rule="evenodd"/>
          <path id="Trazado_101621" data-name="Trazado 101621" d="M249.783,101.548c-.328-.453-1.18-9.228-1.588-13.611a12.677,12.677,0,0,1,0-3.478c.612-2.893,5.652-2.972,6.335-.1a12,12,0,0,1,0,3.549c-.408,4.383-1.251,13.158-1.588,13.611a2.218,2.218,0,0,1-3.141,0Zm1.57,2.8a1.929,1.929,0,1,1,.018-.018Z" transform="translate(-36.734 -15.801)" fill="#4b9be1" fill-rule="evenodd"/>
        </g>
        <path id="Trazado_101622" data-name="Trazado 101622" d="M114.62,96.149a.559.559,0,0,0-1.118,0v1.313h-1.313a.559.559,0,0,0,0,1.118H113.5V99.9a.559.559,0,1,0,1.118,0V98.616h1.313a.559.559,0,0,0,0-1.118H114.62Z" transform="translate(-21.353 -17.306)" fill="#fff" fill-rule="evenodd"/>
        <path id="Trazado_101623" data-name="Trazado 101623" d="M281.95,169.109a.559.559,0,1,0-1.118,0v1.313h-1.313a.559.559,0,0,0,0,1.118h1.313v1.322a.559.559,0,1,0,1.118,0V171.54h1.313a.559.559,0,0,0,0-1.118H281.95Z" transform="translate(-40.215 -25.53)" fill="#fff" fill-rule="evenodd"/>
        <path id="Trazado_101624" data-name="Trazado 101624" d="M263.94,59.669a.559.559,0,0,0-.559-.559.568.568,0,0,0-.559.559v1.313h-1.313a.559.559,0,1,0,0,1.118h1.313v1.349a.568.568,0,0,0,.559.559.559.559,0,0,0,.559-.559V62.1h1.322a.559.559,0,0,0,0-1.118H263.94Z" transform="translate(-38.185 -13.193)" fill="#fff" fill-rule="evenodd"/>
        <path id="Trazado_101625" data-name="Trazado 101625" d="M179.9,72.139a.559.559,0,0,0-1.118,0v1.313h-1.313a.559.559,0,1,0,0,1.118h1.3v1.313a.559.559,0,1,0,1.118,0V74.614H181.2a.559.559,0,0,0,0-1.118h-1.313Z" transform="translate(-28.712 -14.599)" fill="#fff" fill-rule="evenodd"/>
        <path id="Trazado_101626" data-name="Trazado 101626" d="M374.309,177.929a.559.559,0,1,0-1.118,0v1.313h-1.322a.559.559,0,0,0,0,1.118h1.322v1.313a.559.559,0,0,0,1.118,0v-1.349h1.313a.559.559,0,0,0,0-1.118h-1.313Z" transform="translate(-50.625 -26.524)" fill="#fff" fill-rule="evenodd"/>
        <path id="Trazado_101627" data-name="Trazado 101627" d="M140.62,209a.559.559,0,1,0-1.118,0v1.313h-1.313a.559.559,0,0,0,0,1.118H139.5v1.313a.559.559,0,1,0,1.118,0V211.43h1.313a.559.559,0,1,0,0-1.118H140.62Z" transform="translate(-24.284 -30.026)" fill="#fff" fill-rule="evenodd"/>
        <path id="Trazado_101628" data-name="Trazado 101628" d="M204.84,89.1a.559.559,0,0,0-1.118,0v1.313h-1.313a.559.559,0,1,0,0,1.118h1.349v1.313a.559.559,0,1,0,1.118,0V91.53h1.313a.559.559,0,1,0,0-1.118h-1.313Z" transform="translate(-31.523 -16.511)" fill="#719fd4" fill-rule="evenodd"/>
        <path id="Trazado_101629" data-name="Trazado 101629" d="M266.71,152.82a.559.559,0,0,0-1.118,0v1.322h-1.313a.559.559,0,0,0,0,1.118h1.313v1.313a.559.559,0,1,0,1.118,0V155.26h1.322a.568.568,0,0,0,.559-.559.559.559,0,0,0-.559-.559H266.71Z" transform="translate(-38.497 -23.695)" fill="#719fd4" fill-rule="evenodd"/>
        <path id="Trazado_101630" data-name="Trazado 101630" d="M139.73,167.289a.559.559,0,1,0-1.118,0V168.6H137.3a.559.559,0,0,0,0,1.118h1.313v1.313a.559.559,0,0,0,1.118,0V169.72h1.313a.559.559,0,0,0,0-1.118H139.73Z" transform="translate(-24.184 -25.325)" fill="#719fd4" fill-rule="evenodd"/>
        <path id="Trazado_101631" data-name="Trazado 101631" d="M164.627,251.639a.568.568,0,0,0-.559-.559.559.559,0,0,0-.559.559v1.313h-1.322a.568.568,0,0,0,0,1.127h1.322v1.313a.559.559,0,0,0,1.118,0v-1.313h1.313a.568.568,0,0,0,0-1.127h-1.313Z" transform="translate(-26.996 -34.833)" fill="#719fd4" fill-rule="evenodd"/>
      </g>
      <path id="Trazado_101632" data-name="Trazado 101632" d="M169.467,196.167c0-3.957,1.721-5.643,2.529-7.311.568-1.18,1-5.883.985-7.018s-.887-9.237-2.662-4.516a9.219,9.219,0,0,0-.674-3.62c-.719-1.349-1.775,1.491-1.775,1.491s-.142-2.937-1.491-2.9-.958,4.756-1.189,3.434-.577-3.363-2.032-3.141l-.248.151c-.284.186-.559,9.707-.488,11.135a6.992,6.992,0,0,0-3.549-2.795c-.594-.248-1.358,0-1.464.373s1.455,2.183,1.579,2.759c.967,4.543,4.019,5.217,5.67,8.42-.089.577.373,2.263.248,2.981C167.507,196.033,167.569,195.785,169.467,196.167Z" transform="translate(-26.513 -25.951)" fill="#f4ad85" fill-rule="evenodd"/>
    </g>
  </g>
</svg>
