<svg xmlns="http://www.w3.org/2000/svg" width="260" height="244.504" viewBox="0 0 260 244.504">
  <g id="grafico_tema1" transform="translate(0 -8.94)">
    <g id="Layer_2" data-name="Layer 2" transform="translate(0 8.94)">
      <circle id="Elipse_4082" data-name="Elipse 4082" cx="122.252" cy="122.252" r="122.252" transform="translate(7.748)" fill="#feb62b"/>
      <g id="Grupo_87515" data-name="Grupo 87515" transform="translate(0 38.437)">
        <rect id="Rectángulo_33887" data-name="Rectángulo 33887" width="158.132" height="154.951" transform="translate(50.934 21.025)" fill="#d1a454"/>
        <g id="Grupo_87491" data-name="Grupo 87491" transform="translate(54.903 25.125)">
          <rect id="Rectángulo_33888" data-name="Rectángulo 33888" width="150.185" height="150.852" fill="#b079c7"/>
          <rect id="Rectángulo_33889" data-name="Rectángulo 33889" width="150.185" height="9.031" transform="translate(0 141.821)" fill="#caa5da"/>
          <g id="Grupo_87489" data-name="Grupo 87489" transform="translate(82.437 60.311)">
            <path id="Trazado_101373" data-name="Trazado 101373" d="M184.721,233.51H158.47l4.03-81.64h18.2Z" transform="translate(-158.47 -151.87)" fill="#caa5da"/>
            <rect id="Rectángulo_33890" data-name="Rectángulo 33890" width="40.239" height="80.6" transform="translate(53.369 81.631) rotate(180)" fill="#b079c7"/>
            <g id="Grupo_87487" data-name="Grupo 87487" transform="translate(10.851 3.38)">
              <rect id="Rectángulo_33891" data-name="Rectángulo 33891" width="8.181" height="7.141" transform="translate(35.629 7.141) rotate(180)" fill="#caa5da"/>
              <rect id="Rectángulo_33892" data-name="Rectángulo 33892" width="8.181" height="7.141" transform="translate(22.265 30.862) rotate(180)" fill="#caa5da"/>
              <rect id="Rectángulo_33893" data-name="Rectángulo 33893" width="5.209" height="4.55" transform="translate(26.945 7.141) rotate(180)" fill="#caa5da"/>
              <rect id="Rectángulo_33894" data-name="Rectángulo 33894" width="5.209" height="4.55" transform="translate(15.756 7.141) rotate(180)" fill="#caa5da"/>
              <rect id="Rectángulo_33895" data-name="Rectángulo 33895" width="6.344" height="5.547" transform="translate(9.932 7.141) rotate(180)" fill="#caa5da"/>
              <rect id="Rectángulo_33896" data-name="Rectángulo 33896" width="5.209" height="6.171" transform="translate(21.346 7.141) rotate(180)" fill="#caa5da"/>
              <rect id="Rectángulo_33897" data-name="Rectángulo 33897" width="8.181" height="7.141" transform="translate(33.687 43.212) rotate(180)" fill="#caa5da"/>
              <rect id="Rectángulo_33898" data-name="Rectángulo 33898" width="5.209" height="4.55" transform="translate(24.995 43.221) rotate(180)" fill="#caa5da"/>
              <rect id="Rectángulo_33899" data-name="Rectángulo 33899" width="5.209" height="4.55" transform="translate(13.815 43.221) rotate(180)" fill="#caa5da"/>
              <rect id="Rectángulo_33900" data-name="Rectángulo 33900" width="6.344" height="5.547" transform="translate(7.991 43.221) rotate(180)" fill="#caa5da"/>
              <rect id="Rectángulo_33901" data-name="Rectángulo 33901" width="5.209" height="6.171" transform="translate(19.405 43.221) rotate(180)" fill="#caa5da"/>
              <rect id="Rectángulo_33902" data-name="Rectángulo 33902" width="8.181" height="7.141" transform="translate(3.12 11.683)" fill="#caa5da"/>
              <rect id="Rectángulo_33903" data-name="Rectángulo 33903" width="5.209" height="4.55" transform="translate(11.813 14.283)" fill="#caa5da"/>
              <rect id="Rectángulo_33904" data-name="Rectángulo 33904" width="5.209" height="4.55" transform="translate(22.993 14.283)" fill="#caa5da"/>
              <rect id="Rectángulo_33905" data-name="Rectángulo 33905" width="5.209" height="4.55" transform="translate(22.993 26.321)" fill="#caa5da"/>
              <rect id="Rectángulo_33906" data-name="Rectángulo 33906" width="5.209" height="4.55" transform="translate(1.56 26.321)" fill="#caa5da"/>
              <rect id="Rectángulo_33907" data-name="Rectángulo 33907" width="6.344" height="5.547" transform="translate(28.817 13.286)" fill="#caa5da"/>
              <rect id="Rectángulo_33908" data-name="Rectángulo 33908" width="6.344" height="5.547" transform="translate(7.211 25.324)" fill="#caa5da"/>
              <rect id="Rectángulo_33909" data-name="Rectángulo 33909" width="5.209" height="6.171" transform="translate(17.403 12.662)" fill="#caa5da"/>
              <rect id="Rectángulo_33910" data-name="Rectángulo 33910" width="5.209" height="6.171" transform="translate(28.938 24.7)" fill="#caa5da"/>
              <rect id="Rectángulo_33911" data-name="Rectángulo 33911" width="8.181" height="7.141" transform="translate(20.705 67.271) rotate(180)" fill="#caa5da"/>
              <rect id="Rectángulo_33912" data-name="Rectángulo 33912" width="8.181" height="7.141" transform="translate(1.569 48.083)" fill="#caa5da"/>
              <rect id="Rectángulo_33913" data-name="Rectángulo 33913" width="5.209" height="4.55" transform="translate(10.253 50.683)" fill="#caa5da"/>
              <rect id="Rectángulo_33914" data-name="Rectángulo 33914" width="5.209" height="4.55" transform="translate(21.441 50.683)" fill="#caa5da"/>
              <rect id="Rectángulo_33915" data-name="Rectángulo 33915" width="5.209" height="4.55" transform="translate(21.441 62.721)" fill="#caa5da"/>
              <rect id="Rectángulo_33916" data-name="Rectángulo 33916" width="5.209" height="4.55" transform="translate(0 62.721)" fill="#caa5da"/>
              <rect id="Rectángulo_33917" data-name="Rectángulo 33917" width="6.344" height="5.547" transform="translate(27.265 49.686)" fill="#caa5da"/>
              <rect id="Rectángulo_33918" data-name="Rectángulo 33918" width="6.344" height="5.547" transform="translate(5.659 61.724)" fill="#caa5da"/>
              <rect id="Rectángulo_33919" data-name="Rectángulo 33919" width="5.209" height="6.171" transform="translate(15.843 49.062)" fill="#caa5da"/>
              <rect id="Rectángulo_33920" data-name="Rectángulo 33920" width="5.209" height="6.171" transform="translate(27.378 61.1)" fill="#caa5da"/>
            </g>
            <g id="Grupo_87488" data-name="Grupo 87488" transform="translate(2.106)">
              <rect id="Rectángulo_33921" data-name="Rectángulo 33921" width="48.265" height="1.404" transform="translate(48.265 11.249) rotate(180)" fill="#cfecff"/>
              <rect id="Rectángulo_33922" data-name="Rectángulo 33922" width="48.265" height="1.404" transform="translate(48.282 23.331) rotate(180)" fill="#cfecff"/>
              <rect id="Rectángulo_33923" data-name="Rectángulo 33923" width="48.265" height="1.404" transform="translate(48.308 35.412) rotate(180)" fill="#cfecff"/>
              <rect id="Rectángulo_33924" data-name="Rectángulo 33924" width="48.265" height="1.404" transform="translate(48.317 47.502) rotate(180)" fill="#cfecff"/>
              <rect id="Rectángulo_33925" data-name="Rectángulo 33925" width="48.265" height="1.404" transform="translate(48.343 59.583) rotate(180)" fill="#cfecff"/>
              <rect id="Rectángulo_33926" data-name="Rectángulo 33926" width="48.265" height="1.404" transform="translate(48.36 71.665) rotate(180)" fill="#cfecff"/>
              <path id="Trazado_101374" data-name="Trazado 101374" d="M231.161,233.51H204.91l4.021-81.64H227.14Z" transform="translate(-166.768 -151.87)" fill="#cfecff"/>
            </g>
          </g>
          <g id="Grupo_87490" data-name="Grupo 87490" transform="translate(0.858 12.255)">
            <rect id="Rectángulo_33927" data-name="Rectángulo 33927" width="45.266" height="38.081" transform="translate(103.211)" fill="#caa5da"/>
            <rect id="Rectángulo_33928" data-name="Rectángulo 33928" width="45.266" height="38.081" transform="translate(51.601)" fill="#caa5da"/>
            <rect id="Rectángulo_33929" data-name="Rectángulo 33929" width="45.266" height="38.081" fill="#caa5da"/>
          </g>
          <path id="Trazado_101375" data-name="Trazado 101375" d="M213.543,82.28v40.179L102.87,233.132H63.35V82.28Z" transform="translate(-63.35 -82.28)" fill="#231f20" opacity="0.1"/>
        </g>
        <g id="Grupo_87496" data-name="Grupo 87496" transform="translate(178.802 25.125)">
          <rect id="Rectángulo_33930" data-name="Rectángulo 33930" width="21.875" height="150.852" transform="translate(4.42)" fill="#e2b760"/>
          <rect id="Rectángulo_33931" data-name="Rectángulo 33931" width="21.875" height="150.852" transform="translate(2.175)" fill="#ffcf7b"/>
          <g id="Grupo_87494" data-name="Grupo 87494" transform="translate(3.302 12.428)">
            <rect id="Rectángulo_33932" data-name="Rectángulo 33932" width="16.501" height="62.339" transform="translate(1.569 15.349)" fill="#0059d6"/>
            <path id="Trazado_101376" data-name="Trazado 101376" d="M216.116,194.947V241.08H215.2V194.947h.919m3.267-3.267H211.93v52.676h7.453Z" transform="translate(-210.361 -109.295)" fill="#e2b760"/>
            <path id="Trazado_101377" data-name="Trazado 101377" d="M226.546,194.947V241.08h-.91V194.947h.91m3.276-3.267H222.36v52.676h7.488V191.68Z" transform="translate(-211.752 -109.295)" fill="#e2b760"/>
            <g id="Grupo_87492" data-name="Grupo 87492" transform="translate(6.89 11.761)">
              <rect id="Rectángulo_33933" data-name="Rectángulo 33933" width="0.433" height="67.522" fill="#ffcf7b"/>
              <rect id="Rectángulo_33934" data-name="Rectángulo 33934" width="0.433" height="67.522" transform="translate(5.469)" fill="#ffcf7b"/>
            </g>
            <g id="Grupo_87493" data-name="Grupo 87493" transform="translate(0 34.051)">
              <rect id="Rectángulo_33935" data-name="Rectángulo 33935" width="1.491" height="19.665" transform="translate(19.673) rotate(90)" fill="#ffcf7b"/>
              <rect id="Rectángulo_33936" data-name="Rectángulo 33936" width="1.491" height="19.665" transform="translate(19.665 21.45) rotate(90)" fill="#ffcf7b"/>
            </g>
            <rect id="Rectángulo_33937" data-name="Rectángulo 33937" width="16.501" height="12.211" transform="translate(1.569)" fill="#0059d6"/>
          </g>
          <path id="Trazado_101378" data-name="Trazado 101378" d="M232.939,82.28v77.671l-2.245,2.236-19.63,19.639-2.245,2.236V82.28Z" transform="translate(-206.645 -82.28)" fill="#231f20" opacity="0.25"/>
          <g id="Grupo_87495" data-name="Grupo 87495" transform="translate(0.789 81.995)">
            <path id="Trazado_101379" data-name="Trazado 101379" d="M210.626,177.852a.953.953,0,0,1-.953.953H207.22V176.89h2.453a.953.953,0,0,1,.953.962Z" transform="translate(-207.22 -176.89)" fill="#e2b760"/>
            <path id="Trazado_101380" data-name="Trazado 101380" d="M210.626,194.323a.953.953,0,0,1-.953.953H207.22V193.37h2.487A.953.953,0,0,1,210.626,194.323Z" transform="translate(-207.22 -179.087)" fill="#e2b760"/>
          </g>
          <path id="Trazado_101381" data-name="Trazado 101381" d="M208.963,178.775H207.23V176.86h2.4A6.153,6.153,0,0,1,208.963,178.775Z" transform="translate(-206.433 -94.891)" fill="#231f20" opacity="0.25"/>
          <path id="Trazado_101382" data-name="Trazado 101382" d="M209.707,193.37a5.867,5.867,0,0,1-.485,1.907h-2V193.37Z" transform="translate(-206.431 -97.092)" fill="#231f20" opacity="0.25"/>
          <path id="Trazado_101383" data-name="Trazado 101383" d="M207.1,196.361h0a.78.78,0,0,1-.789-.78V173.16a.789.789,0,0,1,.789-.78h0a.78.78,0,0,1,.78.78v22.421a.78.78,0,0,1-.78.78Z" transform="translate(-206.31 -94.293)" fill="#e2b760"/>
        </g>
        <g id="Grupo_87504" data-name="Grupo 87504" transform="translate(128.371 66.034)">
          <path id="Trazado_101384" data-name="Trazado 101384" d="M167.47,129.5c6.933-.347,8.363,5.633,7.609,12.653s.867,15.947,1.829,19.422a10.5,10.5,0,0,1-.433,6.535,10.421,10.421,0,0,0-.641-6.535s2.4,8-4.056,9.533-7.9-.806-9.785-11.969S157.426,130.009,167.47,129.5Z" transform="translate(-149.73 -129.483)" fill="#12263f"/>
          <path id="Trazado_101385" data-name="Trazado 101385" d="M148.12,152.143v8.2l5.937-1.733,1.283-11.189S151.847,149.656,148.12,152.143Z" transform="translate(-148.12 -131.875)" fill="#60e6b9"/>
          <path id="Trazado_101386" data-name="Trazado 101386" d="M189.62,160c1.153-.251,4.047,3.259,4.1,5.607l-3.865,2.071Z" transform="translate(-153.653 -133.55)" fill="#b72e48"/>
          <path id="Trazado_101387" data-name="Trazado 101387" d="M179.779,152.7c.867.459,9.308,18.911,9.308,18.911s-.269,3.7-2.1,4.117S176,164.125,176,164.125,176.225,150.848,179.779,152.7Z" transform="translate(-151.837 -132.556)" fill="#60e6b9"/>
          <path id="Trazado_101388" data-name="Trazado 101388" d="M190.924,170.85c1.023-2.938,1.352-11.128.607-14.82l-1.837.165s-1.2,8.909-2.444,11.639-1.023,4.94.719,6.067S190.707,171.465,190.924,170.85Z" transform="translate(-153.232 -133.023)" fill="#ff8b66"/>
          <g id="Grupo_87497" data-name="Grupo 87497" transform="translate(35.308 15.93)">
            <path id="Trazado_101389" data-name="Trazado 101389" d="M188.86,151.059l.277,2.366c.269,2.375.641,2.193,1.733,2.843s2.357-1.161,2.7-2.045c.295-.737,1.985-1.855,2.063-2.539,0-.269-.191-.173-.667.251a4.88,4.88,0,0,1-1.257.745c-.182-.815,2.045-2.392,1.733-3.233-.156-.416-1.837,2.392-2.349,2.34,0,0-.1-.295.624-1.733.407-.823.867-1.673.65-1.915-.329-.442-.867,1.447-2.262,3.2,0,0,.277-.971.6-1.846s.659-1.525.286-1.621-.728,1.179-1.031,1.976a9.438,9.438,0,0,1-1.733,2.912,2.6,2.6,0,0,1-.321.329C189.441,150.695,188.86,151.059,188.86,151.059Z" transform="translate(-188.86 -147.864)" fill="#ff8b66"/>
            <path id="Trazado_101390" data-name="Trazado 101390" d="M190.08,153.831a2.149,2.149,0,0,1,.867,1.413,1.3,1.3,0,0,0-.563-1.733,2.6,2.6,0,0,1-.3.321Z" transform="translate(-189.023 -148.617)" fill="#ef6e4b"/>
          </g>
          <g id="Grupo_87498" data-name="Grupo 87498" transform="translate(1.708 40.358)">
            <path id="Trazado_101391" data-name="Trazado 101391" d="M177.875,238.251l-2.886.667s-4.515-24.189-5.555-26.745c-.867-2.21-4.706-10.643-5.971-17.125a4.1,4.1,0,0,1-1-.139h0l-.425-.1-.416-.087a111.125,111.125,0,0,1-1.941,16.657c-.52,2.7-.243,27.335-.243,27.335l-2.964-.1c-5.625-19.933-2.652-27.43-2.652-27.43s-5.2-17.949-3.328-24.267a42.164,42.164,0,0,1,2.071-5.633c.061-.13.113-.26.182-.381a37.269,37.269,0,0,1,2.6-4.853l6.067.754.052-.1h.173v1.9h.945l2.5-.13h.338l2.193-.121s1.309,2.089,3.181,5.451l.208.39c.667,1.2,1.4,2.6,2.158,4.03,3.025,5.859,1.993,22.672,1.993,22.672S179.479,217.607,177.875,238.251Z" transform="translate(-150.091 -176.05)" fill="#12263f"/>
            <path id="Trazado_101392" data-name="Trazado 101392" d="M157.734,176.811s-1.569,3.735-4.784,4.541c.061-.13.113-.26.182-.381,2.877-.867,4.333-4.238,4.333-4.281Z" transform="translate(-150.472 -176.135)" fill="#12263f"/>
            <path id="Trazado_101393" data-name="Trazado 101393" d="M173.278,184.433c-3.6-.78-5.434-4.541-5.919-5.7-.087-.217-.13-.338-.139-.347l.3-.1s.061.165.173.433c.52,1.187,2.2,4.489,5.373,5.33Z" transform="translate(-152.375 -176.347)" fill="#12263f"/>
            <path id="Trazado_101394" data-name="Trazado 101394" d="M163.914,195.2l-.425-.1a25.749,25.749,0,0,1-2.253-6.5c-1.127-4.983,1.43-10.3,1.456-10.348l.295.139c0,.052-2.539,5.261-1.439,10.14.043.208.1.407.139.6l.078.312a22.949,22.949,0,0,0,2.149,5.755Z" transform="translate(-151.539 -176.345)" fill="#12263f"/>
            <path id="Trazado_101395" data-name="Trazado 101395" d="M161.7,189.549h0v-.321a.685.685,0,0,0,.529-.269c.208-.243.667-1.014.3-2.9-.5-2.539,1.387-6.985,1.465-7.176l.295.121c0,.052-1.924,4.55-1.447,6.994.381,1.959-.069,2.834-.373,3.181a1.023,1.023,0,0,1-.771.373Z" transform="translate(-151.639 -176.427)" fill="#12263f"/>
          </g>
          <path id="Trazado_101396" data-name="Trazado 101396" d="M168.373,174.52a13.867,13.867,0,0,1-12.237-2.288s-1.1-22.672,1-24.189c.919-.667,2.73-.139,4.472.676a33.8,33.8,0,0,1,4.411,2.557,33.619,33.619,0,0,1,6.985-.217c1.967.208,3.588.78,3.657,2.089C176.858,156.519,168.373,174.52,168.373,174.52Z" transform="translate(-149.15 -131.918)" fill="#ff8b66"/>
          <path id="Trazado_101397" data-name="Trazado 101397" d="M174.06,151.289c-1.326-.139-1.569.867-2.886,1.343a18.077,18.077,0,0,1-3.519.867c-.6.061-.919.806-.919.806s-.217-1.014-.537-1.092a15.721,15.721,0,0,1-3.709-4.333,33.8,33.8,0,0,1,4.411,2.557,33.618,33.618,0,0,1,6.985-.217Z" transform="translate(-150.036 -132.07)" fill="#ef6e4b"/>
          <g id="Grupo_87499" data-name="Grupo 87499" transform="translate(5.597 101.807)">
            <path id="Trazado_101398" data-name="Trazado 101398" d="M154.658,255.14h7.289a4.732,4.732,0,0,0-.745-3.675c-1.144-1.413.416-3.354-.867-4.1-.321-.191-.572.13-.719.468a4.733,4.733,0,0,1-.208-.468c-.234-.641-2.6-.641-2.6.754,0,0-.52-1.161-1.023-.243-.321.6.139,1.473,0,2.7S154.233,252.116,154.658,255.14Z" transform="translate(-154.578 -246.953)" fill="#12263f"/>
            <path id="Trazado_101399" data-name="Trazado 101399" d="M160.3,250.459a4.333,4.333,0,0,0-3.831.286l.433-.789a3.813,3.813,0,0,1,3.189-.234Z" transform="translate(-154.831 -247.29)" fill="#adbec4"/>
            <path id="Trazado_101400" data-name="Trazado 101400" d="M160.524,251.968A6.249,6.249,0,0,0,156,252.3l.407-.867a5.781,5.781,0,0,1,3.831-.225Z" transform="translate(-154.768 -247.49)" fill="#adbec4"/>
          </g>
          <g id="Grupo_87500" data-name="Grupo 87500" transform="translate(24.449 101.807)">
            <path id="Trazado_101401" data-name="Trazado 101401" d="M183.74,255.14c.416-3.025-.927-3.423-1.092-4.559s.277-2.106-.043-2.7c-.5-.919-1.031.243-1.031.243,0-1.4-2.383-1.4-2.6-.754-.069.173-.139.321-.208.468-.147-.338-.4-.659-.719-.468-1.248.745.3,2.687-.867,4.1a4.7,4.7,0,0,0-.745,3.675Z" transform="translate(-176.33 -246.953)" fill="#12263f"/>
            <path id="Trazado_101402" data-name="Trazado 101402" d="M178.66,250.459a4.333,4.333,0,0,1,3.831.286l-.433-.789a3.831,3.831,0,0,0-3.2-.234Z" transform="translate(-176.641 -247.29)" fill="#adbec4"/>
            <path id="Trazado_101403" data-name="Trazado 101403" d="M178.33,251.968a6.249,6.249,0,0,1,4.524.329l-.407-.867a5.781,5.781,0,0,0-3.831-.225Z" transform="translate(-176.597 -247.49)" fill="#adbec4"/>
          </g>
          <path id="Trazado_101404" data-name="Trazado 101404" d="M189.173,160s1.525,5.512,4.1,5.607c0,0-1.127,10.747-5.148,11.163,0,0-2.513-4.42-1.69-8.389s1.421-3.536,1.421-3.536Z" transform="translate(-153.207 -133.552)" fill="#60e6b9"/>
          <path id="Trazado_101405" data-name="Trazado 101405" d="M173.306,151.107s-5.2,4.039-7.9,4.333a16.744,16.744,0,0,1-4.68-7.037s-3.155-1.369-4.654-1.031-1.69,11.44-.52,25.255l-1.907,2.5s4.567,4.619,16.467,2.765l-1.5-3.25s7.323-15.929,8.164-22.663Z" transform="translate(-148.857 -131.861)" fill="#1e82d9"/>
          <path id="Trazado_101406" data-name="Trazado 101406" d="M157.413,154.87a45.209,45.209,0,0,0,14.6,3.051s.641,13.1-3.8,17.758l2.834,5.633.927,19.353s-13.113,1.872-20.852,0c0,0-2.843-23.547,4.013-27.005C155.143,173.659,152.057,163.649,157.413,154.87Z" transform="translate(-148.443 -132.868)" fill="#fff"/>
          <path id="Trazado_101407" data-name="Trazado 101407" d="M158.47,154.8c.745-1.733,4.567-5.2,8.762-4.507,4.524.719,5.5,5.079,5.5,7.28" transform="translate(-149.5 -132.246)" fill="none" stroke="#fff" stroke-miterlimit="10" stroke-width="1"/>
          <path id="Trazado_101408" data-name="Trazado 101408" d="M166.817,143.123s.494,6.067-1.187,6.933c0,0,1.248,2.288,4.585.867a10.669,10.669,0,0,1,1.638-6.8C173.335,141.659,166.817,143.123,166.817,143.123Z" transform="translate(-150.455 -131.244)" fill="#ef6e4b"/>
          <g id="Grupo_87501" data-name="Grupo 87501" transform="translate(11.872 2.472)">
            <path id="Trazado_101409" data-name="Trazado 101409" d="M174.471,139.715s1.248-1.456,1.534.113c.338,1.811-1.274,2.678-1.647,2.123S174.471,139.715,174.471,139.715Z" transform="translate(-163.472 -133.238)" fill="#ff8b66"/>
            <path id="Trazado_101410" data-name="Trazado 101410" d="M163.328,140.679s-1.456-1.248-1.508.347c-.052,1.846,1.673,2.453,1.95,1.846S163.328,140.679,163.328,140.679Z" transform="translate(-161.819 -133.386)" fill="#ff8b66"/>
            <path id="Trazado_101411" data-name="Trazado 101411" d="M168.915,145.9c3.007-.234,4.55-2.323,4.108-8.216-.234-3.042-1.924-4.793-5.3-4.533s-4.645,2.227-4.411,5.269C163.793,144.761,165.8,146.139,168.915,145.9Z" transform="translate(-162.015 -132.442)" fill="#ff8b66"/>
            <path id="Trazado_101412" data-name="Trazado 101412" d="M164.65,141.5a.65.65,0,0,0,.641.624.641.641,0,0,0,.745-.494.652.652,0,0,0-.641-.615A.633.633,0,0,0,164.65,141.5Z" transform="translate(-162.196 -133.492)" fill="#db614d"/>
            <path id="Trazado_101413" data-name="Trazado 101413" d="M171.809,141.12a.633.633,0,0,0,.763.459.572.572,0,1,0-.763-.459Z" transform="translate(-163.15 -133.42)" fill="#db614d"/>
            <path id="Trazado_101414" data-name="Trazado 101414" d="M165.865,137.785a.147.147,0,0,0,.182,0,1.733,1.733,0,0,1,1.127-.511.147.147,0,0,0,.147-.156.156.156,0,0,0-.156-.147,2.028,2.028,0,0,0-1.352.624.147.147,0,0,0,0,.208Z" transform="translate(-162.346 -132.954)" fill="#12263f"/>
            <path id="Trazado_101415" data-name="Trazado 101415" d="M170.9,136.952h.078a1.681,1.681,0,0,1,1.2.329.15.15,0,0,0,.2-.225,2.037,2.037,0,0,0-1.421-.407.156.156,0,0,0-.139.165A.165.165,0,0,0,170.9,136.952Z" transform="translate(-163.017 -132.91)" fill="#12263f"/>
            <path id="Trazado_101416" data-name="Trazado 101416" d="M166.41,139.641c0,.373.217.659.425.65s.355-.338.329-.711-.225-.659-.425-.65S166.384,139.268,166.41,139.641Z" transform="translate(-162.43 -133.215)" fill="#1a4850"/>
            <path id="Trazado_101417" data-name="Trazado 101417" d="M171.309,139.242c0,.373.217.667.425.65s.355-.329.321-.7-.217-.667-.425-.65S171.275,138.869,171.309,139.242Z" transform="translate(-163.083 -133.163)" fill="#1a4850"/>
            <path id="Trazado_101418" data-name="Trazado 101418" d="M170.49,143.61a6.066,6.066,0,0,1-2.86,0s.65,1.343,1.664,1.144A1.508,1.508,0,0,0,170.49,143.61Z" transform="translate(-162.594 -133.839)" fill="#1a4850"/>
            <path id="Trazado_101419" data-name="Trazado 101419" d="M167.279,139.285s-.347-.867-.7-.806-.572.91-.572.91l-.555-.243H166s.208-.867.572-.867C167.071,138.263,167.279,139.285,167.279,139.285Z" transform="translate(-162.303 -133.128)" fill="#1a4850"/>
            <path id="Trazado_101420" data-name="Trazado 101420" d="M170.94,139.159s.208-.945.572-.867.7.806.7.806l.511-.329-.529.113s-.338-.8-.7-.771C170.992,138.11,170.94,139.159,170.94,139.159Z" transform="translate(-163.035 -133.105)" fill="#1a4850"/>
            <path id="Trazado_101421" data-name="Trazado 101421" d="M168.988,141.8l.217.069.061-.321a.39.39,0,0,1-.355-.338.4.4,0,0,1,.173-.39.191.191,0,0,1,.191.1l.26-.2a.477.477,0,0,0-.563-.208.719.719,0,0,0-.381.719.685.685,0,0,0,.4.563Z" transform="translate(-162.721 -133.423)" fill="#db614d"/>
            <path id="Trazado_101422" data-name="Trazado 101422" d="M168.158,133.293a4.385,4.385,0,0,0,1.4,3.467,7.211,7.211,0,0,1-.7-2.175s1.291,2.2,2.47,2.418a22.2,22.2,0,0,1,2.9.867s-.771-5.2-5.911-5.512-6.275,2.877-5.33,6.4a4.333,4.333,0,0,0,2.427-2.912s-.494,1.551,2.227.936A4.4,4.4,0,0,1,168.158,133.293Z" transform="translate(-161.934 -132.336)" fill="#12263f"/>
          </g>
          <circle id="Elipse_4083" data-name="Elipse 4083" cx="5.243" cy="5.243" r="5.243" transform="translate(9.776 26.786)" fill="#0059d6"/>
          <g id="Grupo_87503" data-name="Grupo 87503" transform="translate(10.55 27.561)">
            <text id="Shop" transform="translate(0.324 3.95) rotate(9.03)" fill="#fff" font-size="4" font-family="SegoeUI, Segoe UI"><tspan x="0" y="0">Shop</tspan></text>
            <g id="Grupo_87502" data-name="Grupo 87502" transform="translate(3.793 0.958)">
              <path id="Trazado_101423" data-name="Trazado 101423" d="M165.495,163.183l1.4.277-.321.685-1.049-.208v-.754m-.347-.5a.1.1,0,0,0-.1.113l.052,1.421a.113.113,0,0,0,.087.1l1.551.3h0a.121.121,0,0,0,.1-.061l.615-1.3a.1.1,0,0,0-.078-.147l-2.227-.433Z" transform="translate(-164.723 -162.429)" fill="#fff"/>
              <path id="Trazado_101424" data-name="Trazado 101424" d="M166.419,165.286a.269.269,0,0,0,.217.312.26.26,0,0,0,.312-.208.277.277,0,0,0-.217-.321.269.269,0,0,0-.312.217Z" transform="translate(-164.903 -162.747)" fill="none" stroke="#fff" stroke-linecap="round" stroke-linejoin="round" stroke-width="0.5"/>
              <path id="Trazado_101425" data-name="Trazado 101425" d="M164.679,164.966a.269.269,0,0,0,.217.312.251.251,0,0,0,.312-.208.269.269,0,0,0-.208-.321A.277.277,0,0,0,164.679,164.966Z" transform="translate(-164.671 -162.704)" fill="none" stroke="#fff" stroke-linecap="round" stroke-linejoin="round" stroke-width="0.5"/>
              <line id="Línea_137" data-name="Línea 137" x1="0.381" y1="0.355" fill="none" stroke="#fff" stroke-linecap="round" stroke-linejoin="round" stroke-width="0.5"/>
              <line id="Línea_138" data-name="Línea 138" x1="1.881" y1="0.373" transform="translate(0.451 1.066)" fill="none" stroke="#fff" stroke-linecap="round" stroke-linejoin="round" stroke-width="0.5"/>
              <line id="Línea_139" data-name="Línea 139" x1="0.407" y2="1.335" transform="translate(1.482 0.659)" fill="none" stroke="#fff" stroke-linecap="round" stroke-linejoin="round" stroke-width="0.5"/>
              <line id="Línea_140" data-name="Línea 140" x1="0.173" y2="1.378" transform="translate(0.971 0.503)" fill="none" stroke="#fff" stroke-linecap="round" stroke-linejoin="round" stroke-width="0.5"/>
            </g>
          </g>
        </g>
        <g id="Grupo_87508" data-name="Grupo 87508" transform="translate(54.903 25.125)">
          <rect id="Rectángulo_33938" data-name="Rectángulo 33938" width="75.097" height="150.852" fill="#ffcf7b"/>
          <g id="Grupo_87507" data-name="Grupo 87507" transform="translate(3.857 12.428)">
            <rect id="Rectángulo_33939" data-name="Rectángulo 33939" width="56.645" height="62.339" transform="translate(5.373 15.349)" fill="#0059d6"/>
            <path id="Trazado_101426" data-name="Trazado 101426" d="M74,114.33h27.083L74,141.413Z" transform="translate(-68.627 -98.981)" fill="#fff" opacity="0.25"/>
            <path id="Trazado_101427" data-name="Trazado 101427" d="M108.017,114.33h20.557L74,168.913V148.347Z" transform="translate(-68.627 -98.981)" fill="#fff" opacity="0.25"/>
            <path id="Trazado_101428" data-name="Trazado 101428" d="M132.007,131.1v5.209L89.427,178.9H84.21Z" transform="translate(-69.988 -101.217)" fill="#fff" opacity="0.25"/>
            <path id="Trazado_101429" data-name="Trazado 101429" d="M93.535,197.747v40.543H80.067V197.747H93.535M99.6,191.68H74v52.676H99.61V191.68Z" transform="translate(-68.627 -109.295)" fill="#e2b760"/>
            <path id="Trazado_101430" data-name="Trazado 101430" d="M129.353,197.747v40.543H115.877V197.747h13.477m6.067-6.067H109.81v52.676h25.61Z" transform="translate(-73.401 -109.295)" fill="#e2b760"/>
            <g id="Grupo_87505" data-name="Grupo 87505" transform="translate(23.634 11.761)">
              <rect id="Rectángulo_33940" data-name="Rectángulo 33940" width="1.491" height="67.522" fill="#ffcf7b"/>
              <rect id="Rectángulo_33941" data-name="Rectángulo 33941" width="1.491" height="67.522" transform="translate(18.772)" fill="#ffcf7b"/>
            </g>
            <g id="Grupo_87506" data-name="Grupo 87506" transform="translate(0 34.051)">
              <rect id="Rectángulo_33942" data-name="Rectángulo 33942" width="1.491" height="67.522" transform="translate(67.522) rotate(90)" fill="#ffcf7b"/>
              <rect id="Rectángulo_33943" data-name="Rectángulo 33943" width="1.491" height="67.522" transform="translate(67.531 21.45) rotate(90)" fill="#ffcf7b"/>
            </g>
            <rect id="Rectángulo_33944" data-name="Rectángulo 33944" width="56.645" height="12.211" transform="translate(5.373)" fill="#0059d6"/>
            <path id="Trazado_101431" data-name="Trazado 101431" d="M116.432,96.62l-12.211,12.211H74V96.62Z" transform="translate(-68.627 -96.62)" fill="#fff" opacity="0.25"/>
            <path id="Trazado_101432" data-name="Trazado 101432" d="M136.361,96.62v12.211H116.87L129.081,96.62Z" transform="translate(-74.343 -96.62)" fill="#fff" opacity="0.25"/>
          </g>
          <path id="Trazado_101433" data-name="Trazado 101433" d="M138.453,82.28v18.451a9.655,9.655,0,0,1-8.667-9.611,9.655,9.655,0,1,1-19.309,0,9.655,9.655,0,1,1-19.3,0,9.655,9.655,0,1,1-19.309,0,9.655,9.655,0,0,1-8.467,9.585V82.28Z" transform="translate(-63.357 -82.28)" fill="#231f20" opacity="0.25"/>
          <path id="Trazado_101434" data-name="Trazado 101434" d="M144.621,196.361h0a1.231,1.231,0,0,1-1.231-1.231V173.611a1.239,1.239,0,0,1,1.231-1.231h0a1.231,1.231,0,0,1,1.231,1.231V195.13a1.222,1.222,0,0,1-1.231,1.231Z" transform="translate(-74.022 -94.293)" fill="#e2b760"/>
        </g>
        <g id="Grupo_87510" data-name="Grupo 87510" transform="translate(75.38 65.529)">
          <path id="Trazado_101435" data-name="Trazado 101435" d="M107.314,130.122a1.222,1.222,0,1,1-1.222-1.222A1.222,1.222,0,0,1,107.314,130.122Z" transform="translate(-89.363 -128.9)" fill="#fff"/>
          <path id="Trazado_101436" data-name="Trazado 101436" d="M91.6,137.357l12.246-7.523a.78.78,0,0,1,.867.069l14.733,12.419" transform="translate(-87.593 -129.011)" fill="none" stroke="#0e3944" stroke-miterlimit="10" stroke-width="1"/>
          <path id="Trazado_101437" data-name="Trazado 101437" d="M106.867,130.2a.693.693,0,1,1-.693-.693.693.693,0,0,1,.693.693Z" transform="translate(-89.444 -128.981)" fill="#caa5da"/>
          <g id="Grupo_87509" data-name="Grupo 87509" transform="translate(0 6.439)">
            <rect id="Rectángulo_33945" data-name="Rectángulo 33945" width="30.073" height="18.113" rx="1.82" transform="translate(3.413 0) rotate(10.86)" fill="#1e82d9"/>
            <rect id="Rectángulo_33946" data-name="Rectángulo 33946" width="28.366" height="10.599" rx="1.06" transform="translate(3.009 6.626) rotate(10.86)" fill="#fff"/>
            <text id="Abierto" transform="matrix(0.982, 0.19, -0.19, 0.982, 3.275, 14.494)" fill="#12263f" font-size="7" font-family="Roboto-Regular, Roboto"><tspan x="0" y="0">Abie</tspan><tspan y="0" letter-spacing="0.02em">r</tspan><tspan y="0" letter-spacing="-0.01em">t</tspan><tspan y="0">o</tspan></text>
          </g>
        </g>
        <path id="Trazado_101438" data-name="Trazado 101438" d="M258.015,260.014H1.985A1.915,1.915,0,0,1,0,258.177H0a1.915,1.915,0,0,1,1.985-1.837H258.015A1.915,1.915,0,0,1,260,258.177h0a1.915,1.915,0,0,1-1.985,1.837Z" transform="translate(0 -80.363)" fill="#0059d6"/>
        <g id="Grupo_87514" data-name="Grupo 87514" transform="translate(43.117)">
          <g id="Grupo_87513" data-name="Grupo 87513">
            <g id="Grupo_87511" data-name="Grupo 87511">
              <path id="Trazado_101439" data-name="Trazado 101439" d="M69.059,70.441,73.41,53.29H55.349l-5.6,17.151Z" transform="translate(-49.75 -53.29)" fill="#0059d6"/>
              <path id="Trazado_101440" data-name="Trazado 101440" d="M91.339,70.441l3.1-17.151H76.381L72.03,70.441Z" transform="translate(-52.721 -53.29)" fill="#1e82d9"/>
              <path id="Trazado_101441" data-name="Trazado 101441" d="M113.611,70.441l1.872-17.151H97.413l-3.1,17.151Z" transform="translate(-55.691 -53.29)" fill="#0059d6"/>
              <path id="Trazado_101442" data-name="Trazado 101442" d="M135.889,70.441l.624-17.151H118.452L116.58,70.441Z" transform="translate(-58.661 -53.29)" fill="#1e82d9"/>
              <path id="Trazado_101443" data-name="Trazado 101443" d="M158.169,70.441l-.624-17.151H139.484l-.624,17.151Z" transform="translate(-61.631 -53.29)" fill="#0059d6"/>
              <path id="Trazado_101444" data-name="Trazado 101444" d="M180.353,70.441,178.481,53.29H160.42l.624,17.151Z" transform="translate(-64.506 -53.29)" fill="#1e82d9"/>
              <path id="Trazado_101445" data-name="Trazado 101445" d="M202.433,70.441l-3.1-17.151H181.26l1.872,17.151Z" transform="translate(-67.285 -53.29)" fill="#0059d6"/>
              <path id="Trazado_101446" data-name="Trazado 101446" d="M224.522,70.441,220.171,53.29H202.11l3.1,17.151Z" transform="translate(-70.065 -53.29)" fill="#1e82d9"/>
              <path id="Trazado_101447" data-name="Trazado 101447" d="M246.61,70.441l-5.6-17.151H222.95L227.3,70.441Z" transform="translate(-72.843 -53.29)" fill="#0059d6"/>
            </g>
            <g id="Grupo_87512" data-name="Grupo 87512" transform="translate(0 17.151)">
              <path id="Trazado_101448" data-name="Trazado 101448" d="M49.75,73.08v7.991a9.655,9.655,0,0,0,19.283,0V73.08Z" transform="translate(-49.75 -73.08)" fill="#0059d6"/>
              <path id="Trazado_101449" data-name="Trazado 101449" d="M72,73.08v7.991a9.655,9.655,0,0,0,9.681,9.655h0a9.655,9.655,0,0,0,9.655-9.655V73.08Z" transform="translate(-52.717 -73.08)" fill="#1e82d9"/>
              <path id="Trazado_101450" data-name="Trazado 101450" d="M94.31,73.08v7.991a9.646,9.646,0,0,0,9.655,9.655h0a9.646,9.646,0,0,0,9.646-9.655V73.08Z" transform="translate(-55.691 -73.08)" fill="#0059d6"/>
              <path id="Trazado_101451" data-name="Trazado 101451" d="M116.58,73.08v7.991a9.655,9.655,0,0,0,9.655,9.655h0a9.655,9.655,0,0,0,9.655-9.655V73.08Z" transform="translate(-58.661 -73.08)" fill="#1e82d9"/>
              <path id="Trazado_101452" data-name="Trazado 101452" d="M138.86,73.08v7.991a9.655,9.655,0,0,0,9.655,9.655h0a9.655,9.655,0,0,0,9.655-9.655V73.08Z" transform="translate(-61.631 -73.08)" fill="#0059d6"/>
              <path id="Trazado_101453" data-name="Trazado 101453" d="M161.14,73.08v7.991a9.655,9.655,0,0,0,9.655,9.655h0a9.655,9.655,0,0,0,9.655-9.655V73.08Z" transform="translate(-64.602 -73.08)" fill="#1e82d9"/>
              <path id="Trazado_101454" data-name="Trazado 101454" d="M183.42,73.08v7.991a9.646,9.646,0,0,0,9.646,9.655h0a9.646,9.646,0,0,0,9.655-9.655V73.08Z" transform="translate(-67.573 -73.08)" fill="#0059d6"/>
              <path id="Trazado_101455" data-name="Trazado 101455" d="M205.69,73.08v7.991a9.655,9.655,0,1,0,19.309,0V73.08Z" transform="translate(-70.542 -73.08)" fill="#1e82d9"/>
              <path id="Trazado_101456" data-name="Trazado 101456" d="M228,73.08v7.991a9.655,9.655,0,1,0,19.309,0V73.08Z" transform="translate(-73.517 -73.08)" fill="#0059d6"/>
            </g>
          </g>
          <path id="Trazado_101457" data-name="Trazado 101457" d="M217.918,53.29H55.349l-5.6,17.151H223.517Z" transform="translate(-49.75 -53.29)" fill="#1e82d9" opacity="0.25"/>
        </g>
      </g>
    </g>
  </g>
</svg>
