<svg xmlns="http://www.w3.org/2000/svg" width="146.629" height="139.288" viewBox="0 0 146.629 139.288">
  <g id="Layer_2" data-name="Layer 2" transform="translate(-6.696 -10.366)">
    <g id="Layer_1" data-name="Layer 1">
      <path id="Trazado_229466" data-name="Trazado 229466" d="M18.34,24.69h0A44.19,44.19,0,0,1,80.79,22L139,72.86a44.2,44.2,0,0,1,2.7,62.45h0A44.19,44.19,0,0,1,79.21,138L21,87.14a44.2,44.2,0,0,1-2.66-62.45Z" fill="#a5cdf0"/>
    </g>
    <g id="flat">
      <path id="Trazado_229467" data-name="Trazado 229467" d="M105.47,105H148.8v9.12H105.47Z" fill="#eaeae8"/>
      <path id="Trazado_229468" data-name="Trazado 229468" d="M26.8,41.11h75.25a3.42,3.42,0,0,1,3.42,3.42V105H23.38V44.53a3.42,3.42,0,0,1,3.42-3.42Z" fill="#1e82d9"/>
      <path id="Trazado_229469" data-name="Trazado 229469" d="M16.54,105h88.93v9.12H16.54Z" fill="#cbcbcb"/>
      <path id="Trazado_229470" data-name="Trazado 229470" d="M111.17,52.51h19.64a6.26,6.26,0,0,1,5.85,4l2,5.1h-3.51L142,82.15h4.56V105h-41V58.21a5.7,5.7,0,0,1,5.611-5.7Z" fill="#7b1fa2"/>
      <circle id="Elipse_4670" data-name="Elipse 4670" cx="11.4" cy="11.4" r="11.4" transform="translate(23.38 104.95)" fill="#b9b9b9"/>
      <circle id="Elipse_4671" data-name="Elipse 4671" cx="11.4" cy="11.4" r="11.4" transform="translate(116.87 104.95)" fill="#b9b9b9"/>
      <circle id="Elipse_4672" data-name="Elipse 4672" cx="4.56" cy="4.56" r="4.56" transform="translate(30.22 111.79)" fill="#eaeae8"/>
      <circle id="Elipse_4673" data-name="Elipse 4673" cx="4.56" cy="4.56" r="4.56" transform="translate(123.71 111.79)" fill="#eaeae8"/>
      <path id="Trazado_229471" data-name="Trazado 229471" d="M64.42,77.59H96.35V105H64.42Z" fill="#bf8920"/>
      <path id="Trazado_229472" data-name="Trazado 229472" d="M87.23,86.71H73.55V77.59H87.23Z" fill="#7b1fa2"/>
      <path id="Trazado_229473" data-name="Trazado 229473" d="M85,98.11H75.83a2.28,2.28,0,0,1,0-4.56H85a2.28,2.28,0,1,1,0,4.56Z" fill="#97661d"/>
      <path id="Trazado_229474" data-name="Trazado 229474" d="M32.5,77.59H64.42V105H32.5Z" fill="#feb62b"/>
      <path id="Trazado_229475" data-name="Trazado 229475" d="M55.3,86.71H41.62V77.59H55.3Z" fill="#02a437"/>
      <path id="Trazado_229476" data-name="Trazado 229476" d="M53,98.11H43.9a2.28,2.28,0,0,1,0-4.56H53a2.28,2.28,0,1,1,0,4.56Z" fill="#97661d"/>
      <path id="Trazado_229477" data-name="Trazado 229477" d="M48.46,50.23H80.39V77.59H48.46Z" fill="#fec555"/>
      <path id="Trazado_229478" data-name="Trazado 229478" d="M71.27,59.35H57.58V50.23H71.27Z" fill="#eaeae8"/>
      <path id="Trazado_229479" data-name="Trazado 229479" d="M69,70.75H59.86a2.28,2.28,0,0,1,0-4.56H69a2.28,2.28,0,1,1,0,4.56Z" fill="#97661d"/>
      <path id="Trazado_229480" data-name="Trazado 229480" d="M123.71,93.55h-6.84a2.28,2.28,0,0,1,0-4.56h6.84a2.28,2.28,0,0,1,0,4.56Z" fill="#961b20"/>
      <path id="Trazado_229481" data-name="Trazado 229481" d="M146.51,105H132.83l4.56-9.12h9.12Z" fill="#fd9226"/>
      <g id="Grupo_124771" data-name="Grupo 124771">
        <path id="Trazado_229482" data-name="Trazado 229482" d="M37.06,52.51H16.54a2.28,2.28,0,1,1,0-4.56H37.06a2.28,2.28,0,0,1,0,4.56Z" fill="#41b2ff"/>
        <path id="Trazado_229483" data-name="Trazado 229483" d="M34.78,61.63H16.54a2.28,2.28,0,1,1,0-4.56H34.78a2.28,2.28,0,0,1,0,4.56Z" fill="#41b2ff"/>
        <path id="Trazado_229484" data-name="Trazado 229484" d="M30.22,70.75H16.54a2.28,2.28,0,0,1,0-4.56H30.22a2.28,2.28,0,1,1,0,4.56Z" fill="#41b2ff"/>
      </g>
      <path id="Trazado_229485" data-name="Trazado 229485" d="M146.51,82.15H114.59V61.63h24Z" fill="#cbcbcb"/>
      <path id="Trazado_229486" data-name="Trazado 229486" d="M144.23,82.15H114.59V61.63h21.75Z" fill="#eaeae8"/>
    </g>
  </g>
</svg>
