<svg xmlns="http://www.w3.org/2000/svg" width="146.629" height="139.288" viewBox="0 0 146.629 139.288">
  <g id="Layer_2" data-name="Layer 2" transform="translate(-6.696 -10.366)">
    <g id="Layer_1" data-name="Layer 1">
      <path id="Trazado_229519" data-name="Trazado 229519" d="M18.34,24.69h0A44.19,44.19,0,0,1,80.79,22L139,72.86a44.2,44.2,0,0,1,2.7,62.45h0A44.19,44.19,0,0,1,79.21,138L21,87.14a44.2,44.2,0,0,1-2.66-62.45Z" fill="#a5cdf0"/>
    </g>
    <g id="Grupo_124773" data-name="Grupo 124773">
      <path id="Trazado_229520" data-name="Trazado 229520" d="M59.38,45.64v-16h41.24v16h6.87V31.9a9.17,9.17,0,0,0-9.17-9.16H61.68a9.17,9.17,0,0,0-9.17,9.16V45.64" fill="#12263f"/>
      <path id="Trazado_229521" data-name="Trazado 229521" d="M139.55,45.64H20.45a9.17,9.17,0,0,0-9.17,9.16v73.3a9.17,9.17,0,0,0,9.17,9.16h119.1a9.17,9.17,0,0,0,9.17-9.16V54.8A9.17,9.17,0,0,0,139.55,45.64Z" fill="#1762a3"/>
      <path id="Trazado_229522" data-name="Trazado 229522" d="M20.45,54.8h119.1v73.3H20.45Z" fill="#4b9be1"/>
      <circle id="Elipse_4674" data-name="Elipse 4674" cx="27.49" cy="27.49" r="27.49" transform="translate(52.51 63.96)" fill="#fff"/>
      <path id="Trazado_229523" data-name="Trazado 229523" d="M100.62,86.87h-16v-16h-9.2v16h-16V96h16v16h9.16V96h16Z" fill="#d23f34"/>
    </g>
  </g>
</svg>
