<svg xmlns="http://www.w3.org/2000/svg" width="146.629" height="139.288" viewBox="0 0 146.629 139.288">
  <g id="Layer_2" data-name="Layer 2" transform="translate(-6.696 -10.366)">
    <g id="Layer_1" data-name="Layer 1">
      <path id="Trazado_229487" data-name="Trazado 229487" d="M18.34,24.69h0A44.19,44.19,0,0,1,80.79,22L139,72.86a44.2,44.2,0,0,1,2.7,62.45h0A44.19,44.19,0,0,1,79.21,138L21,87.14a44.2,44.2,0,0,1-2.66-62.45Z" fill="#a5cdf0"/>
    </g>
    <path id="Trazado_229488" data-name="Trazado 229488" d="M25.3,85.77h107V124H25.3Z" fill="#8b8b8b"/>
    <path id="Trazado_229489" data-name="Trazado 229489" d="M25.3,85.77H126.53V124H25.3Z" fill="#bababa"/>
    <g id="Grupo_124772" data-name="Grupo 124772">
      <path id="Trazado_229490" data-name="Trazado 229490" d="M112.21,98.19a9.79,9.79,0,0,1,6.91-2.87h1.68V97a9.78,9.78,0,0,1-9.78,9.79h-1.68v-1.68a9.75,9.75,0,0,1,2.87-6.92Z" fill="#7c6749"/>
      <path id="Trazado_229491" data-name="Trazado 229491" d="M106.48,98.19a9.83,9.83,0,0,0-6.92-2.87H97.88V97a9.8,9.8,0,0,0,9.78,9.79h1.68v-1.68a9.79,9.79,0,0,0-2.86-6.92Z" fill="#7c6749"/>
      <path id="Trazado_229492" data-name="Trazado 229492" d="M81.65,98.19a9.79,9.79,0,0,1,6.91-2.87h1.68V97a9.78,9.78,0,0,1-9.78,9.79H78.78v-1.68A9.75,9.75,0,0,1,81.65,98.19Z" fill="#7c6749"/>
      <path id="Trazado_229493" data-name="Trazado 229493" d="M75.92,98.19A9.83,9.83,0,0,0,69,95.32H67.32V97a9.8,9.8,0,0,0,9.78,9.79h1.68v-1.68A9.79,9.79,0,0,0,75.92,98.19Z" fill="#7c6749"/>
      <path id="Trazado_229494" data-name="Trazado 229494" d="M51.08,98.19A9.83,9.83,0,0,1,58,95.32h1.68V97a9.8,9.8,0,0,1-9.78,9.79H48.22v-1.68a9.79,9.79,0,0,1,2.86-6.92Z" fill="#7c6749"/>
      <path id="Trazado_229495" data-name="Trazado 229495" d="M45.35,98.19a9.79,9.79,0,0,0-6.91-2.87H36.76V97a9.78,9.78,0,0,0,9.78,9.79h1.68v-1.68A9.75,9.75,0,0,0,45.35,98.19Z" fill="#7c6749"/>
    </g>
    <path id="Trazado_229496" data-name="Trazado 229496" d="M25.3,55.21h107V78.13H25.3Z" fill="#8b8b8b"/>
    <path id="Trazado_229497" data-name="Trazado 229497" d="M25.3,55.21H126.53V78.13H25.3Z" fill="#bababa"/>
    <path id="Trazado_229498" data-name="Trazado 229498" d="M21.48,78.13h114.6v7.64H21.48Z" fill="#3e3c44"/>
    <path id="Trazado_229499" data-name="Trazado 229499" d="M21.48,78.13H130.35v7.64H21.48Z" fill="#53505a"/>
    <path id="Trazado_229500" data-name="Trazado 229500" d="M76.87,87.68h3.82V124H76.87Z" fill="#96856d"/>
    <path id="Trazado_229501" data-name="Trazado 229501" d="M107.43,87.68h3.82V124h-3.82Z" fill="#96856d"/>
    <path id="Trazado_229502" data-name="Trazado 229502" d="M46.31,87.68h3.82V124H46.31Z" fill="#96856d"/>
    <path id="Trazado_229503" data-name="Trazado 229503" d="M84.51,28.47a3.82,3.82,0,1,0-2-7.08,3.43,3.43,0,0,0,.06-.56,3.82,3.82,0,1,0-7.64,0,3.43,3.43,0,0,0,.06.56,3.82,3.82,0,1,0-2,7.08Z" fill="#fdf57a"/>
    <path id="Trazado_229504" data-name="Trazado 229504" d="M69.23,28.47h19.1V39.93H69.23Z" fill="#95845c"/>
    <path id="Trazado_229505" data-name="Trazado 229505" d="M69.23,28.47H82.6V39.93H69.23Z" fill="#c7b07b"/>
    <path id="Trazado_229506" data-name="Trazado 229506" d="M25.3,47.57l7.64-7.64h91.68l7.64,7.64Z" fill="#8b8b8b"/>
    <path id="Trazado_229507" data-name="Trazado 229507" d="M32.94,39.93,25.3,47.57H126.53l-7.64-7.64Z" fill="#bababa"/>
    <path id="Trazado_229508" data-name="Trazado 229508" d="M21.48,47.57h114.6v7.64H21.48Z" fill="#3e3c44"/>
    <path id="Trazado_229509" data-name="Trazado 229509" d="M21.48,47.57H130.35v7.64H21.48Z" fill="#53505a"/>
    <path id="Trazado_229510" data-name="Trazado 229510" d="M21.48,124h114.6v7.64H21.48Z" fill="#3e3c44"/>
    <path id="Trazado_229511" data-name="Trazado 229511" d="M21.48,124H130.35v7.64H21.48Z" fill="#53505a"/>
    <path id="Trazado_229512" data-name="Trazado 229512" d="M67.32,78.13V66.67l5.73,5.73,5.73-5.73,5.73,5.73,5.73-5.73V78.13a11.46,11.46,0,0,1-22.92,0Z" fill="#7c6749"/>
    <path id="Trazado_229513" data-name="Trazado 229513" d="M73.05,72.4l-5.73-5.73V78.13a11.47,11.47,0,0,0,8.6,11.09,11.46,11.46,0,0,0,8.59-11.09V72.4l-5.73-5.73Z" fill="#a58961"/>
    <path id="Trazado_229514" data-name="Trazado 229514" d="M97.88,78.13V66.67l5.73,5.73,5.73-5.73,5.73,5.73,5.73-5.73V78.13a11.46,11.46,0,1,1-22.92,0Z" fill="#7c6749"/>
    <path id="Trazado_229515" data-name="Trazado 229515" d="M103.61,72.4l-5.73-5.73V78.13a11.47,11.47,0,0,0,8.6,11.09,11.46,11.46,0,0,0,8.59-11.09V72.4l-5.73-5.73Z" fill="#a58961"/>
    <path id="Trazado_229516" data-name="Trazado 229516" d="M36.76,78.13V66.67l5.73,5.73,5.73-5.73L54,72.4l5.73-5.73V78.13a11.46,11.46,0,0,1-22.92,0Z" fill="#7c6749"/>
    <path id="Trazado_229517" data-name="Trazado 229517" d="M42.49,72.4l-5.73-5.73V78.13a11.46,11.46,0,0,0,8.59,11.09A11.47,11.47,0,0,0,54,78.13V72.4l-5.73-5.73Z" fill="#a58961"/>
  </g>
</svg>
