<svg xmlns="http://www.w3.org/2000/svg" width="287.374" height="284.523" viewBox="0 0 287.374 284.523">
  <g id="Layer_2" data-name="Layer 2" transform="translate(-9.977 -9.16)">
    <path id="Trazado_102071" data-name="Trazado 102071" d="M21.58,143.81a41.13,41.13,0,0,1,.73-58h0a41.12,41.12,0,0,1,58,.73h0a17.4,17.4,0,0,0,24.52.3h0a17.38,17.38,0,0,0,.3-24.51l-1.44-1.48A18.08,18.08,0,0,1,104,35.38h0a18.09,18.09,0,0,1,25.49.32l4.42,4.53a7,7,0,0,0,9.92.13h0a7,7,0,0,0,.13-9.92l-3.25-3.33a4.87,4.87,0,0,1,.08-6.85h0a4.87,4.87,0,0,1,6.85.08l21.83,22.39a7.64,7.64,0,0,0,10.76.13h0a7.63,7.63,0,0,0,.14-10.76l-6.53-6.69a4.86,4.86,0,0,1,.09-6.85h0a4.84,4.84,0,0,1,6.84.09l95.6,98a6.35,6.35,0,0,1-.12,8.94h0a6.33,6.33,0,0,1-8.93-.11l-6.7-6.87a10,10,0,0,0-14-.17h0a10,10,0,0,0-.17,14L272.29,159a6.34,6.34,0,0,1-.11,8.94h0a6.35,6.35,0,0,1-8.94-.12l-4.24-4.3a9.19,9.19,0,0,0-12.95-.16h0a9.19,9.19,0,0,0-.17,12.95l5.77,5.91a23.59,23.59,0,0,1-.42,33.26h0a23.58,23.58,0,0,1-33.25-.42l-1.88-1.93a22.7,22.7,0,0,0-32-.4h0a22.68,22.68,0,0,0-.4,32l4.07,4.17a22.88,22.88,0,0,1-.41,32.26h0a22.86,22.86,0,0,1-32.25-.41Zm257-6.75a6.31,6.31,0,1,0,.11-8.93,6.31,6.31,0,0,0-.11,8.93ZM131.21,17.38a4.84,4.84,0,1,0,.09-6.85,4.84,4.84,0,0,0-.09,6.85Z" fill="#d2e6f7" fill-rule="evenodd"/>
    <rect id="Rectángulo_34007" data-name="Rectángulo 34007" width="25.97" height="351.72" rx="12.98" transform="translate(14.222 40.952) rotate(-47.48)" fill="#affde3"/>
    <path id="Trazado_102072" data-name="Trazado 102072" d="M154.38,290.92h0a8.47,8.47,0,0,1-12,.52L24.53,173.86a8.47,8.47,0,0,1-.52-12h0a8.47,8.47,0,0,1,12-.52L153.86,279a8.46,8.46,0,0,1,.52,11.92Z" fill="#4b9be1"/>
    <g id="Grupo_87689" data-name="Grupo 87689">
      <path id="Trazado_102073" data-name="Trazado 102073" d="M128.31,22.16a.58.58,0,0,0-.58-.57.57.57,0,0,0-.57.57v1.36H125.8a.58.58,0,0,0,0,1.15h1.36V26a.57.57,0,0,0,.57.58.58.58,0,0,0,.58-.58V24.67h1.35a.58.58,0,1,0,0-1.15h-1.35Z" fill="#9fb2d9" fill-rule="evenodd"/>
      <g id="Grupo_87688" data-name="Grupo 87688">
        <g id="Grupo_87675" data-name="Grupo 87675">
          <g id="Grupo_87673" data-name="Grupo 87673">
            <path id="Trazado_102074" data-name="Trazado 102074" d="M233.69,121.32c3.83-5.54,11.85-14.77,27.18-24,24.25-14.53,42.63-33.79,34.55-45.18C287.5,41,252,62.59,222.49,116.58a64.42,64.42,0,0,0,11.2,4.74Z" fill="#99bdef" fill-rule="evenodd"/>
            <path id="Trazado_102075" data-name="Trazado 102075" d="M229,116.39a14.9,14.9,0,0,1,4.78.66.31.31,0,0,0,.38-.21.3.3,0,0,0-.2-.38,15.75,15.75,0,0,0-4.6-.69c.53-.89,1.05-1.77,1.58-2.63,1.07,0,4.52-.1,5.82,0a.32.32,0,0,0,.32-.3.3.3,0,0,0-.29-.32c-1.19-.07-4.12,0-5.48,0q1.5-2.415,3-4.7a71.624,71.624,0,0,1,7.8.59.31.31,0,0,0,.08-.61c-3.22-.43-6.17-.55-7.49-.59,1-1.53,2-3,3-4.46a105.4,105.4,0,0,1,11.15.84.29.29,0,0,0,.34-.26.31.31,0,0,0-.26-.35,103.38,103.38,0,0,0-10.81-.83c1.31-1.89,2.61-3.7,3.9-5.45,1.49-.06,7.64-.22,12.27,1.27a.32.32,0,0,0,.39-.2.31.31,0,0,0-.2-.39c-4.31-1.38-9.9-1.37-12-1.31,1.59-2.12,3.18-4.14,4.74-6,2,.11,10.18.73,14,3.43a.31.31,0,1,0,.35-.5c-3.7-2.62-11.23-3.34-13.85-3.52,1.66-2,3.31-3.91,4.93-5.7A63.921,63.921,0,0,1,266,88.48a.31.31,0,0,0,.41-.14.3.3,0,0,0-.13-.41A64.671,64.671,0,0,0,253,83.19c1-1,1.92-2.06,2.86-3a69.13,69.13,0,0,1,15.42,5.52.31.31,0,1,0,.27-.55,71.47,71.47,0,0,0-15.18-5.49q3.38-3.44,6.54-6.27c1.79.6,10.85,3.66,15.62,6.7A.32.32,0,0,0,279,80a.31.31,0,0,0-.1-.42c-4.58-2.91-13-5.84-15.41-6.65,1.23-1.08,2.44-2.11,3.62-3.07a90.57,90.57,0,0,1,15,6.71.32.32,0,0,0,.42-.11.31.31,0,0,0-.11-.43,91.3,91.3,0,0,0-14.71-6.63c2.76-2.22,5.36-4.1,7.76-5.68a55.87,55.87,0,0,1,13.5,5,.3.3,0,0,0,.42-.11.32.32,0,0,0-.11-.42,55.451,55.451,0,0,0-13.1-5c1-.64,1.94-1.23,2.86-1.78a47.77,47.77,0,0,1,11.65,3,.31.31,0,0,0,.4-.18.3.3,0,0,0-.18-.39,49.709,49.709,0,0,0-11-2.91c7.38-4.26,12-5.35,12-5.36a.46.46,0,1,0-.22-.89,34.151,34.151,0,0,0-5.54,2,27.907,27.907,0,0,1,2.67-3.1.3.3,0,0,0,.11-.42.31.31,0,0,0-.43-.1,40.422,40.422,0,0,0-3.58,4.18q-2.13,1-4.82,2.5l3-6.05a.3.3,0,0,0-.13-.41.31.31,0,0,0-.42.13l-3.46,6.89c-1.23.71-2.53,1.52-3.89,2.41l3.28-7.17a.31.31,0,0,0-.56-.25L274.2,63.4c-2.05,1.38-4.23,3-6.53,4.78l2.85-7.43a.31.31,0,1,0-.58-.22L266.72,69c-1.05.85-2.12,1.74-3.21,2.69L265.92,65a.31.31,0,0,0-.18-.4.32.32,0,0,0-.4.19l-2.79,7.74c-2,1.8-4.1,3.77-6.24,5.93l1.82-6.54a.31.31,0,0,0-.22-.38.3.3,0,0,0-.37.22l-2.12,7.6c-.84.87-1.7,1.78-2.56,2.71l1-5a.312.312,0,1,0-.61-.13l-1.22,6q-2.4,2.64-4.87,5.61l.95-5.57a.3.3,0,0,0-.25-.35.29.29,0,0,0-.35.25l-1.13,6.61q-2.16,2.64-4.35,5.54l.62-4.94a.31.31,0,0,0-.27-.35.32.32,0,0,0-.35.27l-.75,6q-1.91,2.57-3.84,5.34V96.89a.3.3,0,0,0-.3-.31.31.31,0,0,0-.31.31v5.36c-.93,1.35-1.86,2.75-2.79,4.18l-.48-3.81a.31.31,0,0,0-.34-.26.3.3,0,0,0-.27.34l.57,4.53c-.86,1.33-1.72,2.68-2.58,4.08l-.44-2.46a.32.32,0,0,0-.36-.25.31.31,0,0,0-.25.36l.57,3.14c-.64,1-1.28,2.12-1.92,3.2l-1-2a.3.3,0,0,0-.41-.13.31.31,0,0,0-.14.41l1.2,2.37-1.57,2.71.85.38C228,118.11,228.46,117.24,229,116.39Z" fill="#fff" fill-rule="evenodd"/>
          </g>
          <g id="Grupo_87674" data-name="Grupo 87674">
            <path id="Trazado_102076" data-name="Trazado 102076" d="M229.3,124.47c4.1-2.59,11.33-6.07,22.25-7.62,18.53-2.64,35.07-10.24,33.81-20.37-1.2-9.76-27.47-6-60.16,20.48l4.08,7.48Z" fill="#9fb2d9" fill-rule="evenodd"/>
            <path id="Trazado_102077" data-name="Trazado 102077" d="M280.36,98a.64.64,0,1,0,0-1.27,44.35,44.35,0,0,0-5.62.47l3-2a.42.42,0,0,0,.12-.59.43.43,0,0,0-.59-.11l-4.49,3c-1.65.27-3.52.63-5.58,1.13l3.18-3a.43.43,0,0,0-.59-.62L265.56,99c-2.15.56-4.46,1.25-6.92,2.11l2.66-2.73a.424.424,0,1,0-.61-.59l-3.88,4c-2.57,1-5.28,2.11-8.07,3.48L251,102.4a.42.42,0,1,0-.66-.52L247,106.17c-2.62,1.35-5.32,2.89-8.06,4.65l.92-2a.42.42,0,0,0-.76-.36l-1.51,3.2c-2.08,1.39-4.17,2.9-6.28,4.55l.85-2a.43.43,0,0,0-.23-.56.42.42,0,0,0-.55.23l-1.45,3.43c-1,.84-2,1.7-3.08,2.6l.63,1.15c1-.91,2-1.78,3.07-2.61a15.249,15.249,0,0,1,4.61.83.43.43,0,0,0,.58-.18.42.42,0,0,0-.18-.57,13.2,13.2,0,0,0-4-.86c.81-.64,1.62-1.27,2.43-1.87a17.94,17.94,0,0,1,5.23,1.62.43.43,0,0,0,.42-.74,17.54,17.54,0,0,0-4.72-1.57c1.66-1.22,3.32-2.35,5-3.4,1.41.59,5.88,2.48,7.63,3.93a.44.44,0,0,0,.6-.06.43.43,0,0,0-.06-.6c-1.64-1.35-5.47-3-7.29-3.82q2.64-1.65,5.21-3a38.62,38.62,0,0,1,9,4.79.42.42,0,0,0,.6-.07.43.43,0,0,0-.07-.59,38,38,0,0,0-8.57-4.66c.85-.44,1.69-.87,2.52-1.27a40.92,40.92,0,0,1,11,5.5.422.422,0,1,0,.5-.68,41.9,41.9,0,0,0-10.39-5.35,89.181,89.181,0,0,1,8.64-3.53c1.61,1,7.88,4.94,10.62,7.54a.421.421,0,1,0,.58-.61c-2.53-2.41-7.95-5.9-10.17-7.29,2-.69,4-1.25,5.77-1.72,1.45,1.11,6.83,5.22,8.07,6.3a.43.43,0,0,0,.56-.64c-1.15-1-5.64-4.44-7.58-5.92,2.36-.58,4.47-1,6.29-1.29,1.3,1.14,4.45,3.88,5.18,4.62a.43.43,0,0,0,.6,0,.42.42,0,0,0,0-.6c-.65-.66-3.19-2.88-4.68-4.18A44.93,44.93,0,0,1,280.36,98Z" fill="#99bdef" fill-rule="evenodd"/>
          </g>
          <path id="Trazado_102078" data-name="Trazado 102078" d="M136.59,133.36q-.39-5.54-.38-10.75c0-3.53.17-6.94.47-10.22a89.61,89.61,0,0,1,8.52-31.9,72.15,72.15,0,0,1,19-24.12,82.37,82.37,0,0,1,24-13.58,107.779,107.779,0,0,1,29.51-6.21c3.43-.25,6.89-.36,10.35-.33s7,.21,10.48.52h0a1.44,1.44,0,0,1,1.3,1.55v.1c-.15,1.36-3.27,30.35-17.39,56.54-14.29,26.5-39.79,50.15-84.73,39.74a1.48,1.48,0,0,1-.78-.49,1.43,1.43,0,0,1-.32-.84ZM238.25,39A149.243,149.243,0,0,0,220,48c3.78.67,12.35,2.26,16.2,3.49,1.28-6.16,1.88-10.66,2.09-12.43Zm-2.37,13.78h0c-4.44-1.45-16-3.47-17.77-3.77-4.82,2.8-10.25,6.21-16,10.31l30.08,7.91c1.6-5.29,2.82-10.21,3.73-14.44Zm-4.13,15.75-31.13-8.19a207.844,207.844,0,0,0-16.7,13.43c6.17,1.88,35.69,10.92,40.69,13.45a155.359,155.359,0,0,0,7.14-18.69ZM224,88.5c-5-2.58-37.61-12.5-41.3-13.62-4.55,4.12-9.12,8.65-13.62,13.61l46.36,14.8.16.07c2-3,3.82-6,5.49-9.11,1-1.9,2-3.83,2.91-5.75Zm-9.2,16L168.1,89.61c-3.5,3.91-6.95,8.08-10.29,12.52,7.56,2.56,46.25,14.59,46.37,14.63a.59.59,0,0,1,.27.17,85.621,85.621,0,0,0,10.38-12.4ZM203.39,118c-4.1-1.28-40.32-12.56-46.44-14.67q-4.29,5.81-8.31,12.21c9.14,4.52,39.87,12.49,40,12.52a.67.67,0,0,1,.42.31A66.661,66.661,0,0,0,203.39,118Zm-15.93,11.18c-4.93-1.3-31.22-8.31-39.55-12.47q-2.55,4.16-4.95,8.58c3.51,1.38,19.23,7.42,29.38,8.45a.71.71,0,0,1,.6.5,62.251,62.251,0,0,0,14.52-5.06Zm-17.53,5.63c-10.4-1.62-24.63-7.12-27.62-8.31-1.21,2.27-2.38,4.58-3.52,7,11.68,2.62,22,2.88,31.14,1.36ZM138,131.91c1-2.17,2.14-4.29,3.25-6.38-1.4-3.89-2.44-10.63-3-14.41,0,.47-.09.93-.13,1.4-.29,3.24-.45,6.6-.46,10.09,0,3,.08,6.09.29,9.3Zm.72-24.32a.7.7,0,0,1,.6.61s1.09,9.92,2.83,15.68q2.31-4.23,4.78-8.22a134,134,0,0,1-4.53-24.31,91.819,91.819,0,0,0-3.68,16.24Zm4.46-18.52a.69.69,0,0,1,.46.6,131.139,131.139,0,0,0,4.27,24.42q3.89-6.15,8-11.74c-.81-2.39-5.49-16.6-6.14-27.16a64.625,64.625,0,0,0-3.27,6,77.668,77.668,0,0,0-3.36,7.93ZM150.8,73.6a.68.68,0,0,1,.32.56c.37,9.55,4.49,22.78,5.82,26.85q5-6.54,10.14-12.32a73.6,73.6,0,0,1-7.23-26.33,70.8,70.8,0,0,0-9,11.24ZM161,61.23a.67.67,0,0,1,.2.47s.13,11.33,6.88,25.89c4.51-5,9.1-9.51,13.66-13.66C179,67.71,176.31,52.21,176,50.1a75.638,75.638,0,0,0-10.79,7.42c-1.43,1.18-2.81,2.41-4.16,3.71Zm16.18-11.82a.53.53,0,0,1,.08.22S180,66.19,182.82,73a207.217,207.217,0,0,1,16.91-13.61,77.141,77.141,0,0,1-1.94-18c-3.08.81-6.12,1.76-9.09,2.85a86.65,86.65,0,0,0-11.52,5.23Zm22-8.43a1.1,1.1,0,0,1,0,.18,76.609,76.609,0,0,0,1.76,17.33c5.87-4.19,11.4-7.68,16.32-10.53a50.119,50.119,0,0,1-.2-9.84A111.459,111.459,0,0,0,199.15,41Zm19.28-3v.1a49.648,49.648,0,0,0,.1,9.1,160.344,160.344,0,0,1,18.33-9.1q-4.4-.34-8.82-.38c-3.22.01-6.43.1-9.64.3Z" fill="#9fb2d9" fill-rule="evenodd"/>
        </g>
        <g id="Grupo_87677" data-name="Grupo 87677">
          <path id="Trazado_102079" data-name="Trazado 102079" d="M64,225.55s-13.64-7-11.14-24.3-8.06-22.74-10.74-27.87S45.46,160,44.77,152.7s-9.05-9.2-5.13-19.15.61-13.73-4.56-24.39,2.49-27,6.13-26.87-.8,3.9,2.4,11,16.67,9.24,20.89,15.17-3.2,13.78,1.61,21.77,19.16,5.52,23,13.28-5.25,17.07-2.62,25.2S98.75,181.45,102.83,188s11.71,19.06-.79,34S64,225.55,64,225.55Z" fill="#9fb2d9" fill-rule="evenodd"/>
          <g id="Grupo_87676" data-name="Grupo 87676">
            <path id="Trazado_102080" data-name="Trazado 102080" d="M39.71,97.08a.89.89,0,0,1,1.66-.64L97.79,243l-2.13-.58Z" fill="#99bdef" fill-rule="evenodd"/>
            <path id="Trazado_102081" data-name="Trazado 102081" d="M52.7,208c-.07-.68-.12-1.38-.13-2.1l37.06,20.82-3.28-8.52a.42.42,0,0,1,0-.1l-1.68-4.37L53.25,196.12a17.738,17.738,0,0,0-.08-2.08l30.46,17.12-3-7.7-29-16.29a23.129,23.129,0,0,0-1.25-2.75l29.24,16.44L78.19,197a.54.54,0,0,1,0-.11l-6.49-16.7-29-16.31c.17-.57.35-1.16.52-1.74L70.7,177.59l-3.21-8.35L44.63,156.39c.09-.65.16-1.29.19-1.93l21.67,12.18-2.42-6.28v-.09L57,142l-17-9.53c.22-.6.4-1.17.56-1.72L56,139.42l-6.14-15.94v-.09L39.71,97.08a.89.89,0,0,1,1.66-.64l9.2,23.91,5.26-18,1.61.83-5.82,19.87,6.92,18v.07L65,157.72l10.09-21.64,1.72.52L65.84,160l2.44,6.33,13.3-28.3c.58.2,1.13.41,1.67.63L69.36,168.25l.21.12a.89.89,0,0,1,.34,1.21,1,1,0,0,1-.27.3l3.59,9.33v.08l5.81,15.1,9.86-21q.58.8,1.23,1.56L80,196.69l1.49,3.89,10.93-23.25c.45.44.9.87,1.36,1.29l-11.4,24.26,3.81,9.9v.08l1.06,2.74,14-29.78c.43.52.84,1.05,1.21,1.6L88.12,217.9l4,10.47v.08h0c-.69.22-1.4.4-2.11.56Z" fill="#99bdef" fill-rule="evenodd"/>
          </g>
        </g>
        <g id="Grupo_87678" data-name="Grupo 87678">
          <path id="Trazado_102082" data-name="Trazado 102082" d="M57.66,261.76c-3.75-2.92-7.61-4.24-9.65-6.13-4.06-3.76-1.32-13.15-4.27-19.46S32.64,230.81,33,220.6s-3.91-12.55-12-20.48S14.58,175.07,17.88,174s.53,3.77,5.69,9.11,18,2.95,23.68,6.93,1.55,13.42,8.46,19.07,19-1.2,24.91,4.56.77,17,5.76,23.52,15.18,7.51,21,12.08c3.24,2.56,8.11,6.47,10.6,12.51Z" fill="#c0cdea" fill-rule="evenodd"/>
          <path id="Trazado_102083" data-name="Trazado 102083" d="M85,261.76l-8.2-9.52-31.35-5.33-.09-1.74,29.71,5.05-5.58-6.47-24.7-4.21a15.14,15.14,0,0,0-.46-1.79l23.42,4-4.2-4.87-.06-.07L51.31,222.63,33,219.51v-1.73l16.64,2.83L38.93,208.25l-.07-.08-17.57-20.4a.84.84,0,0,1,.09-1.2.83.83,0,0,1,1.19.09l16,18.54-1-17.85,1.72.22,1.16,19.75,12,13.94.05.05L63.6,234.2l2.11-22.72,1.72-.08L65.05,236l4.24,4.91,2.86-29.74h1.7l-3,31.07h.23a.85.85,0,0,1,.7,1,1,1,0,0,1-.15.36l6.23,7.24v.06l9.33,10.83Zm3.09,0,2-21.14c.52.35,1.06.69,1.61,1l-1.94,20.14Zm4.59,0L94.5,243c.54.25,1.09.49,1.64.72l-1.74,18Zm11.16,0,1.35-13.95a18.337,18.337,0,0,1,1.6,1l-1.24,12.91Z" fill="#e1e8f6" fill-rule="evenodd"/>
        </g>
        <path id="Trazado_102084" data-name="Trazado 102084" d="M16.33,261.53H12.91a2.61,2.61,0,0,1-2.6-2.6h0a2.61,2.61,0,0,1,2.6-2.6h3.42a2.61,2.61,0,0,1,2.6,2.6h0A2.61,2.61,0,0,1,16.33,261.53Z" fill="#12263f" fill-rule="evenodd"/>
        <path id="Trazado_102085" data-name="Trazado 102085" d="M24.69,261.53h268.5a2.61,2.61,0,0,0,2.6-2.6h0a2.61,2.61,0,0,0-2.6-2.6H24.69a2.61,2.61,0,0,0-2.6,2.6h0a2.61,2.61,0,0,0,2.6,2.6Z" fill="#12263f" fill-rule="evenodd"/>
        <path id="Trazado_102086" data-name="Trazado 102086" d="M88.24,46.89Zm2.18-8.29a4.1,4.1,0,1,0,.04-.04Zm.91-4.15a7.24,7.24,0,0,0-1.64.7,7.32,7.32,0,0,0-1.44,1.08.25.25,0,0,1-.31,0l-2-1.12h0a.48.48,0,0,0-.35,0,.49.49,0,0,0-.3.23h0L84,37.71a.48.48,0,0,0,0,.37.49.49,0,0,0,.22.29h0l1.93,1.11a.28.28,0,0,1,.12.29h0a6.221,6.221,0,0,0-.16.88,6.86,6.86,0,0,0,0,1.81,6.49,6.49,0,0,0,.16.88.25.25,0,0,1-.14.29L84.2,44.75h0a.46.46,0,0,0-.22.29.49.49,0,0,0,0,.37l1.37,2.38h0a.52.52,0,0,0,.3.23A.5.5,0,0,0,86,48h0l1.93-1.12a.27.27,0,0,1,.31,0A7.37,7.37,0,0,0,89.69,48a7.58,7.58,0,0,0,1.65.7.27.27,0,0,1,.19.25v2.24a.48.48,0,0,0,.14.34.44.44,0,0,0,.34.14h2.75a.48.48,0,0,0,.48-.48V48.93a.26.26,0,0,1,.2-.25,7.71,7.71,0,0,0,1.64-.7,7.37,7.37,0,0,0,1.44-1.09.27.27,0,0,1,.32,0L100.77,48a.54.54,0,0,0,.37.05.48.48,0,0,0,.29-.23h0l1.37-2.37h0a.46.46,0,0,0,0-.36.44.44,0,0,0-.23-.29l-1.94-1.13a.24.24,0,0,1-.12-.28h0a8.518,8.518,0,0,0,.16-.88,6.86,6.86,0,0,0,0-1.81,8.06,8.06,0,0,0-.16-.88.28.28,0,0,1,.13-.3l1.93-1.11a.47.47,0,0,0,.23-.29.49.49,0,0,0,0-.37h0l-1.37-2.37h0a.44.44,0,0,0-.29-.23.46.46,0,0,0-.36,0h0l-2,1.12a.26.26,0,0,1-.31,0,7.23,7.23,0,0,0-1.44-1.08,7.31,7.31,0,0,0-1.65-.7.27.27,0,0,1-.19-.25V32a.44.44,0,0,0-.14-.34.49.49,0,0,0-.34-.15H92a.45.45,0,0,0-.34.15.44.44,0,0,0-.14.34v2.2a.27.27,0,0,1-.19.25Z" fill="#c0cdea" fill-rule="evenodd"/>
        <g id="Grupo_87683" data-name="Grupo 87683">
          <g id="Grupo_87681" data-name="Grupo 87681">
            <g id="Grupo_87680" data-name="Grupo 87680">
              <path id="Trazado_102087" data-name="Trazado 102087" d="M155.25,134.21h-42.8a2.83,2.83,0,0,0-2.82,2.83h0a2.83,2.83,0,0,0,2.82,2.82h42.8a2.83,2.83,0,0,0,2.83-2.82h0A2.83,2.83,0,0,0,155.25,134.21Z" fill="#12263f" fill-rule="evenodd"/>
              <path id="Trazado_102088" data-name="Trazado 102088" d="M153.82,114.08H134a.36.36,0,0,0-.34.29l-3.55,25.2a.26.26,0,0,0,.26.29h27.07a.25.25,0,0,0,.26-.29l-3.55-25.2a.36.36,0,0,0-.33-.29Z" fill="#3b405f" fill-rule="evenodd"/>
              <path id="Trazado_102089" data-name="Trazado 102089" d="M165.7,134.21H122.9a2.83,2.83,0,0,0-2.83,2.83h0a2.83,2.83,0,0,0,2.83,2.82h42.8a2.84,2.84,0,0,0,2.83-2.82h0A2.84,2.84,0,0,0,165.7,134.21Z" fill="#3b405f" fill-rule="evenodd"/>
              <rect id="Rectángulo_34008" data-name="Rectángulo 34008" width="97.82" height="66.38" rx="1.46" transform="translate(90.89 58.57)" fill="#12263f"/>
              <rect id="Rectángulo_34009" data-name="Rectángulo 34009" width="97.82" height="66.38" rx="1.46" transform="translate(95.53 58.57)" fill="#3b405f"/>
              <path id="Trazado_102090" data-name="Trazado 102090" d="M191.09,59.52H97.79a1,1,0,0,0-1,1v57.22a.6.6,0,0,0,.6.6h94a.6.6,0,0,0,.6-.6V60.49a1,1,0,0,0-.9-.97Z" fill="#101537" fill-rule="evenodd"/>
              <rect id="Rectángulo_34010" data-name="Rectángulo 34010" width="89.76" height="53.31" transform="translate(99.56 62.26)" fill="#bff5e3"/>
              <path id="Trazado_102091" data-name="Trazado 102091" d="M136.12,127.57l-.94,6.64h-4.3l1.3-9.26h23.47l.33,2.32H136.46a.34.34,0,0,0-.34.3Z" fill="#101537" fill-rule="evenodd"/>
              <rect id="Rectángulo_34011" data-name="Rectángulo 34011" width="90.07" height="3.07" transform="translate(99.56 62.26)" fill="#fff"/>
              <rect id="Rectángulo_34012" data-name="Rectángulo 34012" width="90.07" height="3.07" transform="translate(99.56 112.51)" fill="#fff"/>
              <rect id="Rectángulo_34013" data-name="Rectángulo 34013" width="22.62" height="1.76" transform="translate(100.12 62.92)" fill="#e4e1e8"/>
              <path id="Trazado_102092" data-name="Trazado 102092" d="M121.66,64.18a.39.39,0,1,0-.389-.172.39.39,0,0,0,.389.172Z" fill="#954cb5" fill-rule="evenodd"/>
              <path id="Trazado_102093" data-name="Trazado 102093" d="M120.48,64.18a.39.39,0,1,0-.39-.38.39.39,0,0,0,.39.38Z" fill="#954cb5" fill-rule="evenodd"/>
              <path id="Trazado_102094" data-name="Trazado 102094" d="M119.3,64.18a.39.39,0,1,0-.38-.38A.38.38,0,0,0,119.3,64.18Z" fill="#954cb5" fill-rule="evenodd"/>
              <rect id="Rectángulo_34014" data-name="Rectángulo 34014" width="22.62" height="1.76" transform="translate(123.81 62.92)" fill="#e4e1e8"/>
              <path id="Trazado_102095" data-name="Trazado 102095" d="M145.34,64.18a.39.39,0,1,0-.38-.38A.38.38,0,0,0,145.34,64.18Z" fill="#954cb5" fill-rule="evenodd"/>
              <path id="Trazado_102096" data-name="Trazado 102096" d="M144.17,64.18a.39.39,0,1,0-.39-.38.39.39,0,0,0,.39.38Z" fill="#954cb5" fill-rule="evenodd"/>
              <path id="Trazado_102097" data-name="Trazado 102097" d="M143,64.18a.39.39,0,1,0-.38-.38A.38.38,0,0,0,143,64.18Z" fill="#954cb5" fill-rule="evenodd"/>
              <g id="Grupo_87679" data-name="Grupo 87679">
                <rect id="Rectángulo_34015" data-name="Rectángulo 34015" width="10.71" height="3.57" transform="translate(132.28 106.56)" fill="#fff"/>
                <rect id="Rectángulo_34016" data-name="Rectángulo 34016" width="10.71" height="3.57" transform="translate(145.88 106.56)" fill="#fff"/>
                <text id="RELOAD" transform="translate(134.47 109.06)" fill="#954cb5" font-size="1.57" font-family="OpenSans-Bold, Open Sans" font-weight="700"><tspan x="0" y="0">RELOAD</tspan></text>
                <text id="HOME" transform="translate(148.8 109.06)" fill="#954cb5" font-size="1.57" font-family="OpenSans-Bold, Open Sans" font-weight="700"><tspan x="0" y="0">HOME</tspan></text>
              </g>
              <path id="Trazado_102098" data-name="Trazado 102098" d="M106.48,100.81H182.4a.49.49,0,0,1,.48.48h0a.49.49,0,0,1-.48.49H106.48a.48.48,0,0,1-.48-.49h0a.48.48,0,0,1,.48-.48Z" fill="#fff" fill-rule="evenodd"/>
              <path id="Trazado_102099" data-name="Trazado 102099" d="M112.43,103.1h64a.49.49,0,0,1,.48.48h0a.48.48,0,0,1-.48.48h-64a.48.48,0,0,1-.49-.48h0a.49.49,0,0,1,.49-.48Z" fill="#fff" fill-rule="evenodd"/>
              <g id="Grupo">
                <text id="Código_" data-name="Código " transform="translate(123.9 75.51)" fill="#12263f" font-size="12.59" font-family="Roboto-Regular, Roboto"><tspan x="0" y="0">Código </tspan></text>
                <text id="Sustanti" transform="translate(114.21 90.61)" fill="#12263f" font-size="12.59" font-family="Roboto-Regular, Roboto"><tspan x="0" y="0">Sustanti</tspan></text>
                <text id="v" transform="translate(160.17 90.61)" fill="#12263f" font-size="12.59" font-family="Roboto-Regular, Roboto" letter-spacing="-0.01em"><tspan x="0" y="0">v</tspan></text>
                <text id="o_" data-name="o " transform="translate(166.17 90.61)" fill="#12263f" font-size="12.59" font-family="Roboto-Regular, Roboto"><tspan x="0" y="0">o </tspan></text>
                <text id="del_" data-name="del " transform="translate(112.94 105.72)" fill="#12263f" font-size="12.59" font-family="Roboto-Regular, Roboto"><tspan x="0" y="0">del </tspan></text>
                <text id="T" transform="translate(132.63 105.72)" fill="#12263f" font-size="12.59" font-family="Roboto-Regular, Roboto" letter-spacing="-0.04em"><tspan x="0" y="0">T</tspan></text>
                <text id="r" transform="translate(139.67 105.72)" fill="#12263f" font-size="12.59" font-family="Roboto-Regular, Roboto" letter-spacing="-0.02em"><tspan x="0" y="0">r</tspan></text>
                <text id="abajo" transform="translate(143.69 105.72)" fill="#12263f" font-size="12.59" font-family="Roboto-Regular, Roboto"><tspan x="0" y="0">abajo</tspan></text>
              </g>
            </g>
            <path id="Trazado_102100" data-name="Trazado 102100" d="M143.77,131.38h55.64a5.68,5.68,0,0,1,5.66,5.66h0a5.68,5.68,0,0,1-5.66,5.65H143.77a5.67,5.67,0,0,1-5.65-5.65h0A5.67,5.67,0,0,1,143.77,131.38Z" fill="#101537" fill-rule="evenodd"/>
            <path id="Trazado_102101" data-name="Trazado 102101" d="M133.15,131.38h25.77a5.67,5.67,0,0,1,5.65,5.66h0a5.67,5.67,0,0,1-5.65,5.65H133.15A5.67,5.67,0,0,1,127.5,137h0A5.67,5.67,0,0,1,133.15,131.38Z" fill="#070725" fill-rule="evenodd"/>
          </g>
          <rect id="Rectángulo_34017" data-name="Rectángulo 34017" width="178.87" height="21.09" rx="3.16" transform="translate(101.25 140.63)" fill="#101537"/>
          <path id="Trazado_102102" data-name="Trazado 102102" d="M104.33,140.63H277.05a3.12,3.12,0,0,1,3.07,3.16v5.81a3.12,3.12,0,0,1-3.07,3.16H104.33a3.12,3.12,0,0,1-3.08-3.16v-5.81a3.12,3.12,0,0,1,3.08-3.16Z" fill="#12263f" fill-rule="evenodd"/>
          <rect id="Rectángulo_34018" data-name="Rectángulo 34018" width="54.3" height="115.29" rx="3.28" transform="translate(53.72 140.89)" fill="#12263f"/>
          <path id="Trazado_102103" data-name="Trazado 102103" d="M104.15,140.89h42.74a2.93,2.93,0,0,1,2.93,2.93V253.25a2.94,2.94,0,0,1-2.94,2.94H104.15a2.94,2.94,0,0,1-2.94-2.94V143.83A2.94,2.94,0,0,1,104.15,140.89Z" fill="#101537"/>
          <rect id="Rectángulo_34019" data-name="Rectángulo 34019" width="187.33" height="7.19" rx="1.08" transform="translate(101.25 137.04)" fill="#d58750"/>
          <rect id="Rectángulo_34020" data-name="Rectángulo 34020" width="55.02" height="7.19" rx="1.08" transform="translate(48.13 137.04)" fill="#b56b41"/>
          <rect id="Rectángulo_34021" data-name="Rectángulo 34021" width="41.33" height="33.14" rx="2.45" transform="translate(104.85 147.86)" fill="#fff"/>
          <path id="Trazado_102104" data-name="Trazado 102104" d="M146.16,178.92H110.22a2.46,2.46,0,0,1-2.2-1.37,2.42,2.42,0,0,1-.25-1.08V147.86h-.49a2.45,2.45,0,0,0-2.45,2.45v28.24A2.45,2.45,0,0,0,107.3,181h36.44a2.46,2.46,0,0,0,2.42-2.08Z" fill="#e4e1e8" fill-rule="evenodd"/>
          <rect id="Rectángulo_34022" data-name="Rectángulo 34022" width="19.48" height="2.19" rx="0.95" transform="translate(115.78 149.82)" fill="#070725"/>
          <rect id="Rectángulo_34023" data-name="Rectángulo 34023" width="41.33" height="33.14" rx="2.45" transform="translate(104.85 182.76)" fill="#fff"/>
          <path id="Trazado_102105" data-name="Trazado 102105" d="M146.16,213.81H110.22a2.43,2.43,0,0,1-2.45-2.45v-28.6h-.49a2.45,2.45,0,0,0-2.45,2.44v28.25a2.46,2.46,0,0,0,2.45,2.45h36.44A2.46,2.46,0,0,0,146.16,213.81Z" fill="#e4e1e8" fill-rule="evenodd"/>
          <rect id="Rectángulo_34024" data-name="Rectángulo 34024" width="19.48" height="2.19" rx="0.95" transform="translate(115.78 184.71)" fill="#070725"/>
          <rect id="Rectángulo_34025" data-name="Rectángulo 34025" width="41.33" height="33.14" rx="2.45" transform="translate(104.85 217.65)" fill="#fff"/>
          <path id="Trazado_102106" data-name="Trazado 102106" d="M146.16,248.71H110.22a2.45,2.45,0,0,1-2.45-2.45V217.64h-.49a2.45,2.45,0,0,0-2.45,2.45v28.24a2.45,2.45,0,0,0,2.45,2.45h36.44A2.46,2.46,0,0,0,146.16,248.71Z" fill="#e4e1e8" fill-rule="evenodd"/>
          <path id="Trazado_102107" data-name="Trazado 102107" d="M116.72,219.6h17.59a.95.95,0,0,1,.95.95v.3a.94.94,0,0,1-.94.94h-17.6a.94.94,0,0,1-.94-.94v-.3a.94.94,0,0,1,.94-.95Z" fill="#070725"/>
          <g id="Grupo_87682" data-name="Grupo 87682">
            <rect id="Rectángulo_34026" data-name="Rectángulo 34026" width="7.18" height="116.69" rx="0.29" transform="translate(244.26 140.89)" fill="#aeabba"/>
            <rect id="Rectángulo_34027" data-name="Rectángulo 34027" width="5" height="116.69" rx="1.47" transform="translate(247.55 140.89)" fill="#fff"/>
            <rect id="Rectángulo_34028" data-name="Rectángulo 34028" width="7.18" height="116.69" rx="0.29" transform="translate(275.12 140.89)" fill="#aeabba"/>
            <rect id="Rectángulo_34029" data-name="Rectángulo 34029" width="5" height="116.69" rx="1.47" transform="translate(278.41 140.89)" fill="#fff"/>
            <path id="Trazado_102108" data-name="Trazado 102108" d="M180,137H287.5a1.07,1.07,0,0,1,1.08,1.07v5a1.07,1.07,0,0,1-1.08,1.07H187a40.25,40.25,0,0,0-7-7.14Z" fill="#b56b41" fill-rule="evenodd"/>
            <path id="Trazado_102109" data-name="Trazado 102109" d="M219,105.84l1.35,2.26a9.55,9.55,0,0,1-.26,4.61c-.78,1.88,9,3.91,9,3.91l7.55-6.1,1.67-2.08s-3.54-3.85-3.75-5.52S219,105.84,219,105.84Z" fill="#ed7862" fill-rule="evenodd"/>
            <path id="Trazado_102110" data-name="Trazado 102110" d="M202.21,127.43s-5.11,4.11-6.88,4.42-9.52-3.28-11.09-3.69a39.89,39.89,0,0,0-7.5-.42,6.68,6.68,0,0,0-6.35,3.64h5.21c1.4,0,6.14,3.86,10.73,7s8.22,5.73,11.24,5.42S211,135.65,211,135.65Z" fill="#f5ac83" fill-rule="evenodd"/>
            <path id="Trazado_102111" data-name="Trazado 102111" d="M186.33,138.36c4.58,3.13,8.22,5.73,11.24,5.42S211,135.65,211,135.65l-8.8-8.22s-1.18.95-2.6,2c3.71,5.89,2,8.44-2.32,10.18-3.49,1.39-12.36-3.46-17.94-6.17C181.36,134.8,183.87,136.68,186.33,138.36Z" fill="#ed7862" fill-rule="evenodd"/>
            <path id="Trazado_102112" data-name="Trazado 102112" d="M243.85,175.5s-26.35-.24-29.61,0-6.4,3.71-5.86,9,7.92,46.57,7.92,46.57a3.24,3.24,0,0,0,1.07.48c.57.12,5.29.9,5.29.9l.31-3.83-2.75-40.15,24.3-4.43Z" fill="#070725" fill-rule="evenodd"/>
            <path id="Trazado_102113" data-name="Trazado 102113" d="M223,228.66a1.29,1.29,0,0,1,.8.86,41.9,41.9,0,0,1,.7,5.91c-.05.65-1.67,1.91-4.45,3.09s-13.37,4.27-13.37,4.27l-.12-.38a1.46,1.46,0,0,1-.7-.87,4,4,0,0,1,.45-2.92c.58-.82,4-3.16,4.62-3.66s3.72-4.82,4-5.1a3.32,3.32,0,0,1,3.82-.25C220.62,230.69,222.81,230.31,223,228.66Z" fill="#954cb5" fill-rule="evenodd"/>
            <path id="Trazado_102114" data-name="Trazado 102114" d="M206.53,242.41s10.56-3.88,12.88-4.69a21.24,21.24,0,0,0,5-3,.89.89,0,0,1,.46.47c.08.31.14,1.39.17,1.62a1.83,1.83,0,0,1-1.21,1.74c-1.16.5-15.91,5.7-16.58,5.92s-.95-1.56-.95-1.56S206.29,242.52,206.53,242.41Z" fill="#fff" fill-rule="evenodd"/>
            <path id="Trazado_102115" data-name="Trazado 102115" d="M260.16,159.14s-70.42,8.13-74.28,9-7.08,5.41-5.62,11.66,17.24,56.4,17.24,56.4a3.66,3.66,0,0,0,1.36.42c.7,0,6.45.26,6.45.26l2.27-2.32L195,189.77l51.45-2.6C260.86,184.84,262.81,167.27,260.16,159.14Z" fill="#1e82d9" fill-rule="evenodd"/>
            <path id="Trazado_102116" data-name="Trazado 102116" d="M210.61,164.51s5.63,4.16,9,2.81,19.64-29.42,19.64-29.42l-7.82-28.12a72.39,72.39,0,0,0-11.4,1.56l-1.17,1.07s-4.58.78-7.19,3.69-11.14,10.52-11.46,11.15,7.45,9.16,9.43,10.52a1.6,1.6,0,0,0,1.51-.27l.94-.75s2.08,10.85,2.08,14.06V154s-1.09,8.3-1.92,9.08S210.61,164.51,210.61,164.51Z" fill="#954cb5" fill-rule="evenodd"/>
            <path id="Trazado_102117" data-name="Trazado 102117" d="M235.76,169.85a2.36,2.36,0,0,0,0-4.72H214.93a10.41,10.41,0,0,1-10.1-8.11,37.122,37.122,0,0,0-4.33,2.1,15.13,15.13,0,0,0,14.43,10.73Z" fill="#fff" fill-rule="evenodd"/>
            <rect id="Rectángulo_34030" data-name="Rectángulo 34030" width="5.99" height="49.24" transform="translate(235.89 188.57)" fill="#070725"/>
            <rect id="Rectángulo_34031" data-name="Rectángulo 34031" width="5.83" height="13.33" transform="translate(227.94 172.03)" fill="#12263f"/>
            <rect id="Rectángulo_34032" data-name="Rectángulo 34032" width="5.83" height="13.33" transform="translate(268.25 172.03)" fill="#12263f"/>
            <path id="Trazado_102118" data-name="Trazado 102118" d="M235.89,187.4h6a3.46,3.46,0,0,1,3.46,3.46v6.4a3.46,3.46,0,0,1-3.46,3.46h-6a3.46,3.46,0,0,1-3.46-3.46v-6.4a3.47,3.47,0,0,1,3.46-3.46Z" fill="#3b405f"/>
            <rect id="Rectángulo_34033" data-name="Rectángulo 34033" width="17.5" height="10.04" rx="0.99" transform="translate(230.13 186.36)" fill="#070725"/>
            <rect id="Rectángulo_34034" data-name="Rectángulo 34034" width="55.2" height="10.42" rx="3.33" transform="translate(189.62 182.55)" fill="#f18a00"/>
            <rect id="Rectángulo_34035" data-name="Rectángulo 34035" width="55.2" height="10.42" rx="3.33" transform="translate(224.92 182.55)" fill="#feb62b"/>
            <rect id="Rectángulo_34036" data-name="Rectángulo 34036" width="12.91" height="13.33" rx="3.46" transform="translate(232.42 234.6)" fill="#3b405f"/>
            <rect id="Rectángulo_34037" data-name="Rectángulo 34037" width="17.5" height="14.49" rx="1.43" transform="translate(230.13 240.95)" fill="#070725"/>
            <path id="Trazado_102119" data-name="Trazado 102119" d="M254.76,251.89h0a4.3,4.3,0,0,1-4.29,4.29H227.29a4.3,4.3,0,0,1-4.29-4.29h0a4.3,4.3,0,0,1,4.29-4.3h23.18a4.3,4.3,0,0,1,4.29,4.3Z" fill="#707386" fill-rule="evenodd"/>
            <path id="Trazado_102120" data-name="Trazado 102120" d="M277.31,256.18h0a4.31,4.31,0,0,1-4.29,4.3h-58.9a4.31,4.31,0,0,1-4.3-4.3h0a4.3,4.3,0,0,1,4.3-4.29H273A4.3,4.3,0,0,1,277.31,256.18Z" fill="#101537" fill-rule="evenodd"/>
            <path id="Trazado_102121" data-name="Trazado 102121" d="M240.44,256.18h0a4.31,4.31,0,0,1-4.29,4.3H204.74a4.31,4.31,0,0,1-4.29-4.3h0a4.3,4.3,0,0,1,4.29-4.29h31.41a4.3,4.3,0,0,1,4.29,4.29Z" fill="#12263f" fill-rule="evenodd"/>
            <path id="Trazado_102122" data-name="Trazado 102122" d="M227,154a2.37,2.37,0,0,1,0,4.73H206.18a10.4,10.4,0,0,0-10.35,10.34v18.77a2.36,2.36,0,0,1-4.72,0V169.09A15.13,15.13,0,0,1,206.18,154Z" fill="#fff" fill-rule="evenodd"/>
            <path id="Trazado_102123" data-name="Trazado 102123" d="M273.25,128.86A26,26,0,0,0,247.36,103h-3.43a26,26,0,0,0-25.88,25.88v38.49A6.67,6.67,0,0,0,224.7,174h41.89a6.68,6.68,0,0,0,6.66-6.66Z" fill="#f18a00" fill-rule="evenodd"/>
            <path id="Trazado_102124" data-name="Trazado 102124" d="M280.12,128.86A26,26,0,0,0,254.24,103H250.8a26,26,0,0,0-25.88,25.88v38.49a6.68,6.68,0,0,0,6.65,6.66h41.9a6.67,6.67,0,0,0,6.65-6.66Z" fill="#feb62b" fill-rule="evenodd"/>
            <path id="Trazado_102125" data-name="Trazado 102125" d="M207,232.77a2,2,0,0,1,1.47.76,40.33,40.33,0,0,1,2.71,6.75c.1.78-2.08,2.75-6.09,5s-19.66,9.12-19.66,9.12l-.29-.42a2.13,2.13,0,0,1-1.33-.81,3.78,3.78,0,0,1-.1-3.56c.68-1.15,5.36-4.95,6.2-5.73s4.48-6.8,4.79-7.22a6.55,6.55,0,0,1,5.88-1.45C203.92,235.87,207.23,234.75,207,232.77Z" fill="#954cb5" fill-rule="evenodd"/>
            <path id="Trazado_102126" data-name="Trazado 102126" d="M185.17,254s15.39-7.79,18.78-9.45a35.7,35.7,0,0,0,7-5.09s.63.09.84.43a17.348,17.348,0,0,1,.7,1.84c.11.27.26,1.49-1.41,2.43s-23.22,11.56-24.21,12-1.9-1.55-1.9-1.55S184.82,254.17,185.17,254Z" fill="#fff" fill-rule="evenodd"/>
            <path id="Trazado_102127" data-name="Trazado 102127" d="M214.55,74.15l2.5-.59a11.17,11.17,0,0,1,13.39,8.32l2.8,12a11.18,11.18,0,0,1-8.32,13.4l-2.5.58A11.17,11.17,0,0,1,209,99.5l-2.8-12a11.17,11.17,0,0,1,8.35-13.35Z" fill="#f5ac83" fill-rule="evenodd"/>
            <path id="Trazado_102128" data-name="Trazado 102128" d="M230.76,83.25l2.48,10.58a11.18,11.18,0,0,1-8.32,13.4l-2.5.58a11.07,11.07,0,0,1-7.12-.7c.3.12,2.42,1,2.89-.61s-2.39-7.07-2.39-7.07a.67.67,0,0,1,0-.68,10.08,10.08,0,0,0,1.2-6.89c-.72-3.59,3.92-6.09,3.92-6.09l-10.74,2.91v2.19a5.15,5.15,0,0,0-3.84-2.72l-.14-.61a11.07,11.07,0,0,1,1.14-8C210.94,80,222.61,81.48,230.76,83.25Z" fill="#ed7862" fill-rule="evenodd"/>
            <path id="Trazado_102129" data-name="Trazado 102129" d="M210.93,94.22a1.681,1.681,0,0,1-1.3-1.48c-.3-1.37-.43-1.82-.43-1.82a11.43,11.43,0,0,1-1.64-4S201.2,86,200,80.14s4.24-12.1,5-12.71,4.19-1.79,8.43.11a2.43,2.43,0,0,0,2.11-.11c1.39-.56,9.18-2.76,12.95-2.89s6.2,3.77,8,8.49a2.75,2.75,0,0,1,2.12-2.3c1.9-.4.88,3.16-.49,4.39A7.86,7.86,0,0,1,242,80.24c.62,3.46-.55,18.74-3.44,21.79s-10.2,4.35-12.52,4.89-7-1.85-8.82-8.25a12.34,12.34,0,0,0,.16-5.81c-.76-2.62-1.45-4.55-2.43-4.89s-3.4,2.2-3.61,3.34a7.06,7.06,0,0,0,.25,2.69.91.91,0,0,1-.66.22Z" fill="#101537" fill-rule="evenodd"/>
            <path id="Trazado_102130" data-name="Trazado 102130" d="M210.93,94.22a1.681,1.681,0,0,1-1.3-1.48c-.3-1.37-.43-1.82-.43-1.82a11.43,11.43,0,0,1-1.64-4S201.2,86,200,80.14s4.24-12.1,5-12.71c0,0-6,6.53.62,9.89S222,82.81,228.41,82.4s11-11.52,11-11.52c.74.7-.14,3.24-1.26,4.24A7.86,7.86,0,0,1,242,80.24c.62,3.46-.55,18.74-3.44,21.79s-10.2,4.35-12.52,4.89-7-1.85-8.82-8.25a12.34,12.34,0,0,0,.16-5.81c-.76-2.62-1.45-4.55-2.43-4.89s-3.4,2.2-3.61,3.34a7.06,7.06,0,0,0,.25,2.69.91.91,0,0,1-.66.22Z" fill="#070725" fill-rule="evenodd"/>
          </g>
        </g>
        <path id="Trazado_102131" data-name="Trazado 102131" d="M255.85,43a.72.72,0,1,0-1.43,0v1.69h-1.69a.72.72,0,1,0,0,1.43h1.69v1.69a.72.72,0,1,0,1.43,0V46.09h1.69a.72.72,0,1,0,0-1.43h-1.69Z" fill="#9fb2d9" fill-rule="evenodd"/>
        <path id="Trazado_102132" data-name="Trazado 102132" d="M174.52,16.13a.72.72,0,1,0-1.44,0v1.69h-1.69a.72.72,0,0,0,0,1.43h1.69v1.69a.72.72,0,1,0,1.44,0V19.25h1.69a.72.72,0,1,0,0-1.43h-1.69Z" fill="#9fb2d9" fill-rule="evenodd"/>
        <path id="Trazado_102133" data-name="Trazado 102133" d="M43.57,66.55a.72.72,0,0,0-1.43,0v1.69H40.45a.72.72,0,0,0,0,1.44h1.69v1.69a.72.72,0,1,0,1.43,0V69.68h1.69a.72.72,0,0,0,0-1.44H43.57Z" fill="#9fb2d9" fill-rule="evenodd"/>
        <g id="Grupo_87687" data-name="Grupo 87687">
          <path id="Trazado_102134" data-name="Trazado 102134" d="M107.22,178.24c10.18-5.41,12.76,6.36,8.8,16.11s-24.27,42.54-25.33,55.54c-.41,5-1.35,4.49-2.15,1C84.53,233.22,93.2,185.69,107.22,178.24Z" fill="#294d3c" fill-rule="evenodd"/>
          <g id="Grupo_87684" data-name="Grupo 87684">
            <path id="Trazado_102135" data-name="Trazado 102135" d="M85.66,133.57c-11.67-10.51-19,4.2-17,18.4s18.05,64.23,15.16,81.77c-1.12,6.8.31,6.38,2.53,2C97.52,213.74,101.73,148,85.66,133.57Z" fill="#4a9075" fill-rule="evenodd"/>
            <path id="Trazado_102136" data-name="Trazado 102136" d="M83.63,238.62c.25.65.8.32,1.54-.76,12.17-40.53-6.78-101.08-6.84-101.27a.633.633,0,0,0-1.21.37C77.18,137.16,96.39,198.53,83.63,238.62Z" fill="#1b7154" fill-rule="evenodd"/>
          </g>
          <g id="Grupo_87685" data-name="Grupo 87685">
            <path id="Trazado_102137" data-name="Trazado 102137" d="M60.16,167.25c-11.31-4.93-13.08,7.85-8,17.92s29.44,43.35,31.65,57.14c.86,5.34,1.82,4.67,2.38.84C89,224,75.73,174,60.16,167.25Z" fill="#a6c86b" fill-rule="evenodd"/>
            <path id="Trazado_102138" data-name="Trazado 102138" d="M84.79,246c.35.42.68,0,1-.95-1-33.22-30.21-73.6-30.31-73.73a.49.49,0,0,0-.69-.12.5.5,0,0,0-.11.69C54.74,172,84.32,213,84.79,246Z" fill="#5f9850" fill-rule="evenodd"/>
          </g>
          <g id="Grupo_87686" data-name="Grupo 87686">
            <path id="Trazado_102139" data-name="Trazado 102139" d="M76.09,238.64H97.82l5.68,5.12-4.64,17.86H75.05l-4.63-17.86Z" fill="#3b405f" fill-rule="evenodd"/>
            <rect id="Rectángulo_34038" data-name="Rectángulo 34038" width="36.67" height="11.76" rx="1.8" transform="translate(68.62 232)" fill="#3b405f"/>
            <path id="Trazado_102140" data-name="Trazado 102140" d="M103.5,243.76l-.96,3.67H71.37l-.95-3.67Z" fill="#101537" fill-rule="evenodd"/>
          </g>
        </g>
      </g>
    </g>
  </g>
</svg>
