<svg id="grafico_tarjeta_1" data-name="grafico_tarjeta 1" xmlns="http://www.w3.org/2000/svg" width="192" height="192" viewBox="0 0 192 192">
  <rect id="Rectángulo_33947" data-name="Rectángulo 33947" width="192" height="192" fill="none"/>
  <g id="Grupo_87519" data-name="Grupo 87519" transform="translate(6.336 7.141)">
    <path id="Trazado_101458" data-name="Trazado 101458" d="M92.63,5.59a88.683,88.683,0,0,0-84.1,60.558L20.3,145.582A88.674,88.674,0,1,0,92.63,5.59Z" transform="translate(-3.968 -5.59)" fill="#99bdef"/>
    <path id="Trazado_101459" data-name="Trazado 101459" d="M166.242,88.771h-4.088A10.374,10.374,0,0,0,172.515,77.9a10.565,10.565,0,0,0-10.655-9.863H134.891A12.124,12.124,0,0,1,122.729,55.76a12.379,12.379,0,0,1,2.351-6.592,169.515,169.515,0,0,0,12.047-18.793c3.219-6.043,2.006-10.22-.549-13.823-4-5.621-13.223-4.765-15.7-.192a57.77,57.77,0,0,1-25.7,24.133c-3.385,1.648-10.655,9.837-16.927,17.745A39.1,39.1,0,0,1,54.1,72.444a3.552,3.552,0,0,1,.077.741v61.641a53.171,53.171,0,0,1,18.856,4.382C91.621,147.474,121.107,151,141.369,151h10.782a10.552,10.552,0,0,0,10.642-9.875,10.361,10.361,0,0,0-10.348-10.872h9.428a10.565,10.565,0,0,0,10.642-9.837,10.374,10.374,0,0,0-10.361-10.872h3.833a10.565,10.565,0,0,0,10.629-9.9,10.374,10.374,0,0,0-10.361-10.872Z" transform="translate(8.679 -3.636)" fill="#f9ba8f"/>
    <path id="Trazado_101460" data-name="Trazado 101460" d="M54.1,62.536a3.552,3.552,0,0,1,.077.741v61.641A53.171,53.171,0,0,1,73.033,129.3a118.006,118.006,0,0,0,22.6,6.975C54.841,107.85,78.245,48.33,78.245,48.33A39.1,39.1,0,0,1,54.1,62.536Z" transform="translate(8.679 6.272)" fill="#fd995b"/>
    <path id="Trazado_101461" data-name="Trazado 101461" d="M105.972,30.211a3.475,3.475,0,0,0,4.816-.7,77.243,77.243,0,0,0,5.238-7.78c1.789-3.117,0-6.388-1.763-8.457a1.431,1.431,0,0,0-1.354-.485,7.755,7.755,0,0,0-5.506,3.539,54.129,54.129,0,0,1-5.9,8.738,1.418,1.418,0,0,0,.256,2.044Z" transform="translate(21.744 -3.6)" fill="#f9dfcd"/>
    <path id="Trazado_101462" data-name="Trazado 101462" d="M53.864,56.758H43.12v69.779H53.864a4.19,4.19,0,0,0,4.19-4.19V60.91a4.19,4.19,0,0,0-4.19-4.19Z" transform="translate(5.631 8.6)" fill="#e9efff"/>
    <path id="Trazado_101463" data-name="Trazado 101463" d="M58.052,115.608V81a9.173,9.173,0,0,1-11.728,1.7,5.289,5.289,0,0,0-3.194-.626v37.7H53.874a4.19,4.19,0,0,0,4.19-4.19Z" transform="translate(5.634 15.339)" fill="#bec8f7"/>
    <path id="Trazado_101464" data-name="Trazado 101464" d="M49.648,53H9.521a88.84,88.84,0,0,0,11.766,79.424H49.648a4.893,4.893,0,0,0,4.893-4.906V57.867A4.88,4.88,0,0,0,49.648,53Z" transform="translate(-4.96 7.568)" fill="#337ade"/>
    <path id="Trazado_101465" data-name="Trazado 101465" d="M54.466,82a5.442,5.442,0,0,0-2.862.7A43.9,43.9,0,0,1,5.23,81.22a88.3,88.3,0,0,0,15.982,43.347H49.573a4.893,4.893,0,0,0,4.893-4.906Z" transform="translate(-4.885 15.4)" fill="#1762a3"/>
    <path id="Trazado_101466" data-name="Trazado 101466" d="M13.06,52.641a44.215,44.215,0,0,0,5.455.69,160.6,160.6,0,0,0,34.762-1.175c6.567-.933,13.2-2.325,19.01-5.545s10.731-8.342,14.922-13.682,8.061-11.5,9.071-18.243a20.811,20.811,0,0,0-.664-8.943c-1.405,0-2.823-.1-4.241-.1A88.648,88.648,0,0,0,13.06,52.7Z" transform="translate(-2.712 -5.576)" fill="#ccdef7"/>
    <path id="Trazado_101467" data-name="Trazado 101467" d="M134.966,136c-.856,0-1.712-.064-2.555-.077-14.679-.115-29.767-.2-43.436-5.634-4.906-1.955-9.556-4.586-14.628-6.094-6.2-1.84-12.775-1.929-19.163-1.993-6.171-.077-12.775,0-17.886,3.577a25.551,25.551,0,0,0-5.608,6.094A88.648,88.648,0,0,0,134.966,136Z" transform="translate(2.459 26.77)" fill="#ccdef7"/>
  </g>
</svg>
