<svg xmlns="http://www.w3.org/2000/svg" width="307.533" height="285.818" viewBox="0 0 307.533 285.818">
  <g id="Layer_2" data-name="Layer 2" transform="translate(3.775 -9.615)">
    <path id="Trazado_101946" data-name="Trazado 101946" d="M19,146.32a41.11,41.11,0,0,1,.73-58h0a41.1,41.1,0,0,1,58,.73h0a17.4,17.4,0,0,0,24.52.3h0a17.38,17.38,0,0,0,.31-24.51l-1.44-1.48a18.07,18.07,0,0,1,.32-25.49h0a18.07,18.07,0,0,1,25.48.32l4.42,4.53a7,7,0,0,0,9.93.13h0a7.05,7.05,0,0,0,.12-9.93l-3.25-3.33a4.84,4.84,0,0,1,.09-6.84h0a4.87,4.87,0,0,1,6.85.08L166.9,45.21a7.64,7.64,0,0,0,10.77.14h0a7.64,7.64,0,0,0,.13-10.76l-6.53-6.69a4.86,4.86,0,0,1,.09-6.85h0a4.87,4.87,0,0,1,6.85.08l95.59,98a6.34,6.34,0,0,1-.11,8.94h0a6.36,6.36,0,0,1-8.94-.11L258,121.13a10,10,0,0,0-14-.17h0a10,10,0,0,0-.18,14l25.89,26.55a6.34,6.34,0,0,1-.11,8.94h0a6.33,6.33,0,0,1-8.93-.12L256.4,166a9.18,9.18,0,0,0-12.95-.16h0a9.17,9.17,0,0,0-.16,12.94l5.77,5.92a23.58,23.58,0,0,1-.42,33.25h0a23.58,23.58,0,0,1-33.26-.41l-1.88-1.93a22.68,22.68,0,0,0-32-.4h0a22.68,22.68,0,0,0-.4,32l4.07,4.17a22.88,22.88,0,0,1-.4,32.26h0a22.88,22.88,0,0,1-32.26-.41Zm257-6.75a6.32,6.32,0,1,0,.11-8.93A6.32,6.32,0,0,0,276,139.57ZM128.6,19.89a4.85,4.85,0,1,0,.09-6.85A4.85,4.85,0,0,0,128.6,19.89Z" fill="#a5cdf0" fill-rule="evenodd"/>
    <rect id="Rectángulo_33998" data-name="Rectángulo 33998" width="30.02" height="93.57" transform="translate(195.95 145.09)" fill="#f2f5f8"/>
    <path id="Trazado_101947" data-name="Trazado 101947" d="M196,238.66V152.73h15.88a5.9,5.9,0,0,1,5.89,5.88v80Z" fill="#fffafb" fill-rule="evenodd"/>
    <path id="Trazado_101948" data-name="Trazado 101948" d="M223.24,145.09H264a23.3,23.3,0,0,1-10.92,2.71h-2.69a22.69,22.69,0,0,0-22.63,22.62h0A22.69,22.69,0,0,0,250.38,193h5.82A22.88,22.88,0,0,1,279,215.85h0a22.88,22.88,0,0,1-22.81,22.81h-33Z" fill="#d8edf7" fill-rule="evenodd"/>
    <path id="Trazado_101949" data-name="Trazado 101949" d="M229.55,238.66V179.23A22.69,22.69,0,0,0,250.38,193h5.82A22.88,22.88,0,0,1,279,215.85h0a22.88,22.88,0,0,1-22.81,22.81Zm0-77v-3a5.9,5.9,0,0,1,5.88-5.88h.89a22.81,22.81,0,0,0-6.77,8.83Z" fill="#ebf6fa" fill-rule="evenodd"/>
    <path id="Trazado_101950" data-name="Trazado 101950" d="M267.63,142.71H195.08a2.81,2.81,0,0,0-2.8,2.8h0a2.81,2.81,0,0,0,2.8,2.81h50.48a22.53,22.53,0,0,1,4.82-.52h2.69a23.39,23.39,0,0,0,14.56-5.09Z" fill="#fff" fill-rule="evenodd"/>
    <path id="Trazado_101951" data-name="Trazado 101951" d="M214.21,58.12,70.06,198.7,19,146.32a41.11,41.11,0,0,1,.73-58h0a41.1,41.1,0,0,1,58,.73h0a17.4,17.4,0,0,0,24.52.3h0a17.38,17.38,0,0,0,.31-24.51l-1.44-1.48a18.07,18.07,0,0,1,.32-25.49h0a18.07,18.07,0,0,1,25.48.32l4.42,4.53a7,7,0,0,0,9.93.13h0a7.05,7.05,0,0,0,.12-9.93l-3.25-3.33a4.84,4.84,0,0,1,.09-6.84h0a4.87,4.87,0,0,1,6.85.08L166.9,45.21a7.64,7.64,0,0,0,10.77.14h0a7.64,7.64,0,0,0,.13-10.76l-6.53-6.69a4.86,4.86,0,0,1,.09-6.85h0a4.87,4.87,0,0,1,6.85.08l36.05,37Z" fill="#d2e6f7" fill-rule="evenodd"/>
    <rect id="Rectángulo_33999" data-name="Rectángulo 33999" width="28.85" height="390.8" rx="14.425" transform="translate(-3.775 31.311) rotate(-47.48)" fill="#affde3"/>
    <path id="Trazado_101952" data-name="Trazado 101952" d="M202.2,286.31h0a8.46,8.46,0,0,1-12,.52L72.35,169.25a8.46,8.46,0,0,1-.52-12h0a8.47,8.47,0,0,1,12-.52L201.68,274.34a8.47,8.47,0,0,1,.52,11.97Z" fill="#4b9be1"/>
    <path id="Trazado_101953" data-name="Trazado 101953" d="M289.57,97h0a8.47,8.47,0,0,1-12,.52L205.4,24.37a8.47,8.47,0,0,1-.52-12h0a8.49,8.49,0,0,1,12-.52l72.19,73.17a8.47,8.47,0,0,1,.5,11.98Z" fill="#a5cdf0"/>
    <path id="Trazado_101954" data-name="Trazado 101954" d="M51,71.9a4.84,4.84,0,1,0-3.429-1.414A4.84,4.84,0,0,0,51,71.9Z" fill="#c3e5f3" fill-rule="evenodd"/>
    <g id="Grupo_87647" data-name="Grupo 87647">
      <rect id="Rectángulo_34000" data-name="Rectángulo 34000" width="37.08" height="34.88" transform="translate(197.72 40.76)" fill="#afdaec"/>
      <rect id="Rectángulo_34001" data-name="Rectángulo 34001" width="37.08" height="34.88" transform="translate(196.54 39.31)" fill="#99bdef"/>
      <rect id="Rectángulo_34002" data-name="Rectángulo 34002" width="26.87" height="23.73" transform="translate(201.65 44.89)" fill="#fff"/>
      <path id="Trazado_101955" data-name="Trazado 101955" d="M201.65,51.23h.15a.16.16,0,0,1,.15.14v.35h1.82v-.51a.15.15,0,0,1,.16-.14h1.93a.15.15,0,0,1,.15.14v1.2h.79v-.55a.13.13,0,0,1,0-.1.15.15,0,0,1,.11,0h.7a.15.15,0,0,1,.16.14v4.8h.72a.15.15,0,0,1,.11,0,.13.13,0,0,1,0,.1v1h.57v-.26a.15.15,0,0,1,.16-.14h.34a.15.15,0,0,1,.15.11V52.79a.15.15,0,0,1,.11-.13h.17a.57.57,0,0,0,0-.13v-.45a.14.14,0,0,1,.15-.13h.26V49.11a.15.15,0,0,1,.15-.14h.27V47.89a.15.15,0,0,1,.15-.14h.13a2.449,2.449,0,0,0,0-.25v-.86a.14.14,0,0,1,.05-.1.16.16,0,0,1,.11,0h2.32a.15.15,0,0,1,.15.14v1.11a.34.34,0,0,1,.21.08.12.12,0,0,1,.07.11v1h.28a.15.15,0,0,1,.15.15v2.76H215a.14.14,0,0,1,.15.14v.57h.14a.16.16,0,0,1,.16.15V63.49h1.16V54.91a.21.21,0,0,1,.07-.17.3.3,0,0,1,.16-.05h0v-.57A.15.15,0,0,1,217,54h.26a1.26,1.26,0,0,0,0-.27v-.87a1.558,1.558,0,0,1,0-.3.19.19,0,0,1,.12-.17h0a1.941,1.941,0,0,0,0-.24,2.089,2.089,0,0,1,0-.25.15.15,0,0,1,.16-.12h1.16a.16.16,0,0,1,.13.08v-.6a.15.15,0,0,1,.15-.14h1.24a.15.15,0,0,1,.16.14v1.13h0a.66.66,0,0,1,.19.09.14.14,0,0,1,.06.11V54h.25a.134.134,0,0,1,.14.12l.08.57h.07a.21.21,0,0,1,.11.19V62.2h1V61.13a.13.13,0,0,1,0-.1.17.17,0,0,1,.12,0h.39a.16.16,0,0,1,.16.14v1.11h.77a.16.16,0,0,1,.16.14v.34h.07v-.79a.16.16,0,0,1,.16-.14h1.09a.16.16,0,0,1,.16.14c0,.11,0,.23,0,.35h1.15a.14.14,0,0,1,.15.13v.27h0l.06-.14a1.769,1.769,0,0,0,0-.32,3.375,3.375,0,0,1,0-.45.15.15,0,0,1,.15-.14h.85V44.89h.57V68.61H201.65Z" fill="#f1f2f3" fill-rule="evenodd"/>
    </g>
    <g id="Grupo_87653" data-name="Grupo 87653">
      <g id="Grupo_87651" data-name="Grupo 87651">
        <g id="Grupo_87648" data-name="Grupo 87648">
          <path id="Trazado_101956" data-name="Trazado 101956" d="M251.13,88.68c-5.06-5.15-8.83,1.39-8.3,8,.5,6.23,5.87,27.61,4.87,36.61h2.06C254.79,121.72,257.61,95.28,251.13,88.68Z" fill="#afdaec" fill-rule="evenodd"/>
          <path id="Trazado_101957" data-name="Trazado 101957" d="M249,133.26c4.89-18.18-1.31-43.32-1.33-43.4a.3.3,0,0,0-.35-.22.29.29,0,0,0-.21.36c0,.08,6.22,25.24,1.29,43.26Z" fill="#fffafb" fill-rule="evenodd"/>
        </g>
        <g id="Grupo_87649" data-name="Grupo 87649">
          <path id="Trazado_101958" data-name="Trazado 101958" d="M238.64,100c-5.33-2.83-6.68,3.34-4.6,8.44,1.73,4.23,9.34,16.74,12.22,24.78H249C249.2,122.15,244.94,103.38,238.64,100Z" fill="#fff" fill-rule="evenodd"/>
          <path id="Trazado_101959" data-name="Trazado 101959" d="M248,133.26c-1.76-15-11.75-31.35-11.79-31.41a.24.24,0,0,0-.33-.08.23.23,0,0,0-.08.33c0,.06,10,16.28,11.72,31.16Z" fill="#d1ebf8" fill-rule="evenodd"/>
        </g>
        <g id="Grupo_87650" data-name="Grupo 87650">
          <path id="Trazado_101960" data-name="Trazado 101960" d="M261.19,107.17c5.17-2.26,6,3.58,3.69,8.19-1.55,3.12-7.15,11.1-10.92,17.9h-4.31C251.12,123,255.85,109.51,261.19,107.17Z" fill="#d1ebf8" fill-rule="evenodd"/>
          <path id="Trazado_101961" data-name="Trazado 101961" d="M251.19,133.26c3.67-12.45,12.12-24.18,12.16-24.23a.23.23,0,0,1,.37.26s-8.4,11.66-12.06,24Z" fill="#fffafb" fill-rule="evenodd"/>
        </g>
      </g>
      <g id="Grupo_87652" data-name="Grupo 87652">
        <rect id="Rectángulo_34003" data-name="Rectángulo 34003" width="16.8" height="5.39" rx="0.82" transform="translate(242.2 129.15)" fill="#abc4c8"/>
        <path id="Trazado_101962" data-name="Trazado 101962" d="M245.63,132.19h9.95l2.6,2.34-2.13,8.18h-10.9l-2.12-8.18Z" fill="#abc4c8" fill-rule="evenodd"/>
        <path id="Trazado_101963" data-name="Trazado 101963" d="M258.18,134.53l-.44,1.69H243.46l-.43-1.69Z" fill="#99bdef" fill-rule="evenodd"/>
      </g>
    </g>
    <path id="Trazado_101964" data-name="Trazado 101964" d="M228.89,132.2H217.72l4.88,10.51h11.17Z" fill="#afdaec" fill-rule="evenodd"/>
    <path id="Trazado_101965" data-name="Trazado 101965" d="M208.71,121.16h22.91l-5.17,21.55H203.54Z" fill="#99bdef" fill-rule="evenodd"/>
    <path id="Trazado_101966" data-name="Trazado 101966" d="M210.6,124.12h17.7l-3.74,15.63H206.85Z" fill="#fff" fill-rule="evenodd"/>
    <path id="Trazado_101967" data-name="Trazado 101967" d="M211.52,125.15h15.37l-3.25,13.57H208.27Z" fill="#fff" fill-rule="evenodd"/>
    <path id="Trazado_101968" data-name="Trazado 101968" d="M221.14,138.72H208.27l1.91-7.96,1.85-1.24,6.44,5.73Z" fill="#d4cdcb" fill-rule="evenodd"/>
    <path id="Trazado_101969" data-name="Trazado 101969" d="M224.8,133.89l-1.16,4.83H208.27l.35-1.45,11.39-7.64Z" fill="#ede9e6" fill-rule="evenodd"/>
    <path id="Trazado_101970" data-name="Trazado 101970" d="M264.13,250.86H250.35a3.86,3.86,0,0,0-3.85,3.84h0a3.85,3.85,0,0,0,3.85,3.84h5.77a3.07,3.07,0,0,1,3.05,3.06h0a3.07,3.07,0,0,1-3.05,3H50.5a3.07,3.07,0,0,1-3-3h0a3.07,3.07,0,0,1,3-3.06H56a3.85,3.85,0,0,0,3.84-3.84h0A3.85,3.85,0,0,0,56,250.86H43.41a6.12,6.12,0,0,1-6.1-6.1h0a6.12,6.12,0,0,1,6.1-6.1H264.13a6.12,6.12,0,0,1,6.1,6.1h0a6.12,6.12,0,0,1-6.1,6.1Zm.23,13.79a3.06,3.06,0,1,0-3.05-3,3.06,3.06,0,0,0,3.05,3Z" fill="#12263f" fill-rule="evenodd"/>
    <g id="Grupo_87659" data-name="Grupo 87659">
      <g id="Grupo_87657" data-name="Grupo 87657">
        <g id="Grupo_87654" data-name="Grupo 87654">
          <path id="Trazado_101971" data-name="Trazado 101971" d="M67.37,144.32c8.92-9.08,15.56,2.46,14.63,14.05-.87,11-10.34,48.67-8.59,64.53H69.79C60.92,202.57,55.94,156,67.37,144.32Z" fill="#80ebc7" fill-rule="evenodd"/>
          <path id="Trazado_101972" data-name="Trazado 101972" d="M71.12,222.9c-8.63-32.05,2.29-76.35,2.33-76.5a.514.514,0,0,1,1,.24c0,.15-11,44.5-2.28,76.26Z" fill="#b079c7" fill-rule="evenodd"/>
        </g>
        <g id="Grupo_87655" data-name="Grupo 87655">
          <path id="Trazado_101973" data-name="Trazado 101973" d="M89.38,164.35c9.41-5,11.78,5.89,8.11,14.88C94.45,186.69,81,208.74,76,222.9H71.18C70.77,203.33,78.28,170.23,89.38,164.35Z" fill="#bff5e3" fill-rule="evenodd"/>
          <path id="Trazado_101974" data-name="Trazado 101974" d="M72.92,222.9c3.11-26.48,20.72-55.25,20.79-55.36a.41.41,0,0,1,.58-.14.43.43,0,0,1,.15.59c-.06.1-17.56,28.69-20.67,54.91Z" fill="#7d7d58" fill-rule="evenodd"/>
        </g>
        <g id="Grupo_87656" data-name="Grupo 87656">
          <path id="Trazado_101975" data-name="Trazado 101975" d="M49.64,176.92c-9.12-4-10.56,6.31-6.51,14.44,2.74,5.49,12.61,19.57,19.26,31.54H70C67.38,204.79,59.06,181,49.64,176.92Z" fill="#60e6b9" fill-rule="evenodd"/>
          <path id="Trazado_101976" data-name="Trazado 101976" d="M67.27,222.9C60.8,201,45.89,180.28,45.83,180.19a.4.4,0,0,0-.56-.09.41.41,0,0,0-.09.56c.06.08,14.81,20.55,21.26,42.24Z" fill="#adaf84" fill-rule="evenodd"/>
        </g>
      </g>
      <g id="Grupo_87658" data-name="Grupo 87658">
        <rect id="Rectángulo_34004" data-name="Rectángulo 34004" width="17.28" height="6.32" rx="0.97" transform="translate(60.48 222.75)" fill="#a36e50"/>
        <path id="Trazado_101977" data-name="Trazado 101977" d="M74.24,226.32H64l-2.67,2.75,2.18,9.59H74.73l2.18-9.59Z" fill="#a36e50" fill-rule="evenodd"/>
        <path id="Trazado_101978" data-name="Trazado 101978" d="M61.33,229.07l.44,1.89H76.46l.45-1.89Z" fill="#7b4e37" fill-rule="evenodd"/>
      </g>
    </g>
    <g id="Grupo_87660" data-name="Grupo 87660">
      <path id="Trazado_101979" data-name="Trazado 101979" d="M261.1,178.55h0a2.82,2.82,0,0,1,2.81,2.81h0a2.81,2.81,0,0,1-2.81,2.81h0a2.81,2.81,0,0,1-2.81-2.81h0A2.82,2.82,0,0,1,261.1,178.55Z" fill="#fff" fill-rule="evenodd"/>
      <path id="Trazado_101980" data-name="Trazado 101980" d="M229.15,186.32h7.79a1.08,1.08,0,0,0,1.08-1.07h0a1.08,1.08,0,0,0-1.08-1.08H226.45a2.81,2.81,0,0,1-2.8-2.81h0a2.82,2.82,0,0,1,2.8-2.81h27.28a2.83,2.83,0,0,1,2.81,2.81h0a2.82,2.82,0,0,1-2.81,2.81h-9.51a1.08,1.08,0,0,0-1.08,1.08h0a1.08,1.08,0,0,0,1.08,1.07h3.66a2.17,2.17,0,0,1,2.16,2.17h0a2.16,2.16,0,0,1-2.16,2.16h-6.06a4.31,4.31,0,0,0-4.3,4.31v2a1,1,0,0,1-1,1h0a1,1,0,0,1-1-1V193.2a2.54,2.54,0,0,0-2.52-2.53h-3.81a2.17,2.17,0,0,1-2.17-2.16h0a2.17,2.17,0,0,1,2.13-2.19Z" fill="#fff" fill-rule="evenodd"/>
    </g>
    <g id="Grupo_87662" data-name="Grupo 87662">
      <path id="Trazado_101981" data-name="Trazado 101981" d="M231.51,202.69c-.55.69-6.12,3.77-6.12,3.77l2.06,29.12a3.24,3.24,0,0,0,3.56,3.08h11.35a3.23,3.23,0,0,0,3.56-3.08L248,206.46s-5.56-3.08-6.12-3.77Z" fill="#fff" fill-rule="evenodd"/>
      <path id="Trazado_101982" data-name="Trazado 101982" d="M225.88,212.67h21.61a.74.74,0,0,1,.75.8l-1.3,18.3a.74.74,0,0,1-.74.69h-19a.74.74,0,0,1-.75-.69l-1.29-18.3a.71.71,0,0,1,.2-.57.73.73,0,0,1,.52-.23Z" fill="#a36e50" fill-rule="evenodd"/>
      <path id="Trazado_101983" data-name="Trazado 101983" d="M228.85,200.72h15.67a3.48,3.48,0,0,1,3.47,3.46h0a3.48,3.48,0,0,1-3.47,3.46H228.85a3.47,3.47,0,0,1-3.46-3.46h0a3.47,3.47,0,0,1,3.46-3.46Z" fill="#fff" fill-rule="evenodd"/>
      <path id="Trazado_101984" data-name="Trazado 101984" d="M224.94,204.17h23.5a1.94,1.94,0,0,1,1.94,1.94h0a2,2,0,0,1-1.94,1.95h-23.5a2,2,0,0,1-1.95-1.95h0A2,2,0,0,1,224.94,204.17Z" fill="#a36e50" fill-rule="evenodd"/>
      <g id="Grupo_87661" data-name="Grupo 87661">
        <path id="Trazado_101985" data-name="Trazado 101985" d="M236.69,229.84a7.28,7.28,0,1,0-7.28-7.28,7.28,7.28,0,0,0,7.28,7.28Z" fill="#4d0f1a" fill-rule="evenodd"/>
        <path id="Trazado_101986" data-name="Trazado 101986" d="M236.69,229a6.41,6.41,0,1,0-6.41-6.41,6.41,6.41,0,0,0,6.41,6.41Z" fill="#fffafb" fill-rule="evenodd"/>
        <path id="Trazado_101987" data-name="Trazado 101987" d="M236.69,217.42h0a3.1,3.1,0,0,1,3.09,3.09v4.11a3.09,3.09,0,0,1-2.06,2.91v-3.28c0-1.13-.18-1.3-.61-1.7l-.21-.2c-.1-.1-.21-.19-.32-.28a2.13,2.13,0,0,1-.83-2v-2.49a3.24,3.24,0,0,1,.94-.14Zm.43,10.26v-3.43c0-.87-.12-1-.42-1.26l-.22-.21-.28-.25a2.63,2.63,0,0,1-1-2.48v-2.22a3.11,3.11,0,0,0-1.56,2.68v4.11a3.11,3.11,0,0,0,3.1,3.09h0a3.108,3.108,0,0,0,.38-.03Z" fill="#4d0f1a" fill-rule="evenodd"/>
      </g>
      <path id="Trazado_101988" data-name="Trazado 101988" d="M248.9,204.8a1.94,1.94,0,0,1-.93,1.65,2,2,0,0,1-1,.29h-23.5a2.1,2.1,0,0,1-.36,0,1.94,1.94,0,0,0,1.85,1.35h23.5a1.95,1.95,0,0,0,.36-3.86A2,2,0,0,1,248.9,204.8Z" fill="#7b4e37" fill-rule="evenodd"/>
      <path id="Trazado_101989" data-name="Trazado 101989" d="M246.39,201.26a3.48,3.48,0,0,1-3.18,2.09H227.54a3.44,3.44,0,0,1-1.86-.54,3.29,3.29,0,0,0-.29,1.36H248a3.51,3.51,0,0,0-1.61-2.91Z" fill="#fbe0d5" fill-rule="evenodd"/>
      <path id="Trazado_101990" data-name="Trazado 101990" d="M244.34,209.72a.84.84,0,0,1,.63.28.82.82,0,0,1,.23.65l-.14,2h2.48l.33-4.61H225.51l.11,1.66Zm-.91,22.74-.23,3.32a.81.81,0,0,1-.8.75H227.65a3.22,3.22,0,0,0,3.37,2.13h11.35a3.23,3.23,0,0,0,3.56-3.08l.22-3.12Z" fill="#fbe0d5" fill-rule="evenodd"/>
      <path id="Trazado_101991" data-name="Trazado 101991" d="M245.15,213.47l-1.29,18.3a.75.75,0,0,1-.75.69h3.09a.74.74,0,0,0,.74-.69l1.3-18.3a.74.74,0,0,0-.2-.57.73.73,0,0,0-.5-.23H244.4a.74.74,0,0,1,.75.8Z" fill="#7b4e37" fill-rule="evenodd"/>
    </g>
    <g id="Grupo_87663" data-name="Grupo 87663">
      <path id="Trazado_101992" data-name="Trazado 101992" d="M105.87,128.12a.58.58,0,1,0-.5-.575.58.58,0,0,0,.5.575Z" fill="#fff" fill-rule="evenodd"/>
      <path id="Trazado_101993" data-name="Trazado 101993" d="M194.91,114.65a.58.58,0,0,0,.57-.57.57.57,0,0,0-.57-.57.56.56,0,0,0-.57.57.57.57,0,0,0,.57.57Z" fill="#fff" fill-rule="evenodd"/>
      <path id="Trazado_101994" data-name="Trazado 101994" d="M148.7,77.59a.57.57,0,0,0,.57-.57.56.56,0,0,0-.57-.57.57.57,0,0,0-.57.57.58.58,0,0,0,.57.57Z" fill="#fff" fill-rule="evenodd"/>
      <path id="Trazado_101995" data-name="Trazado 101995" d="M101.36,152.9a.57.57,0,1,0-.409-.163.57.57,0,0,0,.409.163Z" fill="#fff" fill-rule="evenodd"/>
      <path id="Trazado_101996" data-name="Trazado 101996" d="M185.3,156.28a.57.57,0,0,0,.57-.57.56.56,0,0,0-.57-.57.57.57,0,0,0-.57.57.58.58,0,0,0,.57.57Z" fill="#fff" fill-rule="evenodd"/>
      <path id="Trazado_101997" data-name="Trazado 101997" d="M195.82,93.6a.57.57,0,0,0,.58-.57.58.58,0,0,0-1.15,0A.57.57,0,0,0,195.82,93.6Z" fill="#fff" fill-rule="evenodd"/>
      <path id="Trazado_101998" data-name="Trazado 101998" d="M93.34,82.88a.57.57,0,0,0,.58-.57.58.58,0,0,0-1.15,0,.57.57,0,0,0,.57.57Z" fill="#fff" fill-rule="evenodd"/>
      <path id="Trazado_101999" data-name="Trazado 101999" d="M210.69,91.32a1.26,1.26,0,1,0-1.26-1.26A1.26,1.26,0,0,0,210.69,91.32Z" fill="#fff" fill-rule="evenodd"/>
      <path id="Trazado_102000" data-name="Trazado 102000" d="M182.44,105.84a1.26,1.26,0,1,0-1.26-1.26,1.26,1.26,0,0,0,1.26,1.26Z" fill="#fff" fill-rule="evenodd"/>
      <path id="Trazado_102001" data-name="Trazado 102001" d="M129.14,72.67a1.25,1.25,0,1,0-.894-.366,1.26,1.26,0,0,0,.894.366Z" fill="#fff" fill-rule="evenodd"/>
      <path id="Trazado_102002" data-name="Trazado 102002" d="M107.33,97a1.25,1.25,0,1,0-.894-.366A1.26,1.26,0,0,0,107.33,97Z" fill="#fff" fill-rule="evenodd"/>
      <path id="Trazado_102003" data-name="Trazado 102003" d="M119.08,157.89a1.26,1.26,0,1,0-1.26-1.26,1.26,1.26,0,0,0,1.26,1.26Z" fill="#fff" fill-rule="evenodd"/>
      <path id="Trazado_102004" data-name="Trazado 102004" d="M185.3,157.65a1.26,1.26,0,1,0-.913-.351,1.26,1.26,0,0,0,.913.351Z" fill="#fff" fill-rule="evenodd"/>
    </g>
    <g id="Grupo_87672" data-name="Grupo 87672">
      <path id="Trazado_102005" data-name="Trazado 102005" d="M180.35,141.11a.44.44,0,0,1,.61,0,.43.43,0,0,1,0,.61,13.92,13.92,0,0,0-3.6,10.83,20.73,20.73,0,0,0,5.77,11.92.432.432,0,1,1-.63.59,21.61,21.61,0,0,1-6-12.43,14.77,14.77,0,0,1,3.85-11.52Z" fill="#030822" fill-rule="evenodd"/>
      <path id="Trazado_102006" data-name="Trazado 102006" d="M165.66,99.79a.45.45,0,0,1-.5-.36.43.43,0,0,1,.36-.5s7.32-1.27,8.72,5.37a31.681,31.681,0,0,1,.51,5.81c.12,4.28.23,8.33,4.38,10.72a.44.44,0,0,1,.15.59.43.43,0,0,1-.59.16c-4.56-2.64-4.67-6.92-4.8-11.44a31.509,31.509,0,0,0-.49-5.66C172.17,98.65,165.67,99.78,165.66,99.79Z" fill="#141a33" fill-rule="evenodd"/>
      <path id="Trazado_102007" data-name="Trazado 102007" d="M119.4,136.89a.43.43,0,0,1,.57-.22.45.45,0,0,1,.22.57s-1.33,2.85,2.91,8.19a33,33,0,0,1,5.41,9.13,13.33,13.33,0,0,1-.07,10,.43.43,0,1,1-.79-.34,12.52,12.52,0,0,0,0-9.36,32.1,32.1,0,0,0-5.27-8.88C117.86,140.22,119.39,136.9,119.4,136.89Z" fill="#030822" fill-rule="evenodd"/>
      <g id="Grupo_87671" data-name="Grupo 87671">
        <path id="Trazado_102008" data-name="Trazado 102008" d="M174.87,115.47A27,27,0,0,0,181,120.8c3.69,2.26,8.19,13.19.06,21s-7,17.86,1.62,22.76-47.15,2.75-47.15,2.75l-.05-27.62,21.86-14.11S174.5,114.91,174.87,115.47Z" fill="#0b1329" fill-rule="evenodd"/>
        <path id="Trazado_102009" data-name="Trazado 102009" d="M176.5,117.22a26.36,26.36,0,0,0,4.5,3.58c3.69,2.26,8.19,13.19.06,21s-7,17.86,1.62,22.76-47.15,2.75-47.15,2.75l-.05-27.62,21.86-14.11s7.88-4.9,13.07-7.88a11.29,11.29,0,0,0,6.09-.48Z" fill="#01051d" fill-rule="evenodd"/>
        <path id="Trazado_102010" data-name="Trazado 102010" d="M176.2,167.31c-3.8.3-8.68.42-13.74.45-5-1.34-9.44-3-9.41-3.49.08-1.43-17.51.82-17.51-1.47s4.75-19.63,4.75-19.63l23.64-12.85,12.34-1.19s4.76,3.24,1.24,9.62-14.8,16.19-3.35,26.34a11.4,11.4,0,0,1,2.04,2.22Z" fill="#12263f" fill-rule="evenodd"/>
        <path id="Trazado_102011" data-name="Trazado 102011" d="M127.29,160.27s-6.37,2.47-9.24,5.81-20.82,53.58-22,57.67a8,8,0,0,0,.08,4.25l12,1.9c3.27-6.77,11.42-24.77,11.42-24.77Z" fill="#b079c7" fill-rule="evenodd"/>
        <path id="Trazado_102012" data-name="Trazado 102012" d="M127.29,160.27s-6.37,2.47-9.24,5.81a8.6,8.6,0,0,0-.79,1.33c2.17,4.29.68,13.61-.67,21.59-1.7,9.95-7,30.84-9.79,36.81a8.94,8.94,0,0,1-2.61,3.46l4,.63c3.27-6.77,16.9-38.35,16.9-38.35Z" fill="#caa5da" fill-rule="evenodd"/>
        <path id="Trazado_102013" data-name="Trazado 102013" d="M124,161.81l-.8.43a1.41,1.41,0,0,1,.37.81,1.14,1.14,0,0,1,0,.42.16.16,0,0,0,.16.08A1.8,1.8,0,0,0,124,162v-.17Zm-1.69.95a3.1,3.1,0,0,1,1.53,1.9,3,3,0,0,1-.62,2.49,2.589,2.589,0,0,1,0,.56c-.17.9-.79,1.46-.65.93a2.33,2.33,0,0,0,.06-.79,4.389,4.389,0,0,0-.1-.73,6.34,6.34,0,0,0-2.16-3.05,22.182,22.182,0,0,1,2-1.31Zm-3.1,2.21c-.23.21-.46.42-.67.63a9.071,9.071,0,0,1,1.3,2.91,4.94,4.94,0,0,1,.11,1A2.58,2.58,0,0,0,120,171c.28.44.23-.13.7,0s1-.73,1.11-1.56a2.43,2.43,0,0,0,0-1.31,3.79,3.79,0,0,0-1.32-1.67,7.149,7.149,0,0,1-1.33-1.39Zm-1.51,1.72c.18.3.39.63.64,1a7.669,7.669,0,0,1,.64,1c1.11,2.12,1.19,4.22.68,4.48a2.55,2.55,0,0,0-1.12,1.19c-.24.38-.47.28-.61.15a2.56,2.56,0,0,1-.25.45c-.18.66-1.23.6-1.23.6-.11.23-1,.45-.86,0s.61-1.31-.11-4.19c.36-.84.69-1.61,1-2.28l.09.15c.19.33.41.67.62,1l.36.6a12.607,12.607,0,0,0-.18-1.8.594.594,0,0,0-.08-.36A5.22,5.22,0,0,0,117,168a14.6,14.6,0,0,1,.69-1.31Zm-2.73,5.95c-.38.91-.78,1.88-1.2,2.92a1.359,1.359,0,0,1,.37.2c.47.37,1,0,1.23-.72a4.78,4.78,0,0,0-.4-2.4Zm-3.66,9.19q-.37,1-.75,1.95a3.92,3.92,0,0,1,.9-.3,2.44,2.44,0,0,1,1.08,0c.47.12.82.31.89.3s0-.09,0-.09c-.43-.16-.87-1.32-1.11-1.8a.79.79,0,0,0-.28-.36.33.33,0,0,0-.43.11.57.57,0,0,1-.33.16Zm-.94,2.42c-.17.47-.35.94-.53,1.42l.3-.15c.13-.05.23-.27.33-.15a.34.34,0,0,1,0,.42c-.2.16-.66.32-.78.53a.19.19,0,0,1-.08.08l-.52,1.37a.16.16,0,0,1,.12-.06s.43,0,.51.14a1.18,1.18,0,0,1-.27,1c-.24.22-.54.16-.6,0a1,1,0,0,1,0-.39c-.93,2.48-1.88,5-2.82,7.56V196a1.29,1.29,0,0,0,.91,1.16c.14.44.42.56.91.75a2.57,2.57,0,0,1,.85.69c.22.18.22,0,.22,0-.54-1.21-.82-4.65-.71-7s.92-2.45,1.1-2.23,0,.61,0,.61c-1.34,3.67-.48,8.13-.21,8.31s.71-.14,1.4.7a1.83,1.83,0,0,0,1.61.77c.1,0,0-.16,0-.16-1.17-1.67-1.53-5-1.51-6.6s.38-2,.59-1.54-.26,1.76-.2,2.92a19,19,0,0,0,.76,4c.36,1.16,1.08,1,1.08,1,.32.38,1,.2,1.22.09s.72.46,0-.76a15.57,15.57,0,0,1-1.71-5.15c-.33-1.92.21-2.42.52-2.05s0,1.64.32,4.09,1.3,3.57,1.78,3.78a1.74,1.74,0,0,0,1.28-.13,1.36,1.36,0,0,1-.44-.43h.16a.59.59,0,0,0,.27,0l.1-.05c.18.29.32.42.31.3a1.23,1.23,0,0,1,.61-.87.79.79,0,0,0,.27-.66c.25-.05.31-.38.2-.84a7.83,7.83,0,0,0-.23-1.63,2.12,2.12,0,0,1,.5,1.18c.07.18.14.17.14.17-.06-.5.27-1.12.21-1.57a1.17,1.17,0,0,0-.26-.65,1.84,1.84,0,0,0-.64-1.17,3.231,3.231,0,0,0-.31-.9,1.93,1.93,0,0,0-.44-1.56,2.66,2.66,0,0,0-.64-.56,4.2,4.2,0,0,1,0-.66,2.19,2.19,0,0,0-.45-1.64,2.73,2.73,0,0,0-.56-.57c.06-.43-.27-1-.19-1.28s0-1.36-.52-1.19-.88-.17-1.58-.38a4.879,4.879,0,0,0-.94-.19,4.639,4.639,0,0,0-1.42.11ZM97,220.94c-.29.86-.53,1.55-.69,2.06a1.86,1.86,0,0,1,1,1.34,1.28,1.28,0,0,1,0,.42s0,.09.16.07a1.79,1.79,0,0,0,.34-1.56,4.84,4.84,0,0,0-.56-1.35.83.83,0,0,0-.23-1ZM96,224a3.09,3.09,0,0,1,1.57,2,2.88,2.88,0,0,1-.42,2.21l-1-.16a8,8,0,0,1-.15-4Zm14.1,1.81c.36-.77.74-1.58,1.12-2.42a12.79,12.79,0,0,0-.85-1.83c-.81-1.41-1.66-2.58-1.56-3.21s1.22.82,2,2.62c.36.84.55,1.37.74,1.81l1.2-2.61a8.13,8.13,0,0,0-1.12-1.44c-1.11-1.11-2.08-1.84-2-2.64s1.15-1.14,2.06.43a27.807,27.807,0,0,1,1.36,3c1-2.2,2-4.42,2.95-6.44a3.92,3.92,0,0,0-.65-.73,2.75,2.75,0,0,0-.46-.77c-.48-.56-.41-1.33-1.13-1.59a4.26,4.26,0,0,0-3.15.81c-.64.62-.61,1-.92,1.3,0,0-.18.23-.32-.47a9.59,9.59,0,0,0-.56-2.48,6.42,6.42,0,0,0-.6-1.06c-.15-.14-.58.12-.58.12s-.81-.51-1.25-.14-.58.78-1.5.75a1.21,1.21,0,0,0-1.15.6,1.57,1.57,0,0,0-.71.31c-.39.31-.33.56-.33.56a2.34,2.34,0,0,0-.6,2.18s0,.1.11,0,.52-1,.86-1.13a2.66,2.66,0,0,1,2.29,0c1,.52,1.26.78,1.1.94a5.52,5.52,0,0,1-2.07-.11,2.66,2.66,0,0,0-2.3.83,2.74,2.74,0,0,0-.34,2.25c.11.89.23,1.25.34,1.35s.31-.74.59-1.07a5.2,5.2,0,0,1,2.28-1.34c1.08-.3,1.33,0,1.41.21s-1.44,1-1.88,1.32a14.341,14.341,0,0,0-2.27,2.67,3.41,3.41,0,0,0,0,1.4,5,5,0,0,0-.62,1.3,6.2,6.2,0,0,0,.51,2.2c.11.08.12-.93.72-1.72s1.11-1.65,1.5-1.81.32.54-.56,1.4a4.77,4.77,0,0,0-1.38,2.13,3.52,3.52,0,0,0,.24,2.06c.18.39.38.35.38.35a.11.11,0,0,0,.05-.13,2.07,2.07,0,0,1-.11-.9,6.12,6.12,0,0,1,.93-2.17,6.73,6.73,0,0,0,1-1.58c.14-.42.69-.38.36.35s-1.27,1-1.53,2.16-.15,2.55-.38,2.68.22.63.56,1.2l3-.72c-.26-1.1-.81-3.69-.55-3.94s.55-.54.89,1a17,17,0,0,1,.47,2.72l1.6-.38a30.651,30.651,0,0,0-1-3.54c-.48-1.44-.75-2-.51-2.32s.76.09,1.3,2c.47,1.65.68,2.74,1,3.66ZM122,190.9l1-6c-1.18.68-2.18,1-2.33,2.29a3.83,3.83,0,0,0,1,2.59,3,3,0,0,0,.34,1.12Zm1.3-7.56-.29.22c-1,.74-2.29.91-2.25,2a1.37,1.37,0,0,0,.08.43s0,.08-.15.05a2.24,2.24,0,0,1-.55-1.62,3.63,3.63,0,0,1,.38-1.28.79.79,0,0,1,.2-1.05,3,3,0,0,1,1-.53,2.8,2.8,0,0,1,1.55-2.61,5.267,5.267,0,0,1,.86-.34l-.3,1.7a2.72,2.72,0,0,0-1.51,1.18,3.369,3.369,0,0,1,.52.05,1.9,1.9,0,0,0,.79,0l-.31,1.78Zm.27-18.13s0-.75-.27-1-.12.27-.06.54.29.73.33.43ZM121,187.77s-.12-.75.14-.94.15.28.13.55S121.08,188.08,121,187.77Zm-3.62-14.38c0,.34.4.52.47,0a3.06,3.06,0,0,0-.2-1.23c-.09-.21-.25,0-.19.19a6.87,6.87,0,0,1-.08,1Zm-2.11,21.7c.16,0,.3.42.34,1.41a.57.57,0,0,0,0,.13,4.551,4.551,0,0,0,.15,1,3.36,3.36,0,0,1-.67-2.46.19.19,0,0,1,.17-.07ZM113,185.77a6.319,6.319,0,0,1,.8.74,5.25,5.25,0,0,0-.67-.22,3.89,3.89,0,0,0-.47-.09c-1.15-.14-1.7-.38-1.65-.79s.36-.36,1.27,0a2.85,2.85,0,0,1,.72.4Zm.42,1.75a6.821,6.821,0,0,1,1.55,1.64l.44.6a4.761,4.761,0,0,0-1-.31,2.17,2.17,0,0,0-.86-1.25,2.33,2.33,0,0,0-.94-.38c-.48-.08-.92-.63-.26-.71a1.69,1.69,0,0,1,1,.41Zm3.12,6.85a1.75,1.75,0,0,1-1-.52c-.43-.54,0-1,.38-.34a5.32,5.32,0,0,0,.6.86Zm-.71-2.16c-1.34-.61-1.65-1.4-1.23-1.4S115.46,191.59,115.83,192.21ZM97.38,226.5s0-.75-.27-1-.11.26-.06.54.29.73.33.43Zm8.69-16.42c.54,0,1,0,1.11.22C107.47,210.71,106.91,210.54,106.07,210.08Zm7.25,1.57c-1.14,0-2,.37-2.29.18s.48-.71,1.17-.71a1.32,1.32,0,0,1,1.12.53Zm-2.53,1.65c.08-.63.91-.78,2.1.47a5.36,5.36,0,0,1,.94,1.52,5.88,5.88,0,0,0-1.55-1c-1.3-.56-1.57-.34-1.49-1Zm-3.36,5.27a2,2,0,0,1,.39.74c0,.3-.15.55-.28.52s-.28-.87-.3-1.06.07-.34.19-.2Zm-1.66.53c-.25.14-.69.61-.83.44s.08-.43.08-.43c.34-.36,1.15-.54,1.2-.38S106.01,218.95,105.77,219.1Zm2.7-1.15c-.16.12-.48-.2-.59-.54a1.5,1.5,0,0,1,.16-.88c.34-.35.6,1.3.43,1.42Zm-1.74-1.12a.44.44,0,0,1-.29-.49c0-.09.78-.27.78-.27a.458.458,0,0,1,.2.38c-.03.22-.45.43-.69.38Zm-.65.21c-.09.19-1.1.37-1.07.24a5.748,5.748,0,0,1,.86-.72C106.08,216.45,106.17,216.84,106.08,217.04Zm2-3c-.15,0-.31-.24-.28-.33s.4-.17.4-.17C108.55,213.54,108.2,214.04,108.08,214.04Zm1.2-.14a.21.21,0,0,1-.19-.29s.44-.75.67-.81.61.18.56.47-.91.62-1,.63Zm-1.49.6c0,.31-.23.38-.65.17a.88.88,0,0,1-.55-.66c0-.13.26-.25.34-.25a.7.7,0,0,1,.86.74Zm6.58-18.2a7.28,7.28,0,0,1-.4-2.14c0-.77.69-.68.45.19a5.67,5.67,0,0,0,0,2Zm-1.23-7c-.71-.17-.9-.51-.73-.66S112.96,188.95,113.14,189.3Zm-2.39,1.39c-.15,0-.51-1.68,0-1.8,0,0,.25-.06.35.36a2.24,2.24,0,0,1-.33,1.44Zm-.17-3.4c-.21.07-.08-.6.66-.65a.39.39,0,0,1,.38.28c.06.27-.06.43-.24.42a2.591,2.591,0,0,0-.8-.05Zm1.42,3.7c-.2.14-.4-1.34,0-1.25.08,0,.19.12.24.45a.83.83,0,0,1-.24.73Z" fill="#fff" fill-rule="evenodd"/>
        <path id="Trazado_102014" data-name="Trazado 102014" d="M124,161.81l-.8.43a1.41,1.41,0,0,1,.37.81,1.14,1.14,0,0,1,0,.42.16.16,0,0,0,.16.08A1.8,1.8,0,0,0,124,162v-.17Zm-1.69.95a3.1,3.1,0,0,1,1.53,1.9,3,3,0,0,1-.62,2.49,2.589,2.589,0,0,1,0,.56c-.17.9-.79,1.46-.65.93a2.33,2.33,0,0,0,.06-.79,4.389,4.389,0,0,0-.1-.73,6.34,6.34,0,0,0-2.16-3.05h.25l.13-.08h0l.19-.12h.09Zm-3.1,2.21H119l-.07.07h-.06l-.12.11h0l-.1.1h0a9.07,9.07,0,0,1,1.3,2.91,4.939,4.939,0,0,1,.11,1A2.58,2.58,0,0,0,120,171c.28.44.23-.13.7,0s1-.73,1.11-1.56a2.43,2.43,0,0,0,0-1.31,3.79,3.79,0,0,0-1.32-1.67,7.149,7.149,0,0,1-1.33-1.39Zm-1.9,2.44q.21-.42.39-.72c.18.3.39.63.64,1a7.669,7.669,0,0,1,.64,1c1.11,2.12,1.19,4.22.68,4.48a2.55,2.55,0,0,0-1.12,1.19l-.14.17a15.85,15.85,0,0,0-1.09-7.15Zm-.91,22.9q-.255,1.38-.57,3a1.22,1.22,0,0,1,.19.23,5.32,5.32,0,0,0,.6.86,1.9,1.9,0,0,1-.92-.45l-.27,1.26a3,3,0,0,1,.23,1.32.569.569,0,0,0,0,.13,4.549,4.549,0,0,0,.15,1,3.47,3.47,0,0,1-.62-1.36c-.2.93-.41,1.88-.64,2.85a1.47,1.47,0,0,0,.4.3,1.74,1.74,0,0,0,1.28-.13,1.36,1.36,0,0,1-.44-.43h.16a.59.59,0,0,0,.27,0l.1-.05c.18.29.32.42.31.3a1.23,1.23,0,0,1,.61-.87.79.79,0,0,0,.27-.66c.25-.05.31-.38.2-.84a7.83,7.83,0,0,0-.23-1.63,2.12,2.12,0,0,1,.5,1.18c.07.18.14.17.14.17-.06-.5.27-1.12.21-1.57a1.17,1.17,0,0,0-.26-.65,1.84,1.84,0,0,0-.64-1.17,3.23,3.23,0,0,0-.31-.9,1.93,1.93,0,0,0-.44-1.56,2.06,2.06,0,0,0-.29-.3Zm-4.57,19.88c-.1.36-.19.72-.29,1.08a1.92,1.92,0,0,1,.71-.15,1.32,1.32,0,0,1,1.12.53,13,13,0,0,0-2,.23c-.09.34-.19.67-.28,1,.35-.19,1,0,1.84.88a5.36,5.36,0,0,1,.94,1.52,5.88,5.88,0,0,0-1.55-1c-.9-.39-1.31-.4-1.45-.58-.16.6-.33,1.18-.5,1.76.39,0,.87.33,1.32,1.1a23.24,23.24,0,0,1,1.28,2.84c.92-2.07,1.89-4.27,2.86-6.5a3.189,3.189,0,0,0-.48-.5,2.75,2.75,0,0,0-.46-.77c-.48-.56-.41-1.33-1.13-1.59a3.5,3.5,0,0,0-1.94.17Zm-1.9,6.8a17.8,17.8,0,0,0,1.71,1.76,7.59,7.59,0,0,1,1,1.31c-.4.91-.8,1.79-1.17,2.63-.17-.42-.36-.93-.69-1.7a9.81,9.81,0,0,0-1.37-2.41l.48-1.59Zm-.75,2.47-.46,1.4a8,8,0,0,1,.46,1.31c.46,1.63.68,2.71.94,3.62.35-.77.72-1.6,1.11-2.48a12.51,12.51,0,0,0-.81-1.73c-.46-.8-.94-1.53-1.24-2.12Zm-.89,2.7.1.32a30.65,30.65,0,0,1,1,3.54l-1.6.38a11.829,11.829,0,0,0-.31-2c.27-.67.55-1.43.85-2.28Zm-1.5,3.78c-.14.28-.28.55-.42.8l.57-.14A4.564,4.564,0,0,0,106.79,225.94Zm15.29-35,1-6c-1.18.68-2.18,1-2.33,2.29a3.83,3.83,0,0,0,1,2.59,3,3,0,0,0,.34,1.12Zm1.3-7.56-.29.22c-1,.74-2.29.91-2.25,2a1.37,1.37,0,0,0,.08.43s0,.08-.15.05a2.24,2.24,0,0,1-.55-1.62,3.63,3.63,0,0,1,.38-1.28.79.79,0,0,1,.2-1.05,3,3,0,0,1,1-.53,2.8,2.8,0,0,1,1.55-2.61,5.269,5.269,0,0,1,.86-.34l-.3,1.7a2.72,2.72,0,0,0-1.51,1.18,3.369,3.369,0,0,1,.52.05,1.9,1.9,0,0,0,.79,0l-.31,1.78Zm.27-18.13s0-.75-.27-1-.12.27-.06.54.29.73.33.43ZM121,187.77s-.12-.75.14-.94.15.28.13.55S121.08,188.08,121,187.77Z" fill="#e2e4cc" fill-rule="evenodd"/>
        <path id="Trazado_102015" data-name="Trazado 102015" d="M178.67,159.67s6.4,2.43,9.28,5.75,21.21,53.43,22.4,57.51a8,8,0,0,1-.06,4.25l-12,2c-3.31-6.74-11.59-24.68-11.59-24.68Z" fill="#b079c7" fill-rule="evenodd"/>
        <path id="Trazado_102016" data-name="Trazado 102016" d="M178.67,159.67s6.4,2.43,9.28,5.75a7.53,7.53,0,0,1,.8,1.32c-2.13,4.31-.58,13.62.83,21.59,1.77,9.93,7.17,30.79,10,36.74a8.88,8.88,0,0,0,2.63,3.44l-4,.65c-3.31-6.74-11.59-24.68-11.59-24.68Z" fill="#caa5da" fill-rule="evenodd"/>
        <path id="Trazado_102017" data-name="Trazado 102017" d="M178.92,159.77a31,31,0,0,1,8,4.61c-.25.31,0,1.4,1.3,3.3a8.73,8.73,0,0,1,.63,1c1.12,2.12,1.19,4.22.69,4.48a2.52,2.52,0,0,0-1.13,1.19c-.24.38-.47.28-.61.15a3.12,3.12,0,0,1-.24.45c-.18.66-1.24.6-1.24.6-.11.23-1,.45-.86,0s.64-1.36-.18-4.45a9.42,9.42,0,0,0-.5-1.47c-.6-1.33-1.05-.81-.94-.43a5.471,5.471,0,0,0,.21.6,9.222,9.222,0,0,1,.49,1.65c.26,1.27,1,2.81.71,3.52s-.77,1.09-1.24.72-.83-.19-.94-.37.26-.38.36-1.35-.57-2.57-.87-2.3-.2,1.1-.15,1.93-.15,1.28-.8,1.11l-.23-.05-.73-4.07c.21-.52.16-1.07-.22-1.21l-.49-2.76a9.231,9.231,0,0,0,1.29,0c.88-.13,1.3-1.32-.17-1.18a2,2,0,0,0-1.22.63l-.48-2.69c.23,0,.46-.06.69-.07,1.43-.08,1.59-1,.88-1.34a1.9,1.9,0,0,0-1.78.23l-.46-2.55h.24Zm10.84,9a5.34,5.34,0,0,1,.05.69,2.58,2.58,0,0,0,.1,1.44c.29.44.24-.13.7,0h.07c-.33-.76-.64-1.45-.92-2.08Zm4.14,9.88c.75,1.87,1.53,3.87,2.34,5.94a3.71,3.71,0,0,0-1.29,1.47c-.55,1-2.47,1.88-2.62,3.73a3.74,3.74,0,0,0,.16,1.53c.26.67-.79-.39-.89-1.59a3.79,3.79,0,0,1-.95-2.59c.15-1.35,1.21-1.63,2.45-2.36s2.11-1.23,1.91-1.81-1.11-.2-2.06.54-2.29.91-2.25,2a1.57,1.57,0,0,0,.09.43s0,.08-.16.05a2.24,2.24,0,0,1-.55-1.62,3.509,3.509,0,0,1,.39-1.28.78.78,0,0,1,.19-1.05,3.13,3.13,0,0,1,1-.53,2.8,2.8,0,0,1,1.55-2.61,5.612,5.612,0,0,1,.71-.29Zm2.81,7.15c-.14.16-.3.35-.47.58-.69,1-.59,1.76-2,2.9s-1.2,2-.94,2.83.87,1.74,1.33,1.72.49.54.72.15-.1-1.45-.1-1.45c-.31-2.34,1.43-4.88,2-4.93a.34.34,0,0,1,.28.11c-.25-.64-.5-1.28-.74-1.91Zm.89,2.3a4.89,4.89,0,0,1-1,2.8c-1.41,2.22-1.23,5-.6,5.39a3.62,3.62,0,0,1,1.29,1.34c.3.42.52.35.64.23a4,4,0,0,0,.31.49c.27.69,1.32.76,1.32.76.14.25,1.06.59.87.14s-.82-1.45-.41-4.46a2.169,2.169,0,0,0,0-.25c-.35-.91-.69-1.83-1-2.74a14.671,14.671,0,0,1-.91,1.9c-.1.19-.2.37-.28.56a10.32,10.32,0,0,1,0-2.15,3.27,3.27,0,0,1,.7-1.66l-.9-2.35Zm3.08,8.11,1.26,3.35h0c-.42.3-1-.13-1.34-.89a4.82,4.82,0,0,1,.12-2.49Zm-5.71,26c-.55-1.15-1.11-2.34-1.67-3.54a2.873,2.873,0,0,0,.42,0c.88-.13,1.3-1.32-.17-1.18a1.66,1.66,0,0,0-.7.23l-1.06-2.28a6.359,6.359,0,0,1,.75-.08c1.43-.08,1.59-1,.88-1.34a2,2,0,0,0-2.09.44l-1.25-2.68a3.3,3.3,0,0,1,1.85.08c2.17.69,3.06-.36,2.43-.84s-1.55-.29-2.62,0c-.59.14-1.27.26-1.84.41l-.7-1.52a1,1,0,0,1,.75-.1c.16.05.14-.21-.08-.36a1.31,1.31,0,0,0-1-.13l-.29-.64a1.84,1.84,0,0,1,.58-.28s.19-.48,1.11-.73,2.55.66,3.3.93,1,0,.37-.61a5.07,5.07,0,0,0-3-.83c-.58.1-1.09-.08-.93-.26a6.4,6.4,0,0,1,.72-1.51c.44-.48,1.36-.12,1.36-.12s.33-.53.59-.47a15.839,15.839,0,0,1,1.64,1.43c.81.68,1.05.48,1.06.21a2.54,2.54,0,0,0-1-1.52c-.54-.32-.83-.09-.83-.09a.69.69,0,0,1,.79-.65,5.22,5.22,0,0,1,2.59,1.72,2.51,2.51,0,0,1,.38,2.93c-.29.82-.12,1.12,0,1.24.66.4,1.18-1,1.66-2s1.58-1.17,3.52-.06a3.87,3.87,0,0,1,1.91,2.84,4.43,4.43,0,0,1,1.06.66.86.86,0,0,1,.34,1.08,4.51,4.51,0,0,1,.55,1.35,1.77,1.77,0,0,1-.33,1.56c-.13,0-.16-.07-.16-.07a1.28,1.28,0,0,0,0-.42c-.1-1.14-1.49-1.48-2.54-2.35s-2-1.37-2.15-.81.82,1.17,2.17,2.07,2.45,1.31,2.79,2.7a3,3,0,0,1-.62,2.48,2.13,2.13,0,0,1,0,.57l-.58.14a4.629,4.629,0,0,0-.1-.74c-.4-1.88-2.46-3.05-3.14-4.1s-1.72-2.17-2.22-1.67.12.74,1,1.83.82,1.85,2.44,3.19a3.74,3.74,0,0,1,1.33,1.66l-2,.49c-.44-2.05-2.06-4.12-2.52-4.22s-.68,1,1,3.39a8.73,8.73,0,0,1,.63,1l-1.61.39a.58.58,0,0,0-.08-.36c-.34-1.28-1.37-2.53-1.59-1.89-.16.49.27,1.41.87,2.44l-1.66.4c-.6-1.33-1-.81-.94-.43a5.471,5.471,0,0,0,.21.6l-1.57.38Zm-9.19-22.82-.09-.52a1.31,1.31,0,0,0,.42.39A.855.855,0,0,1,185.78,199.39Zm-.09-.55a.32.32,0,0,0,.14,0,.57.57,0,0,0,.26,0l.1-.05c.18.29.32.42.32.3a1.22,1.22,0,0,1,.6-.87.81.81,0,0,0,.28-.66c.24-.05.3-.38.2-.84a7.92,7.92,0,0,0-.24-1.63,2.12,2.12,0,0,1,.5,1.18c.07.18.15.17.15.17-.06-.5.26-1.12.2-1.57a1.17,1.17,0,0,0-.26-.65,1.84,1.84,0,0,0-.64-1.17,3,3,0,0,0-.3-.9,2,2,0,0,0-.45-1.56,2.48,2.48,0,0,0-.64-.56,4.449,4.449,0,0,1,0-.66,2.21,2.21,0,0,0-.46-1.64,2.941,2.941,0,0,0-.55-.57c.06-.43-.28-1-.2-1.28s0-1.36-.52-1.19a1.76,1.76,0,0,1-1-.2l.3,1.67.33.33-.29-.11.24,1.39a7.09,7.09,0,0,1,1.21,1.37l.45.6a4.849,4.849,0,0,0-1-.31,2.39,2.39,0,0,0-.56-1l1.2,6.7a.19.19,0,0,1,.16-.06c.16,0,.3.42.34,1.41v.13a4,4,0,0,0,.16,1,2.089,2.089,0,0,1-.31-.48l.31,1.72ZM183,183.7l-.07-.41a1,1,0,0,0,.43.43s.08.07,0,.09a1.12,1.12,0,0,1-.32-.11Zm3.46-14.4c.2.33.41.67.63,1a6.338,6.338,0,0,1,.35.6,12.608,12.608,0,0,0-.18-1.8.6.6,0,0,0-.08-.36c-.34-1.28-1.37-2.53-1.59-1.89-.16.49.26,1.41.87,2.44Zm-2.64-2.69c-.57-.05.16,1.4.45,1.51s.33-.12.17-.67A1.61,1.61,0,0,0,183.82,166.61Zm-1.31-2.17c-.35-.13-1.2-.06-1.19.37s1.45.64,1.57.17a.43.43,0,0,0-.38-.54Zm9.76,17.09a3.369,3.369,0,0,1,.52.05c1,.19,2.14-.54,1.49-1.1s-1.52.3-2,1.05Zm6,15.29c0,.34-.34.47-.48,0a3,3,0,0,1,.05-1.21c.06-.21.25,0,.21.21a9.428,9.428,0,0,0,.22,1Zm-7.36-9c.08.31.25-.12.28-.39s.12-.74-.14-.55S190.91,187.82,190.91,187.82Zm12.93,22.95c-.59-.81-1.7-1.7-2.17-1.31s.64,1.36,1.65,1.3a3,3,0,0,1,.52,0Zm-5.35,2.41c.3.21.46,0,.35-.25A3.62,3.62,0,0,0,198,212c-.13-.08-.33,0-.34.13a2.44,2.44,0,0,0,.8,1Zm1.13-1.3c.34.07.65,0,.47-.27a1.14,1.14,0,0,0-.54-.39c-.44-.2-.63-.17-.69,0s.41.57.76.63Zm-3.33,6.75c-.57,0,.16,1.41.45,1.51s.33-.11.17-.66a1.66,1.66,0,0,0-.62-.85Zm.32-8.4a2.09,2.09,0,0,0-.81-.86c-.52-.27-.57.12-.42.34S196.75,210.76,196.61,210.23Zm.09-4a3.64,3.64,0,0,0,.26.81c.2.31.46.35.32-.14a1.66,1.66,0,0,0-.42-.73C196.78,206.09,196.65,206.17,196.7,206.23ZM195,216.42c-.35-.13-1.2-.07-1.19.37s1.45.64,1.57.17a.43.43,0,0,0-.38-.54Zm3.32-1.19c.3.29.69.26.57,0a4,4,0,0,0-.71-1.13c-.36-.32-.5-.38-.56,0s.39.81.7,1.1Zm-2.54-2.83c.57,0,.72-.27.7-.52s-.35-.34-.35-.34a1,1,0,0,0-1.11.58c-.05.2.19.3.76.28ZM206,217.18s0-.74-.27-1-.12.26-.06.54.29.73.33.42Zm-18.72-43.79c0,.34.4.52.48,0a3.18,3.18,0,0,0-.21-1.23c-.08-.21-.25,0-.19.19a6.867,6.867,0,0,1-.08,1Zm-.81,21a1.78,1.78,0,0,1-1-.52c-.43-.54,0-1,.38-.34a5.322,5.322,0,0,0,.6.86Zm-.71-2.16c-1.33-.61-1.65-1.4-1.22-1.4s.86.76,1.23,1.38Z" fill="#fff" fill-rule="evenodd"/>
        <path id="Trazado_102018" data-name="Trazado 102018" d="M178.92,159.77a38.226,38.226,0,0,1,3.5,1.63h0l.35.19h0l.36.2h0l.14.08h.08l.1.06h.07l.17.1h0l.15.08h0l.12.07.07.05h.09l.1.06.15.09.1.07h.06l.09.06h.09l.1.07h0l.24.16h0l.09.06.09.06.08.06.07.05.1.07h0l.14.1h0l.08.06.07.06.08.06.1.07.06.05.11.08h0l.13.11h0l.08.07.08.06.08.07.06.05.09.08c-.25.31,0,1.4,1.3,3.3a.91.91,0,0,0,.11.16,17.049,17.049,0,0,0-.62,4.82,3.836,3.836,0,0,0-.14-.48c-.08-.21-.25,0-.19.19a6.867,6.867,0,0,1-.08,1c0,.29.29.46.42.21v1a3.119,3.119,0,0,1-.19.35c-.18.66-1.24.6-1.24.6-.11.23-1,.45-.86,0s.64-1.36-.18-4.45a9.422,9.422,0,0,0-.5-1.47c-.6-1.33-1.05-.81-.94-.43a5.471,5.471,0,0,0,.21.6,9.221,9.221,0,0,1,.49,1.65c.26,1.27,1,2.81.71,3.52s-.77,1.09-1.24.72-.83-.19-.94-.37.26-.38.36-1.35-.57-2.57-.87-2.3-.2,1.1-.15,1.93-.15,1.28-.8,1.11l-.23-.05-.18-1-.55-3.09c.21-.52.16-1.07-.22-1.21l-.49-2.76a9.231,9.231,0,0,0,1.29,0c.88-.13,1.3-1.32-.17-1.18a2,2,0,0,0-1.22.63l-.48-2.69c.23,0,.46-.06.69-.07,1.43-.08,1.59-1,.88-1.34a1.9,1.9,0,0,0-1.78.23l-.46-2.55h.24Zm14.51,45.54.75,2.85L194,208a5.07,5.07,0,0,0-3-.83c-.58.1-1.09-.08-.93-.26a6.4,6.4,0,0,1,.72-1.51c.44-.48,1.36-.12,1.36-.12s.33-.53.59-.47a2.539,2.539,0,0,1,.66.53Zm.87,3.31c.3,1.09.59,2.17.89,3.22a.8.8,0,0,0-.19.28c0,.14.08.23.35.27,1,3.44,2,6.6,2.83,9.07l-.91.22c-.6-1.33-1-.81-.94-.43a5.465,5.465,0,0,0,.21.6l-1.57.38h0v-.11h0v-.06h0v-.11h0v-.33h0v-.28h0v-.11h0v-.17h0v-.17h0v-.23h0v-.17h0v-.17h0v-.23h0v-.23h0v-.17h0v-.17a2.873,2.873,0,0,0,.42,0c.88-.13,1.3-1.32-.17-1.18a1.66,1.66,0,0,0-.7.23l-.17-.38-.89-1.9a6.359,6.359,0,0,1,.75-.08c1.43-.08,1.59-1,.88-1.34a2,2,0,0,0-2.09.44l-1.25-2.68a3.3,3.3,0,0,1,1.85.08c2.17.69,3.06-.36,2.43-.84s-1.55-.29-2.62,0c-.59.14-1.27.26-1.84.41h0l-1-2.11q1.895-.7,3.73-1.55Zm0,0c-.1.09-.34.09-.68,0-.75-.27-2.38-1.18-3.3-.93s-1.11.73-1.11.73a1.84,1.84,0,0,0-.58.28l.08.18.19.4v.06Zm-8.52-9.21-.09-.52a1.31,1.31,0,0,0,.42.39A.854.854,0,0,1,185.78,199.41Zm-2.08-11.62a7.09,7.09,0,0,1,1.21,1.37l.45.6a4.849,4.849,0,0,0-1-.31,2.39,2.39,0,0,0-.56-1l1.2,6.7a.19.19,0,0,1,.16-.06c.16,0,.3.42.34,1.41v.13a4,4,0,0,0,.16,1,2.091,2.091,0,0,1-.31-.48l.31,1.72a.32.32,0,0,0,.14,0,.57.57,0,0,0,.26,0l.1-.05c.18.29.32.42.32.3a1.22,1.22,0,0,1,.6-.87.81.81,0,0,0,.28-.66c.24-.05.3-.38.2-.84a7.921,7.921,0,0,0-.24-1.63,2.12,2.12,0,0,1,.5,1.18c.07.18.15.17.15.17-.06-.5.26-1.12.2-1.57a1.17,1.17,0,0,0-.26-.65,1.84,1.84,0,0,0-.64-1.17,3,3,0,0,0-.3-.9,2,2,0,0,0-.45-1.56,2.48,2.48,0,0,0-.64-.56,4.449,4.449,0,0,1,0-.66,2.21,2.21,0,0,0-.46-1.64,2.94,2.94,0,0,0-.55-.57c.06-.43-.28-1-.2-1.28s0-1.36-.52-1.19a1.76,1.76,0,0,1-1-.2l.3,1.67.33.33-.29-.11.24,1.39Zm-.7-4.09-.07-.41a1,1,0,0,0,.43.43s.08.07,0,.09a1.12,1.12,0,0,1-.32-.11Zm3.46-14.4c.2.33.41.67.63,1a6.338,6.338,0,0,1,.35.6,12.608,12.608,0,0,0-.18-1.8.6.6,0,0,0-.08-.36c-.34-1.28-1.37-2.53-1.59-1.89-.16.49.26,1.41.87,2.44Zm-2.64-2.69c-.57-.05.16,1.4.45,1.51s.33-.12.17-.67A1.61,1.61,0,0,0,183.82,166.61Zm-1.31-2.17c-.35-.13-1.2-.06-1.19.37s1.45.64,1.57.17a.43.43,0,0,0-.38-.54Zm13.81,54.14c-.57,0,.16,1.41.45,1.51s.33-.11.17-.66a1.66,1.66,0,0,0-.62-.85ZM195,216.42c-.35-.13-1.2-.07-1.19.37s1.45.64,1.57.17a.43.43,0,0,0-.38-.54Zm-8.5-22a1.78,1.78,0,0,1-1-.52c-.43-.54,0-1,.38-.34a5.32,5.32,0,0,0,.6.86Zm-.71-2.16c-1.33-.61-1.65-1.4-1.22-1.4s.83.73,1.2,1.35Z" fill="#e2e4cc" fill-rule="evenodd"/>
        <path id="Trazado_102019" data-name="Trazado 102019" d="M153.72,153.48s25.27,5.74,26.44,6.79,6.43,26.06,6.44,28.51-7.11,38.53-7.2,43.32c0,1.9,1.43,6.76,3.16,12H124.89c1.73-5.25,3.19-10.11,3.16-12-.09-4.79-7.21-40.88-7.2-43.32s5.28-27.47,6.44-28.51S153.72,153.48,153.72,153.48Z" fill="#b079c7" fill-rule="evenodd"/>
        <path id="Trazado_102020" data-name="Trazado 102020" d="M163.66,155.79c7.21,1.73,15.83,3.88,16.5,4.48s1.89,5.85,3.23,11.84c0,0-5.64-7.85-6.29-8.24s-10.58-3-10.58-3l-2.61-2.77-.25-2.33Zm22.94,33c0,2.44-7.11,38.53-7.2,43.32,0,1.9,1.43,6.76,3.16,12h-6.24A76.379,76.379,0,0,0,175,233.35c-.42-.36-3.23-1.76-2.58-2s3.3-1.47,3.3-4.08-1.83-20.12-4.44-20.12-41.86-5-44.41-4a6.4,6.4,0,0,0-3,3.44c-1.24-6.91-2.4-13.25-2.83-16.19a14.1,14.1,0,0,0,6.11,2.7c2.43.19,48.59,1,52.77.13a12.39,12.39,0,0,0,6.68-4.45Z" fill="#caa5da" fill-rule="evenodd"/>
        <path id="Trazado_102021" data-name="Trazado 102021" d="M182.36,167.66c.16.66.32,1.36.49,2.07l-.29.18c-1,.63-1.36,1.62-1.48,1.51a4.71,4.71,0,0,1,0-2.27,6.06,6.06,0,0,1,1.22-1.11.66.66,0,0,1,0-.38Zm.6,2.55a5.26,5.26,0,0,0-1.52,1.28,2.73,2.73,0,0,0-.32,2c.1.42.37.43.37.43a.12.12,0,0,0,.12-.11,1.46,1.46,0,0,1,.14-.9,7,7,0,0,1,1.47-1.62c-.09-.38-.17-.76-.26-1.13Zm.35,1.55c.42,1.85.84,3.77,1.23,5.63a6.1,6.1,0,0,1-1.11-.1c-.59-.15-.83.09-.94-.64a3.93,3.93,0,0,0-.3-.9c-.26-.63-.58-1.26-.35-1.3s.67-1.49,1.35-2.52l.12-.17Zm2.87,20.11c-.05.29-.1.59-.15.91a2.649,2.649,0,0,0-.83-.05c-.3.07-.36.34-.14.34a1.83,1.83,0,0,1,.87.32c-.1.55-.2,1.13-.3,1.75-.74-.46-2-1-3-1.49-1.34-.65-2.48-1.17-3.35-.92s.1,1.64,3,1.73a5.09,5.09,0,0,1,3.3,1.23c-.24,1.38-.51,2.9-.8,4.52a1.4,1.4,0,0,0-.29-.23s-.27-.16-.43,0,.4.47.57,1c-.21,1.15-.43,2.35-.65,3.58h-.18a2.54,2.54,0,0,1,.06.65l-.09.5a2.41,2.41,0,0,1-.39.71c-.47.62-.61,1.22-1,.68s-1.51-3.11-2.52-3.36-1,1.2,0,2.12,1.57,1.22,1.79,1.68-1.23,1.12-1.6,1.77c0,0-.08.15-.32,0a8,8,0,0,0-2.33-.65c-.86-.06-1.06-.59-.87-1.41s.43-1.64.09-2-1.42,1-1.44,2,.44,1.34.27,1.49-.61-.17-1.26,0-1.22-.36-1.47-1.18.9-2.11,1.41-3.3a11.762,11.762,0,0,1,1.21-2c.24-.43-.62-1.42-2.11,1.4s-1,4-.87,4.44-1-.07-1.09-.35c0,0-1.35-.31-1.49-1a3.689,3.689,0,0,1-.24-.55c-.21.08-.51.1-.76-.37a3.77,3.77,0,0,0-1.27-1.61c-.7-.52-.06-3.27,2.47-5.1s2.5-3,1.8-3.07-3.78,2-4.11,4.33c0,0,.1,1.1-.33,1.43s-.28-.22-.88-.31-1.13-1.09-1.21-2-.14-1.77,2.12-2.54,2.35-1.52,3.58-2.33,2.05-.83,1.48-1.51-2.06.08-3.07.89-3.81,1.25-4.59,3a2.87,2.87,0,0,0-.27,1.52c.13.71-.91-.57-.66-1.76a3,3,0,0,1-.44-2.73c.63-1.29,2.09-1.31,3.94-1.73s3.14-.69,3.07-1.31-1.39-.46-2.86,0-3.28.36-3.57,1.46a1,1,0,0,0,0,.44s-.06.07-.22,0a1.71,1.71,0,0,1-.2-1.7,3.54,3.54,0,0,1,.9-1.16s-.31-.69.59-1a5.12,5.12,0,0,1,1.44-.29,3.31,3.31,0,0,1,2.84-2.18c2.64-.42,4,.22,4.49,1.33s.94,2.75,1.84,2.58c.13-.09.38-.33.14-1.27s-.54-2.17.9-2.82a6.22,6.22,0,0,1,3.55-.81c.81.2,1,.8.92,1a1.22,1.22,0,0,0-1.08-.22,2.24,2.24,0,0,0-1.51,1.18c0,.27.26.57,1.39.17a14.361,14.361,0,0,1,2.3-.85c.34,0,.69.68.69.68a2.42,2.42,0,0,1,1.72.62,7.5,7.5,0,0,1,.7,1.78c.17.24-.5.24-1.23-.07a7.73,7.73,0,0,0-3.9-.23c-.89.36-.6.76.4.75s3.2-.33,4.33.25a2.66,2.66,0,0,1,1.3,1.1Zm-61.91,16.92c-1.51-8.35-3-16.34-3.34-19.11.31.61.67,1.07,1.17,1,.13-.09.38-.33.14-1.27s-.54-2.17.9-2.82a6.22,6.22,0,0,1,3.55-.81c.81.2,1,.8.92,1a1.22,1.22,0,0,0-1.08-.22,2.24,2.24,0,0,0-1.51,1.18c0,.27.26.57,1.39.17a14.359,14.359,0,0,1,2.3-.85c.34,0,.69.68.69.68a2.42,2.42,0,0,1,1.72.62,7.5,7.5,0,0,1,.7,1.78c.17.24-.5.24-1.23-.07a7.73,7.73,0,0,0-3.9-.23c-.89.36-.6.76.4.75s3.2-.33,4.33.25,1.32,1.14,1.32,1.14,1.48.7,1.37,2a12.391,12.391,0,0,0-.12,2.75c.12.48-.9-.56-1.32-1.1s-2.19-1.26-3.53-1.91-2.48-1.17-3.35-.92.1,1.64,3,1.73,4.3,2,4.43,3.17a2.72,2.72,0,0,1-.22,1.7,1.8,1.8,0,0,1-.31,1.66,3.26,3.26,0,0,1-.59.67,1.8,1.8,0,0,1-.3,1.43s-.38,1.16-1.08,1.46a1,1,0,0,1-.41.07,2,2,0,0,1-.42,1.86c-.47.62-.61,1.22-1,.68s-1.51-3.11-2.52-3.36-1,1.2,0,2.12,1.57,1.22,1.79,1.68-1.23,1.12-1.6,1.77c0,0-.08.15-.32,0a8.719,8.719,0,0,0-1.93-.6Zm29.45-40.47a6.26,6.26,0,0,1,1.18-.68c1.62-.68,2.8-.69,3.63-.22s.33,1.36-1.57,1.09a14.121,14.121,0,0,0-3.24,0h-.22l.22-.16Zm0,6.62a2.7,2.7,0,0,1,1.63-.51c.69.15.61.8.08,1.32a2.49,2.49,0,0,1-1,.59,6.879,6.879,0,0,1-.72.21,4.88,4.88,0,0,0-1.62.52c-.41.33.61,1.55.66,2.29,0,0,0,.17.28.16a4.322,4.322,0,0,1,.68,0,7.089,7.089,0,0,1,1.7.38c.79.32,1.21-.07,1.4-.89s.33-1.65.8-1.84.83,1.53.41,2.44-1,1-.9,1.23.62.12,1.12.58,1.26.22,1.84-.41.12-2.29.18-3.59a7,7,0,0,0-.12-1.72,4.139,4.139,0,0,1-.09-.63c0-.39.73-.8,1.1.63a7.861,7.861,0,0,1,.18,1.55c.11,3.19-.85,4-1.15,4.37s.92.37,1.13.17c0,0,1.35.31,1.79-.29a3.55,3.55,0,0,0,.47-.39c.14.17.41.32.84,0a3.73,3.73,0,0,1,1.84-.89c.74-.14,1.31-2.19.52-4.52a7.651,7.651,0,0,0-.51-1.15c-1.47-2.76-.94-3.78-.27-3.54s2,2.6,2,4.69a3.671,3.671,0,0,1-.16,1s-.57.94-.33,1.43.35-.08.93.1,1.49-.48,1.95-1.25a2,2,0,0,0,.41-1.28,3.4,3.4,0,0,0-1.2-1.92c-1.7-1.69-1.45-2.41-2.2-3.67s-1.48-1.64-.67-2,1.81,1,2.37,2.15,2.88,2.79,2.81,4.72a3.28,3.28,0,0,1-.1.73,2,2,0,0,1-.33.76c-.36.48.63.08,1.13-.76a1.67,1.67,0,0,0,.23-.53s1.6-.85,1.59-2.27-1.31-2.09-2.79-3.28-2.51-2-2.18-2.52,1.45.19,2.55,1.29,2.79,1.75,2.58,2.87a1.2,1.2,0,0,1-.17.41s0,.09.19.11a1.75,1.75,0,0,0,.93-1.45,3.59,3.59,0,0,0-.3-1.43s.58-.49-.11-1.13a4.589,4.589,0,0,0-1.17-.89,3.31,3.31,0,0,0-1.6-3.21c-2.19-1.53-3.7-1.55-4.62-.77s-2,2.06-2.78,1.52c-.08-.14-.2-.46.43-1.2s1.44-1.72.42-2.94a6.33,6.33,0,0,0-2.84-2.28c-.81-.17-1.22.3-1.24.46a1.21,1.21,0,0,1,1.07.27,2.23,2.23,0,0,1,.84,1.72c-.1.26-.48.4-1.32-.45a16.45,16.45,0,0,0-1.7-1.78c-.32-.12-.92.32-.92.32a2.42,2.42,0,0,0-1.81-.2c-.74.37-1.16,1.15-1.41,1.3s.34.43,1.13.47a7.76,7.76,0,0,1,3.61,1.5c.64.71.2,1-.69.51s-2.73-1.7-4-1.68a2.53,2.53,0,0,0-1.69.45,3.25,3.25,0,0,0-1.08.22,1.72,1.72,0,0,0-1,1,12.379,12.379,0,0,1-1.1,2.52c-.32.38,1.05-.1,1.67-.41a1.881,1.881,0,0,1,.45-.13,31.337,31.337,0,0,1,3.56,0c1.49,0,2.74,0,3.42.64s-.82,1.43-3.44.25a5.07,5.07,0,0,0-3.54-.33,3.26,3.26,0,0,0-1.83,1.24,2.75,2.75,0,0,0-.55,1.63,1.79,1.79,0,0,0-.45,1.62,3,3,0,0,0,.24.86,1.83,1.83,0,0,0-.35,1.42,2.73,2.73,0,0,0,.33,1.79.92.92,0,0,0,.34.24,2,2,0,0,0-.44,1.85,2.97,2.97,0,0,0,.07.46c.06.52.07.85.54.59.17-.09.49-.32.87-.59s.8-.56,1.23-.81Zm9.73.81c-.47-1.14-.74-2.14-.37-2.57s1.44.88,1.48,2.21v.36a8.689,8.689,0,0,1-.33,1.8q-.12-.31-.27-.66c-.18-.39-.35-.77-.5-1.14Zm-9.73-13.81.18-.11a1.89,1.89,0,0,1,1.45.28c.24.2.17.47,0,.37a1.82,1.82,0,0,0-1.25,0,.38.38,0,0,1-.36,0,.32.32,0,0,1,0-.53Zm1.23,9.71a4.05,4.05,0,0,1,2.66-.83c2,.21,1,1.27-.15,1.19a17.14,17.14,0,0,0-2.51-.36Zm18.21-5a4,4,0,0,0-.67-.13c-1.34-.19-2.65-1.32-1.74-1.66.73-.26,1.9.86,2.41,1.79Zm-7.73,1.09c-.33-.27-.81-1-.74-1.13a.325.325,0,0,1,.48,0c.14.15.75.7.8,1s-.21.43-.54.16Zm1.88-1c-.44-.14-.94-.62-.8-.8s.41-.16.92.14.59.51.59.51c.13.33-.28.3-.71.15Zm-6.46,5.79a1.5,1.5,0,0,1,.54,1c0,.57-.09.78-.43.61s-.85-1.75-.11-1.57Zm3.05-8.09c0,.54-1.33-.56-1.45-.8s.07-.61.67-.24a2,2,0,0,1,.78,1Zm1.37-3.84c-.05-.09.13-.11.22,0a1.39,1.39,0,0,1,.32.81c0,.51-.3.4-.46.06s0-.76-.08-.85Zm-5.46,9.51s.63.19.33.62-2.11-.11-2-.53,1.25-.29,1.66-.09Zm4.71-.37c-.31-.36-.79-.84-.57-1.23s.38-.3.74.09a3.48,3.48,0,0,1,.58,1.27C165.34,170.15,164.83,170.09,164.52,169.74Zm-2.43-3.35c-.74-.11-1-.27-.9-.44a1.63,1.63,0,0,1,1.63-.31s.4.16.35.41-.33.46-1.08.34ZM174,173.43c-.15.28-.3-.21-.29-.49s-.06-.8.24-.51.05,1,.05,1ZM152.85,169s.32,0,.39.21-.62.25-1,.72-.64-.75.62-.93ZM137,159.5c1,.64,1.63.94,1.38.48C138.27,159.78,137.7,159.63,137,159.5Zm4.08,16.25a5.111,5.111,0,0,0-.38-1,11,11,0,0,1-1-3.54c-.41-1.92-1.41-3.59-1.74-3s.41,1.92,1,3.48a10.39,10.39,0,0,1,.68,4.06,5.311,5.311,0,0,1-.12.84,1,1,0,0,1-1.46.69c-.49,0-1.08.64-.92.26s.28-.23.15-1.31v-.48c-.06-1,0-2.06-.09-3.78-.1-2-.66-2.51-1.08-2.25s-.23.86,0,2.37a23.4,23.4,0,0,1,.14,3.66,3,3,0,0,1-.21,1.09,2.44,2.44,0,0,1-1.81.84c-.45,0-.95.29-.78,0s.27-1,.51-1.69l.09-.29a13.34,13.34,0,0,0,.23-2.75c.05-1.6-.42-1.4-.85-1.21s-.5,2.84-.51,4v.13c0,1,.15,2.05-.76,1.72a12.769,12.769,0,0,0-2.16-.31c-.59-.15-.83.09-.94-.64a3.93,3.93,0,0,0-.3-.9c-.26-.63-.58-1.26-.35-1.3s.67-1.49,1.35-2.52,2-1.11,2.66-1.74,0-.79-.36-.42a8.05,8.05,0,0,1-1.86,1.29,6.7,6.7,0,0,0-1.88,1.9,1.46,1.46,0,0,0-.14.9c0,.1-.12.11-.12.11s-.27,0-.37-.43a2.73,2.73,0,0,1,.32-2,6,6,0,0,1,2.48-1.76c1.42-.63,1.74-1.29,1.18-1.23a9.8,9.8,0,0,0-2.54,1.41c-1,.63-1.36,1.62-1.48,1.51a4.71,4.71,0,0,1,0-2.27,6.06,6.06,0,0,1,1.22-1.11,2.73,2.73,0,0,1,.43-1.36,19.861,19.861,0,0,1,3.81-2.06c.69-.26,2.91-.62,2.87-.85s-.28-.58-1.78-.54a8.88,8.88,0,0,0-3.4.78c-.47.25-1,1-1.1.89s-.15-.5,0-1.38a2.46,2.46,0,0,1,1.16-2.12,4.66,4.66,0,0,1,3.27-.26,9.439,9.439,0,0,0,2.66.59c.26-.12,0-.44-1.14-1.17a4.48,4.48,0,0,0-3-.51c-.49.06-1.34.82-1.47.89s-.16,0-.16,0a2.41,2.41,0,0,1,1.48-2s0-.26.6-.48a3.07,3.07,0,0,1,1-.13,2,2,0,0,1,1.69-.32,2.87,2.87,0,0,0,2.19-.37c.69-.25,1.59.43,1.59.43s.64-.16.79,0a4.939,4.939,0,0,1,.45,1.17,7.22,7.22,0,0,1-.05,2.54c0,.71.27.53.27.53.5-.23.59-.6,1.62-1.05a7.49,7.49,0,0,1,4.37-.05c.84.42.52,1.16,1,1.81a2.3,2.3,0,0,1,.36.86,3.54,3.54,0,0,1,.87,1.51c.18.67-.5,1.55-.5,1.55a3.31,3.31,0,0,1-1.83,1.86,2.762,2.762,0,0,1,.06.4A3.72,3.72,0,0,1,145.7,172c-.41,1.36-1.93,2-1.8,1.77s.31-.79-.36-2.15-.59-2.8-1.28-4.54-2.19-1.65-2.55-.9.68,1.69,1.78,3a10.43,10.43,0,0,1,1.89,4.55,2.2,2.2,0,0,1-.76,2l-.13.11c-.1.91-1.57,1.88-1.4,1.57a2.8,2.8,0,0,0,0-1.68Zm4.89-13a1.75,1.75,0,0,0-1.3-.77c-.89-.17-2.05.13-1.75.41s1.57.07,3,.36Zm-3.82,1c-.31.59.13.44,1.64,1.28a7.26,7.26,0,0,1,1.7,1.37,4.43,4.43,0,0,0-.75-1.7c-1.16-1.49-2.28-1.54-2.59-1Zm-6,4.35c-.12-.17-.27,0-.31.14s-.1,1,.05,1.1.48-.14.53-.44a1.64,1.64,0,0,0-.27-.8Zm-2.34.12c.37-.08.72-.08.71-.25s-1.13-.19-1.69.08c0,0-.37.19-.24.4S133.45,168.3,133.81,168.22Zm3.89-.48c.26-.08.44-1.75-.11-1.49,0,0-.53.46-.49.82S137.45,167.81,137.7,167.74Zm-1.93-1.5c.31.1.9,0,1-.21s0-.43-.14-.42a5.481,5.481,0,0,0-1.1.08.39.39,0,0,0,.22.55Zm-.9.05c.18-.17.19-.57-.12-.51a7.822,7.822,0,0,0-1.35.5,2.57,2.57,0,0,0,1.47,0Zm3.62-2.47c.2,0,.75-.36.31-.45a2.149,2.149,0,0,0-.58.06C138.15,163.49,138.28,163.78,138.49,163.82Zm1.6.14c.17,0,1.4-.09,1.55-.36s-.25-.6-.57-.59a3.8,3.8,0,0,0-1.14.63s0,.3.16.32Zm-2.13.24c.11-.3,0-.88-.89-.92-.11,0-.48,0-.53.16s0,.48.52.78.79.28.9,0Zm46.14,35.08a7.19,7.19,0,0,0-.89-1.37c-1.15-1.32-2.22-1.84-3.17-1.79s-.88,1.08.94,1.68A13.869,13.869,0,0,1,184.1,199.28Zm-2.69,2.22a4.06,4.06,0,0,0-2-1.91c-1.86-.67-1.5.68-.39,1.13a17,17,0,0,1,2.41.78Zm-10.91,1.25c.16-.16.34-.32.53-.48,1.35-1.1,2.59-2.22,2.41-2.95s-1.69.16-2.3,1.34a7.671,7.671,0,0,0-.64,2.09ZM167.2,189a5.549,5.549,0,0,1,.66.18c1.28.42,3,0,2.29-.72s-2.09-.07-3,.54Zm6.47,4.37c.42-.1,1.15-.52,1.17-.69s-.24-.29-.42-.25c0,0-1,.3-1.16.56S173.26,193.47,173.67,193.37Zm-1.25-1.72c.45.06,1.11-.15,1.06-.37s-.29-.32-.88-.28a1.29,1.29,0,0,0-.75.21c-.26.23.12.38.57.44Zm3.28,8a1.48,1.48,0,0,0-.91.63c-.28.5-.26.74.12.73s1.53-1.2.79-1.36Zm-5.44,5.6c.06-.34-.06-.87.05-1.06s-.08-.44-.22-.26a2.41,2.41,0,0,0-.44,1.17C169.65,205.63,170.21,205.59,170.26,205.25Zm6.23-14.22c-.25.48,1.44.09,1.66-.08s.2-.58-.5-.5A2,2,0,0,0,176.49,191.03Zm.45-4c.09-.06-.07-.16-.19-.11a1.34,1.34,0,0,0-.64.58c-.25.45.09.5.39.26S176.86,187.09,176.94,187.03Zm.75,10.94s-.65-.11-.56.41,1.93.83,2,.39-1-.8-1.45-.8Zm-4.07-2.4c.43-.18,1.07-.41,1-.85s-.21-.43-.71-.25a3.57,3.57,0,0,0-1.08.89c-.18.22.31.39.74.21Zm3.64-1.95c.72.23,1.05.22,1,0a1.66,1.66,0,0,0-1.33-1s-.43,0-.49.22.09.55.81.77Zm-13.76,1.15c0,.32.37-.06.48-.31s.4-.69,0-.57S163.5,194.77,163.5,194.77Zm-9.78,27a6.259,6.259,0,0,1,1.18-.68c1.62-.68,2.8-.69,3.63-.22s.33,1.36-1.57,1.09a14.731,14.731,0,0,0-3.24-.06h-.22l.22-.16Zm0,6.62a2.7,2.7,0,0,1,1.63-.51c.69.15.61.8.08,1.32h4.72a4.142,4.142,0,0,1-.09-.63c0-.39.73-.79,1.1.63h2.29c-.47-1.14-.74-2.14-.37-2.57s1.44.88,1.48,2.21v.36h2.23a7.651,7.651,0,0,0-.51-1.15c-1.47-2.75-.94-3.78-.27-3.54s2,2.6,2,4.69h2.8a3.4,3.4,0,0,0-1.2-1.92c-1.7-1.69-1.45-2.41-2.2-3.67s-1.48-1.64-.67-2,1.81,1,2.37,2.15,2.88,2.79,2.81,4.72a3.279,3.279,0,0,1-.1.73h.8a1.67,1.67,0,0,0,.23-.53s1.6-.85,1.59-2.28-1.31-2.08-2.79-3.27-2.51-2-2.18-2.52,1.45.19,2.55,1.29,2.79,1.75,2.58,2.87a1.2,1.2,0,0,1-.17.41s0,.09.19.11a1.73,1.73,0,0,0,.93-1.45,3.59,3.59,0,0,0-.3-1.43s.58-.49-.11-1.13a4.589,4.589,0,0,0-1.17-.89,3.31,3.31,0,0,0-1.6-3.21c-2.19-1.53-3.7-1.55-4.62-.76s-2,2.05-2.78,1.51c-.08-.14-.2-.46.43-1.2s1.44-1.72.42-2.94a6.33,6.33,0,0,0-2.84-2.28c-.81-.17-1.22.3-1.24.46a1.21,1.21,0,0,1,1.07.27,2.23,2.23,0,0,1,.84,1.72c-.1.26-.48.4-1.32-.45a16.448,16.448,0,0,0-1.7-1.78c-.32-.12-.92.32-.92.32a2.37,2.37,0,0,0-1.81-.2c-.74.37-1.16,1.15-1.41,1.3s.34.43,1.13.47a7.76,7.76,0,0,1,3.61,1.5c.64.71.2.95-.69.51s-2.73-1.7-4-1.68a2.53,2.53,0,0,0-1.69.45,3.251,3.251,0,0,0-1.08.22,1.72,1.72,0,0,0-1,1,12.38,12.38,0,0,1-1.1,2.52c-.32.38,1.05-.1,1.67-.41a1.88,1.88,0,0,1,.45-.13,29.164,29.164,0,0,1,3.56,0c1.49,0,2.74,0,3.42.64s-.82,1.43-3.44.25a5.07,5.07,0,0,0-3.54-.33,3.26,3.26,0,0,0-1.83,1.24,2.75,2.75,0,0,0-.55,1.63,1.79,1.79,0,0,0-.45,1.62,3,3,0,0,0,.24.86,1.83,1.83,0,0,0-.35,1.42,2.73,2.73,0,0,0,.33,1.79.92.92,0,0,0,.34.24,2,2,0,0,0-.44,1.85,2.97,2.97,0,0,0,.07.46h1.41c.37-.26.8-.56,1.23-.81Zm0-13,.18-.11a1.89,1.89,0,0,1,1.45.28c.24.2.17.46,0,.37a1.82,1.82,0,0,0-1.25,0,.38.38,0,0,1-.36,0,.32.32,0,0,1,0-.53Zm1.23,9.71a4.05,4.05,0,0,1,2.66-.83c2,.21,1,1.27-.15,1.18a18.749,18.749,0,0,0-2.51-.35Zm18.21-5a4,4,0,0,0-.67-.13c-1.34-.19-2.65-1.32-1.74-1.66.73-.26,1.9.86,2.41,1.79Zm-7.73,1.09c-.33-.27-.81-1-.74-1.13a.325.325,0,0,1,.48,0c.14.15.75.7.8,1s-.21.43-.54.16Zm1.88-1c-.44-.14-.94-.62-.8-.8s.41-.16.92.14.59.51.59.51c.13.33-.28.3-.71.15ZM160.85,226a1.5,1.5,0,0,1,.54,1c0,.57-.09.79-.43.61s-.85-1.75-.11-1.57Zm3.05-8.09c0,.54-1.33-.56-1.45-.8s.07-.61.67-.24a2,2,0,0,1,.78,1Zm1.37-3.84c-.05-.09.13-.11.22,0a1.39,1.39,0,0,1,.32.81c0,.51-.3.4-.46.06s0-.76-.08-.85Zm-5.46,9.51s.63.19.33.62-2.11-.11-2-.53,1.25-.29,1.66-.09Zm4.71-.38c-.31-.35-.79-.83-.57-1.22s.38-.3.74.09a3.48,3.48,0,0,1,.58,1.27C165.34,223.62,164.83,223.56,164.52,223.2Zm-2.43-3.34c-.74-.11-1-.27-.9-.44a1.63,1.63,0,0,1,1.63-.31s.4.16.35.41-.33.46-1.08.34Zm11.88,7c-.15.28-.3-.21-.29-.49s-.06-.8.24-.51.05,1,.05,1Zm-10.69-46.95c.11-.33.45-.76.43-1s.26-.36.31-.14a2.4,2.4,0,0,1-.12,1.25c-.25.46-.72.2-.62-.13Zm-9.56,20.6c.2.08.26.47,0,1.45v.12a3.489,3.489,0,0,0-.11,1c-.58-.84-.41-2.41-.09-2.55a.27.27,0,0,1,.23,0Zm0,3.87h.15c.14.33.29.48.32.36.09-.3.62-.59,1.06-.7a.86.86,0,0,0,.57-.58c.33,0,.51-.29.52-.77a5.85,5.85,0,0,0,.2-1.63,1.52,1.52,0,0,1,.28,1.26c0,.19.15.19.15.19.07-.5.69-1,.75-1.47a.9.9,0,0,0-.13-.69,1.47,1.47,0,0,0-.47-1.29,2.36,2.36,0,0,0-.12-.94,1.5,1.5,0,0,0-.09-1.63,2.63,2.63,0,0,0-.65-.69,2.911,2.911,0,0,1,.18-.64,1.7,1.7,0,0,0-.08-1.71,2.87,2.87,0,0,0-.54-.68c.21-.41,0-1.06.15-1.29s.44-1.32-.31-1.28a5.5,5.5,0,0,1-1.94-.74,7.759,7.759,0,0,0-1.16-.41c-1.57-.39-2.93-.09-2.56-.3a4.45,4.45,0,0,1,2.33-.41,3.9,3.9,0,0,1,1.39.28c.58.22,1,.49,1.08.5s.07-.08.07-.08c-.51-.25-.73-1.49-.89-2a.69.69,0,0,0-.26-.42.55.55,0,0,0-.59,0,1.62,1.62,0,0,1-1.65-.48c-.53-.53-.93-.56-1.4-.26a2.79,2.79,0,0,1-1.32.24,1.55,1.55,0,0,0-1.09-.09c-.38.09-.66.77-1,1.35a2.75,2.75,0,0,0-.38,1.88c.1.51-.12.9-.48.73s-1.59-1.87-2.27-2.23a2,2,0,0,0-1.59.13c-3.74-1.34-3.2,1.45-3.2,1.45a1,1,0,0,0-.14.54l-.21.07c-1,.37-1,1.1-.66,1.87a7.18,7.18,0,0,1,.43,2.32.15.15,0,0,0,.14.2c.43-.15.32-.47,1.34-2.1a4.31,4.31,0,0,1,3.53-1.95c.51.09.93.17-1.27,1.37a5.87,5.87,0,0,0-3,3.77,1.47,1.47,0,0,0,.24,1.66s-.11.52.63.94a1.65,1.65,0,0,1,.82,1.2c.05.16.14,0,.14,0,.84-1.07.82-2.69,1.54-4.76s2.4-2.38,2.58-2.15a.3.3,0,0,1,0,.42,11.334,11.334,0,0,0-3.5,6.47,1.27,1.27,0,0,0,.82,1.34c.05.46.37.64,1,.95s.68.65.9.87.28.07.28.07c-.34-1.3.38-4.71,1.28-7s2-2.17,2.13-1.92-.16.6-.16.6c-2.9,3.25-3.18,7.79-2.89,8s1,0,1.61,1a2.57,2.57,0,0,0,1.86,1.14c.14,0,.1-.16.1-.16-1-1.89-.41-5.25.11-6.77s1.14-1.89,1.25-1.35-.89,1.65-1.18,2.79a14,14,0,0,0-.25,4,1.23,1.23,0,0,0,1.09,1.25c.29.44,1.18.42,1.56.38s.79.61.21-.75a12,12,0,0,1-.62-5.41c.18-1.94,1-2.3,1.32-1.87s-.53,1.59-.86,4.05.58,3.78,1.14,4.09a2.84,2.84,0,0,0,1.71.17,1.47,1.47,0,0,1-.45-.51l.21.07a1.06,1.06,0,0,0,.35,0Zm0-13.45a6.19,6.19,0,0,1,.82.9,6.8,6.8,0,0,0-.82-.37c-.19-.08-.38-.14-.57-.2-1.47-.41-2.11-.76-1.91-1.15s.59-.27,1.67.26a3.251,3.251,0,0,1,.81.56Zm0,1.79a6.78,6.78,0,0,1,1.51,1.95l.39.69a9.139,9.139,0,0,0-1.18-.53,1.94,1.94,0,0,0-.72-1.41,3.18,3.18,0,0,0-1.11-.59c-.61-.19-1-.82-.12-.74a2.34,2.34,0,0,1,1.23.63Zm1.93,7.39a2.34,2.34,0,0,1-1.13-.73c-.38-.63.29-1,.61-.24a4.85,4.85,0,0,0,.52,1Zm-.25-2.26c-1.56-.91-1.72-1.75-1.17-1.65S155.1,197.2,155.4,197.85Zm-24.79,1.38a7.189,7.189,0,0,0-.89-1.37c-1.15-1.32-2.22-1.84-3.17-1.79s-.88,1.08.94,1.68A13.871,13.871,0,0,1,130.61,199.23Zm-2.69,2.22a4.06,4.06,0,0,0-2-1.91c-1.86-.67-1.5.68-.39,1.13a17,17,0,0,1,2.41.78ZM131,200s-.27-.16-.43,0,.44.49.58,1.08.91-.4-.15-1.1Zm-8-8.94c-.25.48,1.44.09,1.66-.08s.2-.58-.5-.5a2,2,0,0,0-1.16.58Zm.45-4c.09-.06-.07-.16-.19-.11a1.34,1.34,0,0,0-.64.58c-.25.45.09.5.39.26S123.37,187.12,123.45,187.06Zm8.26,5.71c-.3.07-.36.34-.14.34a1.73,1.73,0,0,1,1.11.54c.3.37.88,0,.45-.5s-1.42-.38-1.42-.38ZM124.23,198s-.65-.11-.56.41,1.93.83,2,.39-1-.8-1.45-.8Zm-.43-4.35c.72.23,1,.22,1,0a1.66,1.66,0,0,0-1.33-1s-.43,0-.49.22.09.55.81.77Zm29.05,28.81s.32,0,.39.22-.62.24-1,.71-.64-.76.62-.93ZM137,213c1,.64,1.63.94,1.38.47C138.27,213.28,137.7,213.13,137,213Zm5.61,16.25h-1.53a5.111,5.111,0,0,0-.38-1,11,11,0,0,1-1-3.54c-.41-1.92-1.41-3.58-1.74-3s.41,1.92,1,3.48a10.39,10.39,0,0,1,.68,4.06H137.3c-.06-1,0-2.07-.09-3.78-.1-2-.66-2.51-1.08-2.25s-.23.86,0,2.37a23.4,23.4,0,0,1,.14,3.66H134a13.34,13.34,0,0,0,.23-2.75c.05-1.6-.42-1.4-.85-1.21s-.5,2.84-.51,4h-4.16c-.26-.63-.58-1.26-.35-1.3s.67-1.49,1.35-2.51,2-1.12,2.66-1.75,0-.79-.36-.42a8.05,8.05,0,0,1-1.86,1.29,6.7,6.7,0,0,0-1.88,1.9,1.46,1.46,0,0,0-.14.9c0,.1-.12.11-.12.11s-.27,0-.37-.43A2.73,2.73,0,0,1,128,225a6,6,0,0,1,2.48-1.76c1.42-.63,1.74-1.29,1.18-1.23a9.8,9.8,0,0,0-2.54,1.41c-1,.63-1.36,1.61-1.48,1.51a4.71,4.71,0,0,1,0-2.27,6.06,6.06,0,0,1,1.22-1.11,2.73,2.73,0,0,1,.43-1.36,19.859,19.859,0,0,1,3.81-2.06c.69-.26,2.91-.62,2.87-.85s-.28-.58-1.78-.54a8.88,8.88,0,0,0-3.4.78c-.47.25-1,1-1.1.89s-.15-.5,0-1.38a2.45,2.45,0,0,1,1.16-2.11,4.61,4.61,0,0,1,3.27-.27,9.441,9.441,0,0,0,2.66.59c.26-.12,0-.44-1.14-1.17a4.48,4.48,0,0,0-3-.51c-.49.06-1.34.82-1.47.89s-.16,0-.16,0a2.41,2.41,0,0,1,1.48-2s0-.26.6-.48a3.07,3.07,0,0,1,1-.13,2,2,0,0,1,1.69-.32,2.87,2.87,0,0,0,2.19-.37c.69-.25,1.59.43,1.59.43s.64-.16.79,0a4.94,4.94,0,0,1,.45,1.17,7.219,7.219,0,0,1-.05,2.54c0,.71.27.53.27.53.5-.23.59-.6,1.62-1a7.49,7.49,0,0,1,4.37-.05c.84.42.52,1.16,1,1.81a2.3,2.3,0,0,1,.36.86,3.54,3.54,0,0,1,.87,1.51c.18.67-.5,1.55-.5,1.55a3.31,3.31,0,0,1-1.83,1.86,2.761,2.761,0,0,1,.06.4,3.72,3.72,0,0,1-1.25,2.79c-.41,1.36-1.93,1.95-1.8,1.77s.31-.79-.36-2.15-.59-2.8-1.28-4.54-2.19-1.65-2.55-.9.68,1.69,1.78,3a10.43,10.43,0,0,1,1.89,4.55,2.2,2.2,0,0,1-.76,2Zm3.36-13a1.75,1.75,0,0,0-1.3-.77c-.89-.17-2.05.13-1.75.41s1.57.06,3,.36Zm-3.82,1c-.31.59.13.44,1.64,1.28a7.26,7.26,0,0,1,1.7,1.37,4.431,4.431,0,0,0-.75-1.7C143.58,216.71,142.46,216.66,142.15,217.25Zm-6,4.35c-.12-.17-.27,0-.31.14s-.1,1,.05,1.1.48-.14.53-.44a1.64,1.64,0,0,0-.27-.8Zm-2.34.12c.37-.08.72-.08.71-.25s-1.13-.19-1.69.08c0,0-.37.19-.24.4S133.45,221.8,133.81,221.72Zm3.89-.48c.26-.08.44-1.75-.11-1.49,0,0-.53.46-.49.82S137.45,221.31,137.7,221.24Zm-1.93-1.5c.31.1.9,0,1-.21s0-.43-.14-.42a5.479,5.479,0,0,0-1.1.08.39.39,0,0,0,.22.55Zm-.9,0c.18-.17.19-.57-.12-.51a7.82,7.82,0,0,0-1.35.5,2.57,2.57,0,0,0,1.47,0Zm3.62-2.47c.2,0,.75-.36.31-.45a2.149,2.149,0,0,0-.58.06C138.15,216.94,138.28,217.23,138.49,217.27Zm1.6.14c.17,0,1.4-.09,1.55-.36s-.25-.6-.57-.59a3.8,3.8,0,0,0-1.14.63s0,.3.16.32Zm-2.13.24c.11-.3,0-.88-.89-.92-.11,0-.48,0-.53.16s0,.48.52.78.79.28.9,0Zm14.3-16.16a4.62,4.62,0,0,1,.68-1.88c.59-.79-.33-1-.53-.29A5.47,5.47,0,0,0,152.26,201.49Zm.6-7.12c-.86-.34-1-.72-.74-.82S152.73,193.98,152.86,194.37Zm-12.44-4.65a1.71,1.71,0,0,1,1.53-.83c1,.05,1.58.75,1.19.67a2.46,2.46,0,0,0-1.66,0,4.3,4.3,0,0,1-1.06.15Zm9.81-2.5a5.18,5.18,0,0,0-1.79.82s-.17.05-.15-.09c.11-.86,1.42-1,1.94-.73Zm-1.71-.86a2.45,2.45,0,0,0-1.34,1.21S147.49,186.05,148.52,186.36Zm-4.82,2.39-1.34-.64a1.26,1.26,0,0,1,1.34.64Zm-4.11,1.59s-1.11.27-1.27,1c0,0-.1-.58.07-.77a1.44,1.44,0,0,1,1.2-.25Zm6.13,1.31c-.27-.08-.8.24-.67-.11a1.19,1.19,0,0,1,.81-.75,1.76,1.76,0,0,1,.94.28C147.21,191.34,145.99,191.72,145.72,191.65Zm1.5,1.24c0-.18.43-1,.8-1,0,0,.58.08.62.26a1.162,1.162,0,0,1-.64.86c-.37.16-.75,0-.78-.16Zm2.09,2.26c-.21,0-.15-1.75.54-1.75,0,0,.34,0,.34.43a2.11,2.11,0,0,1-.88,1.32Zm1-4.79a5.629,5.629,0,0,0-1.18.34c-.23.18-.46-.1-.29-.32s1-.33,1.19-.35.39-.21.47-.06a.28.28,0,0,1-.19.39Zm-1.11-1s0,.12-.54.3a3,3,0,0,0-.88.47c-.15.1-.22-.46.24-.66s.93-.26,1-.32.27.09.17.21Zm1,2.49c-.31,0,.07-.6,1.06-.47,0,0,.41.07.4.35a.33.33,0,0,1-.43.35,4.45,4.45,0,0,0-1-.23Zm.68,3.93c-.31.09-.1-1.4.39-1.22.11.05.22.17.18.5a.85.85,0,0,1-.64.67Z" fill="#fffafb" fill-rule="evenodd"/>
        <path id="Trazado_102022" data-name="Trazado 102022" d="M182.36,167.66v.43h0v.21h0v.25h0v.25h0v.33h0v.1h0l.12.5-.29.18a2.73,2.73,0,0,0-.49.37l-.9-1.22a6.611,6.611,0,0,1,1.16-1,.66.66,0,0,1,0-.38Zm.6,2.55a5.932,5.932,0,0,0-.64.42l.66.91.24-.2-.08-.33h0l-.07-.3h0l-.09-.39h0Zm.35,1.55.08.35-.16-.23.08-.12Zm2.72,21a2.65,2.65,0,0,0-.83-.05c-.3.07-.36.34-.14.34a1.83,1.83,0,0,1,.87.32v.5h0v.63h0v.6c-.74-.46-2-1-3-1.49a15.249,15.249,0,0,0-1.68-.74,11.86,11.86,0,0,0,3.82-2.2l.14.06a2.66,2.66,0,0,1,1.3,1.1h0v.05h0Zm-7,.53-.85.06a.921.921,0,0,1,.11.24c0,.22-.29.23-1,0a2.569,2.569,0,0,1-.43-.17c-1.18.05-2.63.09-4.29.11,0,.37-.69.52-1.66,1.16-1.23.81-1.32,1.56-3.58,2.33s-2.19,1.64-2.12,2.54.6,1.89,1.21,2,.45.64.88.31.33-1.43.33-1.43c.33-2.35,3.4-4.4,4.11-4.33s.73,1.23-1.8,3.07-3.17,4.58-2.47,5.1a3.77,3.77,0,0,1,1.27,1.61c.25.47.55.45.76.37a3.692,3.692,0,0,0,.24.55.639.639,0,0,0,.1.24c.74.07,1.25.11,1.48.11a1.449,1.449,0,0,1,.93.74c-.15-.6-.3-1.77.94-4.14,1.49-2.82,2.35-1.83,2.11-1.4a11.762,11.762,0,0,0-1.21,2c-.51,1.19-1.66,2.48-1.41,3.3s.82,1.38,1.47,1.18,1.1.11,1.26,0-.28-.49-.27-1.49,1.1-2.4,1.44-2,.1,1.18-.09,2,0,1.35.87,1.41a8,8,0,0,1,2.33.65c.24.13.32,0,.32,0,.37-.65,1.82-1.3,1.6-1.77s-.82-.76-1.79-1.68-1-2.37,0-2.12,2.12,2.81,2.52,3.36.53-.06,1-.68a2.411,2.411,0,0,0,.39-.71l.09-.5a2.54,2.54,0,0,0-.06-.65h.18V202.3h0V201h0c-.17-.56-.73-.85-.57-1s.43,0,.43,0a1.4,1.4,0,0,1,.29.23v-.45h0v-1.61h0v-.76h0v-1.68a5.09,5.09,0,0,0-3.3-1.23c-1.87-.06-2.94-.66-3.22-1.15Zm-9,.27a7.549,7.549,0,0,0-.71.51c-1,.81-3.81,1.25-4.59,3a2.87,2.87,0,0,0-.27,1.52c.13.71-.91-.57-.66-1.76a3,3,0,0,1-.44-2.73,1.94,1.94,0,0,1,.38-.54h6.29Zm-47.48,5.54-.28-1.62h0v-.64c-.17-.94-.32-1.82-.46-2.63v-.27l-.09-.52h0v-.21h0c-.06-.33-.11-.65-.16-.95h0l-.07-.36v-.66q-.06-.42-.12-.78a17,17,0,0,0,4.67,2.4c-.72.32.29,1.62,3.07,1.7s4.3,2,4.43,3.17a2.72,2.72,0,0,1-.22,1.7,1.8,1.8,0,0,1-.31,1.66,3.259,3.259,0,0,1-.59.67,1.8,1.8,0,0,1-.3,1.43h0a20.87,20.87,0,0,0-4.88,0,6.4,6.4,0,0,0-3,3.44v-1.25h0l-.06-.32h0v-1.51h0l-.06-.31h0v-1.47h0l-.11-.6v-.89l-.1-.57h0l-.06-.28h0ZM134,193.25h-.78c.25.44-.26.72-.54.38a1.44,1.44,0,0,0-.57-.4c-1.88,0-3.33-.08-4.2-.12.38.16.78.35,1.2.56,1.34.65,3.11,1.36,3.53,1.91s1.44,1.58,1.32,1.1a12.389,12.389,0,0,1,.12-2.75,1.58,1.58,0,0,0-.08-.66Zm50,6a13.87,13.87,0,0,0-3.12-1.48c-1.82-.6-1.89-1.62-.94-1.68s2,.47,3.17,1.79a7.189,7.189,0,0,1,.89,1.37Zm-2.69,2.22a17,17,0,0,0-2.41-.78c-1.11-.45-1.47-1.8.39-1.13a4.06,4.06,0,0,1,2,1.91Zm-10.91,1.25a7.67,7.67,0,0,1,.64-2.09c.61-1.18,2.11-2.07,2.3-1.34s-1.06,1.85-2.41,2.95C170.74,202.4,170.56,202.56,170.4,202.72Zm5.23-3c.74.16-.4,1.36-.79,1.36s-.4-.23-.12-.73a1.48,1.48,0,0,1,.91-.63Zm-5.44,5.6c0,.34-.59.38-.61-.15a2.41,2.41,0,0,1,.44-1.17c.14-.18.32.07.22.26A6.523,6.523,0,0,0,170.19,205.32Zm7.43-7.32c.46,0,1.53.37,1.45.8s-1.93.13-2-.39.56-.41.56-.41Zm-4.07-2.4c-.43.18-.92,0-.74-.21a3.57,3.57,0,0,1,1.08-.89c.5-.18.68-.2.71.25s-.62.67-1,.85Zm-10.12-.8c0,.32.37-.06.48-.31s.4-.69,0-.57S163.43,194.8,163.43,194.8Zm12,29.19a.41.41,0,0,0,0-.11,3.07,3.07,0,0,0-.1-.84c0,.33.07.65.09.95Zm-.17-1.69a.67.67,0,0,0-.1-.85A7.6,7.6,0,0,0,175.26,222.3Zm-21.6-21.72c.2.08.26.47,0,1.45v.12a3.489,3.489,0,0,0-.11,1c-.58-.84-.41-2.41-.09-2.55a.27.27,0,0,1,.23,0Zm0,3.87h.15c.14.33.29.48.32.36.09-.3.62-.59,1.06-.7a.86.86,0,0,0,.57-.58c.33,0,.51-.29.52-.77a5.85,5.85,0,0,0,.2-1.63,1.52,1.52,0,0,1,.28,1.26c0,.19.15.19.15.19.07-.5.69-1,.75-1.47a.9.9,0,0,0-.13-.69,1.47,1.47,0,0,0-.47-1.29,2.36,2.36,0,0,0-.12-.94,1.5,1.5,0,0,0-.09-1.63,2.63,2.63,0,0,0-.65-.69,2.91,2.91,0,0,1,.18-.64,1.7,1.7,0,0,0,0-1.6h-1.94a7.819,7.819,0,0,1,.75,1.15l.39.69a9.138,9.138,0,0,0-1.18-.53,1.89,1.89,0,0,0-.61-1.31H152.2c.24.06.48.5.59.83-.86-.34-1-.72-.74-.82h-2.06a.42.42,0,0,1,.1.31,2.11,2.11,0,0,1-.88,1.32c-.18,0-.16-1.25.27-1.64h-2.13a.35.35,0,0,1,.19.12c.17.25-.16.6-.16.6-2.9,3.25-3.18,7.79-2.89,8s1,0,1.61,1a2.57,2.57,0,0,0,1.86,1.14c.14,0,.1-.16.1-.16-1-1.89-.41-5.25.11-6.77s1.14-1.89,1.25-1.35-.89,1.65-1.18,2.79a14,14,0,0,0-.25,4,1.23,1.23,0,0,0,1.09,1.25c.29.44,1.18.42,1.56.38s.79.61.21-.75a12,12,0,0,1-.62-5.41c.18-1.94,1-2.3,1.32-1.87s-.53,1.59-.86,4.05.58,3.78,1.14,4.09a2.84,2.84,0,0,0,1.71.17,1.47,1.47,0,0,1-.45-.51l.21.07a1.06,1.06,0,0,0,.35,0Zm-15.64-11.08a5.57,5.57,0,0,1,.06.82.15.15,0,0,0,.14.2c.31-.11.34-.3.71-1h-.91Zm1.76,0h2.95a3.57,3.57,0,0,0-.58,1.12c-.72,2.07-.7,3.69-1.54,4.76,0,0-.09.11-.14,0a1.65,1.65,0,0,0-.82-1.2c-.74-.42-.63-.94-.63-.94a1.47,1.47,0,0,1-.24-1.66,7.38,7.38,0,0,1,1-2.08Zm4.22.07h3.11c-.44.07-1.1.54-1.69,2-.9,2.28-1.62,5.69-1.28,7,0,0,0,.15-.28-.07s-.32-.57-.9-.87-.9-.49-1-.95a1.27,1.27,0,0,1-.82-1.34,12,12,0,0,1,2.81-5.84Zm11.59,6.71a2.34,2.34,0,0,1-1.13-.73c-.38-.63.29-1,.61-.24a4.85,4.85,0,0,0,.52,1Zm-.25-2.26c-1.56-.91-1.72-1.75-1.17-1.65S155.04,197.24,155.34,197.89Zm-24.79,1.38a7.191,7.191,0,0,0-.89-1.37c-1.15-1.32-2.22-1.84-3.17-1.79s-.88,1.08.94,1.68A13.87,13.87,0,0,1,130.55,199.27Zm-2.69,2.22a4.06,4.06,0,0,0-2-1.91c-1.86-.67-1.5.68-.39,1.13a17,17,0,0,1,2.41.78ZM131,200s-.27-.16-.43,0,.44.49.58,1.08.91-.4-.15-1.1Zm-6.75-2s-.65-.11-.56.41,1.93.83,2,.39-1-.8-1.45-.8Zm-.43-4.35c.72.23,1,.22,1,0a1.66,1.66,0,0,0-1.33-1s-.43,0-.49.22.09.55.81.77Zm28.43,7.87a4.62,4.62,0,0,1,.68-1.88c.59-.79-.33-1-.53-.29A5.47,5.47,0,0,0,152.25,201.52Zm-1.42-5.75c-.31.09-.1-1.4.39-1.22.11.05.22.17.18.5a.85.85,0,0,1-.59.68Z" fill="#e2e4cc" fill-rule="evenodd"/>
        <path id="Trazado_102023" data-name="Trazado 102023" d="M153.72,153.48s6.79,1.54,13.48,3.17A13.68,13.68,0,0,1,154,167.81h-.16a13.67,13.67,0,0,1-13.58-11.15C146.92,155,153.72,153.48,153.72,153.48Z" fill="#5c6c4b" fill-rule="evenodd"/>
        <path id="Trazado_102024" data-name="Trazado 102024" d="M153.4,135.28h.17a8.71,8.71,0,0,1,8.79,8.58l.12,10.21a8.71,8.71,0,0,1-8.59,8.78h-.17a8.71,8.71,0,0,1-8.78-8.59l-.12-10.2a8.71,8.71,0,0,1,8.58-8.78Z" fill="#e9695b" fill-rule="evenodd"/>
        <g id="Grupo_87664" data-name="Grupo 87664">
          <path id="Trazado_102025" data-name="Trazado 102025" d="M171.44,119.71h.44a5.83,5.83,0,1,1-4.6,2c.15,1.73.78,3.78,3,3.62l-.63-3.31a2,2,0,0,1,1.79-2.31Z" fill="#e9695b" fill-rule="evenodd"/>
          <path id="Trazado_102026" data-name="Trazado 102026" d="M130,126.9l-.41.14h0a5.85,5.85,0,1,0,5,.33c.44,1.67.54,3.82-1.59,4.4l-.51-3.32A2,2,0,0,0,130,126.9Z" fill="#e9695b" fill-rule="evenodd"/>
        </g>
        <path id="Trazado_102027" data-name="Trazado 102027" d="M145.72,94.58h0a20,20,0,0,1,23.09,16.28l3.1,17.9a20,20,0,0,1-16.27,23.09h0a20,20,0,0,1-23.09-16.28l-3.11-17.9a20,20,0,0,1,16.28-23.09Z" fill="#f5ac83" fill-rule="evenodd"/>
        <path id="Trazado_102028" data-name="Trazado 102028" d="M145.48,151a20,20,0,0,1-12.93-15.38l-2.65-15.3c3-2.66,7.67-5.72,13.24-5.66l.44,1.8a3.67,3.67,0,0,0-2.45,1.88,20.21,20.21,0,0,0-1.18,4,15.121,15.121,0,0,1,3,.38l.13,1.76s-3-.26-4.07,1.72.24,8.9,1.55,11,4.21,4.25,4.27,9.49a16,16,0,0,0,.65,4.31Z" fill="#ee9073" fill-rule="evenodd"/>
        <path id="Trazado_102029" data-name="Trazado 102029" d="M161.62,98.71a19.86,19.86,0,0,1,7.19,12.15l3.1,17.9a20,20,0,0,1-10.78,21.29c3.83-3.15,6.92-8,7.59-12.57,1.08-7.37-3.61-16.65-6-20.57s-5.65-3.77-7.57-3.32-19.05,4.65-19.05,4.65l-6.86-6.12a20,20,0,0,1,3.36-9.07c4.72-.88,16.12-3.09,21.12-4.75C155.85,97.6,158.62,97.89,161.62,98.71Z" fill="#ee9073" fill-rule="evenodd"/>
        <path id="Trazado_102030" data-name="Trazado 102030" d="M173.8,120.11c-2.54-.37-2.93,2.62-2.93,2.62l.48,2.77c-.94.17-2.31-1-2.52-2.22l-.44-2.54s-5.83-5.27-7-12.31c0,0-16.59,6.22-24.85,5.52a27,27,0,0,1-3.32,12.89s.22,1.32.44,2.54-.69,2.78-1.63,2.94l-.48-2.77s-2.39,7-4.91,7.46c0,0-9.25-9.44-11.52-15.82s12.49-32.37,29.13-35.25S168.59,89.74,166,98a8,8,0,0,1,6.08,3.21c2.2,3.2-.8,9.05,2.81,14.23C174.87,115.47,173.8,119.9,173.8,120.11Z" fill="#141a33" fill-rule="evenodd"/>
        <path id="Trazado_102031" data-name="Trazado 102031" d="M116.06,114.1a46.81,46.81,0,0,1,4.14-8.32c20.82,3.44,30.39-12.38,33.85-20.43a24.9,24.9,0,0,1,3.07.44C150.64,113.32,125.31,114.59,116.06,114.1Z" fill="#272c45" fill-rule="evenodd"/>
        <path id="Trazado_102032" data-name="Trazado 102032" d="M173.8,120.11c-2.54-.37-2.93,2.62-2.93,2.62l.48,2.77c-.94.17-2.31-1-2.52-2.22l-.44-2.54a26.89,26.89,0,0,1-4.47-5.63s5.08,3.44,10.4,2.68c-.26,1.11-.52,2.22-.52,2.32Zm-39.66,4.83a16.511,16.511,0,0,1-1,1.9s.22,1.32.44,2.54-.69,2.78-1.63,2.94l-.48-2.77s-2.39,7-4.91,7.46c0,0-9.25-9.44-11.52-15.82a5.94,5.94,0,0,1-.18-2.54C115,118.91,116.51,126,134.14,124.94Z" fill="#0b1329" fill-rule="evenodd"/>
        <path id="Trazado_102033" data-name="Trazado 102033" d="M173.8,120.11c-2.54-.37-2.93,2.62-2.93,2.62l.48,2.77c-.94.17-2.31-1-2.52-2.22l-.44-2.54a26.89,26.89,0,0,1-4.47-5.63s5.08,3.44,10.4,2.68c-.26,1.11-.52,2.22-.52,2.32Zm-39.66,4.83a16.511,16.511,0,0,1-1,1.9s.22,1.32.44,2.54-.69,2.78-1.63,2.94l-.48-2.77s-2.39,7-4.91,7.46c0,0-9.25-9.44-11.52-15.82a5.94,5.94,0,0,1-.18-2.54C115,118.91,116.51,126,134.14,124.94Z" fill="#01051d" fill-rule="evenodd"/>
        <path id="Trazado_102034" data-name="Trazado 102034" d="M161.34,108.43h0s-14.05,5.26-22.72,5.56c2.28-4.21,8.11-12.27,15.41-13.44,0,0,7.83,2.58,7.31,7.88Z" fill="#12263f" fill-rule="evenodd"/>
        <path id="Trazado_102035" data-name="Trazado 102035" d="M141.52,127.52h0a1.88,1.88,0,0,1,2.15,1.56l.39,2.41a1.89,1.89,0,0,1-1.56,2.15h0a1.88,1.88,0,0,1-2.14-1.56l-.39-2.41a1.89,1.89,0,0,1,1.55-2.15Z" fill="#12263f" fill-rule="evenodd"/>
        <g id="Grupo_87665" data-name="Grupo 87665">
          <path id="Trazado_102036" data-name="Trazado 102036" d="M141.5,135.18a2.76,2.76,0,1,1-1.8,1.109,2.77,2.77,0,0,1,1.8-1.109Z" fill="#e9695b" fill-rule="evenodd"/>
          <path id="Trazado_102037" data-name="Trazado 102037" d="M165,131.4a2.77,2.77,0,1,1-1.81,1.112A2.77,2.77,0,0,1,165,131.4Z" fill="#e9695b" fill-rule="evenodd"/>
        </g>
        <path id="Trazado_102038" data-name="Trazado 102038" d="M157.24,122.78a.84.84,0,1,0,1.39.93,5.49,5.49,0,0,1,4.37-2.33.84.84,0,0,0,0-1.68,7.26,7.26,0,0,0-5.76,3.08Z" fill="#12263f" fill-rule="evenodd"/>
        <path id="Trazado_102040" data-name="Trazado 102040" d="M104,167.29c-2.32,3-3.61,1.71-1.25,7.92,2.74,7.22,8.69,23.79,7.32,29.09s-12.9,1-13.72-3.11-2.66-32.94-2.66-32.94l2.2-.54a.75.75,0,0,1,0-.24c.83-2.47,5-4.66,4.94-5.21-.44-2.64,3.62-5.55,5.3-7.72,0,0,2.13-1.2,2.26.52a8.15,8.15,0,0,1-1.33,3.68,17.481,17.481,0,0,0-1.6,4.18C104.86,165.23,105.31,165.58,104,167.29Z" fill="#f5ac83" fill-rule="evenodd"/>
        <path id="Trazado_102041" data-name="Trazado 102041" d="M110.2,203.43a5.24,5.24,0,0,1-.15.87c-1.37,5.31-12.9,1-13.72-3.11-.7-3.49-2.13-24.78-2.54-31.15,0-.41-.5-.6-.86-1.25a28.112,28.112,0,0,1-1.23-2.69l2.47-4.84c0-.07,1.91.36,2.34-.92s4.44,2.47,4.34,1.92c-.38-2.32,2.68-4.83,4.58-6.88l.57.35c-.73,2.47-2.47,9.15-6,11.43s-5.12,2.38-4.48,10.07.73,22.78,6.41,25a27.51,27.51,0,0,0,8.27,1.2Z" fill="#ee9073" fill-rule="evenodd"/>
        <g id="Grupo_87668" data-name="Grupo 87668">
          <g id="Grupo_87666" data-name="Grupo 87666">
            <path id="Trazado_102042" data-name="Trazado 102042" d="M93.58,171.17,92,169.76l1.84-2.09,11-12.44.43-.48a1.07,1.07,0,0,1,1.51-.09h0a1.07,1.07,0,0,1,.09,1.51l-.42.48-11,12.44Z" fill="#030822" fill-rule="evenodd"/>
            <path id="Trazado_102043" data-name="Trazado 102043" d="M98.38,162.51l6.42-7.28.43-.48a1.07,1.07,0,0,1,1.51-.09h0a1.07,1.07,0,0,1,.09,1.51l-.42.48L100,163.92a.48.48,0,0,0,0-.68l-.88-.78C98.86,162.29,98.2,162.7,98.38,162.51Z" fill="#abc4c8" fill-rule="evenodd"/>
            <path id="Trazado_102044" data-name="Trazado 102044" d="M90.25,173.67a31.141,31.141,0,0,0,3.33-2.5c.3-.86-.89-1.61-1.6-1.41a30.659,30.659,0,0,0-2.07,3.61.25.25,0,0,0,.34.3Z" fill="#2c3049" fill-rule="evenodd"/>
            <path id="Trazado_102045" data-name="Trazado 102045" d="M90.25,173.67s.33-.21.72-.48a1,1,0,0,0-.26-.37h0a1.11,1.11,0,0,0-.41-.23l-.39.78a.25.25,0,0,0,.34.3Z" fill="#12263f" fill-rule="evenodd"/>
            <path id="Trazado_102046" data-name="Trazado 102046" d="M104.85,155.91l.88.77a.48.48,0,0,1,0,.68l.68-.76a.49.49,0,0,0,0-.68l-.88-.78a.5.5,0,0,0-.68,0l-.67.77a.48.48,0,0,1,.67,0Z" fill="#5abee5" fill-rule="evenodd"/>
            <path id="Trazado_102047" data-name="Trazado 102047" d="M100.21,162.05h0a.29.29,0,0,1,0-.41l4.13-4.68a.29.29,0,0,1,.41,0h0a.29.29,0,0,1,0,.41L100.62,162a.29.29,0,0,1-.41.05Z" fill="#030822" fill-rule="evenodd"/>
            <path id="Trazado_102048" data-name="Trazado 102048" d="M94.66,168.33h0a.29.29,0,0,1,0-.41L98.09,164a.3.3,0,0,1,.42,0h0a.29.29,0,0,1,0,.41l-3.45,3.92a.3.3,0,0,1-.4,0Z" fill="#292c44" fill-rule="evenodd"/>
          </g>
          <g id="Grupo_87667" data-name="Grupo 87667">
            <rect id="Rectángulo_34005" data-name="Rectángulo 34005" width="9.3" height="2.14" transform="translate(98.561 162.307) rotate(-48.56)" fill="#030822"/>
            <path id="Trazado_102049" data-name="Trazado 102049" d="M98.55,162.31l6.16-7,1.6,1.41-6.15,7-.06-.05a.47.47,0,0,0-.16-.43l-.88-.78a.4.4,0,0,0-.34,0Z" fill="#abc4c8" fill-rule="evenodd"/>
            <path id="Trazado_102050" data-name="Trazado 102050" d="M104.85,155.91l.88.77a.48.48,0,0,1,0,.68l.54-.61-1.6-1.41-.54.61a.48.48,0,0,1,.72-.04Z" fill="#5abee5" fill-rule="evenodd"/>
            <path id="Trazado_102051" data-name="Trazado 102051" d="M100.21,162.05h0a.29.29,0,0,1,0-.41l4.13-4.68a.29.29,0,0,1,.41,0h0a.29.29,0,0,1,0,.41L100.62,162a.29.29,0,0,1-.41.05Z" fill="#030822" fill-rule="evenodd"/>
          </g>
        </g>
        <path id="Trazado_102052" data-name="Trazado 102052" d="M91.13,164.91c-.24-2.32,0-4.83.56-5a5.8,5.8,0,0,1,1.25-.38c.12-1.55.53-3.81,2.81-2.73.6-2.09,1.79-4.84,3.67-1.9,0,0,1.25-2.61,2.58-1.73a4.14,4.14,0,0,1,1.4,2.69,14.25,14.25,0,0,1-.74,6c-.62,1.58-1.51,1.93-2.54.77s.33,1.71-1.52,2.36c-1.39.49-2-2.35-2.25-1.59s.14,2.38-1,2.71a1.59,1.59,0,0,1-1.5-.57s.42,2.84-1.43,2.06C91.82,167.33,91.38,166.25,91.13,164.91Z" fill="#f5ac83" fill-rule="evenodd"/>
        <path id="Trazado_102053" data-name="Trazado 102053" d="M137.06,124.17a.85.85,0,0,0-.11,1.18.84.84,0,0,0,1.18.11,5.47,5.47,0,0,1,4.85-1,.84.84,0,1,0,.48-1.61,7.27,7.27,0,0,0-6.4,1.32Z" fill="#12263f" fill-rule="evenodd"/>
        <g id="Grupo_87669" data-name="Grupo 87669">
          <path id="Trazado_102054" data-name="Trazado 102054" d="M158.74,136a5.65,5.65,0,0,1-11.1,2.09h0a1,1,0,0,1,.78-1.14l9.16-1.73a1,1,0,0,1,1.14.78Z" fill="#12263f" fill-rule="evenodd"/>
          <path id="Trazado_102055" data-name="Trazado 102055" d="M157.49,140.67a5.67,5.67,0,0,1-6.34,1.6,3.5,3.5,0,0,1,2.78-2.64,3.55,3.55,0,0,1,3.56,1.04Z" fill="#d84743" fill-rule="evenodd"/>
          <path id="Trazado_102056" data-name="Trazado 102056" d="M148.74,136.86l8.61-1.63a2,2,0,0,1-.54,2.3c-.74.4-7,1.42-7.53,1A3.34,3.34,0,0,1,148.74,136.86Z" fill="#fff" fill-rule="evenodd"/>
        </g>
        <path id="Trazado_102057" data-name="Trazado 102057" d="M161.34,108.43s1.48-11.68-4.37-14.15-21.64.26-27,10.1-12.38,25.76-10.86,33.44S131.62,150.75,129,158s-6,20.39,4.87,27,6.35-.23,6.35-.23,11.9,2.2,17.46-2.64-.47-11.63-7.18-13.47c0,0,3.05-.29,2.69-2.11s-8.53.51-9.63-7.53,1.71-14.42-3.07-19.22-3.57-23.38,7.5-31.59S161.34,108.43,161.34,108.43Z" fill="#212741" fill-rule="evenodd"/>
        <path id="Trazado_102058" data-name="Trazado 102058" d="M147,93.84c-.57.09-1.15.21-1.73.34-1.29,7.07-5.95,20.95-22.93,26.65a61.17,61.17,0,0,0-3,10.31C128.63,126.6,145.93,115.3,147,93.84Z" fill="#2c3049" fill-rule="evenodd"/>
        <path id="Trazado_102059" data-name="Trazado 102059" d="M118.91,135.05a12.761,12.761,0,0,0,.2,2.77c1.53,7.67,12.51,12.93,9.89,20.16s-6,20.39,4.87,27,6.35-.23,6.35-.23,11.9,2.2,17.46-2.64c5.07-4.42.48-10.48-5.47-12.89,1.25.58,3.24,4.44-1.08,6.32s-10.47.37-10.47.37c1.06-.25,2.82-2.42-1-2.58s-9.69-5.4-6.82-14.85-5.41-11.82-9.75-15.91C119,138.8,118.91,135.47,118.91,135.05Z" fill="#030822" fill-rule="evenodd"/>
        <rect id="Rectángulo_34006" data-name="Rectángulo 34006" width="67.73" height="5.81" transform="translate(120.33 230.03)" fill="#12263f"/>
        <path id="Trazado_102060" data-name="Trazado 102060" d="M119.78,242.09h67.89a3.44,3.44,0,0,0,3.44-3.43h0a3.45,3.45,0,0,0-3.44-3.44H119.78a3.45,3.45,0,0,0-3.44,3.44h0a3.44,3.44,0,0,0,3.44,3.43Z" fill="#030822" fill-rule="evenodd"/>
        <path id="Trazado_102061" data-name="Trazado 102061" d="M159.79,127.91a5.43,5.43,0,0,1,4.44-2.23.66.66,0,0,0,0-1.32,6.37,6.37,0,0,0-4.11,1.35,6.649,6.649,0,0,0-1.45,1.45.66.66,0,1,0,1.08.75Z" fill="#12263f" fill-rule="evenodd"/>
        <path id="Trazado_102062" data-name="Trazado 102062" d="M159.67,128.13a5.39,5.39,0,0,1,4.88-.9A.67.67,0,1,0,165,126a6.41,6.41,0,0,0-4.32.16,6.87,6.87,0,0,0-1.8,1,.66.66,0,0,0-.1.93.65.65,0,0,0,.89.04Z" fill="#12263f" fill-rule="evenodd"/>
        <g id="Grupo_87670" data-name="Grupo 87670">
          <path id="Trazado_102063" data-name="Trazado 102063" d="M217.65,202.19l.6,2.06-.56.7-.43-.67L210,227.22a3.61,3.61,0,0,1-3.19,2.43H100.59a3.61,3.61,0,0,1-3.19-2.43l-7.22-22.93-.42.66-.57-.7.58-2a1.66,1.66,0,0,1,1.76-1.4H215.91a1.67,1.67,0,0,1,1.65,1A1.581,1.581,0,0,1,217.65,202.19Z" fill="#12263f" fill-rule="evenodd"/>
          <path id="Trazado_102064" data-name="Trazado 102064" d="M90.82,203.31h125.8a1.74,1.74,0,0,1,1.69,2.45L210.69,230a3.64,3.64,0,0,1-3.22,2.45H100A3.64,3.64,0,0,1,96.76,230l-7.62-24.22a1.74,1.74,0,0,1,1.68-2.47Z" fill="#141a33" fill-rule="evenodd"/>
          <path id="Trazado_102065" data-name="Trazado 102065" d="M167.13,203.31h14.25l-60.61,28.92H106.52Zm19,0-60.61,28.92h8.91l60.6-28.92Z" fill="#292c44" fill-rule="evenodd"/>
          <path id="Trazado_102066" data-name="Trazado 102066" d="M206.32,228.58H98.84a2.509,2.509,0,0,1-.67-.08,3.77,3.77,0,0,1-2.56-2.37L89,205.21a2.24,2.24,0,0,0,.11.55L96.76,230a3.64,3.64,0,0,0,3.22,2.45H207.47a3.64,3.64,0,0,0,3.22-2.45l7.62-24.22a2.09,2.09,0,0,0-.06-1.53,1.71,1.71,0,0,0-1.53-.92l-7.17,22.82a3.66,3.66,0,0,1-3.23,2.43Z" fill="#061028" fill-rule="evenodd"/>
          <path id="Trazado_102067" data-name="Trazado 102067" d="M136.34,213.84h34.77a.49.49,0,0,1,.47.68l-2.11,6.7a1,1,0,0,1-.89.67H138.87a1,1,0,0,1-.89-.67l-2.11-6.7a.48.48,0,0,1,.47-.68Z" fill="#030822" fill-rule="evenodd"/>
        </g>
        <path id="Trazado_102068" data-name="Trazado 102068" d="M151.49,131.94s-.71,1.31-.49,2,1.21.33,1.31-.29a4.89,4.89,0,0,0-.27-1.9C152,131.63,151.67,131.58,151.49,131.94Z" fill="#f9cbaf" fill-rule="evenodd"/>
        <path id="Trazado_102069" data-name="Trazado 102069" d="M215.64,213.64c-.27.54-4,.68-6,1.51a1.78,1.78,0,0,0-1.22,1.29c-.23,1.09.22,1.36,1,1.86,0,0-1.42,1-1.1,1.88a5.26,5.26,0,0,0,.91,1.46s-1.78,1.28-1.6,2.2,1.28,1.32,1.28,1.32-1.23,1.56-.82,2.34,4.21.78,5.54-.78.59-1.88.59-1.88a3.94,3.94,0,0,0,1.54-1.94c.22-.81-.08-1.77.11-1.85,2-1,1.87-2,.91-3.89-.18-.37,1.51-.87,1.56-2.7a3,3,0,0,0-1.88-2.61Z" fill="#f5ac83" fill-rule="evenodd"/>
        <path id="Trazado_102070" data-name="Trazado 102070" d="M216.37,211.85l-.73,1.79c-.1.2-.69.35-1.48.49l-.89.16a18.1,18.1,0,0,0-3.67.86,1.88,1.88,0,0,0-1.19,1.14c.35-.76,1.43-.8,4.39-1.37l.29-.06.89-.17c.57-.12,1.12-.23,1.63-.36,1.87-.45,3.73-1.19.78-2.47Z" fill="#ee9073" fill-rule="evenodd"/>
      </g>
    </g>
  </g>
</svg>
