<svg xmlns="http://www.w3.org/2000/svg" width="307.533" height="285.386" viewBox="0 0 307.533 285.386">
  <g id="grafico_acordeon" transform="translate(3.769 -11.551)">
    <g id="Layer_1" data-name="Layer 1">
      <rect id="Rectángulo_33995" data-name="Rectángulo 33995" width="28.85" height="390.8" rx="14.425" transform="translate(-3.769 32.815) rotate(-47.48)" fill="#affde3"/>
      <path id="Trazado_101723" data-name="Trazado 101723" d="M202.2,287.81h0a8.46,8.46,0,0,1-12,.52L72.35,170.75a8.46,8.46,0,0,1-.52-12h0a8.47,8.47,0,0,1,12-.52L201.68,275.84A8.47,8.47,0,0,1,202.2,287.81Z" fill="#4b9be1"/>
      <path id="Trazado_101724" data-name="Trazado 101724" d="M278.84,121.39h0a8.46,8.46,0,0,1-12,.52l-72.2-73.16a8.47,8.47,0,0,1-.52-12h0a8.49,8.49,0,0,1,12-.52l72.19,73.16a8.47,8.47,0,0,1,.53,12Z" fill="#a5cdf0"/>
    </g>
    <g id="Layer_2" data-name="Layer 2">
      <g id="Grupo_87594" data-name="Grupo 87594">
        <g id="Grupo_87588" data-name="Grupo 87588">
          <ellipse id="Elipse_4091" data-name="Elipse 4091" cx="72.55" cy="10.04" rx="72.55" ry="10.04" transform="translate(81.64 270.29)" fill="#0059d6"/>
          <path id="Trazado_101725" data-name="Trazado 101725" d="M121.2,271.38c-23.49,1.67-39.56,5.05-39.56,8.95,0,1.95,4,3.76,10.89,5.3,41.4-.71,72.61-3.84,72.61-7.6C165.14,275.21,147.52,272.74,121.2,271.38Z" fill="#337ade"/>
          <ellipse id="Elipse_4092" data-name="Elipse 4092" cx="3.18" cy="0.7" rx="3.18" ry="0.7" transform="matrix(0.999, -0.044, 0.044, 0.999, 122.808, 274.123)" fill="#fff"/>
          <path id="Trazado_101726" data-name="Trazado 101726" d="M121.23,274.9c-.06-.76-7-.83-15.56-.17s-15.41,1.81-15.35,2.56,7,.83,15.56.17S121.29,275.65,121.23,274.9Z" fill="#fff"/>
        </g>
        <path id="Trazado_101727" data-name="Trazado 101727" d="M157.1,45.09h-5.83S144,76.69,144,94.86s3.75,30.08,3.75,30.08l-.05,23.95s-6.27,28.05-6.27,48,5.78,78,5.78,78h13.95s5.76-59.15,5.76-78-6.25-48-6.25-48V124.94a120.319,120.319,0,0,0,3.74-30.25C164.36,77.38,157.1,45.09,157.1,45.09Z" fill="#0059d6"/>
        <path id="Trazado_101728" data-name="Trazado 101728" d="M156.31,274.84c1.32-14,5.34-57.86,5.34-73.57,0-18.81-6.25-48-6.25-48V129.33a120.32,120.32,0,0,0,3.74-30.25c0-17.31-7.27-49.6-7.27-49.6h-1.52c-2,9.31-6.31,31.35-6.31,45.38,0,18.17,3.75,30.08,3.75,30.08l-.05,23.95s-6.27,28.05-6.27,48,5.78,78,5.78,78Z" fill="#337ade"/>
        <path id="Trazado_101729" data-name="Trazado 101729" d="M150.14,66s-4,10.62-3.81,26.66a223.293,223.293,0,0,0,2.47,30.13Z" fill="#fff"/>
        <path id="Trazado_101730" data-name="Trazado 101730" d="M148.81,167.22s-3.6,10.62-3.81,26.66c-.27,21.2,6.47,69.07,6.47,69.07Z" fill="#fff"/>
        <path id="Trazado_101731" data-name="Trazado 101731" d="M157.41,66a8.839,8.839,0,0,0,3.629-.78c-1.909-11.07-3.939-20.1-3.939-20.1h-5.83s-1.43,6.26-3,14.8C150.32,63.58,153.66,66,157.41,66Z" fill="#0059d6"/>
        <g id="Grupo_87593" data-name="Grupo 87593">
          <g id="Grupo_87590" data-name="Grupo 87590">
            <rect id="Rectángulo_33996" data-name="Rectángulo 33996" width="21.92" height="12.01" rx="5.38" transform="translate(143.23 124.94)" fill="#c17b24"/>
            <path id="Trazado_101732" data-name="Trazado 101732" d="M160.59,124.94H147.78a4.62,4.62,0,0,0-4.06,3.3,4.61,4.61,0,0,0,4.06,3.29h12.81a4.6,4.6,0,0,0,4.06-3.29,4.61,4.61,0,0,0-4.06-3.3Z" fill="#ffb94e"/>
            <g id="Grupo_87589" data-name="Grupo 87589">
              <path id="Trazado_101733" data-name="Trazado 101733" d="M151.54,127.72c0,.74-1.23,1.34-2.74,1.34s-2.74-.6-2.74-1.34,1.22-1.35,2.74-1.35S151.54,127,151.54,127.72Z" fill="#fff"/>
              <path id="Trazado_101734" data-name="Trazado 101734" d="M154.81,127.22c0,.28-.45.5-1,.5s-1-.22-1-.5.45-.49,1-.49S154.81,127,154.81,127.22Z" fill="#fff"/>
            </g>
          </g>
          <g id="Grupo_87592" data-name="Grupo 87592">
            <rect id="Rectángulo_33997" data-name="Rectángulo 33997" width="24.97" height="12.01" rx="5.38" transform="translate(141.7 136.84)" fill="#c17b24"/>
            <path id="Trazado_101735" data-name="Trazado 101735" d="M162.11,136.84H146.26a4.36,4.36,0,0,0-3.74,2.58,4.36,4.36,0,0,0,3.74,2.58h15.85a4.36,4.36,0,0,0,3.74-2.58A4.36,4.36,0,0,0,162.11,136.84Z" fill="#ffb94e"/>
            <g id="Grupo_87591" data-name="Grupo 87591">
              <path id="Trazado_101736" data-name="Trazado 101736" d="M151.54,139.14c0,.74-1.23,1.35-2.74,1.35s-2.74-.61-2.74-1.35,1.22-1.34,2.74-1.34S151.54,138.4,151.54,139.14Z" fill="#fff"/>
              <path id="Trazado_101737" data-name="Trazado 101737" d="M154.81,138.65c0,.27-.45.49-1,.49s-1-.22-1-.49.45-.49,1-.49S154.81,138.38,154.81,138.65Z" fill="#fff"/>
            </g>
          </g>
        </g>
      </g>
      <g id="Grupo_87615" data-name="Grupo 87615">
        <g id="Grupo_87595" data-name="Grupo 87595">
          <path id="Trazado_101738" data-name="Trazado 101738" d="M31.1,131s-19.41-10.83-19.85-11.32-1.1-20.68.13-33.47c0,0-5.18-11.2-4.83-12.17.29-.8,4.12-2.92,6.06-3.64a5.36,5.36,0,0,1,.67-.21,1.66,1.66,0,0,1,.26,0,5.27,5.27,0,0,1,2.92,1.33A70.768,70.768,0,0,1,17.6,80.8a11.54,11.54,0,0,0,1.85-1.86,4.23,4.23,0,0,1,1.63-1.56,3.49,3.49,0,0,1,2-.37,22,22,0,0,0-1.77,3.17c-.26.88-2.9,3.88-3.7,5.82,0,0,.89,11.22,1.68,15.31a118.64,118.64,0,0,1,1.21,11.81l4.91,2Z" fill="#ffb0ab"/>
          <path id="Trazado_101739" data-name="Trazado 101739" d="M13.45,74.89a16.463,16.463,0,0,0-1.36-3,11.44,11.44,0,0,0-1.59-.09l2.11-1.48a5.361,5.361,0,0,1,.67-.21C13.32,71.19,13.45,74.89,13.45,74.89Z" fill="#ff7980"/>
          <path id="Trazado_101740" data-name="Trazado 101740" d="M11.82,117.27s1.11,1.41.31,2.38l13.28,7.77,1.76-5.78-13.36-2.77Z" fill="#ff7980"/>
          <path id="Trazado_101741" data-name="Trazado 101741" d="M18.13,118.87l6.79,1.62.18-1.37Z" fill="#ff7980"/>
          <path id="Trazado_101742" data-name="Trazado 101742" d="M11.78,86a2.23,2.23,0,0,0,1.15.36h1.72l-1.68,1s-1.46,18.39-1.19,24.87a148.251,148.251,0,0,1,0-26.23Z" fill="#ff7980"/>
          <path id="Trazado_101743" data-name="Trazado 101743" d="M14.31,87.59l.67-.35-.36,5.07Z" fill="#ff7980"/>
          <path id="Trazado_101744" data-name="Trazado 101744" d="M21.08,77.38c.08.7-1.1,1.77-1.67,2.53a2.44,2.44,0,0,1-1.81.89,11.541,11.541,0,0,0,1.85-1.86,4.23,4.23,0,0,1,1.63-1.56Z" fill="#ff7980"/>
          <path id="Trazado_101745" data-name="Trazado 101745" d="M18.82,108.23,17.11,88.65,19.1,103.5Z" fill="#fff"/>
          <path id="Trazado_101746" data-name="Trazado 101746" d="M15.7,71.82c-.07.22-.38.31-.7.2s-.51-.37-.43-.58a.539.539,0,0,1,.7-.2C15.58,71.35,15.78,71.61,15.7,71.82Z" fill="#fff"/>
          <path id="Trazado_101747" data-name="Trazado 101747" d="M16,73a.29.29,0,0,1-.54-.18A.287.287,0,0,1,16,73Z" fill="#fff"/>
        </g>
        <g id="Grupo_87597" data-name="Grupo 87597">
          <path id="Trazado_101748" data-name="Trazado 101748" d="M32.95,184.97l1.67-6.53,42.39.97,2.25,7.94-20.64,2.21Z" fill="#000c19"/>
          <g id="Grupo_87596" data-name="Grupo 87596">
            <path id="Trazado_101749" data-name="Trazado 101749" d="M87.46,162.57s4.9,4.05,6.22-1.17-4.19-22-4.19-22l-5.6,8S83.56,158.11,87.46,162.57Z" fill="#48ad8b"/>
            <path id="Trazado_101750" data-name="Trazado 101750" d="M79.26,183a223.573,223.573,0,0,1-24.17.09,140.061,140.061,0,0,1-21.61-2.91l4.94-25.67s-1.94-14.11-1.94-16.94,1.69-18.48,1.69-18.48l10.21,1.19,3.36-.35,11.38.62L67,122l10.39,3.78s-2,28.41-2,29.38S79.26,183,79.26,183Z" fill="#ffb0ab"/>
            <path id="Trazado_101751" data-name="Trazado 101751" d="M79.26,183a223.573,223.573,0,0,1-24.17.09,140.061,140.061,0,0,1-21.61-2.91l4.94-25.67s-1.94-14.11-1.94-16.94,1.69-18.48,1.69-18.48l10.21,1.19c.33,2.53,2,9.62,10.15,8.39,6.37-1,8.08-4.39,8.49-6.7l10.39,3.78s-2,28.41-2,29.38S79.26,183,79.26,183Z" fill="#80ebc7"/>
            <path id="Trazado_101752" data-name="Trazado 101752" d="M36.48,137.6,17.6,132.29l7.81-17.18,12.76,4S39.08,131.6,36.48,137.6Z" fill="#80ebc7"/>
            <path id="Trazado_101753" data-name="Trazado 101753" d="M77.41,125.78l12.08,13.59s-7.76,13.76-2,23.2l-12.2-15.26Z" fill="#80ebc7"/>
            <path id="Trazado_101754" data-name="Trazado 101754" d="M86.13,144.18,77,141l-.78-11-.93,9.93L67,151.27l8.25-4,9.46,9.44S84,146.6,86.13,144.18Z" fill="#48ad8b"/>
            <path id="Trazado_101755" data-name="Trazado 101755" d="M52.71,157.54l-9.73,1.52-4.68-32.7-2.09,7.12L17.6,132.29l18.88,5.31,2.73,15.81,1.41,1.13h-2.2l-3.53,24.79,6.79.88,1.59-17.64Z" fill="#48ad8b"/>
            <path id="Trazado_101756" data-name="Trazado 101756" d="M44.75,157.34l-.7-2.11,8.5-1Z" fill="#48ad8b"/>
            <path id="Trazado_101757" data-name="Trazado 101757" d="M62.5,163.1l11.47-5.56.35,2.2Z" fill="#fff"/>
            <path id="Trazado_101758" data-name="Trazado 101758" d="M69.2,165.92l5.12-3.88v2.47Z" fill="#fff"/>
            <path id="Trazado_101759" data-name="Trazado 101759" d="M72.11,129.35c0,.6-.7,1.09-1.56,1.09S69,130,69,129.35s.7-1.1,1.56-1.1S72.11,128.74,72.11,129.35Z" fill="#fff"/>
            <path id="Trazado_101760" data-name="Trazado 101760" d="M69,132.88c0,.33-.38.6-.85.6s-.85-.27-.85-.6.38-.59.85-.59S69,132.56,69,132.88Z" fill="#fff"/>
            <path id="Trazado_101761" data-name="Trazado 101761" d="M48.3,124.28s2.7,6.49,10.7,5.07C59,129.35,51.87,132.69,48.3,124.28Z" fill="#48ad8b"/>
          </g>
        </g>
        <g id="Grupo_87600" data-name="Grupo 87600">
          <g id="Grupo_87598" data-name="Grupo 87598">
            <path id="Trazado_101762" data-name="Trazado 101762" d="M64.64,122.37l-4.83,1.58-8.67-1.91.84-5.31.22-1.38H63.91l.3,2.94Z" fill="#ffb0ab"/>
            <path id="Trazado_101763" data-name="Trazado 101763" d="M64.21,118.29a19.15,19.15,0,0,0-3.61,2.51,6.42,6.42,0,0,1-2.07,1.59c.57-.75-.57-1.5-.57-1.5a6.07,6.07,0,0,1-1.9-.84A36.5,36.5,0,0,1,52,116.73l.22-1.38H63.91Z" fill="#ff7980"/>
          </g>
          <g id="Grupo_87599" data-name="Grupo 87599">
            <path id="Trazado_101764" data-name="Trazado 101764" d="M49.66,104s-1.63-1.23-2.33.4.3,5.16,2.77,6a11.62,11.62,0,0,0-.44-6.4Z" fill="#ff7980"/>
            <path id="Trazado_101765" data-name="Trazado 101765" d="M68,103.86s1.46-1.5,2.29-.26.18,5.34-3,6.17Z" fill="#ff7980"/>
            <path id="Trazado_101766" data-name="Trazado 101766" d="M68.5,99.38a65.52,65.52,0,0,1-.56,9.76c-.52,2.18-3.17,7.14-5.75,8.93-2.07,1.42-3.17,1.58-3.51,1.58s-5.58-1.32-7.21-4.76a13.8,13.8,0,0,1-1.5-4.28s-.41-7.76-.55-8.75-1.05-6.09,2.64-8.08,10.59-.92,12.25-.39,3.37.79,3.9,1.92v.11a21.13,21.13,0,0,1,.29,3.96Z" fill="#ffb0ab"/>
            <path id="Trazado_101767" data-name="Trazado 101767" d="M68.5,99.38H65.26c-6.74-.2-13.74-4-13.74-4l16.73.07a21.13,21.13,0,0,1,.25,3.93Z" fill="#ff7980"/>
            <path id="Trazado_101768" data-name="Trazado 101768" d="M61,113.21a4.39,4.39,0,0,1-.21.44,2.66,2.66,0,0,1-2.52,1.45,2.39,2.39,0,0,1-2.12-1.53,1.75,1.75,0,0,1-.13-.45A12.88,12.88,0,0,0,61,113.21Z" fill="#ff2352"/>
            <path id="Trazado_101769" data-name="Trazado 101769" d="M58.52,107.03l-.42,2.77.94.05Z" fill="#ff7980"/>
            <path id="Trazado_101770" data-name="Trazado 101770" d="M62.51,105c0,.65-.24,1.17-.54,1.17s-.53-.52-.53-1.17.24-1.18.53-1.18S62.51,104.32,62.51,105Z" fill="#12263f"/>
            <path id="Trazado_101771" data-name="Trazado 101771" d="M63.85,101.51c-.18-.17-.52-.15-.75-.17a7.852,7.852,0,0,0-.84,0,3.66,3.66,0,0,0-1.56.35c-.15.08,0,.3.12.24a3.64,3.64,0,0,1,1.49-.26,6.49,6.49,0,0,1,.77,0h.36a.59.59,0,0,0,.37,0A.13.13,0,0,0,63.85,101.51Z" fill="#12263f"/>
            <path id="Trazado_101772" data-name="Trazado 101772" d="M53.72,101.51c.18-.17.52-.15.75-.17a7.852,7.852,0,0,1,.84,0,3.63,3.63,0,0,1,1.56.35c.15.08,0,.3-.12.24a3.61,3.61,0,0,0-1.49-.26,6.641,6.641,0,0,0-.77,0h-.35a.62.62,0,0,1-.38,0A.14.14,0,0,1,53.72,101.51Z" fill="#12263f"/>
            <path id="Trazado_101773" data-name="Trazado 101773" d="M68.06,104.7s-.31-5.64-1-7.1l3.4-1.45s-.75,4.49-.8,5.64a18.79,18.79,0,0,1-.79,3.49s-.22,3-.75,2.77S68.06,104.7,68.06,104.7Z" fill="#0e1d2f"/>
            <path id="Trazado_101774" data-name="Trazado 101774" d="M49.58,108.32s-.89-5.21-1.11-6S47,95,47.63,92.93a2.81,2.81,0,0,1,3.62-2.08s.88-4.41,6.88-4.19,15.31,1.11,17.51.09a6,6,0,0,1,.09,1.63c-.09.75-1.1,8.43-7.45,9.66s-16.41-2.78-16.41-2.78-1,5.91-1.46,7.85c0,0,.4,4.81,0,5.25S49.84,109,49.58,108.32Z" fill="#12263f"/>
            <path id="Trazado_101775" data-name="Trazado 101775" d="M55,88.65s.91-1.15,4.5-.75,11.4.72,14.17.2a23.68,23.68,0,0,1-7.08,1.12C62.45,89.29,56.4,88.34,55,88.65Z" fill="#fff"/>
            <path id="Trazado_101776" data-name="Trazado 101776" d="M61.61,90.28c-.17-.07,4.93.46,7.38,0A9.5,9.5,0,0,1,61.61,90.28Z" fill="#fff"/>
            <path id="Trazado_101777" data-name="Trazado 101777" d="M51.52,95.35s4.27,1.19,6.52,4.32a10.44,10.44,0,0,0-4.76-4.45l-1.63-.53Z" fill="#12263f"/>
            <path id="Trazado_101778" data-name="Trazado 101778" d="M51.41,95a9.92,9.92,0,0,1,1.78,2.45,9.26,9.26,0,0,0-.89-2.35.54.54,0,0,0-.89-.1Z" fill="#12263f"/>
            <path id="Trazado_101779" data-name="Trazado 101779" d="M60.07,117c0,.19-.24.34-.54.34S59,117.16,59,117s.25-.33.55-.33S60.07,116.79,60.07,117Z" fill="#fff"/>
            <path id="Trazado_101780" data-name="Trazado 101780" d="M61,113.21a4.39,4.39,0,0,1-.21.44,9.48,9.48,0,0,1-4.64-.08,1.75,1.75,0,0,1-.13-.45A12.88,12.88,0,0,0,61,113.21Z" fill="#fff"/>
            <path id="Trazado_101781" data-name="Trazado 101781" d="M56,105c0,.65-.24,1.17-.54,1.17s-.53-.52-.53-1.17.24-1.18.53-1.18S56,104.32,56,105Z" fill="#12263f"/>
          </g>
        </g>
        <g id="Grupo_87601" data-name="Grupo 87601">
          <path id="Trazado_101782" data-name="Trazado 101782" d="M84.75,129.71s1.39,28,1.59,29,4.71,5.29,7.54,5.82c0,0,3.64-4.17,3.83-6.16s-4.16-24.74-6.28-30.63Z" fill="#ffb0ab"/>
          <path id="Trazado_101783" data-name="Trazado 101783" d="M85,130.44s1.81,27.89,1.9,28.33,4,4,6.57,5.21a11.07,11.07,0,0,1-1.77-5.25c-.08-2.82.27-3.26.27-3.26s-3.62-7.15-4-8.52S86.13,130,86.13,130Z" fill="#ff7980"/>
          <path id="Trazado_101784" data-name="Trazado 101784" d="M86.93,129.97l1.95,12.13-.63-12.76Z" fill="#ff7980"/>
          <path id="Trazado_101785" data-name="Trazado 101785" d="M91.89,132.59,96,150.05l-.6.45Z" fill="#fff"/>
        </g>
        <g id="Grupo_87602" data-name="Grupo 87602">
          <path id="Trazado_101786" data-name="Trazado 101786" d="M12.37,201.65l-.66-.19L59.61,56.47l.66.19Z" fill="#4a1435"/>
          <path id="Trazado_101787" data-name="Trazado 101787" d="M107.51,201.65,59.61,56.66l.66-.19,47.89,144.99Z" fill="#4a1435"/>
        </g>
        <g id="Grupo_87605" data-name="Grupo 87605">
          <g id="Grupo_87603" data-name="Grupo 87603">
            <path id="Trazado_101788" data-name="Trazado 101788" d="M109.43,203.21a23.32,23.32,0,0,1-.24,3.24c-1.57,10.66-10.78,19.85-24,25.17a69.851,69.851,0,0,1-22.13,4.75c-1.39.08-2.8.12-4.22.12-26.27,0-47.86-13.19-50.32-30.05a21.86,21.86,0,0,1,0-6.46H109.19a23.319,23.319,0,0,1,.24,3.23Z" fill="#337ade"/>
            <path id="Trazado_101789" data-name="Trazado 101789" d="M90.3,216.55l10.04-4.41-6.46,6.09Z" fill="#0059d6"/>
            <path id="Trazado_101790" data-name="Trazado 101790" d="M85.21,231.62a69.85,69.85,0,0,1-22.13,4.75c-12.33-.82-26.59-3.1-35.11-8.89C10.54,215.66,10.54,210.05,9.66,205.8s98.5.65,98.5.65S82.49,215.85,82,218.23C81.65,219.75,83.68,226.74,85.21,231.62Z" fill="#0059d6"/>
          </g>
          <g id="Grupo_87604" data-name="Grupo 87604">
            <path id="Trazado_101791" data-name="Trazado 101791" d="M114.32,203.21a3.24,3.24,0,0,1-3.24,3.24H8.54a3.24,3.24,0,0,1-3-3.23,2.81,2.81,0,0,1,.07-.65,3.07,3.07,0,0,1,.88-1.64,3.19,3.19,0,0,1,2-.94H111.08a3.24,3.24,0,0,1,3.24,3.22Z" fill="#ffb94e"/>
            <path id="Trazado_101792" data-name="Trazado 101792" d="M112,202.06c-.08.51-.72.83-1.43.72s-1.22-.61-1.14-1.12.72-.82,1.43-.71S112.09,201.56,112,202.06Z" fill="#fff"/>
            <path id="Trazado_101793" data-name="Trazado 101793" d="M106.92,205.8a3.49,3.49,0,0,1-.06.65H8.54a3.24,3.24,0,0,1-3-3.23,2.81,2.81,0,0,1,.07-.65h98.05a3.24,3.24,0,0,1,3.26,3.23Z" fill="#c17b24"/>
          </g>
        </g>
        <g id="Grupo_87609" data-name="Grupo 87609">
          <g id="Grupo_87606" data-name="Grupo 87606">
            <path id="Trazado_101794" data-name="Trazado 101794" d="M86.72,189.55V200H22.36s-1.48-1.53-3-3.34h0c-1.61-1.91-3.26-4.12-3.26-5.2,0-2.1,6.46-12,7.81-12.3C23.87,179.11,68.41,187.07,86.72,189.55Z" fill="#78b4e8"/>
            <path id="Trazado_101795" data-name="Trazado 101795" d="M80.87,194.26,79.93,200H22.36s-1.48-1.53-3-3.34h0c-.2-.31-2.28-3.65,0-5.79s42.18,3.3,42.18,3.3l-14.4-4.57Z" fill="#1762a3"/>
            <path id="Trazado_101796" data-name="Trazado 101796" d="M24.57,181.99l.88-1.36,14.45,2.46Z" fill="#fff"/>
          </g>
          <g id="Grupo_87608" data-name="Grupo 87608">
            <path id="Trazado_101797" data-name="Trazado 101797" d="M97,199.86c4.06-.78,6.2-2.64,6.47-5.52a5.29,5.29,0,0,0-3.93-5.86,13.611,13.611,0,0,0-3.19-.36H94.78c-2.09,0-4.15.11-4.81.14-1.25.06-5.31-.37-6.34-.49a51.166,51.166,0,0,0-6.5.94l.23,3.31.31,4.28.22,3.17s10.27,1.17,16.2.76h.32a22.543,22.543,0,0,0,2.59-.37Z" fill="#0e1d2f"/>
            <path id="Trazado_101798" data-name="Trazado 101798" d="M94.78,188.11c-2.09,0-4.15.11-4.81.14-1.25.06-5.31-.37-6.34-.49a51.169,51.169,0,0,0-6.5.94l.23,3.31.5.22S93.44,192.37,94.78,188.11Z" fill="#12263f"/>
            <path id="Trazado_101799" data-name="Trazado 101799" d="M94.41,200.2a6.69,6.69,0,0,0-3.59-2.59c-2.21-.63-9.8-1.12-13.15-1.32l.22,3.17s10.27,1.17,16.2.76Z" fill="#12263f"/>
            <path id="Trazado_101800" data-name="Trazado 101800" d="M79.13,198.76a4.52,4.52,0,0,0,3.77-5.13,3.12,3.12,0,0,0-.11-.61,4.42,4.42,0,0,0-4.67-3.58,3.211,3.211,0,0,0-.76.16,4.57,4.57,0,0,0-3,5A4.52,4.52,0,0,0,79.13,198.76Z" fill="#ffb0ab"/>
            <path id="Trazado_101801" data-name="Trazado 101801" d="M82.49,194.76a5.46,5.46,0,0,0,.3-1.74,4.42,4.42,0,0,0-4.67-3.58,3.211,3.211,0,0,0-.76.16l.53,3.65Z" fill="#ff7980"/>
            <path id="Trazado_101802" data-name="Trazado 101802" d="M97,199.86c4.06-.78,6.2-2.64,6.47-5.52a5.29,5.29,0,0,0-3.93-5.86,13.611,13.611,0,0,0-3.19-.36c-.69,1.64-1.83,5-1.15,8.14a6.92,6.92,0,0,0,1.8,3.6Z" fill="#aab2d4"/>
            <g id="Grupo_87607" data-name="Grupo 87607">
              <path id="Trazado_101803" data-name="Trazado 101803" d="M89.27,190.64a.31.31,0,0,0-.29-.27.3.3,0,0,0-.31.3s-.09,4.27.24,7.71h0a.31.31,0,0,0,.33.27.3.3,0,0,0,.27-.33c-.33-3.41-.24-7.6-.24-7.65Z" fill="#fff"/>
              <path id="Trazado_101804" data-name="Trazado 101804" d="M87,190.89a.3.3,0,1,0-.6,0s-.07,4.5.19,7.24h0a.3.3,0,0,0,.6-.06c-.25-2.72-.19-7.14-.19-7.18Z" fill="#fff"/>
              <path id="Trazado_101805" data-name="Trazado 101805" d="M84.81,190.81a.31.31,0,0,0-.3-.27.3.3,0,0,0-.3.31c0,.05,0,5.37.09,7.38a.29.29,0,0,0,.31.3.3.3,0,0,0,.29-.32c-.06-2-.09-7.31-.09-7.37Z" fill="#fff"/>
            </g>
            <path id="Trazado_101806" data-name="Trazado 101806" d="M102.69,195.49a4.94,4.94,0,0,0-.07-3.93,6.6,6.6,0,0,0-6.12-3.19l-.93,5.17s3.3-.36,3.84-.06l.19.1a.93.93,0,0,1,.76-.6.981.981,0,0,1,.81,1.57Z" fill="#dee1ee"/>
          </g>
        </g>
        <g id="Grupo_87610" data-name="Grupo 87610">
          <path id="Trazado_101807" data-name="Trazado 101807" d="M79.67,119.12a5.37,5.37,0,0,0-1.6,3A2.74,2.74,0,0,0,80.58,125C81.57,125,79.67,119.12,79.67,119.12Z" fill="#ff7980"/>
          <path id="Trazado_101808" data-name="Trazado 101808" d="M91.43,127.73c0,.23-.88.93-2.18,1.62a14.64,14.64,0,0,1-4.44,1.53c-.28,0-.56.06-.83.08h-.1s-3.63-4.24-4-5.82-.33-7.88-.07-8.18,4.5-2.24,6.55-1.86c0,0,.32.34.75.84a32.921,32.921,0,0,1,2.63,3.18,20.25,20.25,0,0,1,1,4.08h0C91.13,125.32,91.43,127.44,91.43,127.73Z" fill="#ffb0ab"/>
          <path id="Trazado_101809" data-name="Trazado 101809" d="M89.25,129.35l-4.44,1.53c-.28,0-.56.06-.83.08a48.162,48.162,0,0,1-3.71-5.7,30,30,0,0,1,2.65-2.87c.35-.13,1.32,4.19,1.32,4.19Z" fill="#ff7980"/>
          <path id="Trazado_101810" data-name="Trazado 101810" d="M80.09,121.24l.13-1.59,2.32-.43Z" fill="#ff7980"/>
          <path id="Trazado_101811" data-name="Trazado 101811" d="M90.76,123.21c-.39-1.41-.83-2.95-.92-3.13s-3.4-4.07-3.4-4.07H82.7l3.43-.66,1,.6a32.923,32.923,0,0,1,2.63,3.18,20.25,20.25,0,0,1,1,4.08Z" fill="#fff"/>
          <path id="Trazado_101812" data-name="Trazado 101812" d="M86.82,118.1c-.12.26-.54.32-.95.14s-.64-.54-.53-.8.54-.32,1-.14S86.93,117.84,86.82,118.1Z" fill="#fff"/>
        </g>
        <g id="Grupo_87614" data-name="Grupo 87614">
          <g id="Grupo_87612" data-name="Grupo 87612">
            <path id="Trazado_101813" data-name="Trazado 101813" d="M87,267.18c-.39,4.66-2.21,7.28-5.41,7.94a6,6,0,0,1-7.06-3.71,15.29,15.29,0,0,1-.78-3.54c-.08-.56-.15-1.14-.21-1.71-.24-2.35-.37-4.67-.41-5.42-.09-1.41-1.06-5.91-1.33-7.05s.27-7.41.27-7.41l3.74-.14,4.84-.18,3.58-.13s2.57,11.38,2.83,18.09v.36A24.679,24.679,0,0,1,87,267.18Z" fill="#0e1d2f"/>
            <path id="Trazado_101814" data-name="Trazado 101814" d="M73.5,266.16c-.24-2.35-.37-4.67-.41-5.42-.09-1.41-1.06-5.91-1.33-7.05s.27-7.41.27-7.41l3.74-.14.31.53S78.12,264.15,73.5,266.16Z" fill="#12263f"/>
            <path id="Trazado_101815" data-name="Trazado 101815" d="M87,264.28a7.48,7.48,0,0,1-3.34-3.72c-1-2.4-2.45-10.85-3.08-14.6l3.58-.13s2.57,11.38,2.83,18.09C87,264,87,264.16,87,264.28Z" fill="#12263f"/>
            <path id="Trazado_101816" data-name="Trazado 101816" d="M83.56,247.3a5.09,5.09,0,0,1-5.29,4.86,4,4,0,0,1-.7,0A5,5,0,0,1,73,247.3a4.21,4.21,0,0,1,.08-.87,5.19,5.19,0,0,1,5.21-4,5.09,5.09,0,0,1,5.27,4.87Z" fill="#ffb0ab"/>
            <path id="Trazado_101817" data-name="Trazado 101817" d="M79.48,251.57a6,6,0,0,1-1.91.54A5,5,0,0,1,73,247.3a4.21,4.21,0,0,1,.08-.87l4.17.15Z" fill="#ff7980"/>
            <path id="Trazado_101818" data-name="Trazado 101818" d="M87,267.18c-.39,4.66-2.21,7.28-5.41,7.94a6,6,0,0,1-7.06-3.71,15.29,15.29,0,0,1-.78-3.54c1.75-1,5.42-2.66,9-2.27A7.86,7.86,0,0,1,87,267.18Z" fill="#dee1ee"/>
            <g id="Grupo_87611" data-name="Grupo 87611">
              <path id="Trazado_101819" data-name="Trazado 101819" d="M75.68,259.67a.34.34,0,0,1,0-.68s4.79-.62,8.69-.66h0a.34.34,0,0,1,0,.68,84.479,84.479,0,0,0-8.6.66Z" fill="#fff"/>
              <path id="Trazado_101820" data-name="Trazado 101820" d="M75.68,257.07a.34.34,0,0,1,0-.68s5-.62,8.16-.66h0a.34.34,0,0,1,.34.33.35.35,0,0,1-.34.35,79.336,79.336,0,0,0-8.07.66Z" fill="#fff"/>
              <path id="Trazado_101821" data-name="Trazado 101821" d="M75.33,254.64a.34.34,0,0,1,0-.68c.06,0,6-.62,8.3-.79a.32.32,0,0,1,.36.31.33.33,0,0,1-.31.37c-2.26.17-8.22.79-8.28.79Z" fill="#fff"/>
            </g>
            <path id="Trazado_101822" data-name="Trazado 101822" d="M82.74,274.15a5.61,5.61,0,0,1-4.41.39c-2.34-.83-4.14-3.61-4.32-6.48l5.69-1.67s0,3.74.39,4.32c0,.05.08.12.15.2a1,1,0,0,0-.59.92,1.07,1.07,0,0,0,1.1,1,1.11,1.11,0,0,0,.76-.3Z" fill="#aab2d4"/>
          </g>
          <g id="Grupo_87613" data-name="Grupo 87613">
            <path id="Trazado_101823" data-name="Trazado 101823" d="M84.82,246.41a66.656,66.656,0,0,1-7.22,1.08,26.538,26.538,0,0,1-6.6-.09l-.36-.06s-8.34-60.87-8.6-62.72c0,0,2.64-7.55,7.94-10.85,0,0,11.29,3,12.39,4S85,230.4,84.82,246.41Z" fill="#78b4e8"/>
            <path id="Trazado_101824" data-name="Trazado 101824" d="M81.38,246.54s-1.75.46-3.78,1a26.54,26.54,0,0,1-6.6-.14c-1.94-8.87-7.51-62.12-7.51-62.12l5.56-3.71,5.69,63.12Z" fill="#1762a3"/>
            <path id="Trazado_101825" data-name="Trazado 101825" d="M74.49,230.4l-2.05-23.29,4.57,29.38Z" fill="#1762a3"/>
            <path id="Trazado_101826" data-name="Trazado 101826" d="M82.75,204.92l-.86.07-.69-13.22,1-1.2C82.29,191.94,82.51,197.69,82.75,204.92Z" fill="#fff"/>
            <path id="Trazado_101827" data-name="Trazado 101827" d="M83.88,243.23l-1.95-37.36.85-.07C83.26,220.74,83.83,241.34,83.88,243.23Z" fill="#fff"/>
            <path id="Trazado_101828" data-name="Trazado 101828" d="M80.24,179.09a1.45,1.45,0,0,1-1.95.4c-.82-.36-1.27-1.13-1-1.71a1.45,1.45,0,0,1,2-.41C80.05,177.74,80.5,178.5,80.24,179.09Z" fill="#fff"/>
            <path id="Trazado_101829" data-name="Trazado 101829" d="M78.36,182.65a.81.81,0,0,1-1.09.22.831.831,0,0,1-.56-1c.15-.37.63-.43,1.09-.23A.849.849,0,0,1,78.36,182.65Z" fill="#fff"/>
          </g>
        </g>
      </g>
      <g id="Grupo_87641" data-name="Grupo 87641">
        <g id="Grupo_87616" data-name="Grupo 87616">
          <path id="Trazado_101830" data-name="Trazado 101830" d="M296,201.65,248.1,57.32l.66-.19,47.9,144.33Z" fill="#4a1435"/>
          <path id="Trazado_101831" data-name="Trazado 101831" d="M200.86,201.65l-.65-.19L248.1,57.13l.66.19Z" fill="#4a1435"/>
        </g>
        <g id="Grupo_87619" data-name="Grupo 87619">
          <g id="Grupo_87617" data-name="Grupo 87617">
            <path id="Trazado_101832" data-name="Trazado 101832" d="M297.92,203.21a21.88,21.88,0,0,1-.24,3.24c-2.48,16.86-24.06,30-50.33,30S199.49,223.3,197,206.44a21.86,21.86,0,0,1,0-6.46H297.68A21.879,21.879,0,0,1,297.92,203.21Z" fill="#337ade"/>
            <path id="Trazado_101833" data-name="Trazado 101833" d="M201.45,205.8S225,207.2,229,213.2s-9.41,16.05-9.41,16.05a71.22,71.22,0,0,0,36.68,5.12c20.64-2.65,36.18-11.85,40.84-28.57Z" fill="#0059d6"/>
            <path id="Trazado_101834" data-name="Trazado 101834" d="M213.46,226.31l14-7.64S221,226.59,218,228.5Z" fill="#0059d6"/>
          </g>
          <g id="Grupo_87618" data-name="Grupo 87618">
            <path id="Trazado_101835" data-name="Trazado 101835" d="M194.05,203.21a3.24,3.24,0,0,0,3.24,3.24H299.83a3.24,3.24,0,0,0,3-3.23,2.809,2.809,0,0,0-.07-.65,3.07,3.07,0,0,0-.88-1.64,3.19,3.19,0,0,0-2-.94H197.29a3.24,3.24,0,0,0-3.24,3.22Z" fill="#ffb94e"/>
            <path id="Trazado_101836" data-name="Trazado 101836" d="M196.36,202.06c.08.51.72.83,1.43.72s1.22-.61,1.14-1.12-.72-.82-1.43-.71S196.28,201.56,196.36,202.06Z" fill="#fff"/>
            <path id="Trazado_101837" data-name="Trazado 101837" d="M201.45,205.8a3.489,3.489,0,0,0,.06.65h98.32a3.24,3.24,0,0,0,3-3.23,2.809,2.809,0,0,0-.07-.65H204.69a3.24,3.24,0,0,0-3.24,3.23Z" fill="#c17b24"/>
          </g>
        </g>
        <g id="Grupo_87620" data-name="Grupo 87620">
          <path id="Trazado_101838" data-name="Trazado 101838" d="M253.51,91.21a11.17,11.17,0,0,1,6.62,7.29c1.85,5.81.79,19.07.73,22a112.846,112.846,0,0,0,1.58,15.23c.66,3.24.33,11.78-1.22,15.88A21.07,21.07,0,0,1,255.7,159s-12.56-25.26-13.09-27.31-4.69-16.41-4.23-19.12S239,91.6,253.51,91.21Z" fill="#12263f"/>
          <path id="Trazado_101839" data-name="Trazado 101839" d="M254,95.11a15,15,0,0,1,4.57,7.94c1.19,5.22.46,12.72.19,15.72s.34,14.48.34,14.48-11.69-2.15-13.46-6.32-1-14.83-1-14.83Z" fill="#0e1d2f"/>
          <path id="Trazado_101840" data-name="Trazado 101840" d="M237.23,108.14s-1.65-6.28,0-11,8.23-7.9,12.65-7.33l-6.16,10.38Z" fill="#12263f"/>
          <path id="Trazado_101841" data-name="Trazado 101841" d="M237.66,107.06s-1.92-.46-2,1.39,2,4.32,3.26,4.59Z" fill="#ff7980"/>
          <path id="Trazado_101842" data-name="Trazado 101842" d="M237.44,105.17s1.09,9.91,1.75,11.57,6.12,5.69,7.71,5.28a15.16,15.16,0,0,0,6.74-5.94c1.46-2.84,1.46-8.86,1.46-11.77s-2.18-6.55-5.23-6.49-10.78,2.65-11.71,4.17a5.5,5.5,0,0,0-.72,3.18Z" fill="#ffb0ab"/>
          <path id="Trazado_101843" data-name="Trazado 101843" d="M252.44,101.07a13.8,13.8,0,0,1-8.32,6.77c-6,1.69-6.06.4-6.06.4l.6-2.88Z" fill="#ff7980"/>
          <path id="Trazado_101844" data-name="Trazado 101844" d="M256,107.06s1.92-.45,2,1.4-2,4.31-3.28,4.57Z" fill="#ff7980"/>
          <path id="Trazado_101845" data-name="Trazado 101845" d="M254.48,95.71a10,10,0,0,1,2.6,4.76c.75,3.09-.79,9-.83,11.38a12.76,12.76,0,0,0,1.8,6.57s-4.23-4.81-3.92-8.2-.62-8-2.29-9.66Z" fill="#12263f"/>
          <path id="Trazado_101846" data-name="Trazado 101846" d="M237.5,105.85s.4,8.6-1.41,12.92a19.42,19.42,0,0,0,3-12.22Z" fill="#0e1d2f"/>
          <path id="Trazado_101847" data-name="Trazado 101847" d="M241.33,110a.08.08,0,0,1,.08,0h.06a.82.82,0,0,1,.46-.24,4.25,4.25,0,0,1,1.33-.09,2.06,2.06,0,0,1,.73.14.9.9,0,0,1,.5.44c0,.08,0,.13-.12.12a2.77,2.77,0,0,1-.26-.1,1,1,0,0,0-.3-.09,3.18,3.18,0,0,0-.69-.09,3,3,0,0,0-1.27.14.42.42,0,0,1-.29.07.18.18,0,0,1-.07,0h-.08a.26.26,0,0,1-.12-.12V110a.07.07,0,0,1,.04,0Z" fill="#0e1d2f"/>
          <path id="Trazado_101848" data-name="Trazado 101848" d="M242.16,106.67a2.76,2.76,0,0,1,1.11,0,3,3,0,0,1,.87.2,1.72,1.72,0,0,1,.37.22c.07.07.19.18.16.29h0a2.3,2.3,0,0,1-.25-.12,1.441,1.441,0,0,0-.36-.15,4,4,0,0,0-.76-.16,2.9,2.9,0,0,0-.93,0,1.38,1.38,0,0,0-.39.13,3.538,3.538,0,0,1-.33.19c-.07,0-.14,0-.12-.09C241.57,106.9,241.9,106.74,242.16,106.67Z" fill="#0e1d2f"/>
          <path id="Trazado_101849" data-name="Trazado 101849" d="M254.13,98.31c-1.68,3.35-5.69,8.82-12.84,8.86a15.43,15.43,0,0,1-11.24-4.76,16.76,16.76,0,0,0,4.33,0h.15a4.68,4.68,0,0,0,2.62-1.21c1.85-2,2.95-5.91,6.13-8.43,2.28-1.8,5.11-3.17,7.56-2.81a4.83,4.83,0,0,1,2.67,1.32S255.81,95,254.13,98.31Z" fill="#12263f"/>
          <path id="Trazado_101850" data-name="Trazado 101850" d="M250.84,89.89a14.1,14.1,0,0,0-3.28.87c-3.26,1.33-6.46,5.57-8.4,8.87s-4.65,2.77-4.78,2.73h.15a4.68,4.68,0,0,0,2.62-1.21c1.85-2,2.95-5.91,6.13-8.43C245.56,90.9,248.39,89.53,250.84,89.89Z" fill="#fff"/>
          <path id="Trazado_101851" data-name="Trazado 101851" d="M241.29,98.75s3.17-6.62,6.71-7.54A33.46,33.46,0,0,0,241.29,98.75Z" fill="#fff"/>
          <path id="Trazado_101852" data-name="Trazado 101852" d="M248.38,116.56a1.789,1.789,0,0,1-.26.6h0a2.37,2.37,0,0,1-1.92.9,2,2,0,0,1-2-1,2.1,2.1,0,0,1-.21-.54,10,10,0,0,0,4.39.04Z" fill="#ff2352"/>
          <path id="Trazado_101853" data-name="Trazado 101853" d="M248.38,116.56a1.789,1.789,0,0,1-.26.6h0a.8.8,0,0,0-.31-.1,10.54,10.54,0,0,1-3.29-.09l-.33.13a2.1,2.1,0,0,1-.21-.54A10,10,0,0,0,248.38,116.56Z" fill="#fff"/>
          <path id="Trazado_101854" data-name="Trazado 101854" d="M246.04,112.91l-.36,1.74h.71Z" fill="#ff7980"/>
          <path id="Trazado_101855" data-name="Trazado 101855" d="M251.34,110a.08.08,0,0,0-.08,0h-.06a.82.82,0,0,0-.46-.24,4.25,4.25,0,0,0-1.33-.09,2.06,2.06,0,0,0-.73.14.9.9,0,0,0-.5.44c0,.08.05.13.12.12a2.771,2.771,0,0,0,.26-.1,1,1,0,0,1,.3-.09,3.18,3.18,0,0,1,.69-.09,3,3,0,0,1,1.27.14.42.42,0,0,0,.29.07h.2a.26.26,0,0,0,.12-.12V110A.07.07,0,0,0,251.34,110Z" fill="#0e1d2f"/>
          <path id="Trazado_101856" data-name="Trazado 101856" d="M250.51,106.67a2.72,2.72,0,0,0-1.1,0,3,3,0,0,0-.88.2,1.72,1.72,0,0,0-.37.22c-.07.07-.19.18-.16.29h0a2.3,2.3,0,0,0,.25-.12,1.84,1.84,0,0,1,.36-.15,4.05,4.05,0,0,1,.77-.16,2.84,2.84,0,0,1,.92,0,1.38,1.38,0,0,1,.39.13,3.542,3.542,0,0,0,.33.19c.07,0,.14,0,.12-.09C251.1,106.9,250.77,106.74,250.51,106.67Z" fill="#0e1d2f"/>
          <path id="Trazado_101857" data-name="Trazado 101857" d="M249.79,112.32l-.08.07a.856.856,0,0,0-.07.1l-.12.16c-.08.12-.16.23-.25.34a.106.106,0,1,0,.15.15l.24-.36.12-.18a.41.41,0,0,0,.05-.09.25.25,0,0,0,0-.11.06.06,0,0,0-.04-.08Z" fill="#ff7980"/>
          <path id="Trazado_101858" data-name="Trazado 101858" d="M250.71,112.21a1.461,1.461,0,0,0-.19.16,1.563,1.563,0,0,0-.16.2,2,2,0,0,0-.24.45.07.07,0,0,0,0,.08.06.06,0,0,0,.07,0,2.131,2.131,0,0,1,.23-.42l.14-.18.15-.19S250.75,112.18,250.71,112.21Z" fill="#ff7980"/>
          <path id="Trazado_101859" data-name="Trazado 101859" d="M251.63,112.11l-.15.15-.13.16-.13.17-.06.08-.08.08a.088.088,0,1,0,.14.09v-.09a.408.408,0,0,0,0-.09l.12-.17.13-.17a1.946,1.946,0,0,0,.13-.16C251.64,112.1,251.67,112.08,251.63,112.11Z" fill="#ff7980"/>
          <path id="Trazado_101860" data-name="Trazado 101860" d="M240.72,112.62s-.07-.06-.1,0a.12.12,0,0,0-.05,0h0v.08l-.08.16a.08.08,0,0,0,0,.07h0a.06.06,0,0,0,.07,0,.07.07,0,0,0,.06,0l.07-.17v-.08h0a.06.06,0,0,0,.03-.06Z" fill="#ff7980"/>
          <path id="Trazado_101861" data-name="Trazado 101861" d="M241.46,112.62l-.15.26-.14.27s.05.08.07,0l.14-.27c.05-.09.09-.18.13-.27S241.48,112.59,241.46,112.62Z" fill="#ff7980"/>
          <path id="Trazado_101862" data-name="Trazado 101862" d="M242.47,112.34a1.6,1.6,0,0,0-.22.31c-.07.11-.13.22-.19.33s-.24.45-.35.68a.1.1,0,0,0,0,.13.09.09,0,0,0,.13,0c.11-.24.22-.46.34-.69a3.368,3.368,0,0,1,.19-.32c.06-.11.14-.22.19-.33S242.52,112.29,242.47,112.34Z" fill="#ff7980"/>
          <path id="Trazado_101863" data-name="Trazado 101863" d="M247.57,120.75c0,.15-.15.26-.34.26s-.35-.11-.35-.26.16-.25.35-.25S247.57,120.61,247.57,120.75Z" fill="#fff"/>
        </g>
        <g id="Grupo_87623" data-name="Grupo 87623">
          <g id="Grupo_87621" data-name="Grupo 87621">
            <path id="Trazado_101864" data-name="Trazado 101864" d="M276.79,150.26a1.42,1.42,0,0,1,0,.2,1.786,1.786,0,0,1-.09.35s-14.43-9.72-15.81-11a2.27,2.27,0,0,1-.43-.73c-1.19-2.9-2.21-12.37-2.21-12.37l1.46,1.17c3.06,2.48,10.15,8.33,13.62,12.26C273.29,140.16,277.35,146.65,276.79,150.26Z" fill="#ffb0ab"/>
            <path id="Trazado_101865" data-name="Trazado 101865" d="M276.85,150.52l-.1-.06L260.42,139.1c-1.19-2.9-2.21-12.37-2.21-12.37l1.46,1.17,4.16,11.32,12.44,8.62.52,2.42Z" fill="#ff7980"/>
            <path id="Trazado_101866" data-name="Trazado 101866" d="M262.51,137.69l9.17,5.87-9.61-7.59Z" fill="#ff7980"/>
          </g>
          <g id="Grupo_87622" data-name="Grupo 87622">
            <path id="Trazado_101867" data-name="Trazado 101867" d="M280.29,147.67c-.49,2.81-3.63,3.14-3.63,3.14a26,26,0,0,1-2.77-5.54h0c-1.31-3.88-.53-6.28-.39-9.24a37.667,37.667,0,0,0-.29-6h0c-.11-.88-.22-1.64-.31-2.2s-.18-1-.18-1h0l2.93-.66c.09.21.18.5.3.87a1,1,0,0,1,0,.12C277.35,131.42,280.73,145.11,280.29,147.67Z" fill="#ffb0ab"/>
            <path id="Trazado_101868" data-name="Trazado 101868" d="M276.81,134.06a41.1,41.1,0,0,0-1.8-6.29h-2.13c-.11-.65-.18-1-.18-1h0c.37,0,3-.32,3.23.21a1,1,0,0,1,0,.12C276.22,128,276.67,132.63,276.81,134.06Z" fill="#ff7980"/>
            <path id="Trazado_101869" data-name="Trazado 101869" d="M277.37,148a1.27,1.27,0,0,1,0,2.07s2.64-.46,2.69-2.87-2.69-13.92-2.69-13.92,1.1,12.07.84,13.17a2.78,2.78,0,0,1-.84,1.55Z" fill="#ff7980"/>
            <path id="Trazado_101870" data-name="Trazado 101870" d="M273.49,136a37.671,37.671,0,0,0-.29-6c.75,1.94.72,7.27.46,9.49a28.91,28.91,0,0,0,.22,5.77C272.57,141.36,273.35,139,273.49,136Z" fill="#fff"/>
            <path id="Trazado_101871" data-name="Trazado 101871" d="M274.86,140.92c0,.25-.15.45-.33.45s-.33-.2-.33-.45.14-.44.33-.44S274.86,140.68,274.86,140.92Z" fill="#fff"/>
          </g>
        </g>
        <g id="Grupo_87626" data-name="Grupo 87626">
          <g id="Grupo_87624" data-name="Grupo 87624">
            <path id="Trazado_101872" data-name="Trazado 101872" d="M227.51,182.3s6-23.68,6-24.74-2.85-14.36-2.72-15.41,2.7-14.15,4.21-15.37,10.67-2.43,10.67-2.43a50.749,50.749,0,0,1,7.69,1l1.48.32a12.66,12.66,0,0,1,3.36,1c.39.43,2.1,7.28,2.92,11.81a28.091,28.091,0,0,1,.45,3.11,2.579,2.579,0,0,1,0,.56c-.19,2.12-3.17,15.68-3.24,16.78,0,.48.82,4.78,1.81,9.55l.1.53c1.31,6.31,2.79,13.23,2.79,13.23Z" fill="#ff2352"/>
            <path id="Trazado_101873" data-name="Trazado 101873" d="M240.63,152.38l6.98,3.17L242,153.7Z" fill="#4a1435"/>
            <path id="Trazado_101874" data-name="Trazado 101874" d="M262.75,182.3H255L253.37,163l-11-5.56,11.86.35c-3.16-.93-16.67-8-17.76-8.6s-4-5.77-4-5.77,4.32,2.64,5.14,3.35,3.15,1,6.23-.27,3.73-6.07,3.73-6.07l2.3,6.76a10.61,10.61,0,0,0,8.13-2.1c2.24-2,1.26-11.2,1.26-11.2l1.86,4.64a28.091,28.091,0,0,1,.45,3.11,2.579,2.579,0,0,1,0,.56c-.19,2.12-3.17,15.68-3.24,16.78l1.81,9.55.1.53Z" fill="#4a1435"/>
            <path id="Trazado_101875" data-name="Trazado 101875" d="M236.76,138.59a1.35,1.35,0,1,1-1.725-.413A1.35,1.35,0,0,1,236.76,138.59Z" fill="#fff"/>
            <path id="Trazado_101876" data-name="Trazado 101876" d="M238.77,140.52c.12.23-.09.58-.47.78s-.79.17-.91-.06.09-.58.47-.78S238.65,140.29,238.77,140.52Z" fill="#fff"/>
            <path id="Trazado_101877" data-name="Trazado 101877" d="M254.85,125.71c-.81.94-3.76,3.56-10.07,2.05,0,0,6.58.43,8.59-2.37Z" fill="#4a1435"/>
          </g>
          <g id="Grupo_87625" data-name="Grupo 87625">
            <path id="Trazado_101878" data-name="Trazado 101878" d="M252.49,121.9a3.27,3.27,0,0,1-2.06,1.67l-.31.08c-.16,0-.37.07-.62.1a36.591,36.591,0,0,1-6.58-.1,7.08,7.08,0,0,1-1.76-.33,3.8,3.8,0,0,1-1.67-1.68,9.22,9.22,0,0,1,3.17-.59h.36l.9-.05a5.22,5.22,0,0,0,3,1.06,7.4,7.4,0,0,0,1.86-1h0a8.881,8.881,0,0,1,1.31.15,5.78,5.78,0,0,1,2.4.69Z" fill="#4a1435"/>
            <path id="Trazado_101879" data-name="Trazado 101879" d="M250.44,123.59l-.32.06c-.16,0-.37.07-.62.1a19,19,0,0,1-6.58-.1c-.26-.05-.51-.12-.76-.19,0,0,.28-1.16.5-2.41.05-.28.1-.56.13-.83.38.27.76.51,1.13.74a5.22,5.22,0,0,0,3,1.06,7.4,7.4,0,0,0,1.86-1h0c.39-.25.79-.54,1.21-.87a9.656,9.656,0,0,0,.1,1h0a18.789,18.789,0,0,0,.36,2.33S250.44,123.58,250.44,123.59Z" fill="#ffb0ab"/>
            <path id="Trazado_101880" data-name="Trazado 101880" d="M246.9,122c-.78.2-2.49-.67-4.11-1.8a4.924,4.924,0,0,1-.13.83c1.14,1,3.13,2.07,4,2,.72,0,2.34-1.1,3.4-1.86a7.806,7.806,0,0,0-.11-1A11.15,11.15,0,0,1,246.9,122Z" fill="#ff7980"/>
            <path id="Trazado_101881" data-name="Trazado 101881" d="M253.37,125.39h0c-.14.1-2.4,1.76-7.07,1.76a14.9,14.9,0,0,1-7.43-1.63,27.761,27.761,0,0,1,.62-3.89,13.52,13.52,0,0,0,4.53,1,40,40,0,0,0,8.47-.77c.07,0,.15.15.23.41h0a27.268,27.268,0,0,1,.65,3.12Z" fill="#ffa1b4"/>
            <path id="Trazado_101882" data-name="Trazado 101882" d="M253.37,125.39h0a15.429,15.429,0,0,1-4,1.33s.26-2.67-1.78-3.88c0,0,3.81-.13,4.88-.95,0,0,.1.16.23.41h0A27.274,27.274,0,0,1,253.37,125.39Z" fill="#ff4c71"/>
            <path id="Trazado_101883" data-name="Trazado 101883" d="M246.3,123.29s.4-.11.93.4,1.1,2.2.59,2.07A2.58,2.58,0,0,1,246.3,123.29Z" fill="#ff4c71"/>
            <path id="Trazado_101884" data-name="Trazado 101884" d="M239.16,125.39s.32-3.4.57-3.34.37.38.29.91a23.532,23.532,0,0,1-.86,2.43Z" fill="#fff"/>
          </g>
        </g>
        <g id="Grupo_87629" data-name="Grupo 87629">
          <g id="Grupo_87627" data-name="Grupo 87627">
            <path id="Trazado_101885" data-name="Trazado 101885" d="M235,126.78s-.37,10.09-2.1,14.92a9.663,9.663,0,0,1-.43,1c-1.82,3.67-7.2,11.71-8.6,13.79l-.34.5-2.25-6.22s5.63-13.1,7.81-16.75a43,43,0,0,1,5.91-7.24Z" fill="#ffb0ab"/>
            <path id="Trazado_101886" data-name="Trazado 101886" d="M234.37,130.34l-1.46,11.36a9.658,9.658,0,0,1-.43,1c-1.82,3.67-7.2,11.71-8.6,13.79l-.22.21.84-10.16a41,41,0,0,0,4.62-5.7C230.36,138.7,234.37,130.34,234.37,130.34Z" fill="#ff7980"/>
            <path id="Trazado_101887" data-name="Trazado 101887" d="M227.49,138s2-3.81,2.68-5.1a16.9,16.9,0,0,1,2.81-3.21s-2.44,3.82-3,4.53S227.49,138,227.49,138Z" fill="#fff"/>
          </g>
          <g id="Grupo_87628" data-name="Grupo 87628">
            <path id="Trazado_101888" data-name="Trazado 101888" d="M225.47,150v.44a26.15,26.15,0,0,1-1.78,6.26c-.07.19-.12.29-.12.29s-3.83-2.4-4.3-3.61-.26-16.1.79-23.58l3.51-.49v1a60.888,60.888,0,0,0,.65,7.31A84.768,84.768,0,0,1,225.47,150Z" fill="#ffb0ab"/>
            <path id="Trazado_101889" data-name="Trazado 101889" d="M225.47,150v.44a26.15,26.15,0,0,1-1.78,6.26c-1-.69-3.2-2.48-3.2-2.48,1.76-.2,3.08-2.59,3.31-5.06s-1-16.48-1.15-17-1-2.35-1-2.35l1.92.43a60.891,60.891,0,0,0,.65,7.31A84.774,84.774,0,0,1,225.47,150Z" fill="#ff7980"/>
            <path id="Trazado_101890" data-name="Trazado 101890" d="M221.29,151.44c0,.31-.17.56-.39.56s-.4-.25-.4-.56.18-.56.4-.56S221.29,151.13,221.29,151.44Z" fill="#fff"/>
            <path id="Trazado_101891" data-name="Trazado 101891" d="M221.45,130.83l.44,1,.22,5.07Z" fill="#ff7980"/>
            <path id="Trazado_101892" data-name="Trazado 101892" d="M219.34,146.58s.2-10.88.69-13.83l.15,2S219.67,143.4,219.34,146.58Z" fill="#fff"/>
          </g>
        </g>
        <g id="Grupo_87638" data-name="Grupo 87638">
          <g id="Grupo_87633" data-name="Grupo 87633">
            <g id="Grupo_87630" data-name="Grupo 87630">
              <path id="Trazado_101893" data-name="Trazado 101893" d="M269.88,182.77l-8.53,15L260.1,200H250a17.809,17.809,0,0,1-2.72-1.55,13.651,13.651,0,0,1-1.63-1.28l-.07-.08a6.7,6.7,0,0,1-1.8-2.65c-.9-2.75.39-7,2-10.21.34-.69.7-1.33,1-1.9,2-3.15,11.58-5.8,13.78-6.59S268.91,180,269.88,182.77Z" fill="#b079c7"/>
              <path id="Trazado_101894" data-name="Trazado 101894" d="M255.89,178.07s6.34-1.32,6.87-1.13-1.41-.72-1.41-.72S257.42,177,255.89,178.07Z" fill="#fff"/>
              <path id="Trazado_101895" data-name="Trazado 101895" d="M260.74,184s-2.66.83-5.81,2c-1.42-2-3.88-5.31-4.54-5a55.758,55.758,0,0,0-4.59,3.22c-1.59,3.18-2.78,7.43-2,10.21A11.44,11.44,0,0,0,248,200h12.1l1.25-2.2Z" fill="#7b1fa2"/>
            </g>
            <g id="Grupo_87631" data-name="Grupo 87631">
              <path id="Trazado_101896" data-name="Trazado 101896" d="M241.43,253.81l-.73,1.6a39.47,39.47,0,0,1,1.81,7.8c.32,3.55,1.27,6.53,4.17,6.85s3.78-.8,4.66-3-4.82-5.58-4.82-5.58Z" fill="#48ad8b"/>
              <path id="Trazado_101897" data-name="Trazado 101897" d="M250.72,268a3.37,3.37,0,0,1-2.67,1.06c-3.43,0-4.68-5.33-4.93-8.21a37.649,37.649,0,0,0-1.69-7.05s1.89-2.73,2.41-3.71,1.91-4.42,1.91-4.42L247,246l5,1.23a31.44,31.44,0,0,0-.25,8.27,6.644,6.644,0,0,0,.06,1.09c.11,1.88.23,3.68.25,5.13C252.16,264.4,251.87,266.72,250.72,268Z" fill="#80ebc7"/>
              <path id="Trazado_101898" data-name="Trazado 101898" d="M250.72,268c-1.71,1.06-3.65,1.09-5.12-1.64,0,0,3.29.91,3.92-1.65a4.86,4.86,0,0,0-.85-4.23l3.14-5a6.642,6.642,0,0,0,.06,1.09c.11,1.88.23,3.68.25,5.13C252.16,264.4,251.87,266.72,250.72,268Z" fill="#48ad8b"/>
              <path id="Trazado_101899" data-name="Trazado 101899" d="M251.87,256.59c-.32,2.33-.84,3.86-2.42,4.19a3.89,3.89,0,0,0-.51.08c-2.07.18-3.19-1.51-3.25-4.63A63.06,63.06,0,0,1,247,246l1,.24,4.05,1C251.48,249.48,251.66,253.17,251.87,256.59Z" fill="#ffb0ab"/>
              <path id="Trazado_101900" data-name="Trazado 101900" d="M251.87,256.59c-.32,2.33-.84,3.86-2.42,4.19a3.89,3.89,0,0,0-.51.08,18.359,18.359,0,0,0,1.35-5,51.113,51.113,0,0,0-.54-7.83L248,246.24l4.05,1C251.48,249.48,251.66,253.17,251.87,256.59Z" fill="#ff7980"/>
              <path id="Trazado_101901" data-name="Trazado 101901" d="M247,264.21c0,.26-.36.44-.76.41s-.71-.28-.69-.54.37-.44.77-.41A.7.7,0,0,1,247,264.21Z" fill="#fff"/>
            </g>
            <g id="Grupo_87632" data-name="Grupo 87632">
              <path id="Trazado_101902" data-name="Trazado 101902" d="M269.88,182.77s-1.86,25.67-14.56,58.07v.06q-1.23,3.15-2.61,6.37a1.677,1.677,0,0,1-.08.2,24.31,24.31,0,0,1-7.81-1.19s3.58-27.66,4.24-33.75c0,0,2.94-8.51,5.36-15.88h0c.9-2.75,1.74-5.34,2.31-7.26,2.12-7.08,7.84-9.13,13.18-6.62Z" fill="#b079c7"/>
              <path id="Trazado_101903" data-name="Trazado 101903" d="M268.83,186.39s-3.53,21-5.91,29.54c-1.56,5.62-5.25,17.45-7.6,24.91v.06q-1.23,3.15-2.61,6.37l-2.29-.9s8.38-27.17,9.53-31.14S268.83,186.39,268.83,186.39Z" fill="#7b1fa2"/>
              <path id="Trazado_101904" data-name="Trazado 101904" d="M249.94,212.84l4.06-4.85-6.65,30.61Z" fill="#7b1fa2"/>
              <path id="Trazado_101905" data-name="Trazado 101905" d="M252.85,205.97l3.44-9.09L254,205.61l-1.56,2.38Z" fill="#7b1fa2"/>
            </g>
          </g>
          <g id="Grupo_87637" data-name="Grupo 87637">
            <g id="Grupo_87634" data-name="Grupo 87634">
              <path id="Trazado_101906" data-name="Trazado 101906" d="M250.55,182.77l-8.53,15-1.25,2.2H230.71a17.38,17.38,0,0,1-4.35-2.83l-.07-.08a6.72,6.72,0,0,1-1.81-2.65c-.78-2.41.11-6,1.4-8.95a24.368,24.368,0,0,1,1.63-3.16c2-3.15,11.58-5.8,13.78-6.59a3.78,3.78,0,0,1,2.7.59C246.61,177.67,249.86,180.77,250.55,182.77Z" fill="#b079c7"/>
              <path id="Trazado_101907" data-name="Trazado 101907" d="M242,197.77l-1.25,2.2H230.71a17.38,17.38,0,0,1-4.35-2.83l-.07-.08c-.4-.47-2.51-3.12-.83-5.76,1.85-2.91,15.94-7.34,15.94-7.34Z" fill="#7b1fa2"/>
              <path id="Trazado_101908" data-name="Trazado 101908" d="M244,176.3a58.519,58.519,0,0,0-12.93,3.89c-2.28,1.1-4.33,4-5.18,5.27a24.37,24.37,0,0,1,1.63-3.16c2-3.15,11.58-5.8,13.78-6.59a3.78,3.78,0,0,1,2.7.59Z" fill="#fff"/>
            </g>
            <g id="Grupo_87635" data-name="Grupo 87635">
              <path id="Trazado_101909" data-name="Trazado 101909" d="M223.16,255.63l-.41,2s1.06,7.44,2.79,10.06,3.7,3.2,5.76,2.59,2.63-3.62,2.63-3.62Z" fill="#48ad8b"/>
              <path id="Trazado_101910" data-name="Trazado 101910" d="M234.31,264.33a5.74,5.74,0,0,1-.61,2.8h0c-.92,1.92-2.82,3.51-5.44,2.15-3.95-2-5.24-12.8-5.11-13.68s3.07-10.22,3.07-10.22l2.7.48,3.69.65a34,34,0,0,0-.4,5.82,36.735,36.735,0,0,0,.64,4c.1.47.19,1,.29,1.44C233.64,260.39,234.19,263.05,234.31,264.33Z" fill="#80ebc7"/>
              <path id="Trazado_101911" data-name="Trazado 101911" d="M234.31,264.33a5.74,5.74,0,0,1-.61,2.8h0a4,4,0,0,1-4.29,2.05s2.28-1.84,2.28-4.13a3.72,3.72,0,0,0-2-3.23,1.64,1.64,0,0,0,1.62-1.6,10.44,10.44,0,0,1,1.55-3.85c.1.47.19,1,.29,1.44C233.64,260.39,234.19,263.05,234.31,264.33Z" fill="#48ad8b"/>
              <path id="Trazado_101912" data-name="Trazado 101912" d="M233.14,257.85c-.16,3-1,3.2-2.12,3.28l-.67.06c-1.63.18-3.63-.87-4-4.45s.82-10.85.82-10.85h1.8l3.22.57.47.09v.13a32.839,32.839,0,0,0-.39,5.68A54.211,54.211,0,0,0,233.14,257.85Z" fill="#ffb0ab"/>
              <path id="Trazado_101913" data-name="Trazado 101913" d="M233.14,257.85c-.16,3-1,3.2-2.12,3.28,1.36-2.76.17-12.11-.24-12.31s-3.26-2.27-3.26-2.27l.86-.66h.55l3.22.57.45.22a32.837,32.837,0,0,0-.39,5.68,54.227,54.227,0,0,0,.93,5.49Z" fill="#ff7980"/>
              <path id="Trazado_101914" data-name="Trazado 101914" d="M230.09,265.77c0,.4-.44.72-1,.72s-1-.32-1-.72.43-.71,1-.71S230.09,265.38,230.09,265.77Z" fill="#fff"/>
            </g>
            <g id="Grupo_87636" data-name="Grupo 87636">
              <path id="Trazado_101915" data-name="Trazado 101915" d="M250.89,182.77s-1.86,25.67-14.57,58.07v.06q-1.25,3.15-2.61,6.37l-.09.2a24.229,24.229,0,0,1-7.8-1.19s3.57-27.66,4.23-33.75c0,0,2.95-8.51,5.37-15.88h0c.9-2.75,1.73-5.34,2.31-7.26,2.12-7.08,7.83-9.13,13.17-6.62Z" fill="#b079c7"/>
              <path id="Trazado_101916" data-name="Trazado 101916" d="M243.1,185.81a.61.61,0,0,1-.79-.58,1,1,0,0,1,.69-1,.62.62,0,0,1,.79.59A1,1,0,0,1,243.1,185.81Z" fill="#fff"/>
              <path id="Trazado_101917" data-name="Trazado 101917" d="M249.5,186.39s-3.53,21-5.91,29.54c-1.56,5.62-5.26,17.45-7.61,24.91a.14.14,0,0,1,0,.06q-1.23,3.15-2.61,6.37l-2.29-.9s8.38-27.17,9.53-31.14S249.5,186.39,249.5,186.39Z" fill="#7b1fa2"/>
              <path id="Trazado_101918" data-name="Trazado 101918" d="M235.91,223.25l7.61-21.23-7.61,26.13Z" fill="#7b1fa2"/>
              <path id="Trazado_101919" data-name="Trazado 101919" d="M239.72,186.14a61.842,61.842,0,0,0-3.81,9.46c-1.85,5.82-4.49,14.75-4.49,14.75L238,192Z" fill="#b079c7"/>
            </g>
          </g>
        </g>
        <g id="Grupo_87639" data-name="Grupo 87639">
          <path id="Trazado_101920" data-name="Trazado 101920" d="M226.54,122.53a3.12,3.12,0,0,1,1.76,2.28c0,1.19-1.76,2-1.76,2Z" fill="#ff7980"/>
          <path id="Trazado_101921" data-name="Trazado 101921" d="M227.15,123.32c0,1.14-.59,6.79-1.26,7.26s-5.86-.74-5.86-.74a14.733,14.733,0,0,1,.15-1.83,17,17,0,0,1,1.36-5.47c1.34-2.57,3.08-2.66,3.08-2.66l.55.45c.45.37,1.06.89,1.37,1.17A2.92,2.92,0,0,1,227.15,123.32Z" fill="#ffb0ab"/>
          <path id="Trazado_101922" data-name="Trazado 101922" d="M222.62,129.94s2-.07,2.51-1a20.258,20.258,0,0,1,1.26-1.82,17.35,17.35,0,0,1-.5,3C225.64,130.67,222.62,129.94,222.62,129.94Z" fill="#ff7980"/>
          <path id="Trazado_101923" data-name="Trazado 101923" d="M224.5,124.53a15.691,15.691,0,0,0,2,.57c.28,0,.17-.78.17-.78Z" fill="#ff7980"/>
          <path id="Trazado_101924" data-name="Trazado 101924" d="M225.17,120.33l-.41-.15a4.7,4.7,0,0,0-2.14,1.72c-1.19,1.48-2.44,6.11-2.44,6.11a17,17,0,0,1,1.36-5.47c1.34-2.57,3.08-2.66,3.08-2.66Z" fill="#fff"/>
          <path id="Trazado_101925" data-name="Trazado 101925" d="M224.28,121.62c.06.18-.1.39-.36.47s-.51,0-.57-.17.11-.39.37-.47S224.23,121.45,224.28,121.62Z" fill="#fff"/>
          <path id="Trazado_101926" data-name="Trazado 101926" d="M224,122.69a.188.188,0,0,1-.17.22c-.17.04-.25,0-.27-.08s.05-.18.17-.22a.21.21,0,0,1,.27.08Z" fill="#fff"/>
        </g>
        <g id="Grupo_87640" data-name="Grupo 87640">
          <path id="Trazado_101927" data-name="Trazado 101927" d="M269.36,120.5a2.93,2.93,0,0,0-1.06,1.91,1.9,1.9,0,0,0,1.75,1.94C270.84,124.28,269.36,120.5,269.36,120.5Z" fill="#ff7980"/>
          <path id="Trazado_101928" data-name="Trazado 101928" d="M271.31,127.59a39.168,39.168,0,0,1-2.38-5.72c-.3-1.52,1.8-3.81,2.45-4.1a3,3,0,0,1,2.57.43c.33.46,1.85,3.39,2,8.74a12.75,12.75,0,0,1-4.64.65Z" fill="#ffb0ab"/>
          <path id="Trazado_101929" data-name="Trazado 101929" d="M275.48,126.14s-.09-3.25-.2-3.5-.75,0-.75,0a15,15,0,0,1,.95,3.5Z" fill="#ff7980"/>
          <path id="Trazado_101930" data-name="Trazado 101930" d="M274.22,121.24c0-.2-.13-1.28,0-1.21a5.521,5.521,0,0,1,.51,1.3Z" fill="#ff7980"/>
          <path id="Trazado_101931" data-name="Trazado 101931" d="M270.28,119.39s-.93,1.91-1.13,2.25,1.32,3.46,1.32,3.46a34.3,34.3,0,0,1-.93-3.46C269.59,121.31,270.28,119.39,270.28,119.39Z" fill="#fff"/>
        </g>
      </g>
      <g id="Grupo_87646" data-name="Grupo 87646">
        <g id="Grupo_87642" data-name="Grupo 87642">
          <path id="Trazado_101932" data-name="Trazado 101932" d="M248.89,58.7l-1,1.41L246.61,62c-36.73-10.9-92.18-10.8-92.18-10.8S99,51.08,62.26,62L61,60.11,60,58.7s48.18-18.9,94.46-18.9S248.89,58.7,248.89,58.7Z" fill="#337ade"/>
          <path id="Trazado_101933" data-name="Trazado 101933" d="M247.91,60.11,246.61,62c-36.73-10.9-92.18-10.8-92.18-10.8S99,51.08,62.26,62L61,60.11c7-2.15,51.06-15,93.48-15S240.86,58,247.91,60.11Z" fill="#0059d6"/>
        </g>
        <g id="Grupo_87643" data-name="Grupo 87643">
          <path id="Trazado_101934" data-name="Trazado 101934" d="M51.74,61.49a8.2,8.2,0,0,0,16.38.61v-.61a8.2,8.2,0,0,0-8.2-8.2,8.07,8.07,0,0,0-4.53,1.37,8.17,8.17,0,0,0-3.65,6.83Z" fill="#c17b24"/>
          <path id="Trazado_101935" data-name="Trazado 101935" d="M54.43,58.32A7.37,7.37,0,0,0,68.12,62.1c0-.2,0-.4,0-.61a8.2,8.2,0,0,0-8.2-8.2,8.07,8.07,0,0,0-4.53,1.37,7.33,7.33,0,0,0-.96,3.66Z" fill="#ffb94e"/>
          <circle id="Elipse_4093" data-name="Elipse 4093" cx="4.36" cy="4.36" r="4.36" transform="translate(55.01 57.62)" fill="#0059d6"/>
          <path id="Trazado_101936" data-name="Trazado 101936" d="M55.67,61.5a4.27,4.27,0,1,0,1.247-3.026A4.27,4.27,0,0,0,55.67,61.5Z" fill="#337ade"/>
          <path id="Trazado_101937" data-name="Trazado 101937" d="M59.91,58.7c-.16.41.23.94.87,1.18s1.28.1,1.44-.31-.24-.94-.88-1.18S60.06,58.29,59.91,58.7Z" fill="#fff"/>
        </g>
        <g id="Grupo_87644" data-name="Grupo 87644">
          <path id="Trazado_101938" data-name="Trazado 101938" d="M256.63,61.49a8.2,8.2,0,0,1-16.38.61v-.61a8.2,8.2,0,0,1,8.2-8.2A8.07,8.07,0,0,1,253,54.66,8.17,8.17,0,0,1,256.63,61.49Z" fill="#c17b24"/>
          <path id="Trazado_101939" data-name="Trazado 101939" d="M253.94,58.32a7.37,7.37,0,0,1-13.69,3.78v-.61a8.2,8.2,0,0,1,8.2-8.2A8.07,8.07,0,0,1,253,54.66,7.23,7.23,0,0,1,253.94,58.32Z" fill="#ffb94e"/>
          <circle id="Elipse_4094" data-name="Elipse 4094" cx="4.36" cy="4.36" r="4.36" transform="translate(244.64 57.62)" fill="#0059d6"/>
          <path id="Trazado_101940" data-name="Trazado 101940" d="M252.7,61.5a4.27,4.27,0,1,1-1.247-3.026A4.27,4.27,0,0,1,252.7,61.5Z" fill="#337ade"/>
          <path id="Trazado_101941" data-name="Trazado 101941" d="M248.46,58.7c.16.41-.23.94-.87,1.18s-1.28.1-1.44-.31.24-.94.88-1.18S248.31,58.29,248.46,58.7Z" fill="#fff"/>
        </g>
        <g id="Grupo_87645" data-name="Grupo 87645">
          <path id="Trazado_101942" data-name="Trazado 101942" d="M169.27,45.09a15.08,15.08,0,0,1-30.12,1.1,10,10,0,0,1-.05-1.1A15.1,15.1,0,0,1,154.19,30a14.86,14.86,0,0,1,8.33,2.52A15.07,15.07,0,0,1,169.27,45.09Z" fill="#c17b24"/>
          <path id="Trazado_101943" data-name="Trazado 101943" d="M164.32,39.25a13.54,13.54,0,0,1-25.17,6.94,10,10,0,0,1-.05-1.1A15.1,15.1,0,0,1,154.19,30a14.86,14.86,0,0,1,8.33,2.52,13.46,13.46,0,0,1,1.8,6.73Z" fill="#ffb94e"/>
          <circle id="Elipse_4095" data-name="Elipse 4095" cx="8.01" cy="8.01" r="8.01" transform="translate(147.22 37.97)" fill="#0059d6"/>
          <path id="Trazado_101944" data-name="Trazado 101944" d="M162,45.09a7.86,7.86,0,1,1-7.85-7.85A7.86,7.86,0,0,1,162,45.09Z" fill="#337ade"/>
          <path id="Trazado_101945" data-name="Trazado 101945" d="M154.25,40c.28.75-.44,1.72-1.62,2.16s-2.35.19-2.64-.56.44-1.73,1.62-2.17S154,39.19,154.25,40Z" fill="#fff"/>
        </g>
      </g>
    </g>
  </g>
</svg>
