<svg xmlns="http://www.w3.org/2000/svg" width="244.583" height="237.685" viewBox="0 0 244.583 237.685">
  <g id="Layer_2" data-name="Layer 2" transform="translate(-3.67 -2.263)">
    <circle id="Elipse_4084" data-name="Elipse 4084" cx="116.095" cy="116.095" r="116.095" transform="translate(8.007 7.758)" fill="#feb62b"/>
    <g id="Grupo_87558" data-name="Grupo 87558" transform="translate(5.903 2.263)">
      <g id="Grupo_87548" data-name="Grupo 87548">
        <path id="Trazado_101633" data-name="Trazado 101633" d="M59.5,13.09,55.085,16.5a3.152,3.152,0,0,1-3.588.165c-.519-.329-1.045-.625-1.58-.905a3.16,3.16,0,0,1-1.646-3.2l.691-5.522a3.136,3.136,0,0,0-2.708-3.514l-4.938-.634a3.127,3.127,0,0,0-3.506,2.708l-.716,5.522a3.16,3.16,0,0,1-2.469,2.667c-.593.132-1.177.3-1.761.477a3.144,3.144,0,0,1-3.407-1.078l-3.4-4.444a3.152,3.152,0,0,0-4.4-.568l-3.918,3.037a3.127,3.127,0,0,0-.568,4.395l3.4,4.411a3.136,3.136,0,0,1,.165,3.6c-.321.51-.625,1.037-.905,1.58a3.144,3.144,0,0,1-3.193,1.687L11.1,26.184a3.144,3.144,0,0,0-3.514,2.708L6.955,33.83a3.144,3.144,0,0,0,2.708,3.514l5.555.691A3.136,3.136,0,0,1,17.876,40.5c.14.593.3,1.177.477,1.761a3.136,3.136,0,0,1-1.07,3.424l-4.436,3.374a3.127,3.127,0,0,0-.568,4.395l3.02,3.926a3.136,3.136,0,0,0,4.4.568l4.411-3.4a3.136,3.136,0,0,1,3.588-.173c.519.329,1.045.625,1.58.905a3.16,3.16,0,0,1,1.646,3.2l-.708,5.531a3.127,3.127,0,0,0,2.708,3.506l4.938.634a3.127,3.127,0,0,0,3.506-2.708l.716-5.522a3.16,3.16,0,0,1,2.469-2.667c.593-.132,1.177-.288,1.761-.477a3.144,3.144,0,0,1,3.465,1.086l3.4,4.411a3.136,3.136,0,0,0,4.4.568L61.5,59.821a3.127,3.127,0,0,0,.568-4.395l-3.4-4.411a3.119,3.119,0,0,1-.165-3.588c.321-.519.625-1.045.905-1.58a3.16,3.16,0,0,1,3.152-1.72l5.531.716a3.136,3.136,0,0,0,3.514-2.708l.634-4.938a3.144,3.144,0,0,0-2.708-3.465l-5.531-.716a3.136,3.136,0,0,1-2.658-2.469c-.14-.593-.3-1.177-.477-1.761a3.136,3.136,0,0,1,1.07-3.424l4.411-3.407a3.127,3.127,0,0,0,.568-4.395L63.9,13.674a3.152,3.152,0,0,0-4.4-.584ZM49.85,48.817a16.781,16.781,0,1,1,3.037-23.538A16.781,16.781,0,0,1,49.85,48.817Z" transform="translate(-6.48 -2.368)" fill="#99bdef"/>
        <path id="Trazado_101634" data-name="Trazado 101634" d="M38.166,68.579a4.475,4.475,0,0,1-.469,0l-4.938-.642a3.63,3.63,0,0,1-3.136-4.057l.716-5.531a2.675,2.675,0,0,0-1.432-2.7c-.543-.28-1.086-.593-1.646-.922a2.65,2.65,0,0,0-3.029.14l-4.411,3.4a3.621,3.621,0,0,1-5.086-.658l-2.905-3.942a3.638,3.638,0,0,1,.658-5.086L16.9,45.173a2.634,2.634,0,0,0,.905-2.889c-.181-.593-.346-1.193-.486-1.8a2.675,2.675,0,0,0-2.247-2.066L9.549,37.7a3.63,3.63,0,0,1-3.136-4.066L7.047,28.7a3.63,3.63,0,0,1,4.066-3.136l5.522.716a2.683,2.683,0,0,0,2.7-1.432c.288-.551.6-1.095.93-1.646a2.65,2.65,0,0,0-.206-2.963l-3.407-4.411a3.638,3.638,0,0,1,.658-5.094l3.926-3.02a3.63,3.63,0,0,1,5.086.658l3.424,4.378a2.675,2.675,0,0,0,2.9.905c.584-.189,1.193-.346,1.794-.486a2.667,2.667,0,0,0,2.082-2.214l.708-5.531a3.63,3.63,0,0,1,4.066-3.127l4.938.634a3.63,3.63,0,0,1,3.1,4.057l-.716,5.531a2.675,2.675,0,0,0,1.432,2.7c.543.28,1.086.593,1.646.93a2.667,2.667,0,0,0,3-.107l4.411-3.4a3.63,3.63,0,0,1,5.086.658l3.029,3.918a3.646,3.646,0,0,1-.658,5.094l-4.411,3.358a2.642,2.642,0,0,0-.938,2.9c.181.584.346,1.193.486,1.794a2.675,2.675,0,0,0,2.247,2.066l5.522.716A3.63,3.63,0,0,1,72.6,37.206l-.634,4.938A3.63,3.63,0,0,1,67.9,45.271l-5.522-.716a2.675,2.675,0,0,0-2.7,1.432c-.288.551-.6,1.095-.93,1.646a2.65,2.65,0,0,0,.173,2.971l3.407,4.42a3.629,3.629,0,0,1-.658,5.086l-3.926,3.02a3.621,3.621,0,0,1-5.086-.658l-3.4-4.411a2.675,2.675,0,0,0-2.864-.872c-.584.189-1.193.354-1.794.486a2.667,2.667,0,0,0-2.074,2.247l-.749,5.5A3.621,3.621,0,0,1,38.166,68.579ZM25.927,53.312a3.6,3.6,0,0,1,1.942.56c.5.313,1.021.617,1.539.889a3.646,3.646,0,0,1,1.951,3.7l-.708,5.522a2.642,2.642,0,0,0,2.28,2.963l4.938.634a2.642,2.642,0,0,0,2.963-2.28l.716-5.531a3.671,3.671,0,0,1,2.823-3.078c.584-.132,1.16-.288,1.72-.469a3.654,3.654,0,0,1,3.967,1.243l3.4,4.42a2.658,2.658,0,0,0,3.712.477l3.926-3.029a2.634,2.634,0,0,0,.477-3.712l-3.4-4.411a3.63,3.63,0,0,1-.2-4.115c.313-.5.617-1.021.889-1.547a3.679,3.679,0,0,1,3.7-1.951l5.531.716a2.65,2.65,0,0,0,2.963-2.288l.634-4.938a2.667,2.667,0,0,0-2.313-2.938l-5.522-.708a3.679,3.679,0,0,1-3.086-2.831c-.123-.576-.288-1.152-.461-1.72a3.621,3.621,0,0,1,1.243-3.959l4.411-3.407a2.65,2.65,0,0,0,.477-3.712l-3.02-3.918A2.65,2.65,0,0,0,59.7,13.4l-4.411,3.374a3.646,3.646,0,0,1-4.156.189c-.5-.313-1.021-.609-1.547-.881a3.654,3.654,0,0,1-1.942-3.7l.708-5.531A2.65,2.65,0,0,0,46.075,3.9l-4.938-.634a2.642,2.642,0,0,0-2.971,2.288L37.482,11.1a3.662,3.662,0,0,1-2.823,3.078c-.584.132-1.16.288-1.72.469A3.654,3.654,0,0,1,28.972,13.4l-3.4-4.436a2.65,2.65,0,0,0-3.712-.486l-3.926,3.029a2.634,2.634,0,0,0-.477,3.7l3.424,4.42a3.63,3.63,0,0,1,.2,4.115c-.313.5-.617,1.021-.889,1.547a3.662,3.662,0,0,1-3.7,1.951l-5.531-.716A2.667,2.667,0,0,0,8,28.819l-.634,4.938A2.658,2.658,0,0,0,9.656,36.72l5.465.716a3.662,3.662,0,0,1,3.086,2.823c.123.576.288,1.152.461,1.72a3.646,3.646,0,0,1-1.243,3.967l-4.411,3.4a2.658,2.658,0,0,0-.444,3.728L15.59,57a2.658,2.658,0,0,0,3.712.477l4.411-3.407a3.662,3.662,0,0,1,2.214-.757ZM59.4,12.984Zm-19.876,39.7A17.283,17.283,0,1,1,50.05,49.1h0A17.176,17.176,0,0,1,39.523,52.687Zm-.058-33.563a16.3,16.3,0,1,0,9.991,29.2h0A16.312,16.312,0,0,0,52.4,25.47a16.139,16.139,0,0,0-10.814-6.206,16.724,16.724,0,0,0-2.123-.14ZM49.754,48.753Z" transform="translate(-6.383 -2.263)" fill="#fff"/>
      </g>
      <g id="Grupo_87557" data-name="Grupo 87557" transform="translate(143.378 2.808)">
        <g id="Grupo_87549" data-name="Grupo 87549">
          <circle id="Elipse_4085" data-name="Elipse 4085" cx="28.312" cy="28.312" r="28.312" transform="translate(0 13.334) rotate(-13.62)" fill="#78b4e8"/>
          <path id="Trazado_101635" data-name="Trazado 101635" d="M215.926,69.791a28.806,28.806,0,1,1,28.806-28.806A28.806,28.806,0,0,1,215.926,69.791Zm0-56.615A27.818,27.818,0,1,0,243.752,41a27.818,27.818,0,0,0-27.826-27.821Z" transform="translate(-181.748 -6.826)" fill="#fff"/>
        </g>
        <g id="Grupo_87553" data-name="Grupo 87553">
          <g id="Grupo_87550" data-name="Grupo 87550">
            <circle id="Elipse_4086" data-name="Elipse 4086" cx="28.312" cy="28.312" r="28.312" transform="translate(0 13.334) rotate(-13.62)" fill="#d2e6f7"/>
            <path id="Trazado_101636" data-name="Trazado 101636" d="M215.926,69.791a28.806,28.806,0,1,1,28.806-28.806A28.806,28.806,0,0,1,215.926,69.791Zm0-56.615A27.818,27.818,0,1,0,243.752,41a27.818,27.818,0,0,0-27.826-27.821Z" transform="translate(-181.748 -6.826)" fill="#fff"/>
          </g>
          <g id="Grupo_87551" data-name="Grupo 87551" transform="translate(0.644 0.627)">
            <path id="Trazado_101637" data-name="Trazado 101637" d="M241.645,61.954a3.794,3.794,0,0,0-1.235-.823,33.126,33.126,0,1,0-5.16,4.988,3.761,3.761,0,0,0,.922,1.424l3.292,3.292,5.531-5.539Zm-26.658,6.4A28.312,28.312,0,1,1,243.3,40.045,28.312,28.312,0,0,1,214.987,68.357Z" transform="translate(-181.453 -6.505)" fill="#78b4e8"/>
            <path id="Trazado_101638" data-name="Trazado 101638" d="M214.909,73.5A33.53,33.53,0,1,1,241.1,60.907a4.329,4.329,0,0,1,.823.634h0l3.728,3.646-6.23,6.23L235.748,67.8a4.329,4.329,0,0,1-.765-1A33.192,33.192,0,0,1,214.909,73.5Zm0-66.072a32.548,32.548,0,1,0,0,65.1,32.188,32.188,0,0,0,19.958-6.852l.527-.4.23.617a3.415,3.415,0,0,0,.823,1.243l2.971,2.913,4.848-4.848-3.02-2.955h0a3.465,3.465,0,0,0-1.086-.716l-.609-.255.42-.51A32.542,32.542,0,0,0,214.925,7.427Zm0,61.348a28.806,28.806,0,1,1,28.806-28.806A28.806,28.806,0,0,1,214.909,68.775Zm0-56.615A27.818,27.818,0,1,0,242.735,39.98,27.818,27.818,0,0,0,214.909,12.16Z" transform="translate(-181.375 -6.437)" fill="#fff"/>
          </g>
          <g id="Grupo_87552" data-name="Grupo 87552" transform="translate(57.71 57.939)">
            <path id="Trazado_101639" data-name="Trazado 101639" d="M263.753,81.342l-4.395-4.4a.963.963,0,0,0-1.366,0l-.675.675-5.531,5.539-.2.2a.955.955,0,0,0,0,1.358l4.4,4.4a.955.955,0,0,0,1.358,0l6.4-6.411a.963.963,0,0,0,0-1.358Z" transform="translate(-250.818 -76.176)" fill="#78b4e8"/>
            <path id="Trazado_101640" data-name="Trazado 101640" d="M256.562,89.782a1.424,1.424,0,0,1-1.029-.428l-4.395-4.395a1.457,1.457,0,0,1,0-2.058l6.395-6.4a1.457,1.457,0,0,1,2.058,0l4.395,4.395a1.448,1.448,0,0,1,0,2.058l-6.4,6.4A1.44,1.44,0,0,1,256.562,89.782ZM258.57,77.05a.461.461,0,0,0-.329.14L251.83,83.6a.477.477,0,0,0,0,.667l4.395,4.395a.477.477,0,0,0,.667,0l6.4-6.411a.444.444,0,0,0,.14-.329.477.477,0,0,0-.14-.337L258.9,77.19A.494.494,0,0,0,258.57,77.05Z" transform="translate(-250.713 -76.073)" fill="#fff"/>
          </g>
        </g>
        <g id="Grupo_87554" data-name="Grupo 87554" transform="translate(59.563 59.605)">
          <path id="Trazado_101641" data-name="Trazado 101641" d="M285.426,102.256,262.152,78.734c-.173-.173-1.045.469-2.181,1.465a56.961,56.961,0,0,0-5.465,5.6c-.675.823-1.062,1.44-.922,1.588l23.267,23.522a6.024,6.024,0,0,0,8.568,0,6.173,6.173,0,0,0,.008-8.658Z" transform="translate(-253.069 -78.205)" fill="#78b4e8"/>
          <path id="Trazado_101642" data-name="Trazado 101642" d="M281.034,113.086a6.452,6.452,0,0,1-4.625-1.934L253.142,87.63c-.436-.436-.041-1.095.889-2.239a55.266,55.266,0,0,1,5.547-5.671c1.942-1.712,2.469-1.827,2.856-1.44L285.668,101.8a6.666,6.666,0,0,1,0,9.349,6.461,6.461,0,0,1-4.634,1.934ZM254.006,87.07,277.1,110.428a5.522,5.522,0,0,0,7.868,0,5.679,5.679,0,0,0,0-7.967L261.882,79.153a10.345,10.345,0,0,0-1.646,1.309,55.66,55.66,0,0,0-5.415,5.547A7.964,7.964,0,0,0,254.006,87.07ZM261.709,78.939Z" transform="translate(-252.964 -78.097)" fill="#fff"/>
        </g>
        <g id="Grupo_87555" data-name="Grupo 87555" transform="translate(86.645 86.199)">
          <circle id="Elipse_4087" data-name="Elipse 4087" cx="1.72" cy="1.72" r="1.72" transform="translate(0.486 0.486)" fill="#78b4e8"/>
          <path id="Trazado_101643" data-name="Trazado 101643" d="M288.076,114.821a2.206,2.206,0,1,1,2.206-2.206,2.206,2.206,0,0,1-2.206,2.206Zm0-3.432a1.226,1.226,0,1,0,1.226,1.226,1.226,1.226,0,0,0-1.226-1.226Z" transform="translate(-285.87 -110.41)" fill="#fff"/>
        </g>
        <g id="Grupo_87556" data-name="Grupo 87556" transform="translate(67.391 63.892)">
          <line id="Línea_141" data-name="Línea 141" x2="15.415" y2="15.407" transform="translate(0.489 0.489)" fill="#78b4e8"/>
          <path id="Trazado_101644" data-name="Trazado 101644" d="M278.38,99.7a.519.519,0,0,1-.354-.14L262.619,84.141a.489.489,0,0,1,.691-.691l15.415,15.407a.5.5,0,0,1,0,.7A.518.518,0,0,1,278.38,99.7Z" transform="translate(-262.476 -83.306)" fill="#fff"/>
        </g>
        <path id="Trazado_101645" data-name="Trazado 101645" d="M237.521,29.045a.5.5,0,0,1-.37-.165c-12.065-13.563-27.859-5.72-28.024-5.638a.49.49,0,1,1-.444-.872c.165-.082,16.633-8.23,29.2,5.852a.5.5,0,0,1,0,.7.51.51,0,0,1-.362.123Z" transform="translate(-185.517 -8.202)" fill="#fff"/>
      </g>
      <path id="Trazado_101646" data-name="Trazado 101646" d="M110.039,51.449l-2.132,2.93a2.058,2.058,0,0,1-2.214.757,11.186,11.186,0,0,0-1.152-.28,2.058,2.058,0,0,1-1.646-1.687l-.576-3.539a2.041,2.041,0,0,0-2.329-1.7l-3.185.494a2.041,2.041,0,0,0-1.7,2.329l.625,3.539A2.058,2.058,0,0,1,94.7,56.4q-.518.288-1.012.617a2.033,2.033,0,0,1-2.337-.049L88.426,54.84a2.041,2.041,0,0,0-2.848.453L83.645,57.86a2.041,2.041,0,0,0,.444,2.848l2.93,2.14a2.025,2.025,0,0,1,.757,2.206c-.107.379-.206.765-.28,1.152a2.049,2.049,0,0,1-1.646,1.646l-3.58.56a2.041,2.041,0,0,0-1.7,2.329l.5,3.177a2.033,2.033,0,0,0,2.313,1.712l3.572-.56a2.049,2.049,0,0,1,2.107,1.045q.3.519.617,1.012a2.033,2.033,0,0,1-.041,2.329l-2.14,2.93a2.033,2.033,0,0,0,.444,2.848l2.6,1.893a2.041,2.041,0,0,0,2.831-.461l2.132-2.93a2.041,2.041,0,0,1,2.206-.757,11.728,11.728,0,0,0,1.152.28,2.058,2.058,0,0,1,1.646,1.687l.56,3.58a2.041,2.041,0,0,0,2.329,1.7l3.177-.494a2.049,2.049,0,0,0,1.7-2.329l-.568-3.58a2.049,2.049,0,0,1,1.037-2.09,11.335,11.335,0,0,0,1.012-.617,2.033,2.033,0,0,1,2.337.049l2.922,2.132a2.049,2.049,0,0,0,2.848-.444l1.893-2.6a2.033,2.033,0,0,0-.444-2.848l-2.922-2.14a2.025,2.025,0,0,1-.757-2.206c.107-.379.2-.765.272-1.152a2.066,2.066,0,0,1,1.646-1.646l3.58-.56a2.033,2.033,0,0,0,1.753-2.321L122.4,64.2a2.041,2.041,0,0,0-2.329-1.7l-3.58.56a2.058,2.058,0,0,1-2.107-1.045c-.189-.346-.4-.675-.617-1.012a2.041,2.041,0,0,1,.074-2.321l2.132-2.93a2.041,2.041,0,0,0-.486-2.831l-2.6-1.893A2.041,2.041,0,0,0,110.039,51.449Zm.51,24.04a10.9,10.9,0,1,1,1.964-8.112,10.9,10.9,0,0,1-1.964,8.112Z" transform="translate(-19.509 -10.342)" fill="#dffaf1"/>
      <path id="Trazado_101647" data-name="Trazado 101647" d="M144.039,56.17a2.551,2.551,0,0,1-1.481-.486,2.51,2.51,0,0,1-1-1.646l-.568-3.58a1.58,1.58,0,0,0-1.259-1.284,10.978,10.978,0,0,1-1.193-.288,1.572,1.572,0,0,0-1.646.576l-2.132,2.93a2.527,2.527,0,0,1-3.531.551l-2.6-1.893a2.535,2.535,0,0,1-.551-3.539L130.2,44.59a1.547,1.547,0,0,0,0-1.769c-.222-.346-.444-.7-.634-1.053a1.58,1.58,0,0,0-1.6-.823l-3.58.56A2.535,2.535,0,0,1,121.5,39.4L121,36.22a2.518,2.518,0,0,1,2.107-2.889l3.572-.56a1.58,1.58,0,0,0,1.284-1.251c.082-.4.181-.823.288-1.193a1.531,1.531,0,0,0-.576-1.646l-2.922-2.14a2.527,2.527,0,0,1-.551-3.531l1.893-2.6a2.535,2.535,0,0,1,3.531-.551l2.93,2.156a1.547,1.547,0,0,0,1.769,0c.337-.222.691-.436,1.045-.634a1.572,1.572,0,0,0,.823-1.6l-.56-3.58a2.527,2.527,0,0,1,2.1-2.889l3.185-.494a2.527,2.527,0,0,1,2.889,2.107l.56,3.572a1.556,1.556,0,0,0,1.251,1.284c.4.082.823.181,1.185.288a1.539,1.539,0,0,0,1.646-.576l2.173-2.913a2.527,2.527,0,0,1,3.531-.551l2.6,1.893a2.527,2.527,0,0,1,.56,3.531l-2.14,2.93a1.564,1.564,0,0,0,0,1.769c.23.337.444.691.642,1.045a1.572,1.572,0,0,0,1.646.823l3.572-.56a2.518,2.518,0,0,1,2.757,2.082l.5,3.177a2.535,2.535,0,0,1-2.107,2.889l-3.58.56a1.58,1.58,0,0,0-1.284,1.251,10.388,10.388,0,0,1-.288,1.185,1.572,1.572,0,0,0,.576,1.646l2.93,2.132a2.527,2.527,0,0,1,.551,3.531l-1.893,2.6a2.535,2.535,0,0,1-3.539.56l-2.922-2.132a1.564,1.564,0,0,0-1.778,0,12.247,12.247,0,0,1-1.045.642,1.58,1.58,0,0,0-.823,1.646l.56,3.572a2.518,2.518,0,0,1-2.107,2.889l-3.177.5a3.3,3.3,0,0,1-.33-.016Zm-5.926-8.329a2.469,2.469,0,0,1,.691.1q.56.165,1.111.272a2.551,2.551,0,0,1,2.025,2.09l.56,3.572a1.547,1.547,0,0,0,.617,1.012,1.531,1.531,0,0,0,1.152.28l3.185-.494a1.547,1.547,0,0,0,1-.617,1.531,1.531,0,0,0,.28-1.152l-.584-3.58a2.543,2.543,0,0,1,1.317-2.617c.329-.189.658-.387.971-.6a2.551,2.551,0,0,1,2.9.058l2.93,2.132a1.5,1.5,0,0,0,1.144.28,1.514,1.514,0,0,0,1.012-.617l1.9-2.6a1.547,1.547,0,0,0-.337-2.156l-2.93-2.14a2.518,2.518,0,0,1-.938-2.741,10.369,10.369,0,0,0,.263-1.111,2.568,2.568,0,0,1,2.1-2.025l3.572-.56a1.547,1.547,0,0,0,1.292-1.769l-.5-3.177a1.547,1.547,0,0,0-1.761-1.292l-3.58.56a2.535,2.535,0,0,1-2.609-1.284c-.189-.337-.387-.658-.6-.979a2.551,2.551,0,0,1,.058-2.9l2.132-2.922a1.514,1.514,0,0,0,.28-1.152,1.555,1.555,0,0,0-.617-1.012l-2.6-1.893a1.539,1.539,0,0,0-2.156.337h0l-2.14,2.93a2.543,2.543,0,0,1-2.741.946,10.587,10.587,0,0,0-1.111-.272,2.551,2.551,0,0,1-2.025-2.09l-.56-3.58a1.547,1.547,0,0,0-1.769-1.292l-3.177.494a1.556,1.556,0,0,0-1.292,1.769l.56,3.58a2.551,2.551,0,0,1-1.284,2.609c-.329.181-.658.387-.979.593a2.527,2.527,0,0,1-2.9-.058l-2.922-2.132a1.588,1.588,0,0,0-1.152-.28,1.564,1.564,0,0,0-1.012.617l-1.893,2.6a1.547,1.547,0,0,0,.337,2.165l2.922,2.132a2.543,2.543,0,0,1,.971,2.749q-.156.551-.272,1.111a2.535,2.535,0,0,1-2.09,2.025l-3.58.56a1.588,1.588,0,0,0-1.012.617A1.556,1.556,0,0,0,122,36.088l.494,3.185a1.547,1.547,0,0,0,1.769,1.284l3.58-.56a2.543,2.543,0,0,1,2.609,1.292c.181.329.379.658.593.971a2.527,2.527,0,0,1-.058,2.9l-2.132,2.93a1.547,1.547,0,0,0,.337,2.156l2.6,1.9a1.555,1.555,0,0,0,2.165-.337l2.132-2.93a2.551,2.551,0,0,1,2.025-1.037Zm12.872-30.978Zm-8.345,29.02a11.4,11.4,0,1,1,9.226-4.683h0a11.407,11.407,0,0,1-9.226,4.683Zm0-21.81a10.411,10.411,0,1,0,8.436,16.543h0a10.419,10.419,0,0,0-8.4-16.551Zm8.806,16.872Z" transform="translate(-26.663 -4.125)" fill="#fff"/>
    </g>
    <g id="Grupo_87569" data-name="Grupo 87569" transform="translate(106.522 54.823)">
      <g id="Grupo_87559" data-name="Grupo 87559" transform="translate(0 78.396)">
        <path id="Trazado_101648" data-name="Trazado 101648" d="M238.192,165.314h0l-23.045-3.934-29.225,8.642-12.477-4.6c-1.737.428-3.292.823-4.708,1.292h0s-45.068,7.2-39.645,47.093l25.193.6a19.258,19.258,0,0,0,1.259,2.938l9.053,29.818h73.8l.683-24.328,22.411,14.419a4.387,4.387,0,0,0,6.741-3.292c.946-10.354,2.09-28.575,2.107-29.053C271.541,171.766,238.192,165.314,238.192,165.314Z" transform="translate(-128.64 -161.38)" fill="#0059d6"/>
        <path id="Trazado_101649" data-name="Trazado 101649" d="M161.679,230.619a.486.486,0,0,1-.477-.362l-4.485-17.489a.494.494,0,0,1,.354-.6.486.486,0,0,1,.593.354l4.494,17.489a.5.5,0,0,1-.354.6Z" transform="translate(-133.606 -170.366)" fill="#12263f"/>
        <path id="Trazado_101650" data-name="Trazado 101650" d="M263.468,231.964a.519.519,0,0,1-.3-.1L249.4,221.281a6.831,6.831,0,0,1-3-5L245,202.393a.5.5,0,0,1,.436-.543.51.51,0,0,1,.543.436l1.416,13.9a5.876,5.876,0,0,0,2.593,4.3l13.794,10.609a.486.486,0,0,1,.091.683A.5.5,0,0,1,263.468,231.964Z" transform="translate(-149.233 -168.542)" fill="#12263f"/>
      </g>
      <g id="Grupo_87567" data-name="Grupo 87567" transform="translate(28.445)">
        <g id="Grupo_87560" data-name="Grupo 87560" transform="translate(3.792 19.046)">
          <path id="Trazado_101651" data-name="Trazado 101651" d="M212.162,106.1h0l-6.8-.239a8.156,8.156,0,0,0-7.621,4.658l1.317-19.308s-6.806,3.942-15.736-1.218c0,0-10.271-3.407-13.489,4.535v.239l-1.975,28.7a19.985,19.985,0,0,0,16.3,21.308l2.3,11.4a15.777,15.777,0,0,0,18.625,12.164l.354-.074c8.543-1.72,15.843-8.181,14.148-16.592l-6.716-27.9,1.572.049a8.889,8.889,0,0,0,9.168-8.543v-.65a8.173,8.173,0,0,0-7.835-8.4Z" transform="translate(-167.809 -89.267)" fill="#ffaa89"/>
          <path id="Trazado_101652" data-name="Trazado 101652" d="M187.83,155.267s17.242-2.049,19.094-8.617h0s2.321,9.16-17.489,17.44Z" transform="translate(-171.352 -99.423)" fill="#ff6a48"/>
        </g>
        <g id="Grupo_87561" data-name="Grupo 87561">
          <path id="Trazado_101653" data-name="Trazado 101653" d="M222.831,136.775a14.263,14.263,0,0,1,1.3-5.44l-7.481-.255Z" transform="translate(-172.66 -77.621)" fill="#12263f"/>
          <path id="Trazado_101654" data-name="Trazado 101654" d="M211.857,81.832s4.658-8.14-7.819-13.991-17.069,5.144-17.069,5.144-1.481-10.1-16.584-5.2-1.7,23.6-1.7,23.6c.107-.337.214-.642.337-.938,3.218-7.942,13.489-4.535,13.489-4.535,8.93,5.16,15.736,1.218,15.736,1.218l-1.169,17.143c-.51,3.424-1.185,7.967-1.646,11.21a3.292,3.292,0,0,1-4.461,2.551l-10.806-4.354a3.292,3.292,0,0,0-1.646-.214l-8.535,1.062a3.292,3.292,0,0,0-2.864,2.988l-.642,8.189a15.374,15.374,0,0,0,15.637,16.567l4.765-.107a3.366,3.366,0,0,0,.955-.165l1.2-.074A17.5,17.5,0,0,0,204.005,117.3h0a3.292,3.292,0,0,1-.6-2.033l.494-12.5a3.144,3.144,0,0,0-.115-.971h.741l6.8.239,3.613.123a8.074,8.074,0,0,1,5.267,2.214c2.156-5.424,4.049-10.773,4.6-14.1C226.309,81.256,211.857,81.832,211.857,81.832Z" transform="translate(-163.201 -66.126)" fill="#12263f"/>
        </g>
        <g id="Grupo_87566" data-name="Grupo 87566" transform="translate(1.143 25.792)">
          <path id="Trazado_101655" data-name="Trazado 101655" d="M226.282,122.751a.477.477,0,0,1-.272-.082l-2.839-1.852a.486.486,0,0,1-.1-.741l3.037-3.383a.494.494,0,1,1,.732.65l-2.658,2.963,2.362,1.539a.494.494,0,0,1,.148.683.51.51,0,0,1-.412.222Z" transform="translate(-174.917 -100.828)" fill="#ff6a48"/>
          <g id="Grupo_87563" data-name="Grupo 87563" transform="translate(5.453 11.569)">
            <path id="Trazado_101656" data-name="Trazado 101656" d="M171.662,112.985a1.844,1.844,0,1,0,2.2-1.424A1.844,1.844,0,0,0,171.662,112.985Z" transform="translate(-171.288 -111.52)" fill="#12263f"/>
            <path id="Trazado_101657" data-name="Trazado 101657" d="M187.79,113.388a1.852,1.852,0,1,0,1.835-1.868A1.852,1.852,0,0,0,187.79,113.388Z" transform="translate(-174.149 -111.52)" fill="#12263f"/>
            <g id="Grupo_87562" data-name="Grupo 87562" transform="translate(13.515 2.86)">
              <path id="Trazado_101658" data-name="Trazado 101658" d="M191.482,116.145a2.625,2.625,0,0,0-3.292,0" transform="translate(-187.735 -115.096)" fill="#ffa386"/>
              <path id="Trazado_101659" data-name="Trazado 101659" d="M188.125,116.546a.5.5,0,0,1-.387-.189.486.486,0,0,1,.091-.683,3.1,3.1,0,0,1,3.868,0,.488.488,0,1,1-.617.757,2.14,2.14,0,0,0-2.65,0,.519.519,0,0,1-.3.115Z" transform="translate(-187.637 -114.995)" fill="#ff6a48"/>
            </g>
            <path id="Trazado_101660" data-name="Trazado 101660" d="M171.68,117.058a.494.494,0,0,1-.337-.823,2.831,2.831,0,0,1,3.7-.239.494.494,0,0,1-.6.774,1.844,1.844,0,0,0-2.428.189.5.5,0,0,1-.329.1Z" transform="translate(-171.216 -112.211)" fill="#ff6a48"/>
          </g>
          <path id="Trazado_101661" data-name="Trazado 101661" d="M170.787,117.947c-3.424,0-6.2-3.185-6.2-7.1s2.774-7.094,6.2-7.094,6.2,3.185,6.2,7.094S174.2,117.947,170.787,117.947Zm0-13.218c-2.881,0-5.218,2.741-5.218,6.115s2.337,6.115,5.218,6.115,5.218-2.741,5.218-6.115-2.346-6.148-5.218-6.148Z" transform="translate(-164.59 -98.576)" fill="#fff"/>
          <g id="Grupo_87564" data-name="Grupo 87564" transform="translate(8.14 8.688)">
            <path id="Trazado_101662" data-name="Trazado 101662" d="M179.959,108.62v6.42h-3.292a1.547,1.547,0,0,0-1.547,1.547v.708a3.037,3.037,0,0,0,3.037,3.037h3.037" transform="translate(-174.593 -108.126)" fill="#ffaa89"/>
            <path id="Trazado_101663" data-name="Trazado 101663" d="M181.048,120.719h-3.037a3.539,3.539,0,0,1-3.531-3.531v-.708a2.049,2.049,0,0,1,2.041-2.041h2.848v-5.926a.494.494,0,0,1,.494-.494.486.486,0,0,1,.486.494v6.9h-3.794a1.062,1.062,0,0,0-1.062,1.062v.708a2.551,2.551,0,0,0,2.551,2.543h3.037a.494.494,0,1,1,0,.988Z" transform="translate(-174.48 -108.02)" fill="#ff6a48"/>
          </g>
          <path id="Trazado_101664" data-name="Trazado 101664" d="M188.957,117.357c-3.416,0-6.2-3.185-6.2-7.094s2.782-7.1,6.2-7.1,6.2,3.185,6.2,7.1S192.373,117.357,188.957,117.357Zm0-13.218c-2.881,0-5.218,2.749-5.218,6.123s2.337,6.115,5.218,6.115,5.218-2.741,5.218-6.115S191.83,104.139,188.957,104.139Z" transform="translate(-167.806 -98.472)" fill="#fff"/>
          <g id="Grupo_87565" data-name="Grupo 87565" transform="translate(3.103)">
            <path id="Trazado_101665" data-name="Trazado 101665" d="M194.615,102.791a4.692,4.692,0,0,1-1.934-.362c-.667-.214-1.342-.411-1.934-.568s-1.284-.313-1.967-.444a4.65,4.65,0,0,1-1.86-.634c-.453-.346-.5-1.021.3-1.646a5.457,5.457,0,0,1,4.42-.5,5.275,5.275,0,0,1,3.555,2.576C195.57,102.182,195.158,102.709,194.615,102.791Z" transform="translate(-171.587 -97.626)" fill="#12263f"/>
            <path id="Trazado_101666" data-name="Trazado 101666" d="M168.813,100.629a3.235,3.235,0,0,0,1.539,0c.543-.082,1.095-.148,1.572-.181s1.029-.066,1.572-.066a3.333,3.333,0,0,0,1.523-.255c.4-.23.519-.823,0-1.465a3.992,3.992,0,0,0-3.341-1.169,3.909,3.909,0,0,0-3.086,1.646C168.162,99.913,168.385,100.465,168.813,100.629Z" transform="translate(-168.36 -97.463)" fill="#12263f"/>
          </g>
          <path id="Trazado_101667" data-name="Trazado 101667" d="M182.714,111.449h-2.527a.494.494,0,0,1,0-.979h2.527a.494.494,0,1,1,0,.979Z" transform="translate(-167.274 -99.764)" fill="#fff"/>
          <path id="Trazado_101668" data-name="Trazado 101668" d="M197.115,110.853a.491.491,0,0,1-.041-.979l15.02-1.424a.5.5,0,0,1,.535.444.494.494,0,0,1-.444.535l-15.02,1.416Z" transform="translate(-170.26 -99.407)" fill="#fff"/>
          <path id="Trazado_101669" data-name="Trazado 101669" d="M185.92,133.2h-.058l-5.885-.074a.494.494,0,0,1,0-.979h0l5.893.074a3.564,3.564,0,0,0,3.49-2.732l.955.222a4.543,4.543,0,0,1-4.395,3.49Z" transform="translate(-167.237 -103.131)" fill="#ff6a48"/>
        </g>
      </g>
      <g id="Grupo_87568" data-name="Grupo 87568" transform="translate(41.258 72.783)">
        <path id="Trazado_101670" data-name="Trazado 101670" d="M186.317,159.53l-7.547,6.527L179.9,181.48a.946.946,0,0,0,1.58.642l13.884-12.345Z" transform="translate(-178.77 -155.44)" fill="#fff"/>
        <path id="Trazado_101671" data-name="Trazado 101671" d="M222.851,154.56,198.16,168.8l9.876,16.65a1.465,1.465,0,0,0,2.189.362l24.016-20.329Z" transform="translate(-182.202 -154.56)" fill="#fff"/>
        <path id="Trazado_101672" data-name="Trazado 101672" d="M184.35,182.714,190.877,196l14.148-8.428-9.053-15.209Z" transform="translate(-179.758 -157.71)" fill="#12263f"/>
      </g>
    </g>
    <g id="Grupo_87583" data-name="Grupo 87583" transform="translate(3.67 63.189)">
      <g id="Grupo_87581" data-name="Grupo 87581">
        <path id="Trazado_101673" data-name="Trazado 101673" d="M76.573,97.671,61.3,97.778H41.356V90.371a15.325,15.325,0,0,0-.247-2.905c-2.6-14.609-24-14.674-26.839-.107a15.407,15.407,0,0,0-.288,2.971v8.9h0l.041,6.584c0,7-4.485,13-10.354,14.3a9.324,9.324,0,0,0,1.416.074H7.02l56.961.074c7.02-.049,12.666-6.518,12.625-14.444Z" transform="translate(-3.67 -76.322)" fill="#12263f"/>
        <g id="Grupo_87580" data-name="Grupo 87580" transform="translate(24.007)">
          <g id="Grupo_87571" data-name="Grupo 87571" transform="translate(0)">
            <path id="Trazado_101674" data-name="Trazado 101674" d="M128.047,97.532A21.127,21.127,0,0,0,114.286,77.7a15.547,15.547,0,0,0-6.378-1.407l-47.348.058H33.038a15.637,15.637,0,0,1,13.5,14.526h0V238.186a13,13,0,0,0,13.078,12.938H128.03V191.735h0Z" transform="translate(-32.84 -76.29)" fill="#fff"/>
            <g id="Grupo_87570" data-name="Grupo 87570" transform="translate(27.244 70.615)">
              <path id="Trazado_101675" data-name="Trazado 101675" d="M122.062,172.609H66.5a.494.494,0,1,1,0-.979h55.562a.494.494,0,0,1,0,.979Z" transform="translate(-65.943 -163.778)" fill="#12263f"/>
              <path id="Trazado_101676" data-name="Trazado 101676" d="M108.642,163.069H85.236a.477.477,0,0,1-.486-.486.486.486,0,0,1,.486-.494h23.407a.494.494,0,0,1,.494.494.486.486,0,0,1-.494.486Z" transform="translate(-69.271 -162.09)" fill="#12263f"/>
              <path id="Trazado_101677" data-name="Trazado 101677" d="M122.076,186.609H66.514a.494.494,0,0,1-.494-.494.486.486,0,0,1,.494-.486h55.562a.477.477,0,0,1,.486.486.486.486,0,0,1-.486.494Z" transform="translate(-65.956 -166.256)" fill="#12263f"/>
              <path id="Trazado_101678" data-name="Trazado 101678" d="M122.076,200.609H66.514a.494.494,0,0,1-.494-.494.486.486,0,0,1,.494-.486h55.562a.477.477,0,0,1,.486.486.486.486,0,0,1-.486.494Z" transform="translate(-65.956 -168.734)" fill="#12263f"/>
              <path id="Trazado_101679" data-name="Trazado 101679" d="M122.076,213.709H66.514a.494.494,0,0,1-.494-.494.486.486,0,0,1,.494-.486h55.562a.477.477,0,0,1,.486.486.486.486,0,0,1-.486.494Z" transform="translate(-65.956 -171.052)" fill="#12263f"/>
            </g>
          </g>
          <g id="Grupo_87579" data-name="Grupo 87579" transform="translate(20.824 16.348)">
            <path id="Trazado_101680" data-name="Trazado 101680" d="M92.333,97.476h0a1.9,1.9,0,0,0-3.712.593h0a1.9,1.9,0,0,1-3.448,1.119h0a1.9,1.9,0,0,0-3.35,1.7h0a1.9,1.9,0,0,1-2.889,2.132h0a1.9,1.9,0,0,0-2.658,2.658h0a1.9,1.9,0,0,1-2.123,2.93h0a1.9,1.9,0,0,0-1.712,3.35h0a1.9,1.9,0,0,1-1.119,3.44h0a1.9,1.9,0,0,0-.584,3.712h0a1.909,1.909,0,0,1,0,3.63h0a1.9,1.9,0,0,0,.543,3.736h0a1.9,1.9,0,0,1,1.119,3.44h0a1.9,1.9,0,0,0,1.712,3.35h0a1.9,1.9,0,0,1,2.123,2.93h0a1.9,1.9,0,0,0,2.7,2.625h0a1.9,1.9,0,0,1,2.93,2.132h0a1.9,1.9,0,0,0,3.35,1.7h0a1.9,1.9,0,0,1,3.407,1.1h0a1.9,1.9,0,0,0,3.712.593h0a1.9,1.9,0,0,1,3.621,0h0a1.9,1.9,0,0,0,3.712-.593h0a1.9,1.9,0,0,1,3.448-1.119h0a1.9,1.9,0,0,0,3.35-1.7h0a1.9,1.9,0,0,1,2.922-2.115h0a1.9,1.9,0,0,0,2.658-2.658h0a1.9,1.9,0,0,1,2.123-2.93h0a1.9,1.9,0,0,0,1.712-3.35h0a1.9,1.9,0,0,1,1.119-3.44h0a1.9,1.9,0,0,0,.584-3.712h0a1.909,1.909,0,0,1,0-3.63h0a1.9,1.9,0,0,0-.584-3.712h0a1.9,1.9,0,0,1-1.119-3.44h0a1.9,1.9,0,0,0-1.712-3.35h0a1.9,1.9,0,0,1-2.123-2.93h0a1.9,1.9,0,0,0-2.658-2.65h0a1.9,1.9,0,0,1-2.93-2.132h0a1.9,1.9,0,0,0-3.35-1.7h0a1.9,1.9,0,0,1-3.448-1.119h0a1.9,1.9,0,0,0-3.712-.593h0a1.9,1.9,0,0,1-3.613,0Z" transform="translate(-60.122 -96.154)" fill="#ffe2aa"/>
            <path id="Trazado_101681" data-name="Trazado 101681" d="M69.95,104.2a.477.477,0,0,1-.3-.107L65.02,100.4a.489.489,0,1,1,.609-.765l4.625,3.687a.494.494,0,0,1,.082.691A.51.51,0,0,1,69.95,104.2Z" transform="translate(-59.327 -96.752)" fill="#12263f"/>
            <path id="Trazado_101682" data-name="Trazado 101682" d="M58.634,126.028a.494.494,0,0,1-.477-.379.486.486,0,0,1,.362-.593l5.761-1.35a.494.494,0,0,1,.593.362.5.5,0,0,1-.37.593l-5.761,1.35Z" transform="translate(-58.142 -101.028)" fill="#12263f"/>
            <path id="Trazado_101683" data-name="Trazado 101683" d="M65.389,114.655h-.132l-5.7-1.572a.494.494,0,0,1-.337-.6.486.486,0,0,1,.6-.346l5.7,1.531a.486.486,0,0,1,.346.6.51.51,0,0,1-.477.387Z" transform="translate(-58.329 -98.979)" fill="#12263f"/>
            <path id="Trazado_101684" data-name="Trazado 101684" d="M132.345,125.687a.477.477,0,0,1-.486-.444.494.494,0,0,1,.444-.535l5.9-.477a.494.494,0,0,1,.082.979l-5.9.477Z" transform="translate(-71.188 -101.123)" fill="#12263f"/>
            <path id="Trazado_101685" data-name="Trazado 101685" d="M131.443,114.649a.51.51,0,0,1-.477-.362.486.486,0,0,1,.346-.6l5.7-1.58a.486.486,0,0,1,.6.346.494.494,0,0,1-.337.6l-5.7,1.572Z" transform="translate(-71.027 -98.974)" fill="#12263f"/>
            <path id="Trazado_101686" data-name="Trazado 101686" d="M135.765,137.081a.428.428,0,0,1-.222-.058l-5.251-2.724a.494.494,0,0,1-.214-.667.486.486,0,0,1,.667-.206L136,136.151a.494.494,0,0,1-.23.93Z" transform="translate(-70.864 -102.74)" fill="#12263f"/>
            <path id="Trazado_101687" data-name="Trazado 101687" d="M125.736,104.033a6.938,6.938,0,1,1-6.954-6.913,6.955,6.955,0,0,1,6.954,6.913Zm-12.345.049a5.424,5.424,0,0,0,5.432,5.481,5.506,5.506,0,1,0-5.432-5.481Zm7.753-1.432h0a.922.922,0,0,1-1.218.206,1.588,1.588,0,0,0-.872-.313,1.49,1.49,0,0,0,0,2.963,1.778,1.778,0,0,0,.905-.3.889.889,0,0,1,1.1.156h0a.889.889,0,0,1-.148,1.35,3.761,3.761,0,0,1-2.008.617,3.243,3.243,0,0,1-3.407-3.292,3.292,3.292,0,0,1,3.49-3.292,3.893,3.893,0,0,1,1.942.56.881.881,0,0,1,.181,1.342Z" transform="translate(-67.649 -96.325)" fill="#12263f"/>
            <g id="Grupo_87578" data-name="Grupo 87578" transform="translate(15.809 13.659)">
              <g id="Grupo_87576" data-name="Grupo 87576">
                <g id="Grupo_87574" data-name="Grupo 87574" transform="translate(4.44 14.197)">
                  <path id="Trazado_101688" data-name="Trazado 101688" d="M84.074,134.263a.905.905,0,0,1,.148-1.152l2.263-2.288L85.663,130l-2.272,2.272a2.107,2.107,0,0,0,0,3.037l.181.181h21.761v-1.218Z" transform="translate(-82.745 -130)" fill="#12263f"/>
                  <g id="Grupo_87572" data-name="Grupo 87572" transform="translate(19.553 3.284)">
                    <path id="Trazado_101689" data-name="Trazado 101689" d="M111.562,135.546a2.79,2.79,0,0,0-5,0,.576.576,0,0,0,.518.823h3.95a.576.576,0,0,0,.518-.823Z" transform="translate(-106.502 -133.99)" fill="#12263f"/>
                    <circle id="Elipse_4088" data-name="Elipse 4088" cx="1.951" cy="1.951" r="1.951" transform="translate(0.607 0.839)" fill="#12263f"/>
                    <path id="Trazado_101690" data-name="Trazado 101690" d="M109.4,136.2a.979.979,0,1,0,.971.971.979.979,0,0,0-.971-.971Z" transform="translate(-106.84 -134.381)" fill="#12263f"/>
                  </g>
                  <g id="Grupo_87573" data-name="Grupo 87573" transform="translate(2.714 3.282)">
                    <path id="Trazado_101691" data-name="Trazado 101691" d="M91.094,135.545a2.782,2.782,0,0,0-5,0,.576.576,0,0,0,.518.823h3.959a.576.576,0,0,0,.518-.823Z" transform="translate(-86.042 -133.988)" fill="#12263f"/>
                    <circle id="Elipse_4089" data-name="Elipse 4089" cx="1.951" cy="1.951" r="1.951" transform="translate(0.599 0.841)" fill="#12263f"/>
                    <path id="Trazado_101692" data-name="Trazado 101692" d="M88.929,136.2a.971.971,0,1,0,.692.281A.979.979,0,0,0,88.929,136.2Z" transform="translate(-86.38 -134.379)" fill="#12263f"/>
                  </g>
                </g>
                <path id="Trazado_101693" data-name="Trazado 101693" d="M83.907,114.109H79.85a.708.708,0,0,0-.7.708.7.7,0,0,0,.7.7h4.066a.708.708,0,1,0,0-1.407Z" transform="translate(-77.669 -112.99)" fill="#12263f"/>
                <path id="Trazado_101694" data-name="Trazado 101694" d="M106.268,115.563l-.42,3.523h-3.942l.14-3.646h-1.169l-.14,3.646H97.2v-3.621H96.03v3.621H91.914l-.354-3.555H90.392l.354,3.555H86l-.938-3.514H83.89l3.432,12.88h1.169L87.4,124.337h3.868l.412,4.115h1.169l-.4-4.115H96.03v4.115H97.2v-4.115h3.341l-.156,4.115h1.169l.156-4.115h3.514l-.486,4.115h1.169l1.531-12.888Zm-19.16,7.7-.823-3.078h4.568l.3,3.078Zm8.922,0h-3.7l-.3-3.078H96.03Zm4.551,0H97.2v-3.078h3.5Zm4.774,0h-3.6l.115-3.078h3.852Z" transform="translate(-78.507 -113.226)" fill="#12263f"/>
                <g id="Grupo_87575" data-name="Grupo 87575" transform="translate(5.383 2.214)">
                  <path id="Trazado_101695" data-name="Trazado 101695" d="M85.059,115.6H83.89l.749,2.8h1.177Z" transform="translate(-83.89 -115.468)" fill="#12263f"/>
                  <path id="Trazado_101696" data-name="Trazado 101696" d="M92.959,115.55H91.79l.288,2.872h1.169Z" transform="translate(-85.288 -115.459)" fill="#12263f"/>
                  <path id="Trazado_101697" data-name="Trazado 101697" d="M111.007,115.59l-.337,2.839h.9a1.045,1.045,0,0,0,.28-.041l.329-2.8Z" transform="translate(-88.63 -115.467)" fill="#12263f"/>
                  <path id="Trazado_101698" data-name="Trazado 101698" d="M98.64,115.47h1.169v2.905H98.64Z" transform="translate(-86.5 -115.445)" fill="#12263f"/>
                  <path id="Trazado_101699" data-name="Trazado 101699" d="M104.505,115.44l-.115,2.963h1.177l.107-2.963Z" transform="translate(-87.518 -115.44)" fill="#12263f"/>
                </g>
                <path id="Trazado_101700" data-name="Trazado 101700" d="M106.018,129.05H87.146a1.086,1.086,0,0,0-1.086,1.086v.494a1.086,1.086,0,0,0,1.086,1.086h18.872a1.086,1.086,0,0,0,1.086-1.086v-.494a1.086,1.086,0,0,0-1.086-1.086Z" transform="translate(-78.892 -115.635)" fill="#12263f"/>
                <path id="Trazado_101701" data-name="Trazado 101701" d="M106.638,114h-22.8a1.021,1.021,0,0,0-1.021,1.021v1.309a1.021,1.021,0,0,0,1.021,1.029h22.8a1.021,1.021,0,0,0,1.021-1.029v-1.309A1.021,1.021,0,0,0,106.638,114Z" transform="translate(-78.318 -112.971)" fill="#12263f"/>
                <circle id="Elipse_4090" data-name="Elipse 4090" cx="1.473" cy="1.473" r="1.473" fill="#12263f"/>
              </g>
              <g id="Grupo_87577" data-name="Grupo 87577" transform="translate(7.75 18.312)">
                <path id="Trazado_101702" data-name="Trazado 101702" d="M109.191,135a1.951,1.951,0,0,0-1.951,1.951V137h.041a1.951,1.951,0,0,1,3.819,0h0v-.049A1.951,1.951,0,0,0,109.149,135Z" transform="translate(-90.39 -135)" fill="#12263f"/>
                <path id="Trazado_101703" data-name="Trazado 101703" d="M88.72,135a1.951,1.951,0,0,0-1.951,1.951.107.107,0,0,0,0,.049h0a1.951,1.951,0,0,1,3.819,0h.041v-.049A1.959,1.959,0,0,0,88.72,135Z" transform="translate(-86.766 -135)" fill="#12263f"/>
              </g>
            </g>
          </g>
        </g>
      </g>
      <g id="Grupo_87582" data-name="Grupo 87582" transform="translate(37.661 123.214)">
        <path id="Trazado_101704" data-name="Trazado 101704" d="M116.836,239.292V260.97a15.539,15.539,0,0,0,15.539,15.539h2.881a18.674,18.674,0,0,0,18.674-18.674h0A13.168,13.168,0,0,1,167.1,244.666h5.407a11.193,11.193,0,0,1,3.539.576v-.576h.123V236.51A10.518,10.518,0,0,0,165.617,226H104.17A13.267,13.267,0,0,1,116.836,239.292Z" transform="translate(-59.118 -226)" fill="#f4f2ed"/>
        <path id="Trazado_101705" data-name="Trazado 101705" d="M263.507,267.608l-.115-8.37a10.518,10.518,0,0,0-10.518-10.518H191.46v.576a11.168,11.168,0,0,1,7.638,10.6v5.276a16.46,16.46,0,0,0,16.46,16.46h59.685A14.493,14.493,0,0,1,263.507,267.608Z" transform="translate(-74.567 -230.021)" fill="#faf8f3"/>
        <path id="Trazado_101706" data-name="Trazado 101706" d="M49.43,273.1a11.638,11.638,0,0,0,.263,2.469,13.217,13.217,0,0,1-.23-2.576Z" transform="translate(-49.43 -234.316)" fill="#12263f"/>
        <path id="Trazado_101707" data-name="Trazado 101707" d="M174.011,261.16v-5.276a11.177,11.177,0,0,0-11.177-11.177h-5.407a13.168,13.168,0,0,0-13.168,13.168h0a18.674,18.674,0,0,1-18.674,18.674H122.7a15.539,15.539,0,0,1-15.539-15.539V239.3A13.266,13.266,0,0,0,94.5,226.05h-.6a16.213,16.213,0,0,0-16.213,16.205V260a16.526,16.526,0,0,1-16.518,16.518h0a11.728,11.728,0,0,1-11.465-9.258A12.691,12.691,0,0,0,62.467,277.62h128a16.46,16.46,0,0,1-16.452-16.46Z" transform="translate(-49.48 -226.009)" fill="#12263f"/>
      </g>
    </g>
    <g id="Grupo_87587" data-name="Grupo 87587" transform="translate(26.337 132.305)">
      <g id="Grupo_87584" data-name="Grupo 87584" transform="translate(0 23.189)">
        <path id="Trazado_101708" data-name="Trazado 101708" d="M61.325,192.77c-2.329-4.938-7.638-1.325-11.1.436-1.572.963-3.02,1.819-4.378,2.609a16.065,16.065,0,0,0,.132-5.646,2.2,2.2,0,0,0-.914-1.564,1.432,1.432,0,0,0-1.317,0,3.645,3.645,0,0,0-1.012.864c-2.806,3.095-9.053,13.687-9.053,13.687a28.509,28.509,0,0,0-2.362,8.23c-1.086,8.189,6.37,15.637,14.214,14.049A6.165,6.165,0,0,0,48,224.448l13.168-9.465c2.527-1.646,2.8-5.629.453-5.671,2.247-.667,4.411-2.247,3.127-5.045-.543-1.646-1.794-1.86-3.127-1.646,2.033-.667,3.86-1.728,2.955-4.115-.617-2.716-2.823-2.807-4.872-2.321C60.979,195.576,61.991,194.556,61.325,192.77Z" transform="translate(-31.211 -188.445)" fill="#ffa386"/>
        <path id="Trazado_101709" data-name="Trazado 101709" d="M42.005,200.9a.494.494,0,0,1-.42-.247.486.486,0,0,1,.173-.667l7.136-4.115a.486.486,0,0,1,.667.173.494.494,0,0,1-.173.675l-7.136,4.156A.5.5,0,0,1,42.005,200.9Z" transform="translate(-33.035 -189.748)" fill="#ff6a48"/>
        <path id="Trazado_101710" data-name="Trazado 101710" d="M59.4,201.111a.5.5,0,0,1-.42-.239.494.494,0,0,1,.165-.675,59.057,59.057,0,0,1,5.827-3.2.486.486,0,0,1,.6.346.494.494,0,0,1-.337.6,57.7,57.7,0,0,0-5.58,3.086A.486.486,0,0,1,59.4,201.111Z" transform="translate(-36.114 -189.955)" fill="#ff6a48"/>
        <path id="Trazado_101711" data-name="Trazado 101711" d="M62.625,208.78a.487.487,0,0,1-.239-.914l4.485-2.6a.494.494,0,0,1,.486.823l-4.51,2.625a.428.428,0,0,1-.222.066Z" transform="translate(-36.684 -191.419)" fill="#ff6a48"/>
        <path id="Trazado_101712" data-name="Trazado 101712" d="M64.254,216.091a.494.494,0,0,1-.436-.255.486.486,0,0,1,.2-.658l2.469-1.35a.494.494,0,0,1,.667.2.477.477,0,0,1-.189.658l-2.469,1.35a.477.477,0,0,1-.239.058Z" transform="translate(-36.972 -192.927)" fill="#ff6a48"/>
      </g>
      <g id="Grupo_87586" data-name="Grupo 87586" transform="translate(84.589)">
        <g id="Grupo_87585" data-name="Grupo 87585">
          <path id="Trazado_101713" data-name="Trazado 101713" d="M175.247,160.681l3.012,2.576a1.893,1.893,0,0,1,.14,2.658l-2.7,3.185a1.885,1.885,0,0,1-2.65.263l-3-2.584a1.868,1.868,0,0,1-.14-2.65l2.7-3.152a1.876,1.876,0,0,1,2.642-.3Z" transform="translate(-140.261 -160.269)" fill="#ff6a48"/>
          <rect id="Rectángulo_33994" data-name="Rectángulo 33994" width="42.855" height="7.638" transform="translate(3.202 34.685) rotate(-49.38)" fill="#ffd066"/>
          <path id="Trazado_101714" data-name="Trazado 101714" d="M137.243,202.458l5.7,4.88s.107.091,0,.082L134,212.029h0l3.193-9.539C137.177,202.449,137.218,202.433,137.243,202.458Z" transform="translate(-133.992 -167.734)" fill="#ffaa89"/>
          <path id="Trazado_101715" data-name="Trazado 101715" d="M135.15,209.935l2.041,1.745h0l-3.2,1.646h0l1.144-3.416Z" transform="translate(-133.99 -169.055)" fill="#233863"/>
          <path id="Trazado_101716" data-name="Trazado 101716" d="M169.221,175.1a.3.3,0,0,1-.156-.058.255.255,0,0,1,0-.354l4.008-4.675a.248.248,0,1,1,.379.321l-4.016,4.675a.247.247,0,0,1-.214.091Z" transform="translate(-140.185 -161.978)" fill="#fff"/>
          <path id="Trazado_101717" data-name="Trazado 101717" d="M157.249,181.507a.263.263,0,0,1-.165-.066.247.247,0,0,1,0-.346l11.572-13.489a.247.247,0,1,1,.37.321l-11.572,13.489a.239.239,0,0,1-.206.091Z" transform="translate(-138.065 -161.549)" fill="#fff"/>
        </g>
        <path id="Trazado_101718" data-name="Trazado 101718" d="M240.293,221.651l-49.537-32.74-11.44-9a21.7,21.7,0,0,0-11.127-4.485l-13.168-1.342a9.761,9.761,0,0,0-5.473,1.029l-6.247,3.218a2.8,2.8,0,0,0-1.514,2.675l.049.732-.477.23a3.761,3.761,0,0,0-2.148,3.407V188l-.428,1.012a3.86,3.86,0,0,0,.675,4.115L149.144,204a1.531,1.531,0,0,0,2.247.049,4.378,4.378,0,0,0,.255-5.761l-3-3.72,10.041,5.942a12.074,12.074,0,0,0,5.432,1.646l6.189.387,6.395,7.3,38.394,46.319A26.851,26.851,0,0,0,260,247.4l3.514-7.687Z" transform="translate(-134.782 -162.706)" fill="#ffaa89"/>
        <path id="Trazado_101719" data-name="Trazado 101719" d="M142.684,183.558a.493.493,0,0,1-.148-.963l7.457-2.379a.494.494,0,0,1,.3.938l-7.44,2.379a.469.469,0,0,1-.173.025Z" transform="translate(-135.442 -163.796)" fill="#ff6a48"/>
        <path id="Trazado_101720" data-name="Trazado 101720" d="M139.664,190.752a.493.493,0,0,1-.123-.971l9.275-2.354a.486.486,0,0,1,.593.354.477.477,0,0,1-.354.593l-9.267,2.362Z" transform="translate(-134.907 -165.073)" fill="#ff6a48"/>
        <path id="Trazado_101721" data-name="Trazado 101721" d="M150.372,198.859a.494.494,0,0,1-.362-.165l-1.868-2.09a.494.494,0,0,1,.732-.65l1.868,2.082a.486.486,0,0,1,0,.691A.453.453,0,0,1,150.372,198.859Z" transform="translate(-136.479 -166.563)" fill="#ff6a48"/>
        <path id="Trazado_101722" data-name="Trazado 101722" d="M177.1,208.937a.494.494,0,0,1,0-.979l7.317-.288a.494.494,0,0,1,0,.979l-7.308.288Z" transform="translate(-141.543 -168.658)" fill="#ff6a48"/>
      </g>
    </g>
  </g>
</svg>
