<svg xmlns="http://www.w3.org/2000/svg" width="289.49" height="284.523" viewBox="0 0 289.49 284.523">
  <g id="Layer_2" data-name="Layer 2" transform="translate(-7.86 -9.16)">
    <path id="Trazado_102141" data-name="Trazado 102141" d="M21.58,143.81a41.13,41.13,0,0,1,.73-58h0a41.12,41.12,0,0,1,58,.73h0a17.4,17.4,0,0,0,24.52.3h0a17.38,17.38,0,0,0,.3-24.51l-1.44-1.48A18.08,18.08,0,0,1,104,35.38h0a18.09,18.09,0,0,1,25.49.32l4.42,4.53a7,7,0,0,0,9.92.13h0a7,7,0,0,0,.13-9.92l-3.25-3.33a4.87,4.87,0,0,1,.08-6.85h0a4.87,4.87,0,0,1,6.85.08l21.83,22.39a7.64,7.64,0,0,0,10.76.13h0a7.63,7.63,0,0,0,.14-10.76l-6.53-6.69a4.86,4.86,0,0,1,.09-6.85h0a4.84,4.84,0,0,1,6.84.09l95.6,98a6.35,6.35,0,0,1-.12,8.94h0a6.33,6.33,0,0,1-8.93-.11l-6.7-6.87a10,10,0,0,0-14-.17h0a10,10,0,0,0-.17,14L272.29,159a6.34,6.34,0,0,1-.11,8.94h0a6.35,6.35,0,0,1-8.94-.12l-4.24-4.3a9.19,9.19,0,0,0-12.95-.16h0a9.19,9.19,0,0,0-.17,12.95l5.77,5.91a23.59,23.59,0,0,1-.42,33.26h0a23.58,23.58,0,0,1-33.25-.42l-1.88-1.93a22.7,22.7,0,0,0-32-.4h0a22.68,22.68,0,0,0-.4,32l4.07,4.17a22.88,22.88,0,0,1-.41,32.26h0a22.86,22.86,0,0,1-32.25-.41Zm257-6.75a6.31,6.31,0,1,0,.11-8.93,6.31,6.31,0,0,0-.11,8.93ZM131.21,17.38a4.84,4.84,0,1,0,.09-6.85,4.84,4.84,0,0,0-.09,6.85Z" fill="#d2e6f7" fill-rule="evenodd"/>
    <rect id="Rectángulo_34039" data-name="Rectángulo 34039" width="25.97" height="351.72" rx="12.98" transform="translate(14.222 40.952) rotate(-47.48)" fill="#affde3"/>
    <path id="Trazado_102142" data-name="Trazado 102142" d="M154.38,290.92h0a8.47,8.47,0,0,1-12,.52L24.53,173.86a8.47,8.47,0,0,1-.52-12h0a8.47,8.47,0,0,1,12-.52L153.86,279a8.46,8.46,0,0,1,.52,11.92Z" fill="#4b9be1"/>
    <g id="Grupo_87713" data-name="Grupo 87713">
      <g id="Grupo_87695" data-name="Grupo 87695">
        <g id="Grupo_87693" data-name="Grupo 87693">
          <g id="Grupo_87690" data-name="Grupo 87690">
            <path id="Trazado_102143" data-name="Trazado 102143" d="M36.33,92c5.58-5.67,9.72,1.54,9.14,8.78-.54,6.86-6.46,30.41-5.36,40.31H37.84C32.3,128.42,29.19,99.3,36.33,92Z" fill="#79fbd0" fill-rule="evenodd"/>
            <path id="Trazado_102144" data-name="Trazado 102144" d="M38.67,141.12c-5.39-20,1.44-47.7,1.46-47.79a.33.33,0,0,1,.39-.24.32.32,0,0,1,.23.39c0,.1-6.85,27.8-1.42,47.64Z" fill="#9e7581" fill-rule="evenodd"/>
          </g>
          <g id="Grupo_87691" data-name="Grupo 87691">
            <path id="Trazado_102145" data-name="Trazado 102145" d="M50.09,104.54c5.87-3.11,7.35,3.68,5.06,9.3-1.9,4.66-10.28,18.43-13.45,27.28h-3C38.46,128.89,43.15,108.22,50.09,104.54Z" fill="#e4fef6" fill-rule="evenodd"/>
            <path id="Trazado_102146" data-name="Trazado 102146" d="M39.8,141.12c2-16.54,13-34.52,13-34.58a.25.25,0,0,1,.36-.09.26.26,0,0,1,.09.37c0,.06-11,17.92-12.91,34.3Z" fill="#eae6ea" fill-rule="evenodd"/>
          </g>
          <g id="Grupo_87692" data-name="Grupo 87692">
            <path id="Trazado_102147" data-name="Trazado 102147" d="M25.25,112.4c-5.69-2.49-6.59,3.94-4.06,9,1.71,3.43,7.88,12.22,12,19.7H38C36.34,129.81,31.14,115,25.25,112.4Z" fill="#80ebc7" fill-rule="evenodd"/>
            <path id="Trazado_102148" data-name="Trazado 102148" d="M36.27,141.12c-4-13.7-13.35-26.62-13.39-26.68a.251.251,0,1,0-.41.29c0,.06,9.25,12.84,13.28,26.39Z" fill="#d7ccd4" fill-rule="evenodd"/>
          </g>
        </g>
        <g id="Grupo_87694" data-name="Grupo 87694">
          <rect id="Rectángulo_34040" data-name="Rectángulo 34040" width="18.5" height="5.93" rx="0.91" transform="translate(27.67 136.6)" fill="#a64b56"/>
          <path id="Trazado_102149" data-name="Trazado 102149" d="M42.4,139.95H31.44l-2.87,2.58,2.34,9.01H42.92l2.34-9.01Z" fill="#a64b56" fill-rule="evenodd"/>
          <path id="Trazado_102150" data-name="Trazado 102150" d="M28.57,142.53l.48,1.85H44.78l.48-1.85Z" fill="#943c47" fill-rule="evenodd"/>
        </g>
      </g>
      <path id="Trazado_102151" data-name="Trazado 102151" d="M204.28,149.19l-7.72,107.56h3.42l10.38-102.5h58.13l10.38,102.5h3.43l-7.73-107.56Z" fill="#12263f" fill-rule="evenodd"/>
      <rect id="Rectángulo_34041" data-name="Rectángulo 34041" width="33.75" height="105.21" transform="translate(67.51 151.54)" fill="#decac4"/>
      <path id="Trazado_102152" data-name="Trazado 102152" d="M101.27,256.75V160.13H83.4a6.64,6.64,0,0,0-6.61,6.61v90Z" fill="#eeddd7" fill-rule="evenodd"/>
      <path id="Trazado_102153" data-name="Trazado 102153" d="M70.58,151.54H24.76a26.26,26.26,0,0,0,12.28,3h3A25.51,25.51,0,0,1,65.5,180h0a25.51,25.51,0,0,1-25.43,25.44H33.51A25.72,25.72,0,0,0,7.86,231.1h0a25.72,25.72,0,0,0,25.65,25.65H70.58Z" fill="#b7a7a1" fill-rule="evenodd"/>
      <path id="Trazado_102154" data-name="Trazado 102154" d="M63.48,256.75V189.93a25.53,25.53,0,0,1-23.41,15.53H33.51A25.72,25.72,0,0,0,7.86,231.1h0a25.72,25.72,0,0,0,25.65,25.65Zm0-86.64v-3.37a6.63,6.63,0,0,0-6.61-6.61h-1a25.72,25.72,0,0,1,7.61,9.98Z" fill="#c1b1ab" fill-rule="evenodd"/>
      <rect id="Rectángulo_34042" data-name="Rectángulo 34042" width="41.7" height="39.22" transform="translate(101.69 42.13)" fill="#d9c6c3"/>
      <path id="Trazado_102155" data-name="Trazado 102155" d="M81.91,220.24l-17.64,3.67-15.6-3.67,8.39-12H90.3Z" fill="#0043a1" fill-rule="evenodd"/>
      <g id="Grupo_87696" data-name="Grupo 87696">
        <rect id="Rectángulo_34043" data-name="Rectángulo 34043" width="39.68" height="14.5" rx="2.67" transform="translate(31.85 212.7)" fill="#fff"/>
        <rect id="Rectángulo_34044" data-name="Rectángulo 34044" width="39.68" height="14.5" rx="2.67" transform="translate(34.63 214.39)" fill="#fad0be"/>
        <rect id="Rectángulo_34045" data-name="Rectángulo 34045" width="39.68" height="14.5" rx="2.67" transform="translate(36.79 216.44)" fill="#fff"/>
      </g>
      <path id="Trazado_102156" data-name="Trazado 102156" d="M17.87,220.24l20.52,3.06,10.28-3.06-8.4-12H9.48Z" fill="#242525" fill-rule="evenodd"/>
      <rect id="Rectángulo_34046" data-name="Rectángulo 34046" width="33.24" height="36.51" transform="translate(17.87 220.24)" fill="#0059d6"/>
      <path id="Trazado_102157" data-name="Trazado 102157" d="M42.47,256.75H28l3.41-30.55h6.15a4.91,4.91,0,0,1,4.9,4.89v25.66Zm-18.41,0H17.87V226.2h8.61Z" fill="#669be6" fill-rule="evenodd"/>
      <rect id="Rectángulo_34047" data-name="Rectángulo 34047" width="33.24" height="36.51" transform="translate(48.67 220.24)" fill="#242525"/>
      <path id="Trazado_102158" data-name="Trazado 102158" d="M55.71,256.75h26.2V226.2H60.6a4.9,4.9,0,0,0-4.89,4.89Z" fill="#2d2d2f" fill-rule="evenodd"/>
      <path id="Trazado_102159" data-name="Trazado 102159" d="M105.33,237.94l-10.57,1.58-5.29-1.58,4.32-6.18h15.87Z" fill="#121212" fill-rule="evenodd"/>
      <g id="Grupo_87697" data-name="Grupo 87697">
        <rect id="Rectángulo_34048" data-name="Rectángulo 34048" width="20.44" height="7.47" rx="1.38" transform="translate(75.15 234.06)" fill="#fff"/>
        <rect id="Rectángulo_34049" data-name="Rectángulo 34049" width="20.44" height="7.47" rx="1.38" transform="translate(76.58 234.93)" fill="#fad0be"/>
        <rect id="Rectángulo_34050" data-name="Rectángulo 34050" width="20.44" height="7.47" rx="1.38" transform="translate(77.69 235.99)" fill="#fff"/>
      </g>
      <path id="Trazado_102160" data-name="Trazado 102160" d="M72.34,237.94l9.09,1.89,8.04-1.89-4.32-6.18H68.02Z" fill="#0043a1" fill-rule="evenodd"/>
      <path id="Trazado_102161" data-name="Trazado 102161" d="M69.74,115.25c-1.35-1.4-1.7-1.72-1.7-1.72a5.26,5.26,0,0,0,.9-3.31c-.1-2,1.49-2.54,1.14-3s-1.19-1-2.29.35c-.75.89-.6,1.26-1.36,1.91a4.82,4.82,0,0,1-.86,0c-1.14-1.07-2.45-2.71-3.45-3.78-1.43-1.52-1.76.15-1.15.85s-1.35-.82-1.46,0a2.19,2.19,0,0,0,.52,1.52s-1.54-1-1.56-.17a4.34,4.34,0,0,0,.91,2s-.91-.13-1,.57a3.269,3.269,0,0,0,.8,1.31c1.44,1.77,1.86,2.58,3.27,3.56a26.611,26.611,0,0,1,3,1.77c1.4,1.16,2.22,2.36,2.85,1.06Z" fill="#f5ac83" fill-rule="evenodd"/>
      <path id="Trazado_102162" data-name="Trazado 102162" d="M65.58,109.51c-.32-.32-.64-.67-1-1-2,.45-4,2.37-3.67,4.28a4.06,4.06,0,0,1,4.67-3.28Z" fill="#ee9073" fill-rule="evenodd"/>
      <path id="Trazado_102163" data-name="Trazado 102163" d="M69.74,115.25c-1.35-1.4-1.7-1.72-1.7-1.72a5.26,5.26,0,0,0,.9-3.31c-.1-2,1.49-2.54,1.14-3a.91.91,0,0,0-.24-.24c-.11.31-.55,0-1,1.11-.52,1.32-.32,2.51-1.54,4.18-1.08,1.48-2.25,3.1-4.48,3.26a15.411,15.411,0,0,1,2.65,1.54c1.4,1.16,2.22,2.36,2.85,1.06Z" fill="#ee9073" fill-rule="evenodd"/>
      <rect id="Rectángulo_34051" data-name="Rectángulo 34051" width="17.12" height="18.81" transform="translate(88.21 237.94)" fill="#0059d6"/>
      <path id="Trazado_102164" data-name="Trazado 102164" d="M92.66,256.75h7.45L98.35,241H95.18a2.54,2.54,0,0,0-2.52,2.52v13.22Zm9.49,0h3.18V241H100.9Z" fill="#669be6" fill-rule="evenodd"/>
      <rect id="Rectángulo_34052" data-name="Rectángulo 34052" width="17.13" height="18.81" transform="translate(72.34 237.94)" fill="#000003"/>
      <path id="Trazado_102165" data-name="Trazado 102165" d="M85.84,256.75H72.34V241h11a2.53,2.53,0,0,1,2.52,2.52Z" fill="#121212" fill-rule="evenodd"/>
      <rect id="Rectángulo_34053" data-name="Rectángulo 34053" width="41.7" height="39.22" transform="translate(103.03 40.5)" fill="#c9fdec"/>
      <rect id="Rectángulo_34054" data-name="Rectángulo 34054" width="30.21" height="26.68" transform="translate(108.77 46.77)" fill="#fff"/>
      <path id="Trazado_102166" data-name="Trazado 102166" d="M139,53.9h-.17a.17.17,0,0,0-.17.15v.39h-2v-.57a.17.17,0,0,0-.18-.16h-2.16a.17.17,0,0,0-.18.16v1.35h-.88V54.6a.14.14,0,0,0-.05-.11.17.17,0,0,0-.13,0h-.78a.17.17,0,0,0-.18.16v5.44h-.8a.15.15,0,0,0-.12.05.14.14,0,0,0-.05.11v1.13h-.64v-.29a.17.17,0,0,0-.18-.16h-.38a.17.17,0,0,0-.17.13v-5.4a.15.15,0,0,0-.12-.15l-.19-.06h0a.81.81,0,0,1,0-.15v-.5a.17.17,0,0,0-.17-.15h-.29V51.54a.17.17,0,0,0-.17-.16h-.3V50.15a.17.17,0,0,0-.17-.16H128a2.4,2.4,0,0,1,0-.27c0-.33,0-.65,0-1a.13.13,0,0,0-.05-.12.16.16,0,0,0-.12,0h-2.6a.17.17,0,0,0-.18.16V50a.39.39,0,0,0-.23.08.16.16,0,0,0-.08.14v1.14h-.32a.17.17,0,0,0-.17.15v3.11H124a.17.17,0,0,0-.17.16v.65h-.16a.17.17,0,0,0-.18.15v12.1h-1.31V58a.22.22,0,0,0-.08-.19.34.34,0,0,0-.17-.05h0v-.64a.17.17,0,0,0-.18-.16h-.29a1.551,1.551,0,0,1,0-.3c0-.32,0-.65,0-1a1.831,1.831,0,0,0,0-.33.22.22,0,0,0-.13-.2h0a1.2,1.2,0,0,1,0-.27,2.617,2.617,0,0,0,0-.28.18.18,0,0,0-.18-.14h-1.3a.18.18,0,0,0-.15.08v-.68a.17.17,0,0,0-.17-.15H118a.17.17,0,0,0-.18.15v1.27h0a.58.58,0,0,0-.21.1.18.18,0,0,0-.06.13v1.61h-.28a.15.15,0,0,0-.16.14l-.09.64h-.08a.31.31,0,0,0-.12.22h0v8.2h-1.1V65a.14.14,0,0,0-.06-.11.13.13,0,0,0-.12,0H115a.17.17,0,0,0-.17.16v1.24H114a.16.16,0,0,0-.17.15v.38h-.07V66a.17.17,0,0,0-.18-.16h-1.23a.17.17,0,0,0-.17.15c0,.13,0,.27,0,.4a.17.17,0,0,0-.1,0h-1.19a.17.17,0,0,0-.17.15v.31h0a1.22,1.22,0,0,1-.07-.17,1.09,1.09,0,0,1,0-.36c0-.17,0-.33,0-.5a.16.16,0,0,0-.17-.15h-1V46.77h-.63V73.45H139Z" fill="#ece3e3" fill-rule="evenodd"/>
      <g id="Grupo_87701" data-name="Grupo 87701">
        <rect id="Rectángulo_34055" data-name="Rectángulo 34055" width="2.28" height="76.5" rx="0.83" transform="translate(126.78 179.03)" fill="#030002"/>
        <rect id="Rectángulo_34056" data-name="Rectángulo 34056" width="8.53" height="9.26" rx="3.12" transform="translate(123.66 192.48)" fill="#272828"/>
        <rect id="Rectángulo_34057" data-name="Rectángulo 34057" width="7.12" height="4.56" rx="1.67" transform="translate(124.36 250.96)" fill="#272828"/>
        <rect id="Rectángulo_34058" data-name="Rectángulo 34058" width="25.22" height="7.01" rx="2.56" transform="translate(115.32 253.25)" fill="#030002"/>
        <path id="Trazado_102167" data-name="Trazado 102167" d="M111.91,194h0a2.21,2.21,0,0,1,2.21-2.2h27.61a2.21,2.21,0,0,1,2.2,2.2h0a2.22,2.22,0,0,1-2.2,2.21H114.12a2.22,2.22,0,0,1-2.21-2.21Z" fill="#272828" fill-rule="evenodd"/>
        <rect id="Rectángulo_34059" data-name="Rectángulo 34059" width="43.82" height="7.4" rx="3.7" transform="translate(106 186.97)" fill="#030002"/>
        <path id="Trazado_102168" data-name="Trazado 102168" d="M159.1,190.74H96.74a4.37,4.37,0,0,1-4.36-4.36h0A4.37,4.37,0,0,1,96.74,182H159.1a4.38,4.38,0,0,1,4.37,4.36h0a4.38,4.38,0,0,1-4.37,4.38Z" fill="#954cb5" fill-rule="evenodd"/>
        <path id="Trazado_102169" data-name="Trazado 102169" d="M172.85,190.74H138a4.37,4.37,0,0,1-4.36-4.36h0A4.37,4.37,0,0,1,138,182h34.87a4.37,4.37,0,0,1,4.36,4.36h0a4.37,4.37,0,0,1-4.38,4.38Z" fill="#7b1fa2" fill-rule="evenodd"/>
        <path id="Trazado_102170" data-name="Trazado 102170" d="M125.9,50.75s-13.73-2.33-13,13.48,1.93,18.35-2.41,26.36-3.86,23.72,11.93,26.12,27.64-5.4,28.21-16.57-4-23.76-.87-31S142.59,49.47,125.9,50.75Z" fill="#000003" fill-rule="evenodd"/>
        <path id="Trazado_102171" data-name="Trazado 102171" d="M125.9,50.75s-9.66-1.64-12.34,7.17c-1.32,3.27-.36,10.41-.44,10.29.7,12.34,1.33,15.1-2.62,22.38-4.33,8-3.86,23.72,11.93,26.12,0,0-9.08-3.75-8.35-12.95s8.84-17.71,9-24.11,21.68.17,21.68.17a90.411,90.411,0,0,0,.88,11.37c.8,4.72,2.95,15.09-2.39,21.68a16.33,16.33,0,0,0,7.42-12.73c.56-11.16-4-23.76-.87-31,2-4.54-1.38-11.17-8.31-15.14l-15.05-3.31Z" fill="#121212" fill-rule="evenodd"/>
        <path id="Trazado_102172" data-name="Trazado 102172" d="M136.56,238.44l-2.42,1.85,1.42,15.32s.05,1.14.57,1.14H137s.4-.11.36-.78-.41-15.19-.41-15.19Z" fill="#fce6dd" fill-rule="evenodd"/>
        <path id="Trazado_102173" data-name="Trazado 102173" d="M191,238.44l-2.42,1.85L190,255.61s.05,1.14.57,1.14h.85s.4-.11.36-.78-.41-15.19-.41-15.19Z" fill="#fce6dd" fill-rule="evenodd"/>
        <path id="Trazado_102174" data-name="Trazado 102174" d="M137.5,233.26s-3.17,1.78-3.45,2.42-1,3.56-.2,4.61,3,1.88,3.48,2.53,3.18,11.92,3.18,11.92a2.66,2.66,0,0,0,2.73,2h13.89a.94.94,0,0,0,.65-1,4.2,4.2,0,0,0-.77-1.78,2.59,2.59,0,0,0-2.44-1.17l-7.25-1.93-4.2-10.52-2.7-7.48S138.34,232.12,137.5,233.26Z" fill="#fff" fill-rule="evenodd"/>
        <path id="Trazado_102175" data-name="Trazado 102175" d="M156.69,215.75c-1.33,2.08-12.63,17.17-12.22,18.76.6,2.32,2.55,8.88,3.21,11.14,1.64,5.6,3.79,5.3,4.78,5.3a2.19,2.19,0,0,1,2.11,1.81h-7.68a3.06,3.06,0,0,1-3-2.33c-.48-1.43-3.55-14.23-3.86-15.5a2.42,2.42,0,0,0-2.53-1.67l7.92-20.14Z" fill="#f5ac83" fill-rule="evenodd"/>
        <path id="Trazado_102176" data-name="Trazado 102176" d="M147.19,229.35c-.75,1.15-1.4,2.19-1.87,3a29.851,29.851,0,0,0-3.1.29c-.44.13-.58,1-.34,2.18s3.72,13.15,4,14.14,1.56,1.92,6.1,1.95h.45a2.19,2.19,0,0,1,2.11,1.81h-7.68a3.06,3.06,0,0,1-3-2.33c-.48-1.43-3.55-14.23-3.86-15.5a2.42,2.42,0,0,0-2.53-1.67l2.87-7.29a4.69,4.69,0,0,1,2.09.32C143.77,227,146.6,227.67,147.19,229.35Z" fill="#f18c6e" fill-rule="evenodd"/>
        <path id="Trazado_102177" data-name="Trazado 102177" d="M192,233.26s-3.17,1.78-3.44,2.42-1,3.56-.21,4.61,3,1.88,3.48,2.53S195,254.74,195,254.74a2.66,2.66,0,0,0,2.73,2h13.9a.93.93,0,0,0,.64-1,4.2,4.2,0,0,0-.77-1.78,2.58,2.58,0,0,0-2.43-1.17l-7.26-1.93-4.2-10.52-2.7-7.48S192.83,232.12,192,233.26Z" fill="#fff" fill-rule="evenodd"/>
        <path id="Trazado_102178" data-name="Trazado 102178" d="M190.21,234.33a5.75,5.75,0,0,0-1.66,1.35c-.28.65-1,3.56-.21,4.61s3,1.88,3.48,2.53S195,254.74,195,254.74a2.66,2.66,0,0,0,2.73,2h13.9a.93.93,0,0,0,.64-1,2.58,2.58,0,0,0-.32-1H200.41c-1.85,0-2.94-.58-3.42-1.57s-4.44-16-5-17.07a6.8,6.8,0,0,0-1.78-1.77Z" fill="#fffafb" fill-rule="evenodd"/>
        <path id="Trazado_102179" data-name="Trazado 102179" d="M192.06,216s8.47,24,10.11,29.63S206,251,207,251a2.21,2.21,0,0,1,2.12,1.81h-7.69a3.06,3.06,0,0,1-3-2.33c-.48-1.43-3.55-14.23-3.86-15.5a2.41,2.41,0,0,0-2.53-1.67l-6.55-13Z" fill="#f5ac83" fill-rule="evenodd"/>
        <path id="Trazado_102180" data-name="Trazado 102180" d="M192.06,216s.72,2,1.78,5.07a37.554,37.554,0,0,0-1.36,3.53c-.24,1,7.47,23.69,7.82,24.51s1,1.81,6.27,1.82H207a2.21,2.21,0,0,1,2.12,1.81h-7.69a3.06,3.06,0,0,1-3-2.33c-.48-1.43-3.55-14.23-3.86-15.5a2.41,2.41,0,0,0-2.53-1.67l-6.55-13Z" fill="#f18c6e" fill-rule="evenodd"/>
        <path id="Trazado_102181" data-name="Trazado 102181" d="M114.13,138l-8,5.43s-11.53,13-10,23.25S102,182,115.5,182h38.68c.89,0-17.85,43.18-18.4,45.1s24.85,9.56,36.19,5.32a2.43,2.43,0,0,0,.89-1.84,29,29,0,0,0,.07-3.11s19.25-5.53,22-10a2.68,2.68,0,0,0,0-1.65c-.21-.75-7.93-27.11-16-42.76-9.54-18.53-25-16.41-43.56-16.14,0,0,2-6.4,2.22-9.4S114.13,138,114.13,138Z" fill="#0059d6" fill-rule="evenodd"/>
        <path id="Trazado_102182" data-name="Trazado 102182" d="M114.13,138l-8,5.43s-11.53,13-10,23.25S102,182,115.5,182h38.68s3.58-7.83,4.09-9.33.86-3.11.11-2.84-1.5,7.58-16.66,7.58-32.1-7.71-30.87-14.27S122.05,157,124.1,157h11.32s2-6.4,2.22-9.4S114.13,138,114.13,138Z" fill="#0043a1" fill-rule="evenodd"/>
        <path id="Trazado_102183" data-name="Trazado 102183" d="M172.93,227.49s6.22-1.79,12.11-4.14c-1.9-1.77-5-4.85-5.36-6.45-.54-2.32-4-28.76-4.28-28.85s-.38.31-.38.31Z" fill="#0043a1" fill-rule="evenodd"/>
        <path id="Trazado_102184" data-name="Trazado 102184" d="M141.17,97l5.05,5.1s18,27.11,19.17,27.93,1.78.85,3.28,0,13.49-16.66,14-16.8,4,2.26,4.24,2.94-13.25,21.78-16,23.62-7.69,1.57-10.49-.47-15.29-13.8-15.29-13.8S136.45,102.45,141.17,97Z" fill="#fff" fill-rule="evenodd"/>
        <path id="Trazado_102185" data-name="Trazado 102185" d="M141.56,97.4a51.541,51.541,0,0,1,8.22,10c-.14,4.28,2.22,17,2.22,18.86s7.72,11.26,12.16,12.43,9.83-5.26,12.29-8.95,7.13-10.79,7.44-11.34a6.07,6.07,0,0,0,1.11-4,6.53,6.53,0,0,1,1.94,1.74c.2.68-13.25,21.78-16,23.62s-7.69,1.57-10.49-.47-15.29-13.8-15.29-13.8S136.85,102.87,141.56,97.4Z" fill="#fdefe9" fill-rule="evenodd"/>
        <path id="Trazado_102186" data-name="Trazado 102186" d="M126.1,93c3.22.41,6.7,1.07,10.75,1.58,4.42,1.29,6,4.12,7.38,7.7,1.14,3,4.48,16.62,4.36,17.84,0,2.89-1.93,7-6,11.58-1.71,6.15-4.31,16.32-4.66,18.28-1.66,9.21-35.43-.89-33.69-5,8.68-20.4,2.5-32,3.76-40.08q.09-.59.18-1.14l4-2.61-1.35-2.34s4.6-3.87,14-5.56C125.27,93.16,125.71,93.07,126.1,93Z" fill="#0059d6" fill-rule="evenodd"/>
        <path id="Trazado_102187" data-name="Trazado 102187" d="M120.51,94.24c.77,1.54,1.11,2.79.5,3.23-2,1.45-.82,20.63,1.09,22.26s14.55,4.85,19.38,5.43a7,7,0,0,0,6.91-3.22c-.61,2.69-2.54,6.07-5.83,9.74-.64,2.29-1.4,5.13-2.11,7.89l-23.13-15.74s-4.23,16.8-4.23,20.62a29.54,29.54,0,0,0,1.37,6.59c-6.16-1.93-10.94-4.46-10.25-6.06,8.68-20.4,2.5-32,3.76-40.08q.09-.59.18-1.14l4-2.61-1.35-2.34S114,96.12,120.51,94.24Z" fill="#002d6b" fill-rule="evenodd"/>
        <path id="Trazado_102188" data-name="Trazado 102188" d="M135.72,234.33a5.831,5.831,0,0,0-1.67,1.35c-.27.65-1,3.56-.2,4.61s3,1.88,3.48,2.53,3.18,11.92,3.18,11.92a2.66,2.66,0,0,0,2.73,2h13.89a.94.94,0,0,0,.65-1,2.58,2.58,0,0,0-.32-1H145.92c-1.85,0-2.94-.58-3.42-1.57s-4.44-16-5-17.07a6.8,6.8,0,0,0-1.78-1.77Z" fill="#fffafb" fill-rule="evenodd"/>
        <path id="Trazado_102189" data-name="Trazado 102189" d="M126.55,80l-.18,3.4s-.67,6.95-.77,8-1.74,1.82-4.19,2.1c-1.16.13.06,2.11,2.31,4.26,4.53,4.32,7.74,1.73,10.18,1.62,5.33-.24,6.58-4.82,4.11-5.12a3.33,3.33,0,0,1-2.37-1.37c-1-1.38-.45-7,.85-8.38S126.55,80,126.55,80Z" fill="#ec6957" fill-rule="evenodd"/>
        <g id="Grupo_87698" data-name="Grupo 87698">
          <path id="Trazado_102190" data-name="Trazado 102190" d="M133.9,99.35c-2.76,16.21-21.53-8.78-10.72-6.23C123.18,93.12,125.26,98.46,133.9,99.35Z" fill="#fff" fill-rule="evenodd"/>
          <path id="Trazado_102191" data-name="Trazado 102191" d="M138,94.24s.52,3.94-4.13,5.11c0,0,1.72,5.17,4.85,4.45S141.84,93.48,138,94.24Z" fill="#fff" fill-rule="evenodd"/>
        </g>
        <path id="Trazado_102192" data-name="Trazado 102192" d="M144.15,72.38a3.75,3.75,0,1,0,3.68,3.82,3.75,3.75,0,0,0-3.68-3.82Z" fill="#e9695b" fill-rule="evenodd"/>
        <path id="Trazado_102193" data-name="Trazado 102193" d="M117.89,71.92h-.28a3.76,3.76,0,1,0,3.13.75c.1,1.11-.08,2.48-1.49,2.62V73.13A1.29,1.29,0,0,0,117.89,71.92Z" fill="#e9695b" fill-rule="evenodd"/>
        <path id="Trazado_102194" data-name="Trazado 102194" d="M132.52,53.18h0a12.88,12.88,0,0,0-13.09,12.6l-.22,11.68a12.89,12.89,0,0,0,12.6,13.1h0A12.9,12.9,0,0,0,144.91,78l.22-11.68a12.89,12.89,0,0,0-12.61-13.14Z" fill="#f5ac83" fill-rule="evenodd"/>
        <path id="Trazado_102195" data-name="Trazado 102195" d="M132.52,53.18h0a12.88,12.88,0,0,0-13.09,12.6l-.22,11.68a12.89,12.89,0,0,0,12.6,13.1h.79c-8.27-.5-9.5-8.29-9.75-13.32a20.88,20.88,0,0,1,3.8-12.14c1.51-1.93,5-.77,6.72,1.66s5.46,4.54,5.53,4.59,1.9.11,1.9.11l1.5-5.36s-3.4-7.64-5.69-12.16a12.57,12.57,0,0,0-4.09-.76Z" fill="#ee9073" fill-rule="evenodd"/>
        <path id="Trazado_102196" data-name="Trazado 102196" d="M119.23,71.18l1.24.12s1.18,3.8-1.22,4V73.14a1.27,1.27,0,0,0-.06-.41Z" fill="#000003" fill-rule="evenodd"/>
        <path id="Trazado_102197" data-name="Trazado 102197" d="M141.83,73.1h0a1.15,1.15,0,0,0-1.17,1.12v1.49a1.16,1.16,0,0,0,1.12,1.17h0a1.16,1.16,0,0,0,1.17-1.13V74.26a1.15,1.15,0,0,0-1.12-1.16Z" fill="#00000f" fill-rule="evenodd"/>
        <path id="Trazado_102198" data-name="Trazado 102198" d="M128.79,72.85h0A1.15,1.15,0,0,0,127.62,74v1.49a1.16,1.16,0,0,0,1.12,1.17h0a1.16,1.16,0,0,0,1.17-1.12V74.05a1.16,1.16,0,0,0-1.12-1.2Z" fill="#00000f" fill-rule="evenodd"/>
        <g id="Grupo_87699" data-name="Grupo 87699">
          <path id="Trazado_102199" data-name="Trazado 102199" d="M142.49,77.62a1.69,1.69,0,1,0,1.65,1.72,1.69,1.69,0,0,0-1.65-1.72Z" fill="#e9695b" fill-rule="evenodd"/>
          <path id="Trazado_102200" data-name="Trazado 102200" d="M128,77.35a1.69,1.69,0,1,0,1.66,1.72A1.69,1.69,0,0,0,128,77.35Z" fill="#e9695b" fill-rule="evenodd"/>
        </g>
        <g id="Grupo_87700" data-name="Grupo 87700">
          <path id="Trazado_102201" data-name="Trazado 102201" d="M131.84,80.48a3.323,3.323,0,1,0,6.64.26h0a.59.59,0,0,0-.55-.6l-5.49-.21a.59.59,0,0,0-.6.55Z" fill="#00000f" fill-rule="evenodd"/>
          <path id="Trazado_102202" data-name="Trazado 102202" d="M133,83.11a3.34,3.34,0,0,0,3.84.39A2.08,2.08,0,0,0,135,82.2a2.11,2.11,0,0,0-2,.91Z" fill="#d84743" fill-rule="evenodd"/>
          <path id="Trazado_102203" data-name="Trazado 102203" d="M138,80.15l-5.16-.2a1.17,1.17,0,0,0,.52,1.29c.46.17,4.19.22,4.47-.06a2,2,0,0,0,.17-1.03Z" fill="#fff" fill-rule="evenodd"/>
        </g>
        <path id="Trazado_102204" data-name="Trazado 102204" d="M143.69,71.26a.35.35,0,0,0,.47-.15.36.36,0,0,0-.16-.47,4.31,4.31,0,0,0-3.9,0,.35.35,0,0,0,.35.6,3.58,3.58,0,0,1,3.24.02Z" fill="#301814" fill-rule="evenodd"/>
        <path id="Trazado_102205" data-name="Trazado 102205" d="M127.2,71.26a.35.35,0,0,1-.47-.15.36.36,0,0,1,.16-.47,4.31,4.31,0,0,1,3.9,0,.35.35,0,0,1-.35.6,3.58,3.58,0,0,0-3.24.02Z" fill="#00000f" fill-rule="evenodd"/>
        <path id="Trazado_102206" data-name="Trazado 102206" d="M130,56.71l-1,1.95s-2.72-1.14-3.54,2.6S123,75.08,114.76,72c0,0-.25-12.42,3.87-16S130,56.71,130,56.71Z" fill="#121212" fill-rule="evenodd"/>
        <path id="Trazado_102207" data-name="Trazado 102207" d="M124.7,58.26h.07a.34.34,0,0,0,.31.07c3.13-.88,5,2.06,7.28,5.51s4.84,7.46,9.38,8.83a8.721,8.721,0,0,0,1.19.58c7.61,3,14-6.76,8.57-15.74-5.81-9.63-22.5-15.2-27.68-3.51a4,4,0,0,0,.88,4.28Zm5,.88c3.91,2.31,6.09,8.11,9.65,11.69-2.83-1.78-4.74-4.73-6.46-7.38a27.25,27.25,0,0,0-3.14-4.31Z" fill="#292828" fill-rule="evenodd"/>
        <path id="Trazado_102208" data-name="Trazado 102208" d="M153.51,64.78v-1a8,8,0,0,1-7.34.46c-4-1.48-7.4-9.82-6.91-16.06a15.66,15.66,0,0,0-8.18-.48,41.45,41.45,0,0,0,10.55,15.93C146.35,68,150.59,66.84,153.51,64.78Z" fill="#424242" fill-rule="evenodd"/>
        <path id="Trazado_102209" data-name="Trazado 102209" d="M124.7,58.26h.07a.34.34,0,0,0,.31.07c3.13-.88,5,2.06,7.28,5.51s4.84,7.46,9.38,8.83a8.721,8.721,0,0,0,1.19.58c5.29,2.07,10-2,10.53-7.69-.06.27-1.13,4.83-5,5.37s-9.51-4.17-12.21-9-6.35-6.33-8.66-6.29-3.75-1.5-2.22-4.25A12.33,12.33,0,0,0,123.82,54a4,4,0,0,0,.88,4.28Zm5,.88c3.91,2.31,6.09,8.11,9.65,11.69-2.83-1.78-4.74-4.73-6.46-7.38a27.25,27.25,0,0,0-3.14-4.31Z" fill="#121212" fill-rule="evenodd"/>
        <path id="Trazado_102210" data-name="Trazado 102210" d="M124.61,64.59c-1.16,4.33-3.6,9.79-10,7.42V69.47C121.56,72.54,124.59,64.64,124.61,64.59Z" fill="#000003" fill-rule="evenodd"/>
        <path id="Trazado_102211" data-name="Trazado 102211" d="M109.71,100c-9.63,12.7-17.71,27.18-18.66,28-1.14.93-1.77,1-3.39.24S69,113.68,68.44,113.58s-3.62,3-3.78,3.7,18.11,19.8,21.07,21.5,8.06,1,10.8-1.29c2-1.69,10.1-10.64,14.42-15.44,4.58-5.06,6.89-15,7-15.36.56-3.87.24-7.56-2.41-9C113.58,97.15,111.44,97.75,109.71,100Z" fill="#fff" fill-rule="evenodd"/>
        <path id="Trazado_102212" data-name="Trazado 102212" d="M66.92,114.62a8.79,8.79,0,0,0-2.26,2.66c-.12.58,18.11,19.8,21.07,21.5s8.06,1,10.8-1.29c2-1.69,10.1-10.64,14.42-15.44,4.56-5,6.88-15,7-15.36a15.69,15.69,0,0,0,0-5.48c0,3.12-.69,7.37-1.94,9.32-1.58,2.46-15.5,19.81-18.5,23.29s-8.42,4.73-11,2.94-18.35-17.2-18.85-18.1a11.47,11.47,0,0,1-.74-4.04Z" fill="#fdefe9" fill-rule="evenodd"/>
      </g>
      <path id="Trazado_102213" data-name="Trazado 102213" d="M184.93,41.11H160.24A3.26,3.26,0,0,0,157,44.37v23a.34.34,0,0,0,.22.33.35.35,0,0,0,.4-.08l5.55-5.55h21.77a3.27,3.27,0,0,0,3.26-3.26V44.37a3.27,3.27,0,0,0-3.27-3.26Z" fill="#feb62b" fill-rule="evenodd"/>
      <g id="Grupo_87702" data-name="Grupo 87702">
        <path id="Trazado_102214" data-name="Trazado 102214" d="M165,53.36a2.22,2.22,0,1,0-1.576-.647A2.22,2.22,0,0,0,165,53.36Z" fill="#fff" fill-rule="evenodd"/>
        <path id="Trazado_102215" data-name="Trazado 102215" d="M172.59,53.36a2.22,2.22,0,1,0-2.22-2.22A2.22,2.22,0,0,0,172.59,53.36Z" fill="#fff" fill-rule="evenodd"/>
        <path id="Trazado_102216" data-name="Trazado 102216" d="M180.14,53.36a2.22,2.22,0,1,0-2.22-2.22A2.22,2.22,0,0,0,180.14,53.36Z" fill="#fff" fill-rule="evenodd"/>
      </g>
      <g id="Grupo_87703" data-name="Grupo 87703">
        <path id="Trazado_102217" data-name="Trazado 102217" d="M45.38,149.19,37.62,256.75h3.44l10.43-102.5h58.44l10.43,102.5h3.44l-7.76-107.56Z" fill="#fff" fill-rule="evenodd"/>
        <path id="Trazado_102218" data-name="Trazado 102218" d="M72.58,143.33H276.31a3.28,3.28,0,0,1,3.27,3.27h0a3.28,3.28,0,0,1-3.27,3.26H72.58a3.28,3.28,0,0,1-3.27-3.26h0A3.28,3.28,0,0,1,72.58,143.33Z" fill="#717d8c" fill-rule="evenodd"/>
        <path id="Trazado_102219" data-name="Trazado 102219" d="M37.61,143.33h86.2a3.28,3.28,0,0,1,3.27,3.27h0a3.28,3.28,0,0,1-3.27,3.26H37.61a3.27,3.27,0,0,1-3.26-3.26h0A3.28,3.28,0,0,1,37.61,143.33Z" fill="#12263f" fill-rule="evenodd"/>
      </g>
      <path id="Trazado_102220" data-name="Trazado 102220" d="M291.76,267.92H280.65a3.53,3.53,0,0,0-3.52,3.52h0a3.53,3.53,0,0,0,3.52,3.52h5.28a2.8,2.8,0,0,1,2.79,2.79h0a2.8,2.8,0,0,1-2.79,2.8H30.55a2.81,2.81,0,0,1-2.8-2.8h0a2.81,2.81,0,0,1,2.8-2.79h5a3.53,3.53,0,0,0,3.52-3.52h0a3.53,3.53,0,0,0-3.52-3.52h-22a5.6,5.6,0,0,1-5.59-5.58h0a5.61,5.61,0,0,1,5.59-5.59H291.76a5.61,5.61,0,0,1,5.59,5.59h0a5.6,5.6,0,0,1-5.59,5.58Zm1.72,12.63a2.8,2.8,0,1,0-2.8-2.8,2.8,2.8,0,0,0,2.8,2.8Z" fill="#12263f" fill-rule="evenodd"/>
      <g id="Grupo_87707" data-name="Grupo 87707">
        <g id="Grupo_87704" data-name="Grupo 87704">
          <path id="Trazado_102221" data-name="Trazado 102221" d="M265.74,137.09H244.87a3.12,3.12,0,1,0,0,6.24h20.87a3.12,3.12,0,0,0,0-6.24Z" fill="#3b3a3a" fill-rule="evenodd"/>
          <path id="Trazado_102222" data-name="Trazado 102222" d="M219.07,137.46h26.68a2.76,2.76,0,0,1,2.75,2.75h0a2.76,2.76,0,0,1-2.75,2.76H219.07Z" fill="#fff" fill-rule="evenodd"/>
          <path id="Trazado_102223" data-name="Trazado 102223" d="M219.07,137.09a.37.37,0,0,0-.37.37.36.36,0,0,0,.37.36h26.68a2.39,2.39,0,1,1,0,4.78H219.07a.37.37,0,0,0-.37.37.36.36,0,0,0,.37.36h26.68a3.12,3.12,0,0,0,0-6.24Z" fill="#242525" fill-rule="evenodd"/>
          <path id="Trazado_102224" data-name="Trazado 102224" d="M264.77,140.21a3.12,3.12,0,0,0-3.11-3.12h2.71a3.12,3.12,0,0,1,0,6.24h-2.71a3.11,3.11,0,0,0,3.11-3.12Z" fill="#242525" fill-rule="evenodd"/>
          <path id="Trazado_102225" data-name="Trazado 102225" d="M260.85,140.21a3.14,3.14,0,0,0-3.12-3.12h2.71a3.12,3.12,0,0,1,0,6.24h-2.71A3.12,3.12,0,0,0,260.85,140.21Z" fill="#242525" fill-rule="evenodd"/>
        </g>
        <g id="Grupo_87705" data-name="Grupo 87705">
          <path id="Trazado_102226" data-name="Trazado 102226" d="M224.55,131.63h18.27a2.73,2.73,0,1,1,0,5.46H224.55a2.73,2.73,0,1,1,0-5.46Z" fill="#c8dee1" fill-rule="evenodd"/>
          <path id="Trazado_102227" data-name="Trazado 102227" d="M265.42,132H242.05a2.42,2.42,0,0,0-2.41,2.41h0a2.43,2.43,0,0,0,2.41,2.42h23.37Z" fill="#fff" fill-rule="evenodd"/>
          <path id="Trazado_102228" data-name="Trazado 102228" d="M265.42,131.63a.32.32,0,1,1,0,.64H242.05a2.115,2.115,0,0,0,0,4.23h23.37a.32.32,0,1,1,0,.63H242.05a2.67,2.67,0,0,1-1.92-.8,2.73,2.73,0,0,1,1.92-4.66Z" fill="#7a9297" fill-rule="evenodd"/>
          <path id="Trazado_102229" data-name="Trazado 102229" d="M225.39,134.36a2.75,2.75,0,0,1,2.73-2.73h-2.37a2.73,2.73,0,1,0,0,5.46h2.37a2.67,2.67,0,0,1-1.92-.8A2.7,2.7,0,0,1,225.39,134.36Z" fill="#7a9297" fill-rule="evenodd"/>
          <path id="Trazado_102230" data-name="Trazado 102230" d="M228.83,134.36a2.75,2.75,0,0,1,2.73-2.73h-2.37a2.73,2.73,0,0,0,0,5.46h2.37a2.67,2.67,0,0,1-1.92-.8,2.7,2.7,0,0,1-.81-1.93Z" fill="#7a9297" fill-rule="evenodd"/>
        </g>
        <g id="Grupo_87706" data-name="Grupo 87706">
          <path id="Trazado_102231" data-name="Trazado 102231" d="M258.32,126.17H244.74a2.72,2.72,0,0,0-1.93,4.66,2.68,2.68,0,0,0,1.93.8h13.58a2.73,2.73,0,0,0,0-5.46Z" fill="#e9695b" fill-rule="evenodd"/>
          <path id="Trazado_102232" data-name="Trazado 102232" d="M229.19,126.49H245.5a2.42,2.42,0,0,1,2.42,2.41h0a2.42,2.42,0,0,1-2.42,2.41H229.19Z" fill="#fff" fill-rule="evenodd"/>
          <path id="Trazado_102233" data-name="Trazado 102233" d="M229.19,126.17a.32.32,0,1,0,0,.64H245.5a2.1,2.1,0,0,1,0,4.19H229.19a.32.32,0,1,0,0,.63H245.5a2.73,2.73,0,0,0,0-5.46Z" fill="#f08a71" fill-rule="evenodd"/>
          <path id="Trazado_102234" data-name="Trazado 102234" d="M257.48,128.9a2.73,2.73,0,0,0-2.73-2.73h2.38a2.72,2.72,0,0,1,1.92,4.66,2.67,2.67,0,0,1-1.92.8h-2.38a2.73,2.73,0,0,0,2.73-2.73Z" fill="#f08a71" fill-rule="evenodd"/>
          <path id="Trazado_102235" data-name="Trazado 102235" d="M254,128.9a2.73,2.73,0,0,0-2.73-2.73h2.37a2.73,2.73,0,0,1,1.93,4.66,2.68,2.68,0,0,1-1.93.8h-2.37A2.73,2.73,0,0,0,254,128.9Z" fill="#f08a71" fill-rule="evenodd"/>
        </g>
      </g>
      <g id="Grupo_87708" data-name="Grupo 87708">
        <path id="Trazado_102236" data-name="Trazado 102236" d="M225.42,143.33H164a2,2,0,0,1-2-2h0a2,2,0,0,1,2-1.95h61.4a2,2,0,0,1,2,1.95h0a2,2,0,0,1-1.98,2Z" fill="#242525" fill-rule="evenodd"/>
        <path id="Trazado_102237" data-name="Trazado 102237" d="M225.42,143.33H164a2,2,0,0,1-1.66-.92,2,2,0,0,1,1.66-.92h61.4a2,2,0,0,1,1.65.92A2,2,0,0,1,225.42,143.33Z" fill="#121212" fill-rule="evenodd"/>
        <path id="Trazado_102238" data-name="Trazado 102238" d="M226.93,139.43H177.82a2.21,2.21,0,0,1-2.23-2.55l3.91-31.81a3,3,0,0,1,2.87-2.55h49.11a2.21,2.21,0,0,1,2.23,2.55l-3.91,31.81a3,3,0,0,1-2.87,2.55Z" fill="#121212" fill-rule="evenodd"/>
        <path id="Trazado_102239" data-name="Trazado 102239" d="M226.93,139.43H179.27a2.22,2.22,0,0,1-2.24-2.55L181,105.07a3,3,0,0,1,2.86-2.55h47.67a2.21,2.21,0,0,1,2.23,2.55l-3.91,31.81a3,3,0,0,1-2.92,2.55Z" fill="#3b3a3a" fill-rule="evenodd"/>
        <path id="Trazado_102240" data-name="Trazado 102240" d="M224.34,139.43h-4.91l-38.71-32.49.23-1.87a2.82,2.82,0,0,1,.67-1.49Zm-37.15-36.91L229.42,138a2.78,2.78,0,0,0,.38-1.09l.61-4.95-35-29.41Z" fill="#494949" fill-rule="evenodd"/>
        <path id="Trazado_102241" data-name="Trazado 102241" d="M175.18,143.33H164a2,2,0,0,1-2-2h0a2,2,0,0,1,2-1.95h11.16a2,2,0,0,1,1.95,1.95h0A2,2,0,0,1,175.18,143.33Z" fill="#3b3a3a" fill-rule="evenodd"/>
        <path id="Trazado_102242" data-name="Trazado 102242" d="M226.39,140.41H175.3a1,1,0,0,1-1-1h0a1,1,0,0,1,1-1h51.09a1,1,0,0,1,1,1h0A1,1,0,0,1,226.39,140.41Z" fill="#000003" fill-rule="evenodd"/>
        <path id="Trazado_102243" data-name="Trazado 102243" d="M206.38,116.07A5.57,5.57,0,0,0,201,121a4.36,4.36,0,0,0,4.4,4.91,5.57,5.57,0,0,0,5.41-4.91,4.34,4.34,0,0,0-4.43-4.93Z" fill="#333" fill-rule="evenodd"/>
      </g>
      <rect id="Rectángulo_34060" data-name="Rectángulo 34060" width="20.68" height="22.59" rx="0.77" transform="translate(175.62 70.53)" fill="#b7a4a0"/>
      <rect id="Rectángulo_34061" data-name="Rectángulo 34061" width="20.68" height="22.59" rx="0.77" transform="translate(174.9 70.35)" fill="#fff"/>
      <rect id="Rectángulo_34062" data-name="Rectángulo 34062" width="20.68" height="5.47" rx="0.77" transform="translate(174.9 70.35)" fill="#39393a"/>
      <g id="Grupo_87709" data-name="Grupo 87709">
        <rect id="Rectángulo_34063" data-name="Rectángulo 34063" width="1.91" height="1.91" rx="0.31" transform="translate(176.67 77.82)" fill="#fad0be"/>
        <rect id="Rectángulo_34064" data-name="Rectángulo 34064" width="1.91" height="1.91" rx="0.31" transform="translate(179.72 77.82)" fill="#fad0be"/>
        <rect id="Rectángulo_34065" data-name="Rectángulo 34065" width="1.91" height="1.91" rx="0.31" transform="translate(182.77 77.82)" fill="#fad0be"/>
        <rect id="Rectángulo_34066" data-name="Rectángulo 34066" width="1.91" height="1.91" rx="0.31" transform="translate(185.81 77.82)" fill="#fad0be"/>
        <rect id="Rectángulo_34067" data-name="Rectángulo 34067" width="1.91" height="1.91" rx="0.31" transform="translate(191.9 77.82)" fill="#fad0be"/>
      </g>
      <g id="Grupo_87710" data-name="Grupo 87710">
        <rect id="Rectángulo_34068" data-name="Rectángulo 34068" width="1.91" height="1.91" rx="0.31" transform="translate(176.67 81.08)" fill="#fad0be"/>
        <rect id="Rectángulo_34069" data-name="Rectángulo 34069" width="1.91" height="1.91" rx="0.31" transform="translate(182.77 81.08)" fill="#fad0be"/>
        <rect id="Rectángulo_34070" data-name="Rectángulo 34070" width="1.91" height="1.91" rx="0.31" transform="translate(185.81 81.08)" fill="#fad0be"/>
        <rect id="Rectángulo_34071" data-name="Rectángulo 34071" width="1.91" height="1.91" rx="0.31" transform="translate(188.86 81.08)" fill="#fad0be"/>
        <rect id="Rectángulo_34072" data-name="Rectángulo 34072" width="1.91" height="1.91" rx="0.31" transform="translate(191.9 81.08)" fill="#fad0be"/>
      </g>
      <g id="Grupo_87711" data-name="Grupo 87711">
        <rect id="Rectángulo_34073" data-name="Rectángulo 34073" width="1.91" height="1.91" rx="0.31" transform="translate(176.67 84.34)" fill="#fad0be"/>
        <rect id="Rectángulo_34074" data-name="Rectángulo 34074" width="1.91" height="1.91" rx="0.31" transform="translate(179.72 84.34)" fill="#fad0be"/>
        <rect id="Rectángulo_34075" data-name="Rectángulo 34075" width="1.91" height="1.91" rx="0.31" transform="translate(182.77 84.34)" fill="#fad0be"/>
        <rect id="Rectángulo_34076" data-name="Rectángulo 34076" width="1.91" height="1.91" rx="0.31" transform="translate(188.86 84.34)" fill="#fad0be"/>
        <rect id="Rectángulo_34077" data-name="Rectángulo 34077" width="1.91" height="1.91" rx="0.31" transform="translate(191.9 84.34)" fill="#fad0be"/>
      </g>
      <g id="Grupo_87712" data-name="Grupo 87712">
        <rect id="Rectángulo_34078" data-name="Rectángulo 34078" width="1.91" height="1.91" rx="0.31" transform="translate(182.77 87.6)" fill="#fad0be"/>
        <rect id="Rectángulo_34079" data-name="Rectángulo 34079" width="1.91" height="1.91" rx="0.31" transform="translate(185.81 87.6)" fill="#fad0be"/>
        <rect id="Rectángulo_34080" data-name="Rectángulo 34080" width="1.91" height="1.91" rx="0.31" transform="translate(188.86 87.6)" fill="#fad0be"/>
      </g>
      <rect id="Rectángulo_34081" data-name="Rectángulo 34081" width="8.5" height="0.56" rx="0.28" transform="translate(175.82 71.46)" fill="#616262"/>
      <rect id="Rectángulo_34082" data-name="Rectángulo 34082" width="4.25" height="0.56" rx="0.28" transform="translate(176.69 72.85)" fill="#616262"/>
      <rect id="Rectángulo_34083" data-name="Rectángulo 34083" width="12.22" height="0.56" rx="0.28" transform="translate(175.82 74.24)" fill="#616262"/>
      <rect id="Rectángulo_34084" data-name="Rectángulo 34084" width="0.58" height="0.56" rx="0.28" transform="translate(175.82 72.85)" fill="#616262"/>
    </g>
  </g>
</svg>
