<svg xmlns="http://www.w3.org/2000/svg" width="146.629" height="139.288" viewBox="0 0 146.629 139.288">
  <g id="Layer_2" data-name="Layer 2" transform="translate(-6.696 -10.366)">
    <g id="Layer_1" data-name="Layer 1">
      <path id="Trazado_229447" data-name="Trazado 229447" d="M18.34,24.69h0A44.19,44.19,0,0,1,80.79,22L139,72.86a44.2,44.2,0,0,1,2.7,62.45h0A44.19,44.19,0,0,1,79.21,138L21,87.14a44.2,44.2,0,0,1-2.66-62.45Z" fill="#a5cdf0"/>
    </g>
    <path id="Trazado_229448" data-name="Trazado 229448" d="M35,12.75h79.33a8.82,8.82,0,0,1,8.82,8.82V131.75a8.82,8.82,0,0,1-8.82,8.82H35a8.82,8.82,0,0,1-8.82-8.82V21.57A8.82,8.82,0,0,1,35,12.75Z" fill="#b2ebf2"/>
    <path id="Trazado_229449" data-name="Trazado 229449" d="M149,36.75l-4.41,7.65L137,40l4.41-7.65Z" fill="#1a6fb0"/>
    <path id="Trazado_229450" data-name="Trazado 229450" d="M136.41,49.82l7.62,4.4L123.19,90.34l-10,17.32L97.93,98.85l25.26-43.72,5.59-9.72Z" fill="#1e82d9"/>
    <path id="Trazado_229451" data-name="Trazado 229451" d="M137,40l7.63,4.41,1.92,1.1a2.2,2.2,0,0,1,.79,3L144,54.22l-15.25-8.81,3.31-5.71a2.19,2.19,0,0,1,3-.81Z" fill="#3d9ae2"/>
    <path id="Trazado_229452" data-name="Trazado 229452" d="M107.76,12.75v22l-6.61-6.61-6.61,6.61v-22Z" fill="#7b1fa2"/>
    <path id="Trazado_229453" data-name="Trazado 229453" d="M41.65,30.38h8.81v4.41H41.65Z" fill="#787680"/>
    <path id="Trazado_229454" data-name="Trazado 229454" d="M54.87,30.38h22v4.41h-22Z" fill="#898890"/>
    <path id="Trazado_229455" data-name="Trazado 229455" d="M41.65,39.19H76.91V43.6H41.65Z" fill="#787680"/>
    <path id="Trazado_229456" data-name="Trazado 229456" d="M41.65,56.82H81.32v4.41H41.65Z" fill="#787680"/>
    <g id="Grupo_124770" data-name="Grupo 124770">
      <path id="Trazado_229457" data-name="Trazado 229457" d="M85.72,56.82h8.82v4.41H85.72Z" fill="#acabb1"/>
      <path id="Trazado_229458" data-name="Trazado 229458" d="M99,56.82h8.81v4.41H99Z" fill="#acabb1"/>
      <path id="Trazado_229459" data-name="Trazado 229459" d="M41.65,65.64h66.11v4.41H41.65Z" fill="#acabb1"/>
    </g>
    <path id="Trazado_229460" data-name="Trazado 229460" d="M41.65,74.45H68.09v4.41H41.65Z" fill="#787680"/>
    <path id="Trazado_229461" data-name="Trazado 229461" d="M96.74,120.73a2.2,2.2,0,0,1-1.91-3.3l4.41-7.64a2.21,2.21,0,1,1,3.82,2.21l-4.41,7.63a2.2,2.2,0,0,1-1.91,1.1Z" fill="#57565c"/>
    <path id="Trazado_229462" data-name="Trazado 229462" d="M125.69,64l8.81-15.27,3.82,2.2L129.5,66.19Z" fill="#c6c5ca"/>
    <path id="Trazado_229463" data-name="Trazado 229463" d="M90.13,123.73a8.78,8.78,0,0,1-4.26-1,5.09,5.09,0,0,0-4.71,0,9.47,9.47,0,0,1-8.52,0,4.54,4.54,0,0,0-2.34-.58v-4.4a8.52,8.52,0,0,1,4.25,1,5.07,5.07,0,0,0,4.7,0,9.49,9.49,0,0,1,8.53,0,4.47,4.47,0,0,0,2.35.57Z" fill="#57565c"/>
    <path id="Trazado_229464" data-name="Trazado 229464" d="M113.18,107.66,103.07,112l-3.84-2.21-1.3-11Z" fill="#3d9ae2"/>
    <path id="Trazado_229465" data-name="Trazado 229465" d="M127.67,47.33l2.21-3.82,15.26,8.81-2.2,3.82Z" fill="#898890"/>
  </g>
</svg>
