<svg xmlns="http://www.w3.org/2000/svg" width="295.84" height="284.528" viewBox="0 0 295.84 284.528">
  <g id="Layer_2" data-name="Layer 2" transform="translate(-1.85 -8.865)">
    <path id="Trazado_102244" data-name="Trazado 102244" d="M19.49,143.52a41.12,41.12,0,0,1,.73-58h0a41.12,41.12,0,0,1,58,.73h0a17.38,17.38,0,0,0,24.51.3h0A17.37,17.37,0,0,0,103,62.06l-1.44-1.48a18.08,18.08,0,0,1,.32-25.49h0a18.09,18.09,0,0,1,25.49.32l4.42,4.53a7,7,0,0,0,9.92.13h0a7,7,0,0,0,.12-9.92l-3.24-3.33a4.86,4.86,0,0,1,.08-6.85h0a4.87,4.87,0,0,1,6.85.08l21.83,22.39a7.64,7.64,0,0,0,10.76.13h0a7.62,7.62,0,0,0,.13-10.76l-6.52-6.69a4.87,4.87,0,0,1,.08-6.85h0a4.86,4.86,0,0,1,6.85.09l95.59,98a6.34,6.34,0,0,1-.11,8.94h0a6.34,6.34,0,0,1-8.94-.11l-6.69-6.87a10,10,0,0,0-14-.17h0a10,10,0,0,0-.18,14l25.9,26.55a6.36,6.36,0,0,1-.11,8.94h0a6.36,6.36,0,0,1-8.94-.11l-4.24-4.35a9.19,9.19,0,0,0-13-.16h0a9.2,9.2,0,0,0-.16,13l5.77,5.91a23.59,23.59,0,0,1-.42,33.26h0a23.59,23.59,0,0,1-33.26-.42L214,212.84a22.7,22.7,0,0,0-32-.4h0a22.7,22.7,0,0,0-.4,32l4.07,4.18a22.87,22.87,0,0,1-.4,32.25h0a22.87,22.87,0,0,1-32.25-.4Zm257-6.75a6.32,6.32,0,1,0,.12-8.93,6.32,6.32,0,0,0-.12,8.93ZM129.12,17.09a4.84,4.84,0,1,0,.08-6.85,4.84,4.84,0,0,0-.08,6.85Z" fill="#d2e6f7" fill-rule="evenodd"/>
    <rect id="Rectángulo_34085" data-name="Rectángulo 34085" width="25.97" height="351.72" rx="12.98" transform="translate(12.126 40.667) rotate(-47.48)" fill="#affde3"/>
    <path id="Trazado_102245" data-name="Trazado 102245" d="M152.29,290.63h0a8.47,8.47,0,0,1-12,.52L22.43,173.57a8.47,8.47,0,0,1-.51-12h0a8.47,8.47,0,0,1,12-.52L151.77,278.66a8.47,8.47,0,0,1,.52,11.97Z" fill="#4b9be1"/>
    <path id="Trazado_102246" data-name="Trazado 102246" d="M277.46,156.11h0a8.47,8.47,0,0,1-12,.51L147.61,39a8.46,8.46,0,0,1-.52-12h0a8.47,8.47,0,0,1,12-.52L276.94,144.13a8.49,8.49,0,0,1,.52,11.98Z" fill="#78b4e8"/>
    <g id="Grupo_87834" data-name="Grupo 87834">
      <g id="Grupo_87748" data-name="Grupo 87748">
        <g id="Grupo_87728" data-name="Grupo 87728">
          <g id="Grupo_87720" data-name="Grupo 87720">
            <g id="Grupo_87715" data-name="Grupo 87715">
              <path id="Trazado_102247" data-name="Trazado 102247" d="M179.74,257.49c6.39-49.28,43-93.82,93.68-110.66-2.54,17.16-5.67,34.37-12,50.62s-15.92,31.62-29.76,42.75A80.7,80.7,0,0,1,179.74,257.49Z" fill="#80ebc7"/>
              <g id="Grupo_87714" data-name="Grupo 87714">
                <path id="Trazado_102248" data-name="Trazado 102248" d="M267,154.34a844.278,844.278,0,0,0-83.75,101.1" fill="none" stroke="#c5e8fa" stroke-miterlimit="10" stroke-width="1"/>
                <path id="Trazado_102249" data-name="Trazado 102249" d="M251.67,159.58a16.83,16.83,0,0,1,.94,10.08,33.57,33.57,0,0,1,13.82-.83" fill="none" stroke="#c5e8fa" stroke-miterlimit="10" stroke-width="1"/>
                <path id="Trazado_102250" data-name="Trazado 102250" d="M226.55,177.72a48.09,48.09,0,0,1,3.37,17.68,91.231,91.231,0,0,1,23-2.77" fill="none" stroke="#c5e8fa" stroke-miterlimit="10" stroke-width="1"/>
                <path id="Trazado_102251" data-name="Trazado 102251" d="M202.16,200.08a43.51,43.51,0,0,1,9.58,17.51c7.71,0,15.43.39,23.11,1" fill="none" stroke="#c5e8fa" stroke-miterlimit="10" stroke-width="1"/>
                <path id="Trazado_102252" data-name="Trazado 102252" d="M219.49,241.94a65,65,0,0,0-24.4-2.27,24.12,24.12,0,0,0-7-12.14" fill="none" stroke="#c5e8fa" stroke-miterlimit="10" stroke-width="1"/>
              </g>
            </g>
            <g id="Grupo_87717" data-name="Grupo 87717">
              <path id="Trazado_102253" data-name="Trazado 102253" d="M201.2,258a85.52,85.52,0,0,1,96-50.11C277.29,241.78,237.2,263.82,201.2,258Z" fill="#c9fdec"/>
              <g id="Grupo_87716" data-name="Grupo 87716">
                <path id="Trazado_102254" data-name="Trazado 102254" d="M291.09,210a404.94,404.94,0,0,0-86.12,46" fill="none" stroke="#c5e8fa" stroke-miterlimit="10" stroke-width="1"/>
                <path id="Trazado_102255" data-name="Trazado 102255" d="M274.75,207.64a16.36,16.36,0,0,1-1.62,9.74,35.489,35.489,0,0,1,11,2.41" fill="none" stroke="#c5e8fa" stroke-miterlimit="10" stroke-width="1"/>
                <path id="Trazado_102256" data-name="Trazado 102256" d="M251.08,212.07a50.131,50.131,0,0,1-.32,16.44,60.07,60.07,0,0,1,16.45,5.88" fill="none" stroke="#c5e8fa" stroke-miterlimit="10" stroke-width="1"/>
                <path id="Trazado_102257" data-name="Trazado 102257" d="M227.65,227.46a33.54,33.54,0,0,1,1.21,13.06,71.89,71.89,0,0,1,21.26,3.35" fill="none" stroke="#c5e8fa" stroke-miterlimit="10" stroke-width="1"/>
                <path id="Trazado_102258" data-name="Trazado 102258" d="M212.09,243.06a10.58,10.58,0,0,1,1.43,7,44.07,44.07,0,0,1,16,2.21" fill="none" stroke="#c5e8fa" stroke-miterlimit="10" stroke-width="1"/>
              </g>
            </g>
            <g id="Grupo_87719" data-name="Grupo 87719">
              <path id="Trazado_102259" data-name="Trazado 102259" d="M175.37,252.3c-12.93-38.65-2.31-84.18,27.47-111.4a85.9,85.9,0,0,1,10.39,62.68C208.52,224.76,195.31,243.94,175.37,252.3Z" fill="#c9fdec"/>
              <g id="Grupo_87718" data-name="Grupo 87718">
                <path id="Trazado_102260" data-name="Trazado 102260" d="M202.12,145.83l-27.26,104.7" fill="none" stroke="#c5e8fa" stroke-miterlimit="10" stroke-width="1"/>
                <path id="Trazado_102261" data-name="Trazado 102261" d="M193.37,154.31a10.12,10.12,0,0,1,5.16,6.17,21.12,21.12,0,0,1,8.91-3.08" fill="none" stroke="#c5e8fa" stroke-miterlimit="10" stroke-width="1"/>
                <path id="Trazado_102262" data-name="Trazado 102262" d="M212.2,179.56a35.29,35.29,0,0,0-20.35,5.72,18.11,18.11,0,0,0-11.38-7.07" fill="none" stroke="#c5e8fa" stroke-miterlimit="10" stroke-width="1"/>
                <path id="Trazado_102263" data-name="Trazado 102263" d="M174.5,201.59a13.66,13.66,0,0,1,11,8.16,62.28,62.28,0,0,1,22.13-5.82" fill="none" stroke="#c5e8fa" stroke-miterlimit="10" stroke-width="1"/>
                <path id="Trazado_102264" data-name="Trazado 102264" d="M172,226.34a9.61,9.61,0,0,1,7.31,6.61,39,39,0,0,1,15.86-4.64" fill="none" stroke="#c5e8fa" stroke-miterlimit="10" stroke-width="1"/>
              </g>
            </g>
          </g>
          <g id="Grupo_87727" data-name="Grupo 87727">
            <g id="Grupo_87722" data-name="Grupo 87722">
              <path id="Trazado_102265" data-name="Trazado 102265" d="M134.6,255.67a115.59,115.59,0,0,0-40.26-62.49c-20-15.91-45.48-25.33-70.38-25.35C26.83,192.66,40,216.25,60,232.24S106.55,256.43,134.6,255.67Z" fill="#48ad8b"/>
              <g id="Grupo_87721" data-name="Grupo 87721">
                <path id="Trazado_102266" data-name="Trazado 102266" d="M29.45,171a542.913,542.913,0,0,0,100.94,81.6" fill="none" stroke="#c5e8fa" stroke-miterlimit="10" stroke-width="1"/>
                <path id="Trazado_102267" data-name="Trazado 102267" d="M31.63,186.49A26.66,26.66,0,0,1,41,182a17.14,17.14,0,0,1,1.88-9.57" fill="none" stroke="#c5e8fa" stroke-miterlimit="10" stroke-width="1"/>
                <path id="Trazado_102268" data-name="Trazado 102268" d="M47.45,209a20,20,0,0,1,14.34-7.69,33.37,33.37,0,0,1,2.49-19.62" fill="none" stroke="#c5e8fa" stroke-miterlimit="10" stroke-width="1"/>
                <path id="Trazado_102269" data-name="Trazado 102269" d="M69.3,226.28a22.18,22.18,0,0,1,13.25-8,53.81,53.81,0,0,1,.63-22.35" fill="none" stroke="#c5e8fa" stroke-miterlimit="10" stroke-width="1"/>
                <path id="Trazado_102270" data-name="Trazado 102270" d="M95.22,241.28a23.41,23.41,0,0,1,8.25-6.45,43.49,43.49,0,0,1,1.32-19" fill="none" stroke="#c5e8fa" stroke-miterlimit="10" stroke-width="1"/>
              </g>
            </g>
            <g id="Grupo_87724" data-name="Grupo 87724">
              <path id="Trazado_102271" data-name="Trazado 102271" d="M125.39,254.43c-11.85-15.13-29.77-26.63-49.94-32a108.23,108.23,0,0,0-62.09,2.1c20.61,22.39,53.94,35.54,87,34.31" fill="#c9fdec"/>
              <g id="Grupo_87723" data-name="Grupo 87723">
                <path id="Trazado_102272" data-name="Trazado 102272" d="M21.62,226.72a459.809,459.809,0,0,1,100.32,26.69" fill="none" stroke="#c5e8fa" stroke-miterlimit="10" stroke-width="1"/>
                <path id="Trazado_102273" data-name="Trazado 102273" d="M33.12,238.94a54.551,54.551,0,0,1,7.26-9.65,12.65,12.65,0,0,1-3.64-9.15" fill="none" stroke="#c5e8fa" stroke-miterlimit="10" stroke-width="1"/>
                <path id="Trazado_102274" data-name="Trazado 102274" d="M57.28,247.67a33.07,33.07,0,0,1,7.2-12.2,22.92,22.92,0,0,1-4.25-12.54" fill="none" stroke="#c5e8fa" stroke-miterlimit="10" stroke-width="1"/>
                <path id="Trazado_102275" data-name="Trazado 102275" d="M82.17,254.32a20.79,20.79,0,0,1,6.31-12.17,30,30,0,0,1-5.21-16.07" fill="none" stroke="#c5e8fa" stroke-miterlimit="10" stroke-width="1"/>
                <path id="Trazado_102276" data-name="Trazado 102276" d="M102.8,255.69a13.91,13.91,0,0,1,5.29-7.72,14.49,14.49,0,0,1-1.21-9.28" fill="none" stroke="#c5e8fa" stroke-miterlimit="10" stroke-width="1"/>
              </g>
            </g>
            <g id="Grupo_87726" data-name="Grupo 87726">
              <path id="Trazado_102277" data-name="Trazado 102277" d="M139.71,245.05c-.9-23.34-1.86-47.05-9.58-69.19S106.84,133,83,125.21c-3.35,16.52-6.4,33.26-5.63,50.07s5.66,33.9,16.66,47S122.79,243.81,139.71,245.05Z" fill="#c9fdec"/>
              <g id="Grupo_87725" data-name="Grupo 87725">
                <path id="Trazado_102278" data-name="Trazado 102278" d="M85.36,134.14c11.21,17.1,16.52,37,23.07,56.23s15,38.68,30.59,52.21" fill="none" stroke="#c5e8fa" stroke-miterlimit="10" stroke-width="1"/>
                <path id="Trazado_102279" data-name="Trazado 102279" d="M82.06,146.69a36.41,36.41,0,0,1,12.11,3.43,32.35,32.35,0,0,1,6.2-11.21" fill="none" stroke="#c5e8fa" stroke-miterlimit="10" stroke-width="1"/>
                <path id="Trazado_102280" data-name="Trazado 102280" d="M81.17,174.92a48.22,48.22,0,0,1,24.23,6,57.69,57.69,0,0,1,13.67-19.38" fill="none" stroke="#c5e8fa" stroke-miterlimit="10" stroke-width="1"/>
                <path id="Trazado_102281" data-name="Trazado 102281" d="M88,207.66a71.24,71.24,0,0,1,28.59,4.17,96,96,0,0,1,11.62-20.35" fill="none" stroke="#c5e8fa" stroke-miterlimit="10" stroke-width="1"/>
                <path id="Trazado_102282" data-name="Trazado 102282" d="M114.52,234.24l12.84-2.37a3.61,3.61,0,0,0,1.89-.75,3.17,3.17,0,0,0,.73-1.49l3.87-13.31" fill="none" stroke="#c5e8fa" stroke-miterlimit="10" stroke-width="1"/>
              </g>
            </g>
          </g>
        </g>
        <g id="Grupo_87747" data-name="Grupo 87747">
          <path id="Trazado_102283" data-name="Trazado 102283" d="M132.74,98.36c-3.83-.88-8.07-.45-11.21,2.11s-4.74,7.59-3,11.43c.56,1.22,1.47,2.44,1.26,3.8-.25,1.63-1.9,2.41-3.22,3.21-5.37,3.26-7.56,11.22-5.66,17.65a20.19,20.19,0,0,0,13.12,13.1c3.39,1.1,7.29,1.58,9.54,4.57,1.95,2.6,2,6.29,3.22,9.39,2.67,6.88,11,9.59,17.28,6.67s10.16-10.23,12-17.58c-.46-2.58,1.8-5,4.15-5.35s4.68.67,6.86,1.73,4.46,2.19,6.83,2c4.1-.35,7.11-4.63,8.21-9a22.42,22.42,0,0,0-1.77-15.56,18.88,18.88,0,0,0-11.32-9.47,39.119,39.119,0,0,1-5.32-1.46,6,6,0,0,1-3.68-4.16c-.4-2.05.59-4.09,1.13-6.11,1.81-6.75-1.84-14.42-7.53-17.61s-12.8-2.32-18.35,1.16C140.76,91.75,137.16,96.16,132.74,98.36Z" fill="#12263f"/>
          <g id="Grupo_87734" data-name="Grupo 87734">
            <g id="Grupo_87729" data-name="Grupo 87729">
              <path id="Trazado_102284" data-name="Trazado 102284" d="M126.36,118.3c3.31,3.67,4.89,8.56,7.46,12.8s6.91,8.14,11.82,7.56c3.56-.41,6.41-3.06,8.92-5.63a70.34,70.34,0,0,0,10.38-13.12c-2.16-1.47-7.32-2.87-8.41-5.26a10,10,0,0,1-.67-3.82c-.09-3,.4-6.69.59-10.06-6.19-.06-12.37-.12-19.13-.37-.22,4-.42,12-2.29,14.42a4.36,4.36,0,0,1-.35.4C132.8,117.24,129.76,117.85,126.36,118.3Z" fill="#fea483"/>
              <path id="Trazado_102285" data-name="Trazado 102285" d="M134.68,115.22c6.63,3,15,1.73,21.18-4.4-.09-3,.4-6.68.59-10.06-6.19-.05-12.37-.11-19.13-.36-.22,4-.42,12-2.29,14.42Z" fill="#eb8173"/>
            </g>
            <g id="Grupo_87733" data-name="Grupo 87733">
              <ellipse id="Elipse_4096" data-name="Elipse 4096" cx="7.17" cy="5.58" rx="7.17" ry="5.58" transform="translate(159.816 88.066) rotate(-14.35)" fill="#eb8173"/>
              <ellipse id="Elipse_4097" data-name="Elipse 4097" cx="5.58" cy="6.62" rx="5.58" ry="6.62" transform="translate(115.743 94.655) rotate(-70.1)" fill="#eb8173"/>
              <g id="Grupo_87730" data-name="Grupo 87730">
                <path id="Trazado_102286" data-name="Trazado 102286" d="M169,83.37C169,68.26,158.73,56,146.11,56s-22.84,12.25-22.84,27.36,8.53,27.23,20.45,27.89C157.13,112,169,98.48,169,83.37Z" fill="#fea483"/>
                <path id="Trazado_102287" data-name="Trazado 102287" d="M167.85,90.35a95.2,95.2,0,0,0-4-12.12,11.27,11.27,0,0,1-12.41-3.13,12.87,12.87,0,0,1-14.7-2.69,16.57,16.57,0,0,1-10.9,7.31,31.75,31.75,0,0,0-2.72,8.61,66.3,66.3,0,0,1,.07-15.74,8.33,8.33,0,0,1,1-3.44,8.91,8.91,0,0,1,3.41-2.73L144,57.26a44,44,0,0,0,25.41,11.06,49.54,49.54,0,0,1-.14,13.38Z" fill="#eb8173"/>
              </g>
              <g id="Grupo_87731" data-name="Grupo 87731">
                <path id="Trazado_102288" data-name="Trazado 102288" d="M167.5,92.38a50.07,50.07,0,0,0-2.56-17.66c-5.13,2.47-11.93.1-12.85-3.57-3.67,2.88-14.15,3.5-16.41-5.4-1.18,6.32-5.41,10-10.74,12a64.7,64.7,0,0,0-1,13.6c-2.61-5.27-3.27-9-3.27-15.58a13.469,13.469,0,0,1-2-2.54,12.94,12.94,0,0,1,3.84-17.32,21.28,21.28,0,0,1,10.9-3.34c7.15-10.17,20.76-6.33,23.22.26,7.06,0,11.44,2.24,14,5.67C177.72,68.11,170.4,87.13,167.5,92.38Z" fill="#12263f"/>
                <path id="Trazado_102289" data-name="Trazado 102289" d="M170.58,58.48a16.5,16.5,0,0,0-14.43-1.35,11.91,11.91,0,0,0-10.1-6.67,11.35,11.35,0,0,0-10.33,5.73,17,17,0,0,0-13.83,6.89,17.49,17.49,0,0,0-3.24,10.13,12.64,12.64,0,0,1-1.74-8,12.79,12.79,0,0,1,5.59-9.33,21.23,21.23,0,0,1,10.89-3.33c7.15-10.18,20.77-6.33,23.22.25C163.67,52.81,168.05,55.05,170.58,58.48Z" fill="#415165"/>
              </g>
              <g id="Grupo_87732" data-name="Grupo 87732">
                <ellipse id="Elipse_4098" data-name="Elipse 4098" cx="1.33" cy="1.86" rx="1.33" ry="1.86" transform="translate(153.95 86.44)" fill="#3a374e"/>
                <ellipse id="Elipse_4099" data-name="Elipse 4099" cx="1.33" cy="1.86" rx="1.33" ry="1.86" transform="translate(134.35 86.44)" fill="#3a374e"/>
                <path id="Trazado_102290" data-name="Trazado 102290" d="M136.47,78.89a6.78,6.78,0,0,0-6.31.73" fill="none" stroke="#2f1f40" stroke-linecap="round" stroke-miterlimit="10" stroke-width="2"/>
                <path id="Trazado_102291" data-name="Trazado 102291" d="M143.39,89.5a10.65,10.65,0,0,0,0,4.39" fill="none" stroke="#db5363" stroke-linecap="round" stroke-miterlimit="10" stroke-width="2"/>
                <path id="Trazado_102292" data-name="Trazado 102292" d="M158.22,79a8,8,0,0,0-6.91-.79" fill="none" stroke="#2f1f40" stroke-linecap="round" stroke-miterlimit="10" stroke-width="2"/>
                <path id="Trazado_102293" data-name="Trazado 102293" d="M140.47,99.56a8.82,8.82,0,0,0,10.36-1.2" fill="none" stroke="#db5363" stroke-linecap="round" stroke-miterlimit="10" stroke-width="2"/>
              </g>
            </g>
          </g>
          <g id="Grupo_87738" data-name="Grupo 87738">
            <g id="Grupo_87737" data-name="Grupo 87737">
              <g id="Grupo_87735" data-name="Grupo 87735">
                <path id="Trazado_102294" data-name="Trazado 102294" d="M70.8,222.51l6.75,8.87s27.15-29.47,31.89-38.52a152.741,152.741,0,0,0,6.3-15.19c3-8.16,5.9-16.7,7-20,.29-.91.46-1.42.46-1.42l-5.47-1.81-11.27-3.71s-2.2,7.35-4.6,15.13c-2.22,7.23-4.6,14.82-5.55,17.26C94.36,188.19,70.8,222.51,70.8,222.51Z" fill="#fea483"/>
                <path id="Trazado_102295" data-name="Trazado 102295" d="M101.88,165.86c2.77,4.06,7.78,10.11,13.87,11.81,3-8.16,5.9-16.7,7-20l-5-3.23-11.27-3.71S104.27,158.08,101.88,165.86Z" fill="#eb8173"/>
              </g>
              <g id="Grupo_87736" data-name="Grupo 87736">
                <path id="Trazado_102296" data-name="Trazado 102296" d="M60.8,219.88c6.13-.47,10.75-.62,17.42-1.62,1.34,2.86,5.43,4.32,5.3,8-.18,4.89-5.47,8.68-7.4,11.51a22.15,22.15,0,0,0-1.85,5.17c-.67,3.19-2.42,1-3-2.28-.35-2.16,1.83-6,.69-6.8s-5,.06-6.5.5a106.462,106.462,0,0,0-12.61,4.82c-.66.36-1.63.6-2.18-.25a1.89,1.89,0,0,1,.75-2.55c3.81-2.29,5.53-3.07,10-5.43-4.45.76-9.1,1.07-13.56,1.83a2.28,2.28,0,0,1-2.59-.91c-.42-.79,0-1.31.49-1.77a9,9,0,0,1,2.07-.94,1.33,1.33,0,0,1-.15-1.73,2.66,2.66,0,0,1,1.54-.87l9.2-2.7a64.256,64.256,0,0,0-8.33,1.4c-2.68.31-3.23-1-1.62-1.89A59.557,59.557,0,0,1,60.8,219.88Z" fill="#fea483"/>
                <path id="Trazado_102297" data-name="Trazado 102297" d="M48.6,229.05A79.3,79.3,0,0,1,60,226.88" fill="none" stroke="#db5363" stroke-linecap="round" stroke-miterlimit="10" stroke-width="1"/>
              </g>
            </g>
            <path id="Trazado_102298" data-name="Trazado 102298" d="M123.42,132.53l-5.26-11.43s-6.67,1.82-9,6.38c-2.12,4.16-9.48,29.71-9.48,29.71s9.74,10.58,21.77,8.69Z" fill="#0043a1"/>
          </g>
          <g id="Grupo_87741" data-name="Grupo 87741">
            <g id="Grupo_87740" data-name="Grupo 87740">
              <path id="Trazado_102299" data-name="Trazado 102299" d="M185.78,257.27H149.51c-2.28-9.34-3.95-16-3.95-16,0,.41,0,6.93.06,16H109.46c-1.8-10.89-3.42-21.68-4.51-31.07-2-17.54,4.61-30.86,11.89-40.92,1-1.43,2.08-2.83,3.09-4.2l.36-.49a234,234,0,0,0,44.65-3c.86,1.08,1.74,2.22,2.62,3.41h0q1.27,1.74,2.57,3.6c8.49,12.22,14.79,29.64,16.48,44.68C186.94,232.1,186.51,243.46,185.78,257.27Z" fill="#002d6b"/>
              <g id="Grupo_87739" data-name="Grupo 87739">
                <path id="Trazado_102300" data-name="Trazado 102300" d="M142.85,188.84a213.109,213.109,0,0,0,2.57,52" fill="none" stroke="#8a6da1" stroke-linecap="round" stroke-miterlimit="10" stroke-width="1"/>
                <path id="Trazado_102301" data-name="Trazado 102301" d="M147.78,188.54q.1,11.15.22,22.3a7.27,7.27,0,0,1-.37,2.94c-.89,2.09-2.59,2.84-4.81,3.35" fill="none" stroke="#8a6da1" stroke-linecap="round" stroke-miterlimit="10" stroke-width="1"/>
                <path id="Trazado_102302" data-name="Trazado 102302" d="M165.09,185.9c.9,2.28,1.84,4.63,3.62,6.31s4.63,2.48,6.71,1.19" fill="none" stroke="#8a6da1" stroke-linecap="round" stroke-miterlimit="10" stroke-width="1"/>
                <path id="Trazado_102303" data-name="Trazado 102303" d="M121.38,186.58a8.44,8.44,0,0,1-3.61,4.89,6.34,6.34,0,0,1-5.2.63" fill="none" stroke="#8a6da1" stroke-linecap="round" stroke-miterlimit="10" stroke-width="1"/>
              </g>
            </g>
            <path id="Trazado_102304" data-name="Trazado 102304" d="M117.61,185.12c16,5.43,34.51,4.12,51.1-.62" fill="none" stroke="#8a6da1" stroke-linecap="round" stroke-miterlimit="10" stroke-width="1"/>
          </g>
          <g id="Grupo_87742" data-name="Grupo 87742">
            <path id="Trazado_102305" data-name="Trazado 102305" d="M180.91,130.08a172,172,0,0,1-13.56,51.38c-19.26,3.81-33.92,2.19-47.91-.47-1.14-4.1-2.17-8.28-3.08-12.49-.23-1.07-.45-2.13-.67-3.2a224.366,224.366,0,0,1-4.23-35.44,8.85,8.85,0,0,1,5.27-8.43,97.191,97.191,0,0,1,13.71-4.8c2.84,6.61,3.39,13.56,12.13,15.07,8.25,1.43,13.91-6.26,19.47-14.8a61.24,61.24,0,0,1,15.71,9.87,26.808,26.808,0,0,1,3.16,3.31Z" fill="#0059d6"/>
            <path id="Trazado_102306" data-name="Trazado 102306" d="M180.91,130.08a172,172,0,0,1-13.56,51.38c-19.26,3.81-33.92,2.19-47.91-.47-1.14-4.1-2.17-8.28-3.08-12.49,10.42,3.19,30.85,3.82,44.6-5.58,8.57-5.86,11.14-14.83,13.56-21.91a77.679,77.679,0,0,0,3.22-14.24,26.212,26.212,0,0,1,3.17,3.31Z" fill="#0043a1"/>
          </g>
          <g id="Grupo_87746" data-name="Grupo 87746">
            <g id="Grupo_87745" data-name="Grupo 87745">
              <g id="Grupo_87743" data-name="Grupo 87743">
                <path id="Trazado_102307" data-name="Trazado 102307" d="M238.49,202.88l-2.88,9.41S192.13,201.21,187,192.4a150.206,150.206,0,0,1-7-14.86c-3.43-8-6.71-16.39-8-19.64-.34-.89-.54-1.39-.54-1.39l5.38-2.07,11.08-4.27s2.55,7.24,5.33,14.9c2.57,7.1,5.32,14.56,6.38,17C201.79,187,238.49,202.88,238.49,202.88Z" fill="#fea483"/>
                <path id="Trazado_102308" data-name="Trazado 102308" d="M193.18,165.07c-2.56,4.18-7.27,10.47-13.27,12.47-3.42-8-6.71-16.39-8-19.64l4.84-3.46,11.07-4.27S190.41,157.41,193.18,165.07Z" fill="#eb8173"/>
              </g>
              <g id="Grupo_87744" data-name="Grupo 87744">
                <path id="Trazado_102309" data-name="Trazado 102309" d="M251.36,196.2c-5.86,1.85-10.22,3.42-16.77,5-.18,3.14-3.43,6-2,9.38,2,4.48,8.31,6,11.15,7.93a22.321,22.321,0,0,1,3.65,4.11c1.81,2.71,2.62,0,1.89-3.21-.47-2.14-3.92-4.87-3.17-6s4.67-1.81,6.22-2a107,107,0,0,1,13.5-.22c.75.08,1.74,0,1.93-1a1.9,1.9,0,0,0-1.65-2.09c-4.38-.7-6.27-.79-11.26-1.32,4.42-1,8.85-2.41,13.26-3.36.87-.19,1.93-.62,2.06-1.8.11-.9-.47-1.22-1.1-1.46a8.41,8.41,0,0,0-2.27-.1,1.32,1.32,0,0,0-.51-1.66,2.6,2.6,0,0,0-1.75-.24L255,199a66.162,66.162,0,0,1,8.26-1.8c2.6-.71,2.61-2.14.8-2.36a63.371,63.371,0,0,0-12.7,1.36Z" fill="#fea483"/>
                <path id="Trazado_102310" data-name="Trazado 102310" d="M266.1,200.17a78,78,0,0,0-11.43,2.24" fill="none" stroke="#db5363" stroke-linecap="round" stroke-miterlimit="10" stroke-width="1"/>
              </g>
            </g>
            <path id="Trazado_102311" data-name="Trazado 102311" d="M165,142.89l10.1-17.83s7.68,4.25,9.74,10S194,161.49,194,161.49c-.71,4-14.13,11.14-19.22,12Z" fill="#0059d6"/>
          </g>
        </g>
      </g>
      <ellipse id="Elipse_4100" data-name="Elipse 4100" cx="147.92" cy="3.08" rx="147.92" ry="3.08" transform="translate(1.85 255.34)" fill="#e6b5bb"/>
      <g id="Grupo_87833" data-name="Grupo 87833">
        <g id="Grupo_87776" data-name="Grupo 87776">
          <g id="Grupo_87754" data-name="Grupo 87754">
            <g id="Grupo_87750" data-name="Grupo 87750">
              <g id="Grupo_87749" data-name="Grupo 87749">
                <path id="Trazado_102312" data-name="Trazado 102312" d="M167.81,258.35c0,1.67,18.28,1.7,19.1.35.53-.88-.45-3.17-1.21-4.67-.39-.79-.73-1.37-.73-1.37l-2.32-3.19-1.85-.11a87.149,87.149,0,0,0-10.66,6.34C168.68,256.81,167.8,257.73,167.81,258.35Z" fill="#1a132e"/>
                <path id="Trazado_102313" data-name="Trazado 102313" d="M170.14,255.71c3.77,2.41,12.46-.5,15.56-1.67-.39-.8-.73-1.37-.73-1.37l-2.32-3.2-1.85-.11a87.058,87.058,0,0,0-10.66,6.35Z" fill="#eb8173"/>
              </g>
              <path id="Trazado_102314" data-name="Trazado 102314" d="M187.24,189.65s4.79,12.91,3.34,20.1-7.21,42.62-7.21,42.62l-6.67.47,1.79-59Z" fill="#eb8173"/>
            </g>
            <g id="Grupo_87753" data-name="Grupo 87753">
              <g id="Grupo_87751" data-name="Grupo 87751">
                <path id="Trazado_102315" data-name="Trazado 102315" d="M188.81,254.58c1.5.72,9.81-15.52,9-16.86-.54-.88-3-1.05-4.71-1.05h-1.55l-3.9.62-.94,1.6a85.728,85.728,0,0,0,.82,12.38C187.83,253.1,188.24,254.31,188.81,254.58Z" fill="#1a132e"/>
                <path id="Trazado_102316" data-name="Trazado 102316" d="M187.51,251.3c3.85-2.27,5.2-11.34,5.57-14.63h-1.55l-3.9.62-.94,1.6a85.728,85.728,0,0,0,.82,12.41Z" fill="#fea483"/>
              </g>
              <g id="Grupo_87752" data-name="Grupo 87752">
                <path id="Trazado_102317" data-name="Trazado 102317" d="M190.75,238.69l-3.54,6.94s-21.06-18.09-21.27-21.81c0-.66,0-2.25.17-4.43.16-2.62.43-6.09.72-9.81.86-10.8,2-23.64,2-23.64L188,203.42s-.91,1.9-2.17,4.56c-1.45,3.05-3.35,7.12-4.86,10.5s-2.57,5.93-2.5,6.3C178.69,225.86,190.75,238.69,190.75,238.69Z" fill="#fea483"/>
                <path id="Trazado_102318" data-name="Trazado 102318" d="M185.83,208c-1.45,3-3.35,7.12-4.86,10.49a48.14,48.14,0,0,1-14.86.92c.16-2.63.43-6.1.72-9.82Z" fill="#eb8173"/>
              </g>
            </g>
          </g>
          <path id="Trazado_102319" data-name="Trazado 102319" d="M167.65,180.45c.42.58-3.47,19-4.57,36.73,0,0,21.72,3.13,32.27-.92a208.6,208.6,0,0,0-5-30.55Z" fill="#1a132e"/>
          <g id="Grupo_87761" data-name="Grupo 87761">
            <g id="Grupo_87760" data-name="Grupo 87760">
              <path id="Trazado_102320" data-name="Trazado 102320" d="M154.46,145.43l-2.64,5.3-2.45-3.22-1.13-1.47-.37-.5,3.38-2.49.41.31.48.36Z" fill="#fea483"/>
              <g id="Grupo_87759" data-name="Grupo 87759">
                <g id="Grupo_87758" data-name="Grupo 87758">
                  <g id="Grupo_87756" data-name="Grupo 87756">
                    <path id="Trazado_102321" data-name="Trazado 102321" d="M147.46,141a4.58,4.58,0,0,1-4.11,5,4,4,0,0,1-1.72-.24h0a4.72,4.72,0,0,1-3-4.14,4.6,4.6,0,0,1,4.11-5,4.22,4.22,0,0,1,2.17.44,4.76,4.76,0,0,1,2.55,3.94Z" fill="#7bcce0"/>
                    <path id="Trazado_102322" data-name="Trazado 102322" d="M147.46,141a4.58,4.58,0,0,1-4.11,5,4,4,0,0,1-1.72-.24h0a4.75,4.75,0,0,1-2.69-4,4.57,4.57,0,0,1,4.1-5,4.17,4.17,0,0,1,1.86.3A4.76,4.76,0,0,1,147.46,141Z" fill="#51a9c9"/>
                    <g id="Grupo_87755" data-name="Grupo 87755">
                      <path id="Trazado_102323" data-name="Trazado 102323" d="M138.84,140.75l3.87.54.07.88-3.78.77Z" fill="#7bcce0"/>
                      <path id="Trazado_102324" data-name="Trazado 102324" d="M139.13,139.56l3.39.97.22-.38-2.86-1.96Z" fill="#7bcce0"/>
                    </g>
                  </g>
                  <g id="Grupo_87757" data-name="Grupo 87757">
                    <path id="Trazado_102325" data-name="Trazado 102325" d="M143.25,139.43a2,2,0,0,0,.19,4h0l1.91-.13.05-4.08Z" fill="#2c7fa3"/>
                    <circle id="Elipse_4101" data-name="Elipse 4101" cx="2.03" cy="2.03" r="2.03" transform="translate(143.03 139.31)" fill="#6eb2c4"/>
                  </g>
                </g>
                <path id="Trazado_102326" data-name="Trazado 102326" d="M148.33,146c-.93.33-3.63-.55-4.32-1.19s-1.16-1.56-.51-1.86c.32-.15.92.17,2.11-.07.28-1.72-.83-2.9-1-3.62-.25-1,1.72-1.37,2.17-.56a1.74,1.74,0,0,1,2.42.5,1.33,1.33,0,0,1,1.24.15,1.1,1.1,0,0,1,.44,1.08c.69,0,1,.29,1.08,1,.09,1.09-.47,3.29-1.53,3.78a16.341,16.341,0,0,1-2.1.79Z" fill="#fea483"/>
              </g>
            </g>
            <path id="Trazado_102327" data-name="Trazado 102327" d="M182.8,149.48s-12.57,1.62-16,.93c-4-.82-14.11-6.74-14.11-6.74L149,151.32s11.64,8.14,15.51,9.47c4.18,1.44,17.48,2.5,17.48,2.5Z" fill="#c7cbd4"/>
          </g>
          <g id="Grupo_87768" data-name="Grupo 87768">
            <g id="Grupo_87767" data-name="Grupo 87767">
              <g id="Grupo_87764" data-name="Grupo 87764">
                <g id="Grupo_87763" data-name="Grupo 87763">
                  <path id="Trazado_102328" data-name="Trazado 102328" d="M151.32,160.05s-3.42-2.06-4-1.1,3.26,3.57,3.26,3.57Z" fill="#eb8173"/>
                  <path id="Trazado_102329" data-name="Trazado 102329" d="M155.07,160.1a1.71,1.71,0,0,0-.7-1.18,1.88,1.88,0,0,0-1-.14l-2,.07a3.72,3.72,0,0,0-2.09.48,1.21,1.21,0,0,0-.09,1.94,1.14,1.14,0,0,0-.69.91,1.28,1.28,0,0,0,.51,1.1,1.06,1.06,0,0,0-.48.92.79.79,0,0,0,.67.82,1.23,1.23,0,0,0,.06,1.56,1.84,1.84,0,0,0,1.49.67c.77,1.74,3.06,1.84,3.06,1.84S156,167.63,157,167C156.86,166.53,155.54,161.87,155.07,160.1Z" fill="#fea483"/>
                  <g id="Grupo_87762" data-name="Grupo 87762">
                    <path id="Trazado_102330" data-name="Trazado 102330" d="M149.45,161.14a12.38,12.38,0,0,1,3.27-.19" fill="none" stroke="#d45053" stroke-linecap="round" stroke-linejoin="round" stroke-width="1"/>
                    <path id="Trazado_102331" data-name="Trazado 102331" d="M149.22,163.17a11,11,0,0,1,2.91-.24" fill="none" stroke="#d45053" stroke-linecap="round" stroke-linejoin="round" stroke-width="1"/>
                    <path id="Trazado_102332" data-name="Trazado 102332" d="M149.39,164.84a13.659,13.659,0,0,1,2.29-.37" fill="none" stroke="#d45053" stroke-linecap="round" stroke-linejoin="round" stroke-width="1"/>
                    <path id="Trazado_102333" data-name="Trazado 102333" d="M150.88,166.84a1,1,0,0,1,.13-.9" fill="none" stroke="#d45053" stroke-linecap="round" stroke-linejoin="round" stroke-width="1"/>
                    <path id="Trazado_102334" data-name="Trazado 102334" d="M150.77,166.46a1.66,1.66,0,0,1-.78-.27" fill="none" stroke="#d45053" stroke-linecap="round" stroke-linejoin="round" stroke-width="1"/>
                  </g>
                </g>
                <path id="Trazado_102335" data-name="Trazado 102335" d="M156.3,165.51l3.46,2.36-2.88,4.54-4.22-3.65Z" fill="#fea483"/>
              </g>
              <g id="Grupo_87766" data-name="Grupo 87766">
                <path id="Trazado_102336" data-name="Trazado 102336" d="M169.35,152.93c1.52-3.06,6.86-6.36,11.65-6a9.36,9.36,0,0,1,8.44,7c.52,2.89.33,21.47.46,23.85S196.61,209,196.61,209c-3.34,3.75-22.06,4.81-30.19,1.85,0,0,.85-22.89.85-31C167.27,166.81,166.39,158.88,169.35,152.93Z" fill="#fefffe"/>
                <path id="Trazado_102337" data-name="Trazado 102337" d="M177.32,152.3c-1.33-1.3-4.95-2.74-7.42.51s-2.75,16.8-5.1,17.23c-1.56.27-6.43-4.14-6.43-4.14l-4.86,8.45s11.15,8.45,14.65,7.19,10.72-14.22,11.07-19S179.05,154,177.32,152.3Z" fill="#fefffe"/>
                <g id="Grupo_87765" data-name="Grupo 87765">
                  <path id="Trazado_102338" data-name="Trazado 102338" d="M167.65,181.66a4.19,4.19,0,0,0,2.33-.34c2.15-1.23,8.15-14.16,8.49-22.22" fill="none" stroke="#e5e5e5" stroke-linecap="round" stroke-miterlimit="10" stroke-width="0.5"/>
                  <path id="Trazado_102339" data-name="Trazado 102339" d="M175.85,170.38a7.23,7.23,0,0,0,2.83-2.16" fill="none" stroke="#e5e5e5" stroke-linecap="round" stroke-miterlimit="10" stroke-width="0.5"/>
                </g>
              </g>
            </g>
            <path id="Trazado_102340" data-name="Trazado 102340" d="M168.84,202.32l8.63,2.2-.4,1.86-8.58-2.3Z" fill="#e5e5e5"/>
          </g>
          <g id="Grupo_87775" data-name="Grupo 87775">
            <g id="Grupo_87772" data-name="Grupo 87772">
              <g id="Grupo_87769" data-name="Grupo 87769">
                <path id="Trazado_102341" data-name="Trazado 102341" d="M184.53,137.14l-.06.34c-1.08,5.32-8.35,8.17-12.56,7.42a2.25,2.25,0,0,1-1.06-.52c-1.73-1.43-2.48-5.5-1.57-10A12.541,12.541,0,0,1,170,132c1.58-3.67,4.77-6,8-5.77a6.892,6.892,0,0,1,.76.1C182.93,127.15,185.44,132,184.53,137.14Z" fill="#fea483"/>
                <path id="Trazado_102342" data-name="Trazado 102342" d="M180.24,131.1a2.12,2.12,0,0,1-.52.67c-.9.9-1.81,1.79-3.27,3.23a3.72,3.72,0,0,1-1.91-2.85.62.62,0,0,1-.58.56,1.24,1.24,0,0,1-.82-.28,7,7,0,0,0-.72-.53,2.39,2.39,0,0,0-2-.09c-.15.05-.29.12-.43.18,1.58-3.67,4.77-6,8-5.77a14.871,14.871,0,0,0,1.55,2.89C180,129.71,180.5,130.43,180.24,131.1Z" fill="#eb8173"/>
                <path id="Trazado_102343" data-name="Trazado 102343" d="M184.53,137.14l-.06.34c-1.08,5.32-8.35,8.17-12.56,7.42a2.25,2.25,0,0,1-1.06-.52c1.84.33,2.77.09,4.53-1.29s2-2.81,2-5.71a14.209,14.209,0,0,1,2.85.94,6.14,6.14,0,0,1,2.93-1.37,3.56,3.56,0,0,1,1.37.19Z" fill="#eb8173"/>
              </g>
              <g id="Grupo_87770" data-name="Grupo 87770">
                <path id="Trazado_102344" data-name="Trazado 102344" d="M173.69,133.52a1.64,1.64,0,0,0-2.49-.72" fill="none" stroke="#1a132e" stroke-linecap="round" stroke-miterlimit="10" stroke-width="1"/>
                <path id="Trazado_102345" data-name="Trazado 102345" d="M171,135.16c.07-.37.33-.63.58-.59s.37.4.3.77-.34.64-.58.59S170.9,135.54,171,135.16Z" fill="#2e3252"/>
                <path id="Trazado_102346" data-name="Trazado 102346" d="M169.51,139.52a9.83,9.83,0,0,0,3-.77,2.14,2.14,0,0,1-1.4,1.69A1.42,1.42,0,0,1,169.51,139.52Z" fill="#d45053"/>
              </g>
              <g id="Grupo_87771" data-name="Grupo 87771">
                <path id="Trazado_102347" data-name="Trazado 102347" d="M190.79,141.48c-.85,2-1.14,4.3-2.79,5.72a7,7,0,0,1-6.08,1.58,12.8,12.8,0,0,0-3.35-.81c-1.37,0-2.79.94-4,.35s-1.37-2.22-.84-3.4a11.44,11.44,0,0,1,2.47-3c.9-.93,2.29-2.27,1.63-3.38-2.1-3.5-3.4-6.06-2.35-8.43-1.72,1.34-.27,1.88-1.56,2-.7.06-1-.91-1.63-1.22a1.64,1.64,0,0,0-1.44.14,4.561,4.561,0,0,1-1.37.58,1.88,1.88,0,0,1-1.66-.71l-.18-.25a3,3,0,0,1-.32-2.12,4.49,4.49,0,0,1,2.76-3.35c.87-.33,1.83-.37,2.68-.75s1.41-1,2.19-1.26a3.05,3.05,0,0,1,4,2,15.36,15.36,0,0,1,4.54.48,6,6,0,0,1,2.93,1.92,3.56,3.56,0,0,1,.53.85c.88,1.94.18,4.32,1.08,6.25a8.89,8.89,0,0,0,1.6,2.12A7.11,7.11,0,0,1,191.1,139a3.42,3.42,0,0,1-.31,2.48Z" fill="#1a132e"/>
                <path id="Trazado_102348" data-name="Trazado 102348" d="M186.35,127.57a12.7,12.7,0,0,0-9.21-1.11,1,1,0,0,0-.23-1.32,1.67,1.67,0,0,0-1.43-.18,7.45,7.45,0,0,0-1.35.61c-1.13.57-2.36.93-3.49,1.5a5.35,5.35,0,0,0-2.66,2.58,3.1,3.1,0,0,0-.2,1.29l-.18-.25a3,3,0,0,1-.32-2.12,4.45,4.45,0,0,1,2.76-3.35c.87-.33,1.83-.37,2.68-.76a23.164,23.164,0,0,1,2.2-1.25,3,3,0,0,1,4,2,15.36,15.36,0,0,1,4.54.48,5.9,5.9,0,0,1,2.89,1.88Z" fill="#4c3252"/>
              </g>
              <path id="Trazado_102349" data-name="Trazado 102349" d="M169.64,134.89s-1.83,1.14-1.86,2.1,1.65,1.16,1.65,1.16" fill="#fea483"/>
              <path id="Trazado_102350" data-name="Trazado 102350" d="M176.62,135.84a1.63,1.63,0,1,1-1.21,2.28,1.86,1.86,0,0,1,1.21-2.28Z" fill="#fea483"/>
            </g>
            <g id="Grupo_87774" data-name="Grupo 87774">
              <g id="Grupo_87773" data-name="Grupo 87773">
                <circle id="Elipse_4102" data-name="Elipse 4102" cx="0.69" cy="0.69" r="0.69" transform="translate(176.83 136.54)" fill="#bfd2ff"/>
                <path id="Trazado_102351" data-name="Trazado 102351" d="M177.48,137.43a84.784,84.784,0,0,1-4.3,7.71c-.86,1.32-1.88,2.07-2.43,1.94-.81-.2-.81-1.25-.26-2.58" fill="none" stroke="#393659" stroke-linecap="round" stroke-miterlimit="10" stroke-width="1"/>
              </g>
              <path id="Trazado_102352" data-name="Trazado 102352" d="M170.83,147.21s-5.74,11.56-14.7,11.49c-8,0-12-13.54-12-13.54" fill="none" stroke="#393659" stroke-linecap="round" stroke-miterlimit="10" stroke-width="1"/>
            </g>
          </g>
        </g>
        <g id="Grupo_87806" data-name="Grupo 87806">
          <g id="Grupo_87777" data-name="Grupo 87777">
            <path id="Trazado_102353" data-name="Trazado 102353" d="M225.49,166.46l-2.91,6.91L209.48,177s13.78,6.34,16,4.84,7.73-9.44,7.73-9.44Z" fill="#eb8173"/>
            <path id="Trazado_102354" data-name="Trazado 102354" d="M235.82,158.88l-.6-7.32s-4.88,1.61-6.81,4.6c-1.58,2.45-4.71,12.26-4.71,12.26l9,3.51Z" fill="#c7cbd4"/>
          </g>
          <g id="Grupo_87797" data-name="Grupo 87797">
            <g id="Grupo_87784" data-name="Grupo 87784">
              <g id="Grupo_87780" data-name="Grupo 87780">
                <g id="Grupo_87779" data-name="Grupo 87779">
                  <g id="Grupo_87778" data-name="Grupo 87778">
                    <path id="Trazado_102355" data-name="Trazado 102355" d="M224.07,257.56c.08,1.39,16,1,16.71-.11.45-.75-.49-2.63-1.19-3.86-.38-.66-.69-1.12-.69-1.12l-2.13-2.61-1.62-.05a73.942,73.942,0,0,0-9.12,5.5C224.78,256.25,224,257,224.07,257.56Z" fill="#3d3c73"/>
                    <path id="Trazado_102356" data-name="Trazado 102356" d="M226,255.3c3.37,1.92,10.88-.67,13.57-1.71-.38-.66-.69-1.13-.69-1.13l-2.13-2.61h-1.62A77.565,77.565,0,0,0,226,255.3Z" fill="#fea483"/>
                  </g>
                  <path id="Trazado_102357" data-name="Trazado 102357" d="M227.5,202.64l.37,3.47,1.26,11.91.12,1.13,3.41,32.01.13,1.24,6.08.47.02-.41v-.01L239.97,222l.07-2.28.35-9.8.01-.3Z" fill="#fea483"/>
                </g>
                <path id="Trazado_102358" data-name="Trazado 102358" d="M227.87,206.11,229.13,218a40.869,40.869,0,0,0,10.91,1.7l.35-9.8Z" fill="#eb8173"/>
              </g>
              <g id="Grupo_87783" data-name="Grupo 87783">
                <g id="Grupo_87781" data-name="Grupo 87781">
                  <path id="Trazado_102359" data-name="Trazado 102359" d="M250.07,259.49c1,1.06,13.27-8.27,13.08-9.56-.13-.84-2.07-1.82-3.41-2.39-.71-.31-1.25-.5-1.25-.5l-3.35-.88-1.31.88a67.492,67.492,0,0,0-3.66,9.55C249.8,258.05,249.72,259.1,250.07,259.49Z" fill="#3d3c73"/>
                  <path id="Trazado_102360" data-name="Trazado 102360" d="M250.17,256.59c3.89-.38,8.12-6.7,9.57-9-.71-.31-1.25-.5-1.25-.5l-3.35-.88-1.31.88a68.431,68.431,0,0,0-3.66,9.5Z" fill="#fea483"/>
                </g>
                <g id="Grupo_87782" data-name="Grupo 87782">
                  <path id="Trazado_102361" data-name="Trazado 102361" d="M239.59,201.52s.13,2,.33,5c.23,3.25.55,7.64.89,11.85.42,5.12.88,10,1.27,12.15S253,250.86,253,250.86l5.42-3.6s-6.79-16.84-7.08-18.63a70.646,70.646,0,0,1,.76-9.34c.5-4.14,1.08-8.47,1.33-10.37l.14-1Z" fill="#fea483"/>
                  <path id="Trazado_102362" data-name="Trazado 102362" d="M239.92,206.55c.23,3.25.55,7.64.89,11.85,2.74.62,7.73,1.52,11.25.89.49-4.14,1.07-8.47,1.33-10.37Z" fill="#eb8173"/>
                </g>
              </g>
            </g>
            <g id="Grupo_87791" data-name="Grupo 87791">
              <g id="Grupo_87785" data-name="Grupo 87785">
                <path id="Trazado_102363" data-name="Trazado 102363" d="M238.54,151.1s.7,4,2.55,4.19c2.55.21,7.41-4.7,7.41-4.7a5.64,5.64,0,0,1-1.24-3.36,22.834,22.834,0,0,1-.12-3.21l-7,2.23a7.67,7.67,0,0,1-.35,3.21,2.68,2.68,0,0,1-1.25,1.64Z" fill="#fea483"/>
                <path id="Trazado_102364" data-name="Trazado 102364" d="M239.82,149.46a8.08,8.08,0,0,0,7.44-2.23,22.832,22.832,0,0,1-.12-3.21l-7,2.23A7.67,7.67,0,0,1,239.82,149.46Z" fill="#eb8173"/>
              </g>
              <g id="Grupo_87790" data-name="Grupo 87790">
                <path id="Trazado_102365" data-name="Trazado 102365" d="M232.45,137.72a2.68,2.68,0,1,1,1.08,3.28A2.46,2.46,0,0,1,232.45,137.72Z" fill="#eb8173"/>
                <g id="Grupo_87786" data-name="Grupo 87786">
                  <path id="Trazado_102366" data-name="Trazado 102366" d="M251.48,139.74c1.25-5.58-1-11-5.69-12s-9.48-.59-10.88,8.23c-1,6,1,10.88,5.27,11.48a10.57,10.57,0,0,0,11.3-7.71Z" fill="#fea483"/>
                  <path id="Trazado_102367" data-name="Trazado 102367" d="M250.71,141.9a27.391,27.391,0,0,0-3.12-7.14,13.509,13.509,0,0,1-3.54-1.11,4.69,4.69,0,0,1-2.4-2.64,16,16,0,0,1-5.12,2.28,12.72,12.72,0,0,0-1.76,3.9,32.945,32.945,0,0,1,.85-4.62,4.7,4.7,0,0,1,.58-1.38,5.58,5.58,0,0,1,2.56-1.72l4-1.68a2.16,2.16,0,0,1,1.26-.25,2,2,0,0,1,.75.37c1.72,1.15,3.44,2.3,5.31,3.57C251.37,134.12,251.11,138,250.71,141.9Z" fill="#eb8173"/>
                </g>
                <g id="Grupo_87788" data-name="Grupo 87788">
                  <path id="Trazado_102368" data-name="Trazado 102368" d="M248.27,127.8a4.25,4.25,0,0,1,2.42-4.28,4.86,4.86,0,0,1,4.95.66,5.62,5.62,0,0,1,2,4.65,4.93,4.93,0,0,1-1.43,3.34,3.66,3.66,0,0,1-3.28,1C251.36,131.5,249.89,129.75,248.27,127.8Z" fill="#111126"/>
                  <g id="Grupo_87787" data-name="Grupo 87787">
                    <path id="Trazado_102369" data-name="Trazado 102369" d="M252.79,140.81c-.53,1.2-1.59.38-2.64,1.09-.28-3-.58-5.94-2.52-8.26a6.49,6.49,0,0,1-5.55-4.36,31.55,31.55,0,0,1-5.84,3.58,16.59,16.59,0,0,0-1.56,6.38,28.8,28.8,0,0,1,0-5.87,2.539,2.539,0,0,1,.1-.55,9,9,0,0,1,2-4.36,8.54,8.54,0,0,1,5.17-2.6,13.14,13.14,0,0,1,5.83.63,11.628,11.628,0,0,1,1.45.55,6.73,6.73,0,0,1,3.57,3.07,13.12,13.12,0,0,1-.01,10.7Z" fill="#1e192e"/>
                    <path id="Trazado_102370" data-name="Trazado 102370" d="M249.23,127a13.19,13.19,0,0,0-14.49,5.79,9.06,9.06,0,0,1,2-4.37,8.54,8.54,0,0,1,5.17-2.6,13.28,13.28,0,0,1,5.83.63C248.27,126.65,248.75,126.83,249.23,127Z" fill="#462c4d"/>
                  </g>
                </g>
                <path id="Trazado_102371" data-name="Trazado 102371" d="M251.4,139.82a2.15,2.15,0,1,1-2.59,2.2,2.45,2.45,0,0,1,2.59-2.2Z" fill="#fea483"/>
                <g id="Grupo_87789" data-name="Grupo 87789">
                  <path id="Trazado_102372" data-name="Trazado 102372" d="M242.51,139.31c.06-.38.33-.66.6-.62s.45.39.4.77-.33.66-.61.62S242.45,139.7,242.51,139.31Z" fill="#282c33"/>
                  <path id="Trazado_102373" data-name="Trazado 102373" d="M236.13,137.8c.07-.38.35-.65.62-.6a.63.63,0,0,1,.38.78c-.07.39-.34.65-.62.6S236.07,138.19,236.13,137.8Z" fill="#282c33"/>
                  <path id="Trazado_102374" data-name="Trazado 102374" d="M238.48,135.16a2,2,0,0,0-2.62-.39" fill="none" stroke="#1e192e" stroke-linecap="round" stroke-miterlimit="10" stroke-width="1"/>
                  <path id="Trazado_102375" data-name="Trazado 102375" d="M239.17,138.69a6.14,6.14,0,0,0-.22,2.57" fill="none" stroke="#db5363" stroke-linecap="round" stroke-miterlimit="10" stroke-width="1"/>
                  <path id="Trazado_102376" data-name="Trazado 102376" d="M245.9,136.8a2.32,2.32,0,0,0-2.9-.8" fill="none" stroke="#1e192e" stroke-linecap="round" stroke-miterlimit="10" stroke-width="1"/>
                  <path id="Trazado_102377" data-name="Trazado 102377" d="M238.5,142.93a2.05,2.05,0,0,0,3.37-.29" fill="none" stroke="#db5363" stroke-linecap="round" stroke-miterlimit="10" stroke-width="1"/>
                </g>
              </g>
            </g>
            <g id="Grupo_87796" data-name="Grupo 87796">
              <g id="Grupo_87792" data-name="Grupo 87792">
                <path id="Trazado_102378" data-name="Trazado 102378" d="M226.81,215c3.63,2.56,22.08,2.47,28.24-.27,0,0,.17-13.4-1.05-21.14a3.363,3.363,0,0,0-.11-.62c-.27-1.53-.61-3.07-1-4.58-.73-2.83-1.62-5.51-2.35-7.53-.19-.52-.36-1-.52-1.42-.54-1.42-.9-2.29-.9-2.29l-7.53,2.77-.3.13-13.18,6-.2,4.54Z" fill="#fefffe"/>
                <path id="Trazado_102379" data-name="Trazado 102379" d="M227.9,190.55c5.33,1.57,18.42-.05,25-2.21-.74-2.83-1.63-5.51-2.36-7.54-.18-.52-.36-1-.51-1.41-2.33.15-5.46.37-8.74.61l-13.18,6Z" fill="#c7cbd4"/>
              </g>
              <path id="Trazado_102380" data-name="Trazado 102380" d="M248,149.92l-7.44,4.82L239.39,150s-5.57,1.61-7,3.05-3.51,8.4-3.75,10.34c-.47,3.85.74,9.86.51,13s-1.79,11.93-1.79,11.93l8.34,1.88.55-1.6.28,1.65,16.91-2.75s-2.42-11.4-2.09-13.24,3.92-13.69,3.7-17.59S248,149.92,248,149.92Z" fill="#fefffe"/>
              <g id="Grupo_87793" data-name="Grupo 87793">
                <path id="Trazado_102381" data-name="Trazado 102381" d="M240.57,154.77a15.54,15.54,0,0,1,1.32-3.09c.44-.44,6.28-3.69,6.43-3.35a14.611,14.611,0,0,1,.63,2.06Z" fill="#bfd2ff"/>
                <path id="Trazado_102382" data-name="Trazado 102382" d="M240.57,154.77a.22.22,0,0,0,.05-.1c0-.56,0-2.49-.05-2.94a20.291,20.291,0,0,0-1-3.13c-.2-.07-1,1.66-1,1.66Z" fill="#bfd2ff"/>
              </g>
              <g id="Grupo_87795" data-name="Grupo 87795">
                <g id="Grupo_87794" data-name="Grupo 87794">
                  <circle id="Elipse_4103" data-name="Elipse 4103" cx="0.55" cy="0.55" r="0.55" transform="translate(240.79 156.4)" fill="#3d3c73"/>
                  <circle id="Elipse_4104" data-name="Elipse 4104" cx="0.55" cy="0.55" r="0.55" transform="translate(237.99 166.23)" fill="#3d3c73"/>
                  <circle id="Elipse_4105" data-name="Elipse 4105" cx="0.55" cy="0.55" r="0.55" transform="translate(237.85 177.09)" fill="#3d3c73"/>
                </g>
                <path id="Trazado_102383" data-name="Trazado 102383" d="M240.57,154.77s-3.08,9.15-3.29,11.79-.11,5.73-.11,8.6-.93,13.12-.93,13.12" fill="none" stroke="#bfd2ff" stroke-linecap="round" stroke-miterlimit="10" stroke-width="0.5"/>
              </g>
            </g>
          </g>
          <g id="Grupo_87801" data-name="Grupo 87801">
            <g id="Grupo_87799" data-name="Grupo 87799">
              <g id="Grupo_87798" data-name="Grupo 87798">
                <path id="Trazado_102384" data-name="Trazado 102384" d="M206.94,173.34l10.46,10.6,10,10.18c3.16,3.2,8.13,3.43,11.11.49.21-.21.41-.43.59-.65a7.37,7.37,0,0,0,1.54-4.79,8.52,8.52,0,0,0-2.47-5.67L228.1,173.32l-10.46-10.6a8.37,8.37,0,0,0-6.6-2.53,7.2,7.2,0,0,0-4.5,2,7.28,7.28,0,0,0-2.12,5.46,8.45,8.45,0,0,0,2.52,5.69Z" fill="#fceded"/>
                <path id="Trazado_102385" data-name="Trazado 102385" d="M206.94,173.34l10.46,10.6,2.41-2.38,8.34-8.24-10.46-10.6a8.37,8.37,0,0,0-6.6-2.53,7.2,7.2,0,0,0-4.5,2,7.28,7.28,0,0,0-2.12,5.46,8.45,8.45,0,0,0,2.47,5.69Z" fill="#db465d"/>
              </g>
              <path id="Trazado_102386" data-name="Trazado 102386" d="M206.94,173.34l10.46,10.6,10,10.18c3.16,3.2,8.13,3.43,11.11.49.21-.21.41-.43.59-.65-3.69,1.52-5.22,1.07-7.13.1-2.92-1.48-7.48-6.42-12.21-11.34a169.348,169.348,0,0,1-12.16-14.07c-3.36-4.57.37-7.15,3.45-8.45a7.11,7.11,0,0,0-4.5,2,7.24,7.24,0,0,0-2.12,5.46,8.39,8.39,0,0,0,2.51,5.68Z" fill="#fc9aac" opacity="0.27"/>
            </g>
            <g id="Grupo_87800" data-name="Grupo 87800">
              <path id="Trazado_102387" data-name="Trazado 102387" d="M210.2,173.56a.83.83,0,0,1,.86-.1c.31.2.27.65.18,1a7,7,0,0,1-.22.71,2.4,2.4,0,0,1,.44-.36.83.83,0,0,1,.86-.1c.31.21.27.66.18,1-.05.19-.12.38-.17.57l.11-.08a.85.85,0,0,1,.86-.11c.31.21.27.66.18,1-.44,1.72-1.62,3-2.08,2.68a.92.92,0,0,1-.45-1.11.869.869,0,0,1-1.04-1.15.88.88,0,0,1-.78-.24C208.46,176.67,209,174.31,210.2,173.56Z" fill="#fea483"/>
              <path id="Trazado_102388" data-name="Trazado 102388" d="M207.73,177.54c-.86-.43-.59-3,.54-3.9a.85.85,0,0,1,.84-.22c.33.17.36.62.32,1a9.849,9.849,0,0,1-.41,1.94,2.46,2.46,0,0,1-.42.86C208.38,177.46,208,177.69,207.73,177.54Z" fill="#fea483"/>
            </g>
          </g>
          <g id="Grupo_87805" data-name="Grupo 87805">
            <g id="Grupo_87803" data-name="Grupo 87803">
              <g id="Grupo_87802" data-name="Grupo 87802">
                <path id="Trazado_102389" data-name="Trazado 102389" d="M232.34,191.31l2.81,2.94s12.32-9.05,14.29-12a39.34,39.34,0,0,0,3-6.07c1.23-3,2.27-5.93,2.77-7.4l.31-.94-5.35-1.44-1.49-.4s-1.26,2.93-2.57,5.94c-1.21,2.8-2.48,5.66-2.81,6.22C242.59,179.39,232.34,191.31,232.34,191.31Z" fill="#fea483"/>
                <path id="Trazado_102390" data-name="Trazado 102390" d="M246.15,171.91l6.32,4.24c1.23-3,2.27-5.93,2.77-7.4l-5-2.38-1.5-.4Z" fill="#eb8173"/>
              </g>
              <path id="Trazado_102391" data-name="Trazado 102391" d="M246,157.13s4.31-6,6.65-4.28a9.6,9.6,0,0,1,4.33,7.06c.31,3.16-2.56,14.13-2.56,14.13l-8.57-3.45Z" fill="#fefffe"/>
              <path id="Trazado_102392" data-name="Trazado 102392" d="M232.6,190.08a10.451,10.451,0,0,0-1.89-.88,3.53,3.53,0,0,0-2.06,0,5.689,5.689,0,0,0-1.26.68l-1.51,1a.87.87,0,0,0-.34.32.62.62,0,0,0,.41.8,1.51,1.51,0,0,0,1-.1,2.88,2.88,0,0,1,1.11-.26,5.921,5.921,0,0,0-1.59,1.86,2.3,2.3,0,0,0-.28.81.88.88,0,0,0,.31.77.63.63,0,0,0,.78,0,.91.91,0,0,0,.32.89,1,1,0,0,0,1,.1.8.8,0,0,0,.41.75.74.74,0,0,0,.85-.1,1.36,1.36,0,0,0,1.39.73,3.13,3.13,0,0,0,1.51-.7,11.34,11.34,0,0,0,2.82-3C235,192.83,234.79,191.28,232.6,190.08Z" fill="#fea483"/>
            </g>
            <g id="Grupo_87804" data-name="Grupo 87804">
              <path id="Trazado_102393" data-name="Trazado 102393" d="M246.12,170.77a62.108,62.108,0,0,1,3.28-10.59" fill="none" stroke="#bfd2ff" stroke-linecap="round" stroke-miterlimit="10" stroke-width="0.5"/>
              <path id="Trazado_102394" data-name="Trazado 102394" d="M246.44,162.07a26.323,26.323,0,0,0,.88,3.71" fill="none" stroke="#bfd2ff" stroke-linecap="round" stroke-miterlimit="10" stroke-width="0.5"/>
            </g>
          </g>
        </g>
        <g id="Grupo_87832" data-name="Grupo 87832">
          <g id="Grupo_87811" data-name="Grupo 87811">
            <g id="Grupo_87808" data-name="Grupo 87808">
              <path id="Trazado_102395" data-name="Trazado 102395" d="M56.85,253.02l-.18-6.74,7.45-.74-.29,7.57Z" fill="#fea483"/>
              <g id="Grupo_87807" data-name="Grupo 87807">
                <path id="Trazado_102396" data-name="Trazado 102396" d="M47.67,259c.39,1,17.06-.24,17.78-1.12a1.18,1.18,0,0,0,.16-.95A23.6,23.6,0,0,0,64,252.16c-3.65.47-3.62.3-7,.56-1,.6-8.31,2.92-9.27,5.29a1.18,1.18,0,0,0-.06.99Z" fill="#3d3c73"/>
                <path id="Trazado_102397" data-name="Trazado 102397" d="M47.67,259c.39,1,17.06-.24,17.78-1.12a1.18,1.18,0,0,0,.16-.95,69.764,69.764,0,0,1-9.25,1.3A78.6,78.6,0,0,1,47.7,258,1.18,1.18,0,0,0,47.67,259Z" fill="#9992ad"/>
              </g>
            </g>
            <g id="Grupo_87810" data-name="Grupo 87810">
              <path id="Trazado_102398" data-name="Trazado 102398" d="M77.39,252.51l.58-7.36-7.7-.39.16,8.32Z" fill="#fea483"/>
              <g id="Grupo_87809" data-name="Grupo 87809">
                <path id="Trazado_102399" data-name="Trazado 102399" d="M87,257.8c-.33,1-17,.92-17.82.09a1.26,1.26,0,0,1-.22-.94,23.72,23.72,0,0,1,1.33-4.82c3.68.23,3.63.05,7,.08,1.1.54,8.5,2.35,9.62,4.65a1.23,1.23,0,0,1,.09.94Z" fill="#3d3c73"/>
                <path id="Trazado_102400" data-name="Trazado 102400" d="M87,257.8c-.33,1-17,.92-17.82.09a1.26,1.26,0,0,1-.22-.94,68.15,68.15,0,0,0,9.32.66,77.072,77.072,0,0,0,8.63-.75A1.23,1.23,0,0,1,87,257.8Z" fill="#9992ad"/>
              </g>
            </g>
            <path id="Trazado_102401" data-name="Trazado 102401" d="M79.79,176.51l.49,72.02-10.76.63-2.5-48.58-.52,48.54-10.36-.28L52.4,177.36Z" fill="#1a132e"/>
          </g>
          <g id="Grupo_87816" data-name="Grupo 87816">
            <g id="Grupo_87813" data-name="Grupo 87813">
              <path id="Trazado_102402" data-name="Trazado 102402" d="M56.85,253.02l-.18-6.74,7.45-.74-.29,7.57Z" fill="#fea483"/>
              <g id="Grupo_87812" data-name="Grupo 87812">
                <path id="Trazado_102403" data-name="Trazado 102403" d="M47.67,259c.39,1,17.06-.24,17.78-1.12a1.18,1.18,0,0,0,.16-.95A23.6,23.6,0,0,0,64,252.16c-3.65.47-3.62.3-7,.56-1,.6-8.31,2.92-9.27,5.29a1.18,1.18,0,0,0-.06.99Z" fill="#3d3c73"/>
                <path id="Trazado_102404" data-name="Trazado 102404" d="M47.67,259c.39,1,17.06-.24,17.78-1.12a1.18,1.18,0,0,0,.16-.95,69.764,69.764,0,0,1-9.25,1.3A78.6,78.6,0,0,1,47.7,258,1.18,1.18,0,0,0,47.67,259Z" fill="#9992ad"/>
              </g>
            </g>
            <g id="Grupo_87815" data-name="Grupo 87815">
              <path id="Trazado_102405" data-name="Trazado 102405" d="M77.39,252.51l.58-7.36-7.7-.39.16,8.32Z" fill="#fea483"/>
              <g id="Grupo_87814" data-name="Grupo 87814">
                <path id="Trazado_102406" data-name="Trazado 102406" d="M87,257.8c-.33,1-17,.92-17.82.09a1.26,1.26,0,0,1-.22-.94,23.72,23.72,0,0,1,1.33-4.82c3.68.23,3.63.05,7,.08,1.1.54,8.5,2.35,9.62,4.65a1.23,1.23,0,0,1,.09.94Z" fill="#3d3c73"/>
                <path id="Trazado_102407" data-name="Trazado 102407" d="M87,257.8c-.33,1-17,.92-17.82.09a1.26,1.26,0,0,1-.22-.94,68.15,68.15,0,0,0,9.32.66,77.072,77.072,0,0,0,8.63-.75A1.23,1.23,0,0,1,87,257.8Z" fill="#9992ad"/>
              </g>
            </g>
            <path id="Trazado_102408" data-name="Trazado 102408" d="M79.79,176.51l.49,72.02-10.76.63-2.5-48.58-.52,48.54-10.36-.28L52.4,177.36Z" fill="#1a132e"/>
          </g>
          <g id="Grupo_87817" data-name="Grupo 87817">
            <path id="Trazado_102409" data-name="Trazado 102409" d="M74.16,140c-.56.91-3,8.45-6.35,8-3-.41-7.56-5.38-9.4-9,2-.4,3.06-2.62,3.63-4.49a15.14,15.14,0,0,0,.44-5.79c3.17.26,5.69.52,9,.89a16.55,16.55,0,0,0-.39,5.33,7.22,7.22,0,0,0,3.11,5Z" fill="#fea483"/>
            <path id="Trazado_102410" data-name="Trazado 102410" d="M72.1,137.82a16.54,16.54,0,0,1-6.34-.86,9.69,9.69,0,0,1-3.71-2.49,15.14,15.14,0,0,0,.44-5.79c3.17.26,5.69.52,8.95.89a16.54,16.54,0,0,0-.38,5.33A7.49,7.49,0,0,0,72.1,137.82Z" fill="#eb8173"/>
          </g>
          <path id="Trazado_102411" data-name="Trazado 102411" d="M60.16,137.16s5.92,7.49,7.53,7.16c3.71-.77,5-6,5-6l8.18,2.13,2.86,36.07c-6.62,2.57-19.18,3.21-27.58.41,3-9.51-.17-20.78-3.73-34.37Z" fill="#748be9"/>
          <path id="Trazado_102412" data-name="Trazado 102412" d="M60.35,137.73s6,4.41,6.32,4.9,1,1.63,1,1.63.93-1.59,1-1.73,3.66-4.36,3.66-4.36l1.72.48.08,5.27a6.7,6.7,0,0,0-3-.66,23.408,23.408,0,0,0-3.47,1.22,17.2,17.2,0,0,0-3.61-1.18,7.35,7.35,0,0,0-2.77.84l-2.35-6Z" fill="#92c4f7"/>
          <g id="Grupo_87821" data-name="Grupo 87821">
            <path id="Trazado_102413" data-name="Trazado 102413" d="M76.16,122.31c2.15-.39,4.1.45,4.36,1.89s-1.26,2.91-3.41,3.3-4.1-.45-4.37-1.88S74,122.7,76.16,122.31Z" fill="#eb8173"/>
            <g id="Grupo_87818" data-name="Grupo 87818">
              <path id="Trazado_102414" data-name="Trazado 102414" d="M59.68,124c-.65-6.27,2.83-11.78,7.78-12.29s9.48,4.16,10.14,10.43S76,133.8,71,134.31,60.33,130.28,59.68,124Z" fill="#fea483"/>
              <path id="Trazado_102415" data-name="Trazado 102415" d="M61.55,123.05a7.29,7.29,0,0,0,3.12-4.77c2,1.39,5.66,2.51,7,1.85a1.43,1.43,0,0,0,.78-1,6.9,6.9,0,0,0,4.31,1.53,5.18,5.18,0,0,1,1,2.24c-.28-2.09-.56-4.19-.89-6.19L64,114.17c-1.22,2.31-2.44,4.62-3.65,6.87a10.32,10.32,0,0,0,1.2,2.01Z" fill="#eb8173"/>
            </g>
            <g id="Grupo_87819" data-name="Grupo 87819">
              <path id="Trazado_102416" data-name="Trazado 102416" d="M64.91,122.2a3.28,3.28,0,0,1,4.11-.6" fill="none" stroke="#1a132e" stroke-linecap="round" stroke-miterlimit="10" stroke-width="1"/>
              <path id="Trazado_102417" data-name="Trazado 102417" d="M73.47,121.67a3.68,3.68,0,0,1,3.56-.33" fill="none" stroke="#1a132e" stroke-linecap="round" stroke-miterlimit="10" stroke-width="1"/>
              <path id="Trazado_102418" data-name="Trazado 102418" d="M68.51,124.31c.29,0,.55.3.6.74s-.15.83-.43.86-.56-.31-.6-.75S68.22,124.34,68.51,124.31Z" fill="#2e3252"/>
              <path id="Trazado_102419" data-name="Trazado 102419" d="M75.17,124.11c.29,0,.56.3.6.74s-.15.82-.43.85-.56-.3-.6-.74S74.89,124.14,75.17,124.11Z" fill="#2e3252"/>
              <path id="Trazado_102420" data-name="Trazado 102420" d="M72.85,124.15c.54,2.11.55,3.31-.24,3.8" fill="none" stroke="#d45053" stroke-linecap="round" stroke-miterlimit="10" stroke-width="1"/>
              <path id="Trazado_102421" data-name="Trazado 102421" d="M72.3,129.77a19.64,19.64,0,0,1-4.75-1.09,2.3,2.3,0,0,0,1.91,2,2.76,2.76,0,0,0,2.84-.91Z" fill="#d45053"/>
            </g>
            <g id="Grupo_87820" data-name="Grupo 87820">
              <path id="Trazado_102422" data-name="Trazado 102422" d="M80.36,118.09a3.74,3.74,0,0,1-.11.86,2,2,0,0,1-1.77,1.53,11.16,11.16,0,0,1-.81,3.68c-.18-1.1-.35-2.5-.68-3.79a8.54,8.54,0,0,1-5.15-2.74,1.25,1.25,0,0,1-.77,1.66,3.33,3.33,0,0,1-2-.14,19.55,19.55,0,0,1-5-2.24A13.07,13.07,0,0,1,60,125.47a1.49,1.49,0,0,0-1.25.06,18.32,18.32,0,0,1-2.22-7.24c-.14-2.53,1.31-3.58,3.48-4.22a3.62,3.62,0,0,1,.41-2.28h0a4.68,4.68,0,0,1,1-1.33,8,8,0,0,1,3.66-1.65A16,16,0,0,1,78,111.72a3.53,3.53,0,0,1,1.31,1.56,1.72,1.72,0,0,1-.66,2A3.09,3.09,0,0,1,80.36,118.09Z" fill="#1a132e"/>
              <path id="Trazado_102423" data-name="Trazado 102423" d="M80.36,118.09a3.74,3.74,0,0,1-.11.86,4.19,4.19,0,0,0-.6-1.24,4,4,0,0,0-3.2-1.65,2.15,2.15,0,0,0,1.23-2.3,2.93,2.93,0,0,0-1.52-1.86,8.8,8.8,0,0,0-2.36-.76,30,30,0,0,0-8-1,11.37,11.37,0,0,0-5.43,1.63,4.64,4.64,0,0,1,1-1.32,8.16,8.16,0,0,1,3.66-1.66A16,16,0,0,1,78,111.71a3.53,3.53,0,0,1,1.31,1.56,1.72,1.72,0,0,1-.66,2A3.11,3.11,0,0,1,80.36,118.09Z" fill="#4c3252"/>
            </g>
            <path id="Trazado_102424" data-name="Trazado 102424" d="M56.19,125.26c.35-1.42,2.09-2.21,3.91-1.78s3,1.94,2.66,3.36-2.09,2.21-3.9,1.77S55.85,126.67,56.19,125.26Z" fill="#fea483"/>
          </g>
          <path id="Trazado_102425" data-name="Trazado 102425" d="M67.76,144.64c1.71,10.67,2.85,22.39,1.87,33.8" fill="none" stroke="#323b99" stroke-linecap="round" stroke-miterlimit="10" stroke-width="0.5"/>
          <g id="Grupo_87824" data-name="Grupo 87824">
            <path id="Trazado_102426" data-name="Trazado 102426" d="M77,144.16l2.41,23.34s5,6.51,8.34,8.05,12.91-8.06,12.91-8.06L99,163.33l-1.11-2.78-1-2.6-6.91,3.59s-3-9.81-4.4-15.32S80.87,140,80.87,140Z" fill="#fefffe"/>
            <g id="Grupo_87822" data-name="Grupo 87822">
              <path id="Trazado_102427" data-name="Trazado 102427" d="M88.7,143.17v35.25c0,3.43,2.12,6.2,4.72,6.2a4.22,4.22,0,0,0,3.34-1.82,7.2,7.2,0,0,0,1.39-4.38V143.17Z" fill="#edf8ff"/>
              <path id="Trazado_102428" data-name="Trazado 102428" d="M90.41,154.71v22.47c0,2.18,1.35,3.95,3,3.95A2.69,2.69,0,0,0,95.55,180a4.55,4.55,0,0,0,.88-2.79v-22.5Z" fill="#de7a86"/>
              <path id="Trazado_102429" data-name="Trazado 102429" d="M100.64,144.76v-2a.72.72,0,0,0-.72-.72h-13a.72.72,0,0,0-.72.72v2a.72.72,0,0,0,.72.72h13A.72.72,0,0,0,100.64,144.76Z" fill="#edf8ff"/>
            </g>
            <g id="Grupo_87823" data-name="Grupo 87823">
              <path id="Trazado_102430" data-name="Trazado 102430" d="M94.58,151.34a1,1,0,0,0,.56.69c.28.14.6.19.93.36a1,1,0,0,0-.75.84,1.3,1.3,0,0,0,.64,1.15,1,1,0,0,0-.18,1.57,3,3,0,0,0,1.61.8l.3.08h0a6.52,6.52,0,0,0,.18,3.28v.43l1.13,2.8.33-.43a40,40,0,0,0,2.82-4.44c.47-2.34,1.47-4.68,1.19-7.21-.22-2-.15-4-1.51-4.69a3.28,3.28,0,0,0-1.46-.2l-3.34.06a2.42,2.42,0,0,0-.86.1.89.89,0,0,0-.59.6A.87.87,0,0,0,96,148a2.11,2.11,0,0,0,1,.29,16,16,0,0,1,2.6.29c.85.24,1,.85,1.09,1.8a13.129,13.129,0,0,0-4.46-.21,2.56,2.56,0,0,0-1,.29A1,1,0,0,0,94.58,151.34Z" fill="#fea483"/>
              <path id="Trazado_102431" data-name="Trazado 102431" d="M97.87,160.13v.43L99,163.34l.33-.44c-.8-.42-.94-1.89-1-2.94a12.85,12.85,0,0,1,.8-2.87l-1.4-.24A6.54,6.54,0,0,0,97.87,160.13Z" fill="#eb8173"/>
              <path id="Trazado_102432" data-name="Trazado 102432" d="M96.28,154.4a12.81,12.81,0,0,1,4.3.67" fill="none" stroke="#d45053" stroke-linecap="round" stroke-miterlimit="10" stroke-width="0.5"/>
              <path id="Trazado_102433" data-name="Trazado 102433" d="M96.42,152.34a11.56,11.56,0,0,1,4.48.58" fill="none" stroke="#d45053" stroke-linecap="round" stroke-miterlimit="10" stroke-width="0.5"/>
            </g>
          </g>
          <g id="Grupo_87825" data-name="Grupo 87825">
            <path id="Trazado_102434" data-name="Trazado 102434" d="M87,215.21c-.21,0-4.92,2.46-8.88,1.58-2.31-.52-4.08-49.79-4.18-50.33s-.26-2.77-.44-5.71c-.52-8.45-1.21-23-1.21-23s1.08.2,2.52.51c2.52.56,6.14,1.47,7,2.3,1.3,1.3,1.29,10,1.48,15.93.08,2.46.54,7.83,1,13.26C85,177.37,87.14,215.23,87,215.21Z" fill="#fefffe"/>
            <path id="Trazado_102435" data-name="Trazado 102435" d="M72,137.16c.47,7.75.72,15.42,1.37,23.13a58,58,0,0,0,4.5-5.47c.23-1.06-1.46-3.66-2.92-5.12l-.06-.11c2.43-1.21,5.49-2.33,5.39-2.75-.56-2.38-4.31-8.18-5.6-9.12a5.63,5.63,0,0,0-2.68-.56Z" fill="#bfd2ff"/>
            <path id="Trazado_102436" data-name="Trazado 102436" d="M81.94,144c.3,2,.61,4.16.74,6,.57,8.32,1,14.71,2.2,23" fill="none" stroke="#e5e5e5" stroke-linecap="round" stroke-miterlimit="10" stroke-width="0.5"/>
            <path id="Trazado_102437" data-name="Trazado 102437" d="M84.3,150a13.64,13.64,0,0,1-1.3,3.62" fill="none" stroke="#e5e5e5" stroke-linecap="round" stroke-miterlimit="10" stroke-width="0.5"/>
          </g>
          <g id="Grupo_87831" data-name="Grupo 87831">
            <g id="Grupo_87826" data-name="Grupo 87826">
              <path id="Trazado_102438" data-name="Trazado 102438" d="M67.24,165.14c0,4.1-1.22,11.17-3.3,19.68-1.3,5.32-6.86,31.75-7.33,33.2-.73,2.27-10.07-2-11.35-4.78-1.15-2.47,7.56-35.71,7.14-45.83-.26-6.32-2.81-20.84-1.75-24s4.54-4,7.34-5.38c1.7-.82,3-1.4,3-1.4C61.54,136.68,67.24,150.08,67.24,165.14Z" fill="#fefffe"/>
              <path id="Trazado_102439" data-name="Trazado 102439" d="M67.24,160.69a54.8,54.8,0,0,0-5.61-25.2c-1,.69-1.73,1.23-2.68,1.95-.1,2.7.1,6.2,0,8.91a2.15,2.15,0,0,0,.21,1.28,1.28,1.28,0,0,0,.81.47c1.29.37,2.59.73,4.07,1.2a9.61,9.61,0,0,0-.79,5.07C63.51,156.1,65.78,159.58,67.24,160.69Z" fill="#bfd2ff"/>
            </g>
            <g id="Grupo_87830" data-name="Grupo 87830">
              <g id="Grupo_87828" data-name="Grupo 87828">
                <g id="Grupo_87827" data-name="Grupo 87827">
                  <path id="Trazado_102440" data-name="Trazado 102440" d="M84.48,176.29a8,8,0,0,1,5.66-.3,17.9,17.9,0,0,1,3.54,2.33c.38.3.8.75.59,1.19s-.77.41-1.22.33c-1.24-.21-2.47-.51-3.63-.79a18.65,18.65,0,0,0,6.85,4.37,3,3,0,0,1-3.59,1.51,2.51,2.51,0,0,1-1.91.72,7,7,0,0,1-2-.47A17.85,17.85,0,0,1,85,183.49a5.58,5.58,0,0,1-2.54-3C82.74,178.6,83,178.2,84.48,176.29Z" fill="#fea483"/>
                  <path id="Trazado_102441" data-name="Trazado 102441" d="M84.11,182.56l-7.97-1.93,1.63-7.99,7.86,3.94Z" fill="#fea483"/>
                </g>
                <path id="Trazado_102442" data-name="Trazado 102442" d="M92.3,184.83a15.33,15.33,0,0,1-4.3-2.32" fill="none" stroke="#d45053" stroke-linecap="round" stroke-miterlimit="10" stroke-width="0.5"/>
              </g>
              <g id="Grupo_87829" data-name="Grupo 87829">
                <path id="Trazado_102443" data-name="Trazado 102443" d="M55.35,140.16c-1.74-1.46-6.18,2.18-6.45,10-.2,5.71,4.18,16.06,7.07,20.49,2.47,3.78,21.68,13.29,21.68,13.29l4.12-11.17s-14.09-6.91-16.29-9.89S57.23,141.74,55.35,140.16Z" fill="#fefffe"/>
                <path id="Trazado_102444" data-name="Trazado 102444" d="M57.35,145.48c3,5.66,3.54,8.55,6.2,16.06A28.1,28.1,0,0,0,67,164.48" fill="none" stroke="#e5e5e5" stroke-linecap="round" stroke-miterlimit="10" stroke-width="0.5"/>
                <path id="Trazado_102445" data-name="Trazado 102445" d="M52.4,163.34A28.09,28.09,0,0,0,57,172c.81,1,5.34,3.76,8.14,5.13" fill="none" stroke="#e5e5e5" stroke-linecap="round" stroke-miterlimit="10" stroke-width="0.5"/>
                <path id="Trazado_102446" data-name="Trazado 102446" d="M74.66,169.11a65.158,65.158,0,0,0,7,3.83c-.12.3-.23.6-.35.91" fill="none" stroke="#e5e5e5" stroke-linecap="round" stroke-miterlimit="10" stroke-width="0.5"/>
                <path id="Trazado_102447" data-name="Trazado 102447" d="M78.49,181.55c-.36.73-.69,1.45-1,2.18" fill="none" stroke="#e5e5e5" stroke-linecap="round" stroke-miterlimit="10" stroke-width="0.5"/>
              </g>
            </g>
          </g>
        </g>
      </g>
    </g>
  </g>
</svg>
