<svg xmlns="http://www.w3.org/2000/svg" width="146.629" height="139.288" viewBox="0 0 146.629 139.288">
  <g id="Layer_2" data-name="Layer 2" transform="translate(-6.696 -10.366)">
    <g id="Layer_1" data-name="Layer 1">
      <path id="Trazado_229524" data-name="Trazado 229524" d="M18.34,24.69h0A44.19,44.19,0,0,1,80.79,22L139,72.86a44.2,44.2,0,0,1,2.7,62.45h0A44.19,44.19,0,0,1,79.21,138L21,87.14a44.2,44.2,0,0,1-2.66-62.45Z" fill="#a5cdf0"/>
    </g>
    <g id="Grupo_124775" data-name="Grupo 124775">
      <path id="Trazado_229525" data-name="Trazado 229525" d="M44.44,46.9,40,42.63A51,51,0,0,0,25.67,79.82l.27,8,6.19,1.21-.31-9.45A44.54,44.54,0,0,1,44.44,46.9Z" fill="#d2e6f7"/>
      <path id="Trazado_229526" data-name="Trazado 229526" d="M45.38,84.43,25.94,87.86l4.45,25.27,17.71,6.94Z" fill="#fed380"/>
      <g id="Grupo_124774" data-name="Grupo 124774">
        <path id="Trazado_229527" data-name="Trazado 229527" d="M70.72,123.41l-12,2.11a12.16,12.16,0,0,1-14.09-9.87l-4.7-26.79A12.16,12.16,0,0,1,49.8,74.77l12-2.11Z" fill="#4b9be1"/>
        <path id="Trazado_229528" data-name="Trazado 229528" d="M111.72,46.9l4.42-4.27a50.94,50.94,0,0,1,14.34,37.19l-.26,8L124,89.07l.31-9.45A44.54,44.54,0,0,0,111.72,46.9Z" fill="#4b9be1"/>
        <path id="Trazado_229529" data-name="Trazado 229529" d="M110.78,84.43l19.44,3.43-4.46,25.27-17.7,6.94Z" fill="#feb62b"/>
        <path id="Trazado_229530" data-name="Trazado 229530" d="M85.44,123.41l12,2.11a12.16,12.16,0,0,0,14.09-9.87l4.72-26.79a12.16,12.16,0,0,0-9.87-14.09l-12-2.11Z" fill="#4b9be1"/>
        <path id="Trazado_229531" data-name="Trazado 229531" d="M78.08,20.84A57.14,57.14,0,0,0,42.36,33.32,9.3,9.3,0,0,0,54,47.82a38.2,38.2,0,0,1,24.07-8.38l5.62-8.61Z" fill="#415165"/>
        <path id="Trazado_229532" data-name="Trazado 229532" d="M117.26,40.11a9.28,9.28,0,0,0-3.46-6.79A57.14,57.14,0,0,0,78.08,20.84v18.6a38.22,38.22,0,0,1,24.07,8.38,9.3,9.3,0,0,0,15.11-7.71Z" fill="#12263f"/>
      </g>
    </g>
  </g>
</svg>
