<svg xmlns="http://www.w3.org/2000/svg" width="146.629" height="141.474" viewBox="0 0 146.629 141.474">
  <g id="Layer_2" data-name="Layer 2" transform="translate(-6.696 -8.18)">
    <g id="Layer_1" data-name="Layer 1">
      <path id="Trazado_229518" data-name="Trazado 229518" d="M18.34,24.69h0A44.19,44.19,0,0,1,80.79,22L139,72.86a44.2,44.2,0,0,1,2.7,62.45h0A44.19,44.19,0,0,1,79.21,138L21,87.14a44.2,44.2,0,0,1-2.66-62.45Z" fill="#a5cdf0"/>
    </g>
    <g id="Page-1">
      <g id="_011---Pregnant-Woman" data-name="011---Pregnant-Woman">
        <path id="Shape" d="M52.49,132a32.629,32.629,0,0,1,1.9-4.43c-.07,0-.12-.07-.19-.09-10.87-6.16-19-17.25-19-35.13a39.78,39.78,0,0,1,3.44-16.79,35.36,35.36,0,0,1,2.51-4.5A36.18,36.18,0,0,1,52.08,60.48L66.47,58.7l37.29,21.24a42.18,42.18,0,0,0,3.61,19.66c7.8,15.59,12.43,37.5,13.91,45.26a2.37,2.37,0,0,1-.51,2,2.34,2.34,0,0,1-1.85.87H52.16a2.38,2.38,0,0,1-1.77-.76,2.41,2.41,0,0,1-.64-1.81A51.54,51.54,0,0,1,52.49,132Z" fill="#1e82d9"/>
        <path id="Shape-2" data-name="Shape" d="M86.75,135a2.39,2.39,0,0,1-2.12,2.65A57.32,57.32,0,0,1,52.49,132a32.63,32.63,0,0,1,1.9-4.43,51.21,51.21,0,0,0,29.69,5.29,2.44,2.44,0,0,1,1.78.51,2.4,2.4,0,0,1,.89,1.61Z" fill="#0059d6"/>
        <path id="Shape-3" data-name="Shape" d="M121.8,82.76S90.53,80.35,64.06,65.92a18.36,18.36,0,0,0-12-4.81,8.55,8.55,0,0,1,4.82-7.22,12.69,12.69,0,0,1,8.34-.84c-13.44-4.5-14.62-21.18-3.53-25.63a24,24,0,0,0,4.47-2.33A46.07,46.07,0,0,0,79.58,10.51a4.84,4.84,0,0,1,4.14-2.33h28.34c7.29,0,12.29,8.11,12.15,14.43C124.21,34.64,126.62,63.51,121.8,82.76Z" fill="#fdd7ad"/>
        <path id="Shape-4" data-name="Shape" d="M112.18,65.77a2.4,2.4,0,0,1-1.44-.48C105,61,97.26,60.43,90.41,59.92a45.16,45.16,0,0,1-10.27-1.49,2.41,2.41,0,0,1,1.53-4.57,43,43,0,0,0,9.1,1.25c7.14.54,16,1.21,22.85,6.32a2.4,2.4,0,0,1-1.44,4.33Z" fill="#f9c795"/>
        <path id="Shape-5" data-name="Shape" d="M105.08,62.33c-8.66-2.79-18.59-1.78-24.18-3.63-5.43-1.83-10.75-4.7-15.71-5.65-13.44-4.5-14.62-21.18-3.53-25.63a24,24,0,0,0,4.47-2.33,63.6,63.6,0,0,0,17.18,2.33c14.44,0,14.44-19.24,14.44-19.24h9.62c-6.26,25-4.38,44-2.29,54.15Z" fill="#1e82d9"/>
        <path id="Shape-6" data-name="Shape" d="M92.93,94.79a9.54,9.54,0,0,1-4.74,8.27,9.42,9.42,0,0,1-4.88,1.35,6.57,6.57,0,0,1-1,0,9.62,9.62,0,1,1,10.61-9.57Z" fill="#fdd7ad"/>
        <path id="Shape-7" data-name="Shape" d="M61,98.78l-2.65.6c-.09,0-11.09-5.44-11.09-14.22a9.45,9.45,0,0,0-3.41-7.74,9.69,9.69,0,0,0-5.18-1.83,35.36,35.36,0,0,1,2.51-4.5,13.76,13.76,0,0,1,5.55,2.5A14,14,0,0,1,52,85.16c0,4.86,6.45,9,8.18,9.8l-1,2.14Z" fill="#802d40"/>
        <path id="Shape-8" data-name="Shape" d="M71.28,121.25c-14.43,0-12-7.22-16.84-12s-7.22-4.81-7.22-7.22c0-3.1,2-4.21,5.39-4.57a47.859,47.859,0,0,1,4.79-.24c-.07-.31-.14-.62-.19-1a.93.93,0,0,1-.05-.29,18.41,18.41,0,0,1-.31-3.56c0-4.81,9.62-7.22,9.62,0,0,4.64,6.74,11.52,15.85,12a6.569,6.569,0,0,0,1,0,9.42,9.42,0,0,0,4.88-1.35C88.36,107.1,87.79,121.25,71.28,121.25Z" fill="#fdd7ad"/>
        <path id="Shape-9" data-name="Shape" d="M66.21,110.3a2.37,2.37,0,0,1-2.15,1.33,2.28,2.28,0,0,1-1.08-.27A21.4,21.4,0,0,1,52.66,97.75a1.77,1.77,0,0,1,0-.32,47.859,47.859,0,0,1,4.79-.24c-.07-.31-.14-.62-.19-1a2.769,2.769,0,0,1,.12.41,16.69,16.69,0,0,0,7.82,10.44,2.42,2.42,0,0,1,1.2,1.39,2.37,2.37,0,0,1-.14,1.83Z" fill="#f9c795"/>
      </g>
    </g>
  </g>
</svg>
