<svg xmlns="http://www.w3.org/2000/svg" xmlns:xlink="http://www.w3.org/1999/xlink" width="191.314" height="192" viewBox="0 0 191.314 192">
  <defs>
    <clipPath id="clip-path">
      <path id="Trazado_101478" data-name="Trazado 101478" d="M93.624,5.59a88.674,88.674,0,1,0,0,177.348c68.834,0,96.633,2.031,96.633-88.674C190.257,26.018,142.592,5.59,93.624,5.59Z" transform="translate(-4.95 -5.59)" fill="none"/>
    </clipPath>
  </defs>
  <g id="grafico_tarjeta_2" data-name="grafico_tarjeta 2" transform="translate(-0.316)">
    <rect id="Rectángulo_33948" data-name="Rectángulo 33948" width="191" height="192" transform="translate(0.316)" fill="none"/>
    <g id="Grupo_87523" data-name="Grupo 87523" transform="translate(6.324 7.141)">
      <path id="Trazado_101468" data-name="Trazado 101468" d="M93.624,5.59a88.7,88.7,0,1,0,.013,0Z" transform="translate(-4.95 -5.59)" fill="#99bdef"/>
      <path id="Trazado_101469" data-name="Trazado 101469" d="M13.06,52.641a44.215,44.215,0,0,0,5.455.69,160.6,160.6,0,0,0,34.762-1.175c6.567-.933,13.2-2.325,19.01-5.545s10.731-8.342,14.922-13.682,8.061-11.5,9.071-18.243a20.811,20.811,0,0,0-.664-8.943c-1.405,0-2.823-.1-4.241-.1A88.648,88.648,0,0,0,13.06,52.7Z" transform="translate(-2.699 -5.576)" fill="#ccdef7"/>
      <path id="Trazado_101470" data-name="Trazado 101470" d="M134.966,136c-.856,0-1.712-.064-2.555-.077-14.679-.115-29.767-.2-43.436-5.634-4.906-1.955-9.556-4.586-14.628-6.094-6.2-1.84-12.775-1.929-19.163-1.993-6.171-.077-12.775,0-17.886,3.577a25.551,25.551,0,0,0-5.608,6.094A88.648,88.648,0,0,0,134.966,136Z" transform="translate(2.471 26.77)" fill="#ccdef7"/>
      <g id="Grupo_87522" data-name="Grupo 87522" clip-path="url(#clip-path)">
        <g id="Grupo_87521" data-name="Grupo 87521" transform="translate(-25.538 36.294)">
          <g id="Grupo_87520" data-name="Grupo 87520" transform="translate(88.316 0)">
            <path id="Trazado_101471" data-name="Trazado 101471" d="M166.245,96.242A10.374,10.374,0,0,0,176.619,85.37a10.565,10.565,0,0,0-10.655-9.875h-3.833a10.361,10.361,0,0,0,10.361-10.859,10.578,10.578,0,0,0-10.655-9.875h-9.428a10.361,10.361,0,0,0,10.348-10.872A10.552,10.552,0,0,0,152.141,34H141.359C121.1,34,91.611,37.539,73.023,45.792a52.532,52.532,0,0,1-18.856,4.382c0,.089,0,.166,0,.243V111.84a3.526,3.526,0,0,1-.077.728,39.1,39.1,0,0,1,24.158,14.206c6.311,7.908,13.58,16.1,16.966,17.758a57.668,57.668,0,0,1,25.7,24.12c2.478,4.574,11.7,5.442,15.7-.179,2.555-3.59,3.833-7.793.549-13.823a168.543,168.543,0,0,0-12.047-18.805,12.379,12.379,0,0,1-2.351-6.592,12.124,12.124,0,0,1,12.124-12.213h26.969a10.565,10.565,0,0,0,10.655-9.863,10.374,10.374,0,0,0-10.361-10.872Z" transform="translate(-54.09 -34)" fill="#f9ba8f"/>
            <path id="Trazado_101472" data-name="Trazado 101472" d="M54.1,111.519a39.1,39.1,0,0,1,24.145,14.206S54.844,66.167,95.623,37.78a118.006,118.006,0,0,0-22.6,6.975,52.532,52.532,0,0,1-18.856,4.382c0,.089,0,.166,0,.243v61.411a3.525,3.525,0,0,1-.077.728Z" transform="translate(-54.09 -32.951)" fill="#fd995b"/>
            <path id="Trazado_101473" data-name="Trazado 101473" d="M101.756,131.82a1.431,1.431,0,0,0-.256,2.057,53.442,53.442,0,0,1,5.9,8.726,7.665,7.665,0,0,0,5.506,3.539,1.405,1.405,0,0,0,1.354-.486c1.7-2.057,3.552-5.34,1.763-8.457a78.736,78.736,0,0,0-5.238-7.78,3.475,3.475,0,0,0-4.816-.7Z" transform="translate(-41.022 -7.898)" fill="#f9dfcd"/>
          </g>
          <path id="Trazado_101474" data-name="Trazado 101474" d="M53.864,42.43H43.12v69.792H53.864a4.19,4.19,0,0,0,4.19-4.19V46.62a4.19,4.19,0,0,0-4.19-4.19Z" transform="translate(31.182 -31.66)" fill="#e9efff"/>
          <path id="Trazado_101475" data-name="Trazado 101475" d="M58.052,101.3V66.7a9.16,9.16,0,0,1-11.728,1.661,5.289,5.289,0,0,0-3.194-.626v37.751H53.874a4.19,4.19,0,0,0,4.19-4.19Z" transform="translate(31.185 -24.924)" fill="#bec8f7"/>
          <path id="Trazado_101476" data-name="Trazado 101476" d="M55.2,38.66H-10.479A88.84,88.84,0,0,0,1.287,118.084H55.2a4.893,4.893,0,0,0,4.893-4.893V43.553A4.88,4.88,0,0,0,55.2,38.66Z" transform="translate(15.04 -32.706)" fill="#b079c7"/>
          <path id="Trazado_101477" data-name="Trazado 101477" d="M60.017,67.692a5.43,5.43,0,0,0-2.862.69C33.6,81.668-11.832,68.893-14.77,66.9A88.3,88.3,0,0,0,1.212,110.247H55.124a4.893,4.893,0,0,0,4.893-4.893Z" transform="translate(15.115 -24.869)" fill="#954cb5"/>
        </g>
      </g>
    </g>
  </g>
</svg>
