<svg xmlns="http://www.w3.org/2000/svg" xmlns:xlink="http://www.w3.org/1999/xlink" width="713.013" height="295.08" viewBox="0 0 713.013 295.08">
  <defs>
    <clipPath id="clip-path">
      <rect id="Rectángulo_34461" data-name="Rectángulo 34461" width="357.43" height="247.86" transform="translate(680.81 7.14)" fill="none"/>
    </clipPath>
  </defs>
  <g id="Grupo_124789" data-name="Grupo 124789" transform="translate(-664.617 -3300)">
    <g id="Grupo_124787" data-name="Grupo 124787" transform="translate(180 3299.16)">
      <path id="Trazado_228517" data-name="Trazado 228517" d="M671.31,163.34a5.8,5.8,0,1,0,0-8.2,5.8,5.8,0,0,0,0,8.2Z" fill="#a5cdf0" fill-rule="evenodd"/>
      <path id="Trazado_228518" data-name="Trazado 228518" d="M520.54,294.8H861.32L730.63,164.11a5.8,5.8,0,1,0-8.2,8.2l7.91,7.91a9.12,9.12,0,0,1,0,12.88h0a9.14,9.14,0,0,1-12.88,0L691,166.64a5.8,5.8,0,0,0-8.2,8.2l3.94,3.93a8.4,8.4,0,0,1-11.88,11.88l-5.36-5.36A21.57,21.57,0,1,0,639,215.8l1.74,1.74a20.75,20.75,0,1,1-29.34,29.35h0a49.2,49.2,0,0,0-69.39,0C522.94,266,436.91,211.17,520.54,294.8Z" fill="#a5cdf0" fill-rule="evenodd"/>
    </g>
    <g id="Grupo_124788" data-name="Grupo 124788" transform="translate(180 3299.16)">
      <g id="Grupo_124481" data-name="Grupo 124481">
        <path id="Trazado_228515" data-name="Trazado 228515" d="M853.9,10.73a5.79,5.79,0,1,0-1.7-4.1,5.79,5.79,0,0,0,1.7,4.1Z" fill="#a5cdf0" fill-rule="evenodd"/>
        <path id="Trazado_228516" data-name="Trazado 228516" d="M856.85,295.92h340.78L913.21,11.5A5.8,5.8,0,1,0,905,19.7l7.91,7.91a9.14,9.14,0,0,1,0,12.88h0a9.14,9.14,0,0,1-12.88,0L873.59,14a5.795,5.795,0,1,0-8.19,8.2l3.93,3.94A8.39,8.39,0,1,1,857.46,38l-5.36-5.35a21.57,21.57,0,0,0-30.51,30.5l1.75,1.75A20.761,20.761,0,1,1,794,94.28h0a49.07,49.07,0,1,0-69.4,69.39C750.94,190,773.23,212.29,856.85,295.92Z" fill="#a5cdf0" fill-rule="evenodd"/>
      </g>
      <g id="Grupo_124601" data-name="Grupo 124601" clip-path="url(#clip-path)">
        <g id="Grupo_124600" data-name="Grupo 124600">
          <g id="Grupo_124485" data-name="Grupo 124485">
            <g id="Grupo_124484" data-name="Grupo 124484">
              <path id="Trazado_228519" data-name="Trazado 228519" d="M811.25,44h-7.84a2.24,2.24,0,0,0-2.11,1.77l-1.75,9.29a1.42,1.42,0,0,0,1.45,1.8h7.84a2.22,2.22,0,0,0,2.1-1.77l1.76-9.29a1.42,1.42,0,0,0-1.45-1.8Zm.51,1.59L810,54.92a1.29,1.29,0,0,1-1.18,1H801a.52.52,0,0,1-.42-.17.57.57,0,0,1-.09-.49l1.76-9.3a1.3,1.3,0,0,1,1.18-1h7.84a.56.56,0,0,1,.42.16.58.58,0,0,1,.07.5Z" fill="#0f416d"/>
              <path id="Trazado_228520" data-name="Trazado 228520" d="M797.53,49.1l-2.78-4.31v-.76h3.46Z" fill="#0f416d"/>
              <g id="Grupo_124483" data-name="Grupo 124483">
                <rect id="Rectángulo_34392" data-name="Rectángulo 34392" width="7.92" height="1.98" transform="translate(798.54 58.88)" fill="#0f416d"/>
                <path id="Trazado_228521" data-name="Trazado 228521" d="M806.89,59.34h-8.78l-2.24-15.32h13.26Z" fill="#86b0b6"/>
                <path id="Trazado_228522" data-name="Trazado 228522" d="M806.89,60.39h-8.78l-1.26,9.55h11.3Z" fill="#86b0b6"/>
                <path id="Trazado_228523" data-name="Trazado 228523" d="M802.54,44.02V59.34h4.35l2.24-15.32Z" fill="#566472"/>
                <path id="Trazado_228524" data-name="Trazado 228524" d="M802.54,69.94h5.61l-1.26-9.55h-4.35Z" fill="#566472"/>
                <path id="Trazado_228525" data-name="Trazado 228525" d="M805.44,44.02l-.72,15.32h2.17l2.24-15.32Z" fill="#0f416d"/>
                <path id="Trazado_228526" data-name="Trazado 228526" d="M805.44,69.94h2.71l-1.26-9.55h-2.17Z" fill="#0f416d"/>
                <path id="Trazado_228527" data-name="Trazado 228527" d="M799.44,44.02h-3.57l2.24,15.32h2.38Z" fill="#aab7b7"/>
                <path id="Trazado_228528" data-name="Trazado 228528" d="M800.49,60.39h-2.38l-1.26,9.55h2.59Z" fill="#aab7b7"/>
              </g>
              <path id="Trazado_228529" data-name="Trazado 228529" d="M802.89,42.16h-.78l-6.24,1.86h13.26Z" fill="#bdc3c7"/>
              <path id="Trazado_228530" data-name="Trazado 228530" d="M802.54,44.02l-.04-1.86h.39l6.24,1.86Z" fill="#aab7b7"/>
              <path id="Trazado_228531" data-name="Trazado 228531" d="M805.44,44.02l-2.74-1.86h.19l6.24,1.86Z" fill="#86b0b6"/>
              <path id="Trazado_228532" data-name="Trazado 228532" d="M799.44,44.02h-3.57l6.24-1.86h.21Z" fill="#eff3f3"/>
              <path id="Trazado_228533" data-name="Trazado 228533" d="M803.41,40.46H801.6l.48,1.71h.85Z" fill="#0f416d"/>
            </g>
            <path id="Trazado_228534" data-name="Trazado 228534" d="M806.39,70.88h-7.78l-1.76-.94h11.3Z" fill="#0f416d"/>
          </g>
          <g id="Grupo_124493" data-name="Grupo 124493">
            <path id="Trazado_228535" data-name="Trazado 228535" d="M919,70.11a1.25,1.25,0,0,1-1.24,1.24H888.4a1.25,1.25,0,0,1-1.25-1.24h0a1.25,1.25,0,0,1,1.25-1.25h29.35A1.25,1.25,0,0,1,919,70.11Z" fill="#566472"/>
            <path id="Trazado_228536" data-name="Trazado 228536" d="M887.2,70.42a1.23,1.23,0,0,0,1.2.93h29.35a1.23,1.23,0,0,0,1.19-.93Z" fill="#0f416d"/>
            <g id="Grupo_124490" data-name="Grupo 124490">
              <path id="Trazado_228537" data-name="Trazado 228537" d="M918.16,69.8V45.22a4.56,4.56,0,0,0-4.57-4.56h-21A4.57,4.57,0,0,0,888,45.22V69.8Z" fill="#c1382a"/>
              <path id="Trazado_228538" data-name="Trazado 228538" d="M908.67,40.66H897.61v6.2h0c.11,2,1.7,5.27,2.48,6.75l-1,2.21h0v.1h-.24a.3.3,0,0,0-.33-.26h-3.9c-.19,0-.33.11-.33.26H894a.16.16,0,0,0-.18.14v.33c0,.05,0,.1.11.13l13.3,13.3h10.91V50.14Z" fill="#a0221c"/>
              <path id="Trazado_228539" data-name="Trazado 228539" d="M908.53,46.86v-8.5a1.65,1.65,0,0,0-1.65-1.65h-7.61a1.65,1.65,0,0,0-1.66,1.65v8.5Z" fill="#566472"/>
              <path id="Trazado_228540" data-name="Trazado 228540" d="M908.23,45.54c-1.54-2.08-8.78-2.08-10.32,0-1.09,1.47,1.21,6.19,2.2,8.07l-1,2.25h7.18l-.3-2.25C907,51.73,909.33,47,908.23,45.54Z" fill="#aab7b7"/>
              <path id="Trazado_228541" data-name="Trazado 228541" d="M908.23,45.54c-.77-1-3-1.56-5.15-1.56V55.86h3.8L906,53.61C907,51.73,909.33,47,908.23,45.54Z" fill="#86b0b6"/>
              <path id="Trazado_228542" data-name="Trazado 228542" d="M906.39,48.31a3.32,3.32,0,1,0-3.32,3.32,3.32,3.32,0,0,0,3.32-3.32Z" fill="#566472"/>
              <path id="Trazado_228543" data-name="Trazado 228543" d="M899.76,48.47a3.31,3.31,0,0,0,6.62,0Z" fill="#0f416d"/>
              <circle id="Elipse_4592" data-name="Elipse 4592" cx="2.56" cy="2.56" r="2.56" transform="translate(900.51 45.75)" fill="#eff3f3"/>
              <g id="Grupo_124486" data-name="Grupo 124486">
                <path id="Trazado_228544" data-name="Trazado 228544" d="M913.62,48.5V69.85h4.54V45.27a4.509,4.509,0,0,0-.2-1.33,4.56,4.56,0,0,0-4.34,4.56Z" fill="#e74c3c"/>
                <path id="Trazado_228545" data-name="Trazado 228545" d="M892.53,48.5a4.56,4.56,0,0,0-4.35-4.56,4.507,4.507,0,0,0-.2,1.33V69.85h4.55Z" fill="#e74c3c"/>
              </g>
              <g id="Grupo_124487" data-name="Grupo 124487">
                <path id="Trazado_228546" data-name="Trazado 228546" d="M899.58,56.17a.26.26,0,0,1-.26.26H897.6a.26.26,0,0,1-.25-.26h0a.25.25,0,0,1,.25-.25h1.72A.26.26,0,0,1,899.58,56.17Z" fill="#aab7b7"/>
                <path id="Trazado_228547" data-name="Trazado 228547" d="M897.35,56.18a.25.25,0,0,0,.25.25h1.72a.25.25,0,0,0,.25-.25Z" fill="#86b0b6"/>
              </g>
              <rect id="Rectángulo_34393" data-name="Rectángulo 34393" width="5.09" height="1.52" rx="0.39" transform="translate(900.5 41.04)" fill="#60e6b9"/>
              <path id="Trazado_228548" data-name="Trazado 228548" d="M899.62,40.17a.58.58,0,1,0-.58.58.58.58,0,0,0,.58-.58Z" fill="#eff3f3"/>
              <path id="Trazado_228549" data-name="Trazado 228549" d="M899.62,41.65a.58.58,0,1,0-.58.58.58.58,0,0,0,.58-.58Z" fill="#eff3f3"/>
              <path id="Trazado_228550" data-name="Trazado 228550" d="M899.62,43.12a.58.58,0,1,0-.58.58.58.58,0,0,0,.58-.58Z" fill="#eff3f3"/>
              <path id="Trazado_228551" data-name="Trazado 228551" d="M907.5,40.17a.58.58,0,1,0-.58.58.58.58,0,0,0,.58-.58Z" fill="#eff3f3"/>
              <circle id="Elipse_4593" data-name="Elipse 4593" cx="0.58" cy="0.58" r="0.58" transform="translate(906.34 41.07)" fill="#eff3f3"/>
              <circle id="Elipse_4594" data-name="Elipse 4594" cx="0.58" cy="0.58" r="0.58" transform="translate(906.34 42.54)" fill="#eff3f3"/>
              <path id="Trazado_228552" data-name="Trazado 228552" d="M899.15,55.82h7.73v.79h-7.73Z" fill="#0f416d"/>
              <path id="Trazado_228553" data-name="Trazado 228553" d="M899.15,55.82h7.73v.79h-7.73Z" fill="#566472"/>
              <rect id="Rectángulo_34394" data-name="Rectángulo 34394" width="3.87" height="0.78" transform="translate(903.01 55.82)" fill="#0f416d"/>
              <g id="Grupo_124489" data-name="Grupo 124489">
                <path id="Trazado_228554" data-name="Trazado 228554" d="M898.63,56.54v.34a2.1,2.1,0,0,0,2.1,2.1h4.69a2.1,2.1,0,0,0,2.1-2.1v-.34Z" fill="#eff3f3"/>
                <g id="Grupo_124488" data-name="Grupo 124488">
                  <rect id="Rectángulo_34395" data-name="Rectángulo 34395" width="2.33" height="1.13" transform="matrix(0.356, -0.935, 0.935, 0.356, 899.885, 62.303)" fill="#aab7b7"/>
                  <path id="Trazado_228555" data-name="Trazado 228555" d="M906.62,62.34,906.1,61a2.38,2.38,0,0,0,.5-1.45v-.88h-7.05v.88a2.39,2.39,0,0,0,2.4,2.39h2.25a2.3,2.3,0,0,0,1-.21l.39,1Z" fill="#aab7b7"/>
                  <path id="Trazado_228556" data-name="Trazado 228556" d="M906.1,61a2.38,2.38,0,0,0,.5-1.45v-.88h-3.42v3.27h1a2.3,2.3,0,0,0,1-.21l.39,1,1-.4Z" fill="#86b0b6"/>
                </g>
                <path id="Trazado_228557" data-name="Trazado 228557" d="M903.47,57.48a.74.74,0,0,0,.74.74h5a.75.75,0,0,0,.75-.74h0a.75.75,0,0,0-.75-.74h-5a.74.74,0,0,0-.74.74Z" fill="#566472"/>
                <path id="Trazado_228558" data-name="Trazado 228558" d="M910,57.51a.73.73,0,0,1-.74.71h-5a.74.74,0,0,1-.74-.71Z" fill="#0f416d"/>
                <path id="Trazado_228559" data-name="Trazado 228559" d="M904.53,57.48a1,1,0,0,0,1.05,1.05h7.1a1,1,0,0,0,1-1.05h0a1,1,0,0,0-1-1h-7.1a1,1,0,0,0-1.05,1Z" fill="#566472"/>
                <path id="Trazado_228560" data-name="Trazado 228560" d="M913.72,57.52a1,1,0,0,1-1,1h-7.1a1.06,1.06,0,0,1-1.05-1Z" fill="#0f416d"/>
                <path id="Trazado_228561" data-name="Trazado 228561" d="M911.75,57.49a.89.89,0,1,0,.89-.89.89.89,0,0,0-.89.89Z" fill="#aab7b7"/>
              </g>
              <path id="Trazado_228562" data-name="Trazado 228562" d="M893.84,56.37a.17.17,0,0,0,.18.14h2.08a.17.17,0,0,0,.17-.14V56a.16.16,0,0,0-.17-.14H894a.16.16,0,0,0-.18.14Z" fill="#0f416d"/>
              <path id="Trazado_228563" data-name="Trazado 228563" d="M894.35,56.51a.3.3,0,0,0,.33.26h3.9a.31.31,0,0,0,.33-.26V55.9a.3.3,0,0,0-.33-.26h-3.9c-.19,0-.33.11-.33.26Z" fill="#0f416d"/>
              <path id="Trazado_228564" data-name="Trazado 228564" d="M898.91,56.17V55.9a.3.3,0,0,0-.33-.26h-3.9c-.19,0-.33.11-.33.26v.27Z" fill="#566472"/>
            </g>
            <g id="Grupo_124491" data-name="Grupo 124491">
              <path id="Trazado_228565" data-name="Trazado 228565" d="M896.61,64v3A3.14,3.14,0,0,0,898,69.8h2.59A3.14,3.14,0,0,0,902,67V64Z" fill="#eff3f3"/>
              <path id="Trazado_228566" data-name="Trazado 228566" d="M904,65.63a1.09,1.09,0,0,0-1.23-1.13,1.189,1.189,0,0,0-.35.15c-.4.26-.35.07-.35.07V64h-2.12v3a3.14,3.14,0,0,1-1.42,2.79h2.12A3,3,0,0,0,902,67.67c0-.17,0-.46.67-.36S904,66.45,904,65.63Zm-1.14,1.21c-.42.08-.77-.28-.79-.78V66a1,1,0,0,1,.72-1c.41-.09.77.24.8.75a1.05,1.05,0,0,1-.76,1.09Z" fill="#bdc3c7"/>
            </g>
            <g id="Grupo_124492" data-name="Grupo 124492">
              <path id="Trazado_228567" data-name="Trazado 228567" d="M904.17,64v3a3.14,3.14,0,0,0,1.42,2.79h2.59A3.14,3.14,0,0,0,909.6,67V64Z" fill="#eff3f3"/>
              <path id="Trazado_228568" data-name="Trazado 228568" d="M911.53,65.63c-.06-.76-.61-1.25-1.22-1.13a1.14,1.14,0,0,0-.36.15c-.39.26-.35.07-.35.07V64h-2.12v3a3.12,3.12,0,0,1-1.42,2.79h2.12a3,3,0,0,0,1.36-2.13c0-.17,0-.46.68-.36S911.6,66.45,911.53,65.63Zm-1.14,1.21c-.42.08-.77-.28-.79-.78V66a1,1,0,0,1,.72-1c.41-.09.77.24.81.75a1.07,1.07,0,0,1-.74,1.09Z" fill="#bdc3c7"/>
            </g>
          </g>
          <g id="Grupo_124500" data-name="Grupo 124500">
            <rect id="Rectángulo_34396" data-name="Rectángulo 34396" width="1.08" height="5.86" transform="translate(762.59 52.68)" fill="#aab7b7"/>
            <rect id="Rectángulo_34397" data-name="Rectángulo 34397" width="3.38" height="4.31" rx="0.72" transform="translate(761.45 49.18)" fill="#566472"/>
            <g id="Grupo_124495" data-name="Grupo 124495">
              <path id="Trazado_228569" data-name="Trazado 228569" d="M772,44.14a2.86,2.86,0,0,0-2.87-2.87h0a2.87,2.87,0,0,0-2.88,2.87V47a2.88,2.88,0,0,0,2.88,2.88h0A2.87,2.87,0,0,0,772,47Z" fill="#aab7b7"/>
              <path id="Trazado_228570" data-name="Trazado 228570" d="M764.63,51.72a2.88,2.88,0,0,0,2.88-2.88h0A2.88,2.88,0,0,0,764.63,46h-2.88a2.87,2.87,0,0,0-2.87,2.87h0a2.87,2.87,0,0,0,2.87,2.88Z" fill="#aab7b7"/>
              <circle id="Elipse_4595" data-name="Elipse 4595" cx="6.04" cy="6.04" r="6.04" transform="translate(739.11 38.44)"/>
              <path id="Trazado_228571" data-name="Trazado 228571" d="M756.21,51h9.66A5.17,5.17,0,0,0,771,45.77v-.72a5.16,5.16,0,0,0-5.17-5.17h-5.48a5.18,5.18,0,0,0-4.31-2.31H743.57a5.18,5.18,0,0,0-5.18,5.18v2.88a5.209,5.209,0,0,0,1.48,3.63h0a3.727,3.727,0,0,0,.6.52c4.84,4.47,4.51,11.27-1.44,19.3H739a1,1,0,0,0,0,2h31a1,1,0,0,0,0-2H759.15C751.82,66.61,747.6,51.72,756.21,51Z" fill="#5299c7"/>
              <g id="Grupo_124494" data-name="Grupo 124494">
                <path id="Trazado_228572" data-name="Trazado 228572" d="M742.51,43.63h24.37a9.31,9.31,0,0,1,3.75.72,5,5,0,0,0-4.83-4.14H743.6a5,5,0,0,0-4.83,4.14,9.29,9.29,0,0,1,3.74-.72Z" fill="#5cace2"/>
                <path id="Trazado_228573" data-name="Trazado 228573" d="M766.88,49.05H742.51a10.1,10.1,0,0,1-2.81-.38,4.83,4.83,0,0,0,3.9,2h22.2a4.83,4.83,0,0,0,3.9-2A10.129,10.129,0,0,1,766.88,49.05Z" fill="#246d96"/>
              </g>
              <path id="Trazado_228574" data-name="Trazado 228574" d="M764.47,44.43a1,1,0,0,1-1,1h-11.7a1,1,0,0,1-1-1h0a1,1,0,0,1,1-1h11.7A1,1,0,0,1,764.47,44.43Z" fill="#566472"/>
              <circle id="Elipse_4596" data-name="Elipse 4596" cx="1.68" cy="1.68" r="1.68" transform="translate(751.43 42.61)" fill="#0f416d"/>
              <path id="Trazado_228575" data-name="Trazado 228575" d="M770.56,69.66a.41.41,0,0,1-.41.42H738.72a.41.41,0,0,1-.41-.42h0a.41.41,0,0,1,.41-.41h31.43a.41.41,0,0,1,.41.41Z" fill="#5cace2"/>
              <path id="Trazado_228576" data-name="Trazado 228576" d="M738.32,70.63a.41.41,0,0,0,.4.32h31.43a.41.41,0,0,0,.4-.32Z" fill="#246d96"/>
              <path id="Trazado_228577" data-name="Trazado 228577" d="M753,69.29l-.61-1.73C750,60.91,748.58,59,747.68,59s-2.3,1.88-4.68,8.53c-.2.54-.4,1.11-.61,1.73Z" fill="#5cace2"/>
            </g>
            <g id="Grupo_124499" data-name="Grupo 124499">
              <path id="Trazado_228578" data-name="Trazado 228578" d="M765.16,64.34h7.26A1.71,1.71,0,0,0,774.05,63l1.11-5.92A1.09,1.09,0,0,0,774,55.75h-7.26a1.72,1.72,0,0,0-1.63,1.34L764,63a1.09,1.09,0,0,0,1.16,1.34Zm-.36-.85a.46.46,0,0,1-.07-.35l1.11-5.91a1,1,0,0,1,.93-.75h6.51a.46.46,0,0,1,.36.14.43.43,0,0,1,.07.34l-1.12,5.91a1,1,0,0,1-.92.75h-6.51a.49.49,0,0,1-.36-.13Z" fill="#566472"/>
              <g id="Grupo_124498" data-name="Grupo 124498">
                <g id="Grupo_124497" data-name="Grupo 124497">
                  <path id="Trazado_228579" data-name="Trazado 228579" d="M771.42,55.07v6.7a7.34,7.34,0,0,1-7.34,7.34h-1.7A7.34,7.34,0,0,1,755,61.77v-6.7Z" fill="#86b0b6"/>
                  <g id="Grupo_124496" data-name="Grupo 124496">
                    <path id="Trazado_228580" data-name="Trazado 228580" d="M763.89,55.07v14h0c3.27,0,5.93-3.28,5.93-7.34v-6.7Z" fill="#aab7b7"/>
                    <path id="Trazado_228581" data-name="Trazado 228581" d="M760.17,55.07v6.7c0,4.06,1.23,7.34,2.74,7.34h-.37c-3.27,0-5.93-3.28-5.93-7.34v-6.7Z" fill="#566472"/>
                  </g>
                </g>
                <path id="Trazado_228582" data-name="Trazado 228582" d="M766.81,55.07v7c0,3.08-1.12,5.73-2.74,7,2.38-.4,4.24-3.51,4.24-7.29v-6.7Z" fill="#eff3f3"/>
              </g>
            </g>
          </g>
          <g id="Grupo_124509" data-name="Grupo 124509">
            <g id="Grupo_124508" data-name="Grupo 124508">
              <path id="Trazado_228583" data-name="Trazado 228583" d="M853.34,249.49v.43a.63.63,0,0,0,.63.63h4.1a.63.63,0,0,0,.63-.63v-.43Z" fill="#0f416d"/>
              <rect id="Rectángulo_34398" data-name="Rectángulo 34398" width="5.36" height="2.31" rx="0.63" transform="translate(870.03 248.24)" fill="#0f416d"/>
              <g id="Grupo_124505" data-name="Grupo 124505">
                <g id="Grupo_124503" data-name="Grupo 124503">
                  <g id="Grupo_124501" data-name="Grupo 124501">
                    <path id="Trazado_228584" data-name="Trazado 228584" d="M858.1,236.04h-8.27v-8.92h13Z" fill="#aab7b7"/>
                    <path id="Trazado_228585" data-name="Trazado 228585" d="M858.1,236.04h-8.27v-5.67H861.1Z" fill="#86b0b6"/>
                    <path id="Trazado_228586" data-name="Trazado 228586" d="M858.35,235.58h-8.52v-2.8h10.02Z" fill="#566472"/>
                    <rect id="Rectángulo_34399" data-name="Rectángulo 34399" width="5.69" height="0.27" transform="translate(849.83 227.35)" fill="#eff3f3"/>
                    <path id="Trazado_228587" data-name="Trazado 228587" d="M855.92,227.17v.58h6.62l.29-.58Z" fill="#86b0b6"/>
                  </g>
                  <g id="Grupo_124502" data-name="Grupo 124502">
                    <path id="Trazado_228588" data-name="Trazado 228588" d="M850.23,236.88a1,1,0,0,1-1,1h0a1,1,0,0,1-1-1V226.27a1,1,0,0,1,1-1h0a1,1,0,0,1,1,1Z" fill="#566472"/>
                    <rect id="Rectángulo_34400" data-name="Rectángulo 34400" width="2.21" height="10.82" transform="translate(848.13 226.17)" fill="#86b0b6"/>
                    <rect id="Rectángulo_34401" data-name="Rectángulo 34401" width="2.21" height="2.99" transform="translate(848.13 226.17)" fill="#eff3f3"/>
                    <path id="Trazado_228589" data-name="Trazado 228589" d="M850.27,231.37a.31.31,0,0,1-.32.31h-1.42a.31.31,0,0,1-.31-.31h0a.31.31,0,0,1,.31-.32H850a.32.32,0,0,1,.32.32Z" fill="#566472"/>
                  </g>
                </g>
                <g id="Grupo_124504" data-name="Grupo 124504">
                  <path id="Trazado_228590" data-name="Trazado 228590" d="M856.16,227.78a6.74,6.74,0,0,0,3-.64V218.7h-6v8.44A6.74,6.74,0,0,0,856.16,227.78Z" fill="#aab7b7"/>
                  <path id="Trazado_228591" data-name="Trazado 228591" d="M856.16,227.78a6.87,6.87,0,0,0,3-.65V218.7h-3.8v9A3.621,3.621,0,0,0,856.16,227.78Z" fill="#86b0b6"/>
                  <path id="Trazado_228592" data-name="Trazado 228592" d="M854.42,227.58V218.7h-.78v8.65a6.411,6.411,0,0,0,.78.23Z" fill="#eff3f3"/>
                  <path id="Trazado_228593" data-name="Trazado 228593" d="M858.84,227.28V218.7H857v9a6.48,6.48,0,0,0,1.84-.42Z" fill="#566472"/>
                </g>
              </g>
              <g id="Grupo_124507" data-name="Grupo 124507">
                <rect id="Rectángulo_34402" data-name="Rectángulo 34402" width="7.27" height="3.74" rx="0.79" transform="translate(852.46 216.37)" fill="#d1f3f7"/>
                <g id="Grupo_124506" data-name="Grupo 124506">
                  <path id="Trazado_228594" data-name="Trazado 228594" d="M848,211.64c.1,2.43.42,6.14,2.88,6.14h18.86c2.46,0,4.46-3.71,4.56-6.14Z" fill="#eaeaea"/>
                  <path id="Trazado_228595" data-name="Trazado 228595" d="M868.84,216.49H851.22c-1.63,0-1.51-.63-2.18-1.56.28,1.39.42,2.46,2.46,2.46h17.07c2,0,3.73-1.07,4-2.46a4.75,4.75,0,0,1-3.73,1.56Z" fill="#d1f3f7"/>
                </g>
              </g>
              <path id="Trazado_228596" data-name="Trazado 228596" d="M875.42,249.62a46.12,46.12,0,0,0-5.85-26.42.78.78,0,0,0-.65-.53H861.6a.7.7,0,0,0-.65.53c-1.35,5.54-7.49,25.37-7.49,25.37a8.3,8.3,0,0,0-.19,1.05Z" fill="#eaeaea"/>
              <path id="Trazado_228597" data-name="Trazado 228597" d="M875.42,249.62a42.643,42.643,0,0,0-.14-8.79H855.83c-1.32,4.36-2.37,7.74-2.37,7.74a8.311,8.311,0,0,0-.19,1.05Z" fill="#d1f3f7"/>
              <path id="Trazado_228598" data-name="Trazado 228598" d="M871.11,227.72a.58.58,0,0,1-.56.88h-9.38a.7.7,0,0,1-.72-.88l1-4.24a.74.74,0,0,1,.73-.45h6.41a.9.9,0,0,1,.81.45Z" fill="#fff"/>
            </g>
            <circle id="Elipse_4597" data-name="Elipse 4597" cx="2.94" cy="2.94" r="2.94" transform="translate(863.05 230.96)" fill="#566472"/>
            <path id="Trazado_228599" data-name="Trazado 228599" d="M863.06,234a2.93,2.93,0,1,0,5.86,0Z" fill="#0f416d"/>
            <circle id="Elipse_4598" data-name="Elipse 4598" cx="2.27" cy="2.27" r="2.27" transform="translate(863.72 231.63)" fill="#eff3f3"/>
          </g>
          <g id="Grupo_124521" data-name="Grupo 124521">
            <g id="Grupo_124519" data-name="Grupo 124519">
              <g id="Grupo_124510" data-name="Grupo 124510">
                <path id="Trazado_228600" data-name="Trazado 228600" d="M911.52,224.11c0,12.75,3.26,16.11,7.66,16.88h6.14c4.23-.73,7.33-3.88,7.33-16.88Z" fill="#60e6b9"/>
                <path id="Trazado_228601" data-name="Trazado 228601" d="M931.52,224.11H912.65c.06,12.41,3.46,15.18,6.63,15.77h5.94C928.38,239.3,931.46,236.41,931.52,224.11Z" fill="#c2eff2"/>
                <path id="Trazado_228602" data-name="Trazado 228602" d="M934.2,224.37h-2.4v2.74h1.54a1.63,1.63,0,0,1,1.48,1.86l-.38,4.68c-.05.77.25,1.39.66,1.39s.81-.62.88-1.38l.71-6a2.78,2.78,0,0,0-2.49-3.29Z" fill="#60e6b9"/>
              </g>
              <g id="Grupo_124511" data-name="Grupo 124511">
                <path id="Trazado_228603" data-name="Trazado 228603" d="M931.51,249.62v-5.45a3.24,3.24,0,0,0-3.24-3.24H913.34a3.24,3.24,0,0,0-3.24,3.24v5.45Z" fill="#d1f3f7"/>
                <path id="Trazado_228604" data-name="Trazado 228604" d="M915.81,249.47v-13.4a3.24,3.24,0,0,0-3.24-3.24H897.64a3.24,3.24,0,0,0-3.24,3.24v13.4Z" fill="#eaeaea"/>
                <path id="Trazado_228605" data-name="Trazado 228605" d="M932.53,249.68a.88.88,0,0,1-.88.89H894.7a.89.89,0,0,1-.89-.89h0a.89.89,0,0,1,.89-.88h36.95A.88.88,0,0,1,932.53,249.68Z" fill="#566472"/>
                <path id="Trazado_228606" data-name="Trazado 228606" d="M893.85,249.91a.88.88,0,0,0,.85.66h36.95a.88.88,0,0,0,.85-.66Z" fill="#0f416d"/>
              </g>
              <rect id="Rectángulo_34403" data-name="Rectángulo 34403" width="10.14" height="1.37" transform="translate(900.38 231.46)" fill="#566472"/>
              <g id="Grupo_124517" data-name="Grupo 124517">
                <g id="Grupo_124514" data-name="Grupo 124514">
                  <path id="Trazado_228607" data-name="Trazado 228607" d="M923.07,220.89a1.26,1.26,0,1,0-.365.9,1.27,1.27,0,0,0,.365-.9Z" fill="#60e6b9"/>
                  <g id="Grupo_124513" data-name="Grupo 124513">
                    <path id="Trazado_228608" data-name="Trazado 228608" d="M911.28,224.11c.13-1.27,2.42-2.28,5.23-2.28h11.23c2.81,0,5.1,1,5.23,2.28Z" fill="#eaeaea"/>
                    <g id="Grupo_124512" data-name="Grupo 124512">
                      <path id="Trazado_228609" data-name="Trazado 228609" d="M924.88,221.83h2.27c2,0,3.66,1,3.75,2.28h-4.24C926.62,222.84,925.84,221.83,924.88,221.83Z" fill="#f9f9f9"/>
                      <path id="Trazado_228610" data-name="Trazado 228610" d="M916.36,221.83h1.93c-1,0-1.74,1-1.78,2.28h-3.9C912.7,222.84,914.34,221.83,916.36,221.83Z" fill="#d1f3f7"/>
                    </g>
                  </g>
                  <path id="Trazado_228611" data-name="Trazado 228611" d="M922.68,220.38c0-.29-.39-.52-.87-.52s-.88.23-.88.52.39.53.88.53S922.68,220.67,922.68,220.38Z" fill="#c2eff2"/>
                </g>
                <g id="Grupo_124516" data-name="Grupo 124516">
                  <g id="Grupo_124515" data-name="Grupo 124515">
                    <path id="Trazado_228612" data-name="Trazado 228612" d="M915.2,210.59v12.63a9.74,9.74,0,0,1-4.77,8.38h-10a9.75,9.75,0,0,1-4.76-8.38V210.59Z" fill="#60e6b9"/>
                    <path id="Trazado_228613" data-name="Trazado 228613" d="M913.72,210.59v12.63a8.21,8.21,0,0,1-3.71,6.9h-9.15a8.21,8.21,0,0,1-3.71-6.9V210.59Z" fill="#c2eff2"/>
                  </g>
                  <path id="Trazado_228614" data-name="Trazado 228614" d="M917.23,210.93v1.51l-2.72,3.7v-5.21Z" fill="#60e6b9"/>
                  <path id="Trazado_228615" data-name="Trazado 228615" d="M897,211.12v2.74h-2.91a1.63,1.63,0,0,0-1.48,1.86l.51,7.91c0,.77-.25,1.39-.67,1.39s-.81-.62-.88-1.39l-.83-9.23a2.78,2.78,0,0,1,2.48-3.28Z" fill="#60e6b9"/>
                </g>
              </g>
              <path id="Trazado_228616" data-name="Trazado 228616" d="M897.15,218.35v4.87a8.21,8.21,0,0,0,3.71,6.9H910a8.21,8.21,0,0,0,3.71-6.9v-4.87Z" fill="#f39c12"/>
              <g id="Grupo_124518" data-name="Grupo 124518" opacity="0.6">
                <path id="Trazado_228617" data-name="Trazado 228617" d="M902.59,210.59h-4.53v12.63a10.659,10.659,0,0,0,3.6,8.38H904a21.15,21.15,0,0,1-1.39-8.38Z" fill="#f9f9f9"/>
              </g>
              <path id="Trazado_228618" data-name="Trazado 228618" d="M918.65,239.73l.63.15h5.94l.49-.11c-.47-3.11-1.87-5.37-3.53-5.37S919.13,236.64,918.65,239.73Z" fill="#eaeaea"/>
              <path id="Trazado_228619" data-name="Trazado 228619" d="M922.4,234.42a13.65,13.65,0,0,1,.77,5.46h2.05l.49-.11C925.26,236.8,924,234.61,922.4,234.42Z" fill="#d1f3f7"/>
              <path id="Trazado_228620" data-name="Trazado 228620" d="M921.32,235.24c-3,0-5.35.15-5.35.32s2.32.29,5.35.32Z" fill="#d1f3f7"/>
              <path id="Trazado_228621" data-name="Trazado 228621" d="M923.86,235.24a4.422,4.422,0,0,1,.48.62,17.11,17.11,0,0,0,4.14-.3,20,20,0,0,0-4.62-.32Z" fill="#d1f3f7"/>
            </g>
            <g id="Grupo_124520" data-name="Grupo 124520">
              <path id="Trazado_228622" data-name="Trazado 228622" d="M908.82,239.83a3.43,3.43,0,1,0-3.42,3.42,3.43,3.43,0,0,0,3.42-3.42Z" fill="#566472"/>
              <path id="Trazado_228623" data-name="Trazado 228623" d="M902,240a3.42,3.42,0,0,0,6.83,0Z" fill="#0f416d"/>
              <path id="Trazado_228624" data-name="Trazado 228624" d="M908,239.83a2.64,2.64,0,1,0-2.64,2.64,2.64,2.64,0,0,0,2.64-2.64Z" fill="#eff3f3"/>
            </g>
            <path id="Trazado_228625" data-name="Trazado 228625" d="M909.56,247.03h-8.42v-2.57h8.42Z" fill="#566472"/>
            <rect id="Rectángulo_34404" data-name="Rectángulo 34404" width="8.12" height="2.27" transform="translate(901.3 244.61)" fill="#60e6b9"/>
            <circle id="Elipse_4599" data-name="Elipse 4599" cx="0.88" cy="0.88" r="0.88" transform="translate(897.12 238.54)" fill="#566472"/>
            <circle id="Elipse_4600" data-name="Elipse 4600" cx="0.88" cy="0.88" r="0.88" transform="translate(897.12 241.46)" fill="#566472"/>
            <circle id="Elipse_4601" data-name="Elipse 4601" cx="0.88" cy="0.88" r="0.88" transform="translate(897.12 244.39)" fill="#566472"/>
            <circle id="Elipse_4602" data-name="Elipse 4602" cx="0.88" cy="0.88" r="0.88" transform="translate(911.76 238.54)" fill="#566472"/>
            <circle id="Elipse_4603" data-name="Elipse 4603" cx="0.88" cy="0.88" r="0.88" transform="translate(911.76 241.46)" fill="#566472"/>
            <circle id="Elipse_4604" data-name="Elipse 4604" cx="0.88" cy="0.88" r="0.88" transform="translate(911.76 244.39)" fill="#566472"/>
          </g>
          <g id="Grupo_124524" data-name="Grupo 124524">
            <g id="Grupo_124522" data-name="Grupo 124522">
              <path id="Trazado_228626" data-name="Trazado 228626" d="M874,71V55.66a4.49,4.49,0,0,0-4.49-4.5H848.88a4.5,4.5,0,0,0-4.5,4.5V71Z" fill="#0f416d"/>
              <path id="Trazado_228627" data-name="Trazado 228627" d="M872.8,68.58V54.46a4.15,4.15,0,0,0-4.14-4.14h-19a4.14,4.14,0,0,0-4.14,4.14V68.58Z" fill="#60e6b9"/>
              <path id="Trazado_228628" data-name="Trazado 228628" d="M874.82,71a.4.4,0,0,1-.4.4H844a.4.4,0,0,1-.4-.4h0a.4.4,0,0,1,.4-.41h30.39a.4.4,0,0,1,.4.41Z" fill="#566472"/>
            </g>
            <rect id="Rectángulo_34405" data-name="Rectángulo 34405" width="17.02" height="1.32" rx="0.44" transform="translate(850.72 51.03)" fill="#0f416d"/>
            <path id="Trazado_228629" data-name="Trazado 228629" d="M871.5,54.74c0,.35-.49.64-1.09.64H848c-.6,0-1.09-.29-1.09-.64v-1c0-.35.49-.63,1.09-.63h22.45c.6,0,1.09.28,1.09.63Z" fill="#8de2d2"/>
            <g id="Grupo_124523" data-name="Grupo 124523">
              <path id="Trazado_228630" data-name="Trazado 228630" d="M852.57,64.87a2.82,2.82,0,1,0-2.81,2.81A2.82,2.82,0,0,0,852.57,64.87Z" fill="#566472"/>
              <path id="Trazado_228631" data-name="Trazado 228631" d="M847,65a2.81,2.81,0,0,0,5.61,0Z" fill="#0f416d"/>
              <path id="Trazado_228632" data-name="Trazado 228632" d="M851.92,64.87A2.17,2.17,0,1,0,849.76,67,2.17,2.17,0,0,0,851.92,64.87Z" fill="#eff3f3"/>
            </g>
            <path id="Trazado_228633" data-name="Trazado 228633" d="M854.61,66.76a.73.73,0,1,0-.73.73A.73.73,0,0,0,854.61,66.76Z" fill="#566472"/>
            <path id="Trazado_228634" data-name="Trazado 228634" d="M856.56,66.76a.73.73,0,1,0-.73.73A.73.73,0,0,0,856.56,66.76Z" fill="#566472"/>
            <circle id="Elipse_4605" data-name="Elipse 4605" cx="0.73" cy="0.73" r="0.73" transform="translate(857.05 66.03)" fill="#566472"/>
          </g>
          <g id="Grupo_124528" data-name="Grupo 124528">
            <path id="Trazado_228635" data-name="Trazado 228635" d="M975.32,70.49a.56.56,0,0,1-.56.56h-7.94a.56.56,0,0,1-.55-.56h0a.55.55,0,0,1,.55-.55h7.94a.56.56,0,0,1,.56.55Z" fill="#566472"/>
            <path id="Trazado_228636" data-name="Trazado 228636" d="M1008.75,70.49a.56.56,0,0,1-.56.56h-7.94a.56.56,0,0,1-.55-.56h0a.55.55,0,0,1,.55-.55h7.94a.56.56,0,0,1,.56.55Z" fill="#566472"/>
            <g id="Grupo_124527" data-name="Grupo 124527">
              <rect id="Rectángulo_34406" data-name="Rectángulo 34406" width="45.62" height="26.23" rx="1.85" transform="translate(964.61 44.08)" fill="#eaeaea"/>
              <rect id="Rectángulo_34407" data-name="Rectángulo 34407" width="31.71" height="21.48" rx="1.85" transform="translate(966.58 46.29)" fill="#0f416d"/>
              <path id="Trazado_228637" data-name="Trazado 228637" d="M968.43,67.77h8.26l21-21a1.831,1.831,0,0,0-1.24-.48h-28a1.85,1.85,0,0,0-1.85,1.85V65.92a1.85,1.85,0,0,0,1.83,1.85Z" fill="#566472"/>
              <path id="Trazado_228638" data-name="Trazado 228638" d="M1002,68.25a1,1,0,0,1-1,1h0a1,1,0,0,1-1-1V46a1,1,0,0,1,1-1h0a1,1,0,0,1,1,1Z" fill="#d1f3f7"/>
              <path id="Trazado_228639" data-name="Trazado 228639" d="M1001.7,58.73a.64.64,0,0,1-.64.64h0a.64.64,0,0,1-.63-.64V46.08a.63.63,0,0,1,.63-.64h0a.63.63,0,0,1,.64.64Z" fill="#fff"/>
              <g id="Grupo_124525" data-name="Grupo 124525">
                <path id="Trazado_228640" data-name="Trazado 228640" d="M1008.44,57.42a2.38,2.38,0,1,0-.7,1.686A2.39,2.39,0,0,0,1008.44,57.42Z" fill="#566472"/>
                <path id="Trazado_228641" data-name="Trazado 228641" d="M1003.68,57.53a2.38,2.38,0,0,0,4.75,0Z" fill="#0f416d"/>
                <path id="Trazado_228642" data-name="Trazado 228642" d="M1007.89,57.42a1.84,1.84,0,1,0-1.84,1.83,1.84,1.84,0,0,0,1.84-1.83Z" fill="#eff3f3"/>
              </g>
              <g id="Grupo_124526" data-name="Grupo 124526">
                <path id="Trazado_228643" data-name="Trazado 228643" d="M1008.44,64.07a2.39,2.39,0,1,0-2.39,2.38,2.39,2.39,0,0,0,2.39-2.38Z" fill="#566472"/>
                <path id="Trazado_228644" data-name="Trazado 228644" d="M1003.68,64.18a2.38,2.38,0,0,0,4.75,0Z" fill="#0f416d"/>
                <path id="Trazado_228645" data-name="Trazado 228645" d="M1007.89,64.07a1.84,1.84,0,1,0-1.84,1.83,1.84,1.84,0,0,0,1.84-1.83Z" fill="#eff3f3"/>
              </g>
              <rect id="Rectángulo_34408" data-name="Rectángulo 34408" width="5.54" height="2.4" transform="translate(1003.21 49.62)" fill="#0f416d"/>
              <rect id="Rectángulo_34409" data-name="Rectángulo 34409" width="5.22" height="2.08" transform="translate(1003.37 49.78)" fill="#60e6b9"/>
            </g>
          </g>
          <g id="Grupo_124531" data-name="Grupo 124531">
            <g id="Grupo_124530" data-name="Grupo 124530">
              <g id="Grupo_124529" data-name="Grupo 124529">
                <path id="Trazado_228646" data-name="Trazado 228646" d="M947.34,70.57a.46.46,0,0,1-.46.46h-14a.47.47,0,0,1-.46-.46h0a.47.47,0,0,1,.46-.47h14a.46.46,0,0,1,.46.47Z" fill="#0f416d"/>
                <path id="Trazado_228647" data-name="Trazado 228647" d="M945.56,49.92v3.2H949a1.9,1.9,0,0,1,1.73,2.17l-.6,9.23c-.06.89.29,1.62.78,1.62s.94-.73,1-1.62l1-10.77c.18-2.07-1.11-3.83-2.9-3.83Z" fill="#0f416d"/>
                <path id="Trazado_228648" data-name="Trazado 228648" d="M946.87,49.39c-.26.87-2.76.88-5.58,0s-4.89-2.26-4.62-3.13,2.76-.88,5.58,0S947.14,48.52,946.87,49.39Z" fill="#bdc3c7"/>
                <rect id="Rectángulo_34410" data-name="Rectángulo 34410" width="1.66" height="11.97" rx="0.78" transform="translate(935.768 47.003) rotate(-72.38)" fill="#0f416d"/>
                <path id="Trazado_228649" data-name="Trazado 228649" d="M948,64.46a.78.78,0,0,1-.87-.67l-1.34-14.13a.79.79,0,0,1,.68-.87h.1a.78.78,0,0,1,.87.67l1.34,14.13a.79.79,0,0,1-.68.87Z" fill="#0f416d"/>
                <path id="Trazado_228650" data-name="Trazado 228650" d="M946.32,49.28,936.15,46h-4.72c0,2.24,1.62,3.77,1.62,6.22,0,1.15-1.76,8.41-1.76,11.6a17.311,17.311,0,0,0,1.21,6.48h14.65a17.309,17.309,0,0,0,1.22-6.48C948.37,60.59,946.32,49.28,946.32,49.28Z" fill="#86b0b6"/>
                <path id="Trazado_228651" data-name="Trazado 228651" d="M946.12,50.16l-3-1c.53,3.8,1.8,13.08,1.8,16.08a25.291,25.291,0,0,1-.3,3.92h2.58a16.691,16.691,0,0,0,.8-5.36C948,61.18,946.55,52.59,946.12,50.16Z" fill="#566472"/>
                <path id="Trazado_228652" data-name="Trazado 228652" d="M939.86,47.89l-3.81-1.21c-1.11,1.5-2.51,7.09-2.87,9A56.929,56.929,0,0,0,932,63.8a16.781,16.781,0,0,0,1,5.86h6.85Z" fill="#bdc3c7"/>
                <path id="Trazado_228653" data-name="Trazado 228653" d="M943,67.9c-.12-9.44-1.51-16.88-3.2-16.88s-3.08,7.44-3.2,16.88Z" fill="#5299c7"/>
                <path id="Trazado_228654" data-name="Trazado 228654" d="M936.85,61.47q-.255,3-.3,6.43H943c0-2.29-.13-4.46-.3-6.43Z" fill="#5cace2"/>
              </g>
              <path id="Trazado_228655" data-name="Trazado 228655" d="M935.71,55.66a59.2,59.2,0,0,1,1.67-8.56l-.82-.26c-.92,1.7-2,7-2.33,8.82a67.131,67.131,0,0,0-1,8.14,19.443,19.443,0,0,0,.86,5.86h1.51a25.35,25.35,0,0,1-.6-5.86C935,61.87,935.39,58.28,935.71,55.66Z" fill="#eaeaea"/>
            </g>
            <path id="Trazado_228656" data-name="Trazado 228656" d="M931.91,47.38c-.48-.67,1.39,3.82,1.57,3.2s1.12-2.89,1.12-2.89a1.9,1.9,0,0,1-2.69-.31Z" fill="#566472"/>
          </g>
          <g id="Grupo_124539" data-name="Grupo 124539">
            <g id="Grupo_124538" data-name="Grupo 124538">
              <rect id="Rectángulo_34411" data-name="Rectángulo 34411" width="105.64" height="173.34" rx="6.42" transform="translate(724.36 149.19)" fill="#d1f3f7"/>
              <rect id="Rectángulo_34412" data-name="Rectángulo 34412" width="103.31" height="171.01" rx="5.25" transform="translate(725.53 150.36)" fill="#86b0b6"/>
              <g id="Grupo_124532" data-name="Grupo 124532" opacity="0.2">
                <path id="Trazado_228657" data-name="Trazado 228657" d="M778.76,150.36h-48a5.26,5.26,0,0,0-5.25,5.25v48Z" fill="#f9f9f9"/>
              </g>
              <g id="Grupo_124533" data-name="Grupo 124533" opacity="0.2">
                <path id="Trazado_228658" data-name="Trazado 228658" d="M821.37,150.36H806.53l-81,81.01V246.2Z" fill="#f9f9f9"/>
              </g>
              <g id="Grupo_124534" data-name="Grupo 124534" opacity="0.2">
                <path id="Trazado_228659" data-name="Trazado 228659" d="M767.67,321.37l61.16-61.16V220.28L728.34,320.77a5.269,5.269,0,0,0,2.44.6Z" fill="#f9f9f9"/>
              </g>
              <rect id="Rectángulo_34413" data-name="Rectángulo 34413" width="33.72" height="28.05" transform="translate(732.32 226.14)" fill="#0f416d"/>
              <rect id="Rectángulo_34414" data-name="Rectángulo 34414" width="31.86" height="26.2" transform="translate(733.24 227.07)" fill="#566472"/>
              <path id="Trazado_228660" data-name="Trazado 228660" d="M765.11,253.27H733.24l3.71-2.22h24.44Z" fill="#7c8988"/>
              <rect id="Rectángulo_34415" data-name="Rectángulo 34415" width="24.29" height="23.79" transform="translate(737.03 227.17)" fill="#d1f3f7"/>
              <g id="Grupo_124535" data-name="Grupo 124535">
                <rect id="Rectángulo_34416" data-name="Rectángulo 34416" width="14.4" height="4.86" transform="translate(742.26 209.67)" fill="#566472"/>
                <rect id="Rectángulo_34417" data-name="Rectángulo 34417" width="13.66" height="4.12" transform="translate(742.63 210.04)" fill="#60e6b9"/>
                <path id="Trazado_228661" data-name="Trazado 228661" d="M744.4,219.82a1.17,1.17,0,1,0-1.17,1.16A1.17,1.17,0,0,0,744.4,219.82Z" fill="#566472"/>
                <path id="Trazado_228662" data-name="Trazado 228662" d="M748.48,219.82a1.17,1.17,0,1,0-1.16,1.16A1.17,1.17,0,0,0,748.48,219.82Z" fill="#566472"/>
                <path id="Trazado_228663" data-name="Trazado 228663" d="M752.57,219.82a1.17,1.17,0,1,0-.339.834,1.17,1.17,0,0,0,.339-.834Z" fill="#566472"/>
                <path id="Trazado_228664" data-name="Trazado 228664" d="M756.65,219.82a1.17,1.17,0,1,0-1.16,1.16A1.17,1.17,0,0,0,756.65,219.82Z" fill="#566472"/>
              </g>
              <rect id="Rectángulo_34418" data-name="Rectángulo 34418" width="1.33" height="171.01" transform="translate(776.51 150.36)" fill="#566472"/>
              <g id="Grupo_124536" data-name="Grupo 124536">
                <path id="Trazado_228665" data-name="Trazado 228665" d="M774.26,270.88a2.33,2.33,0,0,1-2.33,2.34h0a2.34,2.34,0,0,1-2.34-2.34V208.73a2.34,2.34,0,0,1,2.34-2.34h0a2.33,2.33,0,0,1,2.33,2.34Z" fill="#d1f3f7"/>
                <path id="Trazado_228666" data-name="Trazado 228666" d="M773.09,246.45v-39a1.31,1.31,0,0,0-2.62,0v39Z" fill="#fff"/>
              </g>
              <g id="Grupo_124537" data-name="Grupo 124537">
                <path id="Trazado_228667" data-name="Trazado 228667" d="M785.57,270.88a2.34,2.34,0,0,1-2.34,2.34h0a2.33,2.33,0,0,1-2.33-2.34V208.73a2.33,2.33,0,0,1,2.33-2.34h0a2.34,2.34,0,0,1,2.34,2.34Z" fill="#d1f3f7"/>
                <path id="Trazado_228668" data-name="Trazado 228668" d="M784.4,246.45v-39a1.32,1.32,0,0,0-2.63,0v39Z" fill="#fff"/>
              </g>
            </g>
            <path id="Trazado_228669" data-name="Trazado 228669" d="M775.32,152.67a.83.83,0,0,1-.84.83H728.91a.83.83,0,0,1-.83-.83h0a.84.84,0,0,1,.83-.84h45.57a.84.84,0,0,1,.84.84Z" fill="#d1f3f7"/>
            <path id="Trazado_228670" data-name="Trazado 228670" d="M826.5,152.67a.83.83,0,0,1-.84.83H780.09a.83.83,0,0,1-.83-.83h0a.84.84,0,0,1,.83-.84h45.57A.84.84,0,0,1,826.5,152.67Z" fill="#d1f3f7"/>
          </g>
          <g id="Grupo_124545" data-name="Grupo 124545">
            <rect id="Rectángulo_34419" data-name="Rectángulo 34419" width="102.44" height="71.71" transform="translate(841.32 252.58)" fill="#d1f3f7"/>
            <rect id="Rectángulo_34420" data-name="Rectángulo 34420" width="111.74" height="4.62" rx="1.37" transform="translate(836.5 250.57)" fill="#0f416d"/>
            <g id="Grupo_124540" data-name="Grupo 124540">
              <rect id="Rectángulo_34421" data-name="Rectángulo 34421" width="69.52" height="12.36" transform="translate(844.98 259.19)" fill="#b2b2b2"/>
              <rect id="Rectángulo_34422" data-name="Rectángulo 34422" width="69.52" height="12.36" transform="translate(844.98 257.76)" fill="#eaeaea"/>
              <rect id="Rectángulo_34423" data-name="Rectángulo 34423" width="34.31" height="39.41" transform="translate(844.98 273.63)" fill="#eaeaea"/>
              <rect id="Rectángulo_34424" data-name="Rectángulo 34424" width="22.86" height="55.48" transform="translate(917.08 257.76)" fill="#eaeaea"/>
            </g>
            <g id="Grupo_124541" data-name="Grupo 124541">
              <path id="Trazado_228671" data-name="Trazado 228671" d="M886.6,262.24a1.29,1.29,0,0,1-1.29,1.3h-10.1a1.29,1.29,0,0,1-1.29-1.3h0a1.29,1.29,0,0,1,1.29-1.29h10.1a1.29,1.29,0,0,1,1.29,1.29Z" fill="#fd8800"/>
              <path id="Trazado_228672" data-name="Trazado 228672" d="M873.92,262.18v.06a1.29,1.29,0,0,0,1.29,1.3h10.1a1.29,1.29,0,0,0,1.29-1.3v-.06Z" fill="#f76303"/>
            </g>
            <g id="Grupo_124542" data-name="Grupo 124542">
              <path id="Trazado_228673" data-name="Trazado 228673" d="M920.92,262.13a1.28,1.28,0,0,1,1.29,1.29v10.1a1.28,1.28,0,0,1-1.29,1.29h0a1.29,1.29,0,0,1-1.29-1.29v-10.1A1.29,1.29,0,0,1,920.92,262.13Z" fill="#fd8800"/>
              <path id="Trazado_228674" data-name="Trazado 228674" d="M920.86,274.81h.06a1.28,1.28,0,0,0,1.29-1.29v-10.1a1.28,1.28,0,0,0-1.29-1.29h-.06Z" fill="#f76303"/>
            </g>
            <g id="Grupo_124543" data-name="Grupo 124543">
              <path id="Trazado_228675" data-name="Trazado 228675" d="M876.59,288.47a1.3,1.3,0,0,1-1.3-1.29v-10.1a1.3,1.3,0,0,1,1.3-1.3h0a1.3,1.3,0,0,1,1.29,1.3v10.1A1.29,1.29,0,0,1,876.59,288.47Z" fill="#fd8800"/>
              <path id="Trazado_228676" data-name="Trazado 228676" d="M876.65,275.79h-.06a1.3,1.3,0,0,0-1.3,1.3v10.1a1.3,1.3,0,0,0,1.3,1.29h.06Z" fill="#f76303"/>
            </g>
            <rect id="Rectángulo_34425" data-name="Rectángulo 34425" width="34.44" height="39.41" transform="translate(880 273.63)" fill="#eaeaea"/>
            <g id="Grupo_124544" data-name="Grupo 124544">
              <path id="Trazado_228677" data-name="Trazado 228677" d="M882.82,288.47a1.3,1.3,0,0,0,1.3-1.29v-10.1a1.3,1.3,0,0,0-1.3-1.3h0a1.3,1.3,0,0,0-1.29,1.3v10.1A1.29,1.29,0,0,0,882.82,288.47Z" fill="#fd8800"/>
              <path id="Trazado_228678" data-name="Trazado 228678" d="M882.77,275.79h.05a1.3,1.3,0,0,1,1.3,1.3v10.1a1.3,1.3,0,0,1-1.3,1.29h-.05Z" fill="#f76303"/>
            </g>
          </g>
          <g id="Grupo_124550" data-name="Grupo 124550">
            <rect id="Rectángulo_34426" data-name="Rectángulo 34426" width="77.01" height="71.71" transform="translate(738.84 73.17)" fill="#d1f3f7"/>
            <rect id="Rectángulo_34427" data-name="Rectángulo 34427" width="86.31" height="4.62" rx="1.37" transform="translate(734.02 71.16)" fill="#0f416d"/>
            <g id="Grupo_124546" data-name="Grupo 124546">
              <rect id="Rectángulo_34428" data-name="Rectángulo 34428" width="69.52" height="26.85" transform="translate(742.49 79.78)" fill="#b2b2b2"/>
              <rect id="Rectángulo_34429" data-name="Rectángulo 34429" width="69.52" height="26.85" transform="translate(742.49 78.35)" fill="#eaeaea"/>
            </g>
            <rect id="Rectángulo_34430" data-name="Rectángulo 34430" width="73.39" height="9.28" transform="translate(740.65 135.6)" fill="#b2b2b2"/>
            <g id="Grupo_124547" data-name="Grupo 124547">
              <path id="Trazado_228679" data-name="Trazado 228679" d="M784.12,82.83a1.29,1.29,0,0,1-1.29,1.29H772.72a1.29,1.29,0,0,1-1.29-1.29h0a1.29,1.29,0,0,1,1.29-1.29h10.11a1.29,1.29,0,0,1,1.29,1.29Z" fill="#fd8800"/>
              <path id="Trazado_228680" data-name="Trazado 228680" d="M771.44,82.77v.06a1.29,1.29,0,0,0,1.29,1.29h10.11a1.29,1.29,0,0,0,1.29-1.29s0,0,0-.06Z" fill="#f76303"/>
            </g>
            <g id="Grupo_124548" data-name="Grupo 124548">
              <rect id="Rectángulo_34431" data-name="Rectángulo 34431" width="69.52" height="26.85" transform="translate(742.49 108)" fill="#b2b2b2"/>
              <rect id="Rectángulo_34432" data-name="Rectángulo 34432" width="69.52" height="26.85" transform="translate(742.49 106.57)" fill="#eaeaea"/>
            </g>
            <g id="Grupo_124549" data-name="Grupo 124549">
              <path id="Trazado_228681" data-name="Trazado 228681" d="M784.12,111.05a1.29,1.29,0,0,1-1.29,1.29H772.72a1.29,1.29,0,0,1-1.29-1.29h0a1.29,1.29,0,0,1,1.29-1.29h10.11a1.29,1.29,0,0,1,1.29,1.29Z" fill="#fd8800"/>
              <path id="Trazado_228682" data-name="Trazado 228682" d="M771.44,111v.06a1.29,1.29,0,0,0,1.29,1.29h10.11a1.29,1.29,0,0,0,1.29-1.29s0,0,0-.06Z" fill="#f76303"/>
            </g>
          </g>
          <g id="Grupo_124555" data-name="Grupo 124555">
            <rect id="Rectángulo_34433" data-name="Rectángulo 34433" width="77.01" height="71.71" transform="translate(932.62 73.17)" fill="#d1f3f7"/>
            <rect id="Rectángulo_34434" data-name="Rectángulo 34434" width="86.31" height="4.62" rx="1.37" transform="translate(927.79 71.16)" fill="#0f416d"/>
            <g id="Grupo_124551" data-name="Grupo 124551">
              <rect id="Rectángulo_34435" data-name="Rectángulo 34435" width="69.52" height="12.36" transform="translate(936.27 79.78)" fill="#b2b2b2"/>
              <rect id="Rectángulo_34436" data-name="Rectángulo 34436" width="69.52" height="12.36" transform="translate(936.27 78.35)" fill="#eaeaea"/>
              <rect id="Rectángulo_34437" data-name="Rectángulo 34437" width="34.31" height="39.41" transform="translate(936.27 94.22)" fill="#eaeaea"/>
            </g>
            <rect id="Rectángulo_34438" data-name="Rectángulo 34438" width="73.39" height="9.28" transform="translate(934.42 135.6)" fill="#b2b2b2"/>
            <g id="Grupo_124552" data-name="Grupo 124552">
              <path id="Trazado_228683" data-name="Trazado 228683" d="M977.9,82.83a1.3,1.3,0,0,1-1.3,1.29H966.5a1.29,1.29,0,0,1-1.29-1.29h0a1.29,1.29,0,0,1,1.29-1.29h10.1a1.3,1.3,0,0,1,1.3,1.29Z" fill="#fd8800"/>
              <path id="Trazado_228684" data-name="Trazado 228684" d="M965.21,82.77v.06a1.29,1.29,0,0,0,1.29,1.29h10.1a1.3,1.3,0,0,0,1.3-1.29v-.06Z" fill="#f76303"/>
            </g>
            <g id="Grupo_124553" data-name="Grupo 124553">
              <path id="Trazado_228685" data-name="Trazado 228685" d="M967.88,109.06a1.29,1.29,0,0,1-1.29-1.29V97.66a1.29,1.29,0,0,1,1.29-1.29h0a1.29,1.29,0,0,1,1.29,1.29v10.11a1.29,1.29,0,0,1-1.29,1.29Z" fill="#fd8800"/>
              <path id="Trazado_228686" data-name="Trazado 228686" d="M967.94,96.38h-.06a1.29,1.29,0,0,0-1.29,1.29v10.11a1.29,1.29,0,0,0,1.29,1.29h.06Z" fill="#f76303"/>
            </g>
            <rect id="Rectángulo_34439" data-name="Rectángulo 34439" width="34.35" height="0.84" transform="translate(936.27 132.79)" fill="#b2b2b2"/>
            <rect id="Rectángulo_34440" data-name="Rectángulo 34440" width="34.44" height="39.41" transform="translate(971.29 94.22)" fill="#eaeaea"/>
            <g id="Grupo_124554" data-name="Grupo 124554">
              <path id="Trazado_228687" data-name="Trazado 228687" d="M974.12,109.06a1.29,1.29,0,0,0,1.29-1.29V97.66a1.29,1.29,0,0,0-1.29-1.29h0a1.29,1.29,0,0,0-1.29,1.29v10.11a1.29,1.29,0,0,0,1.29,1.29Z" fill="#fd8800"/>
              <path id="Trazado_228688" data-name="Trazado 228688" d="M974.06,96.38h.06a1.29,1.29,0,0,1,1.29,1.29v10.11a1.29,1.29,0,0,1-1.29,1.29h-.06Z" fill="#f76303"/>
            </g>
            <rect id="Rectángulo_34441" data-name="Rectángulo 34441" width="34.51" height="0.84" transform="translate(971.22 132.79)" fill="#b2b2b2"/>
          </g>
          <g id="Grupo_124566" data-name="Grupo 124566">
            <g id="Grupo_124565" data-name="Grupo 124565">
              <rect id="Rectángulo_34442" data-name="Rectángulo 34442" width="67.07" height="57.81" transform="translate(962.14 265.66)" fill="#d1f3f7"/>
              <path id="Trazado_228689" data-name="Trazado 228689" d="M994.7,252.44a3.65,3.65,0,0,1-3.65,3.66H969.34a3.66,3.66,0,0,1-3.66-3.66h0a3.65,3.65,0,0,1,3.66-3.65h21.71a3.64,3.64,0,0,1,3.65,3.65Z" fill="#d1f3f7"/>
              <path id="Trazado_228690" data-name="Trazado 228690" d="M1026.56,252.44a3.66,3.66,0,0,1-3.66,3.66h-21.71a3.66,3.66,0,0,1-3.66-3.66h0a3.65,3.65,0,0,1,3.66-3.65h21.71a3.65,3.65,0,0,1,3.66,3.65Z" fill="#d1f3f7"/>
              <rect id="Rectángulo_34443" data-name="Rectángulo 34443" width="65.3" height="9.97" transform="translate(963.03 255.3)" fill="#d1f3f7"/>
              <rect id="Rectángulo_34444" data-name="Rectángulo 34444" width="67.07" height="57.81" transform="translate(962.14 261.76)" fill="#0f416d"/>
              <rect id="Rectángulo_34445" data-name="Rectángulo 34445" width="67.07" height="9.97" transform="translate(962.14 250.01)" fill="#0f416d"/>
              <g id="Grupo_124559" data-name="Grupo 124559">
                <rect id="Rectángulo_34446" data-name="Rectángulo 34446" width="60.21" height="47.11" rx="3.74" transform="translate(965.57 266.85)" fill="#86b0b6"/>
                <rect id="Rectángulo_34447" data-name="Rectángulo 34447" width="54.76" height="24.77" transform="translate(968.3 282.98)" fill="#0f416d"/>
                <rect id="Rectángulo_34448" data-name="Rectángulo 34448" width="33.86" height="22.72" transform="translate(978.75 282.98)" fill="#566472"/>
                <path id="Trazado_228691" data-name="Trazado 228691" d="M972.24,278.46v1.09a1.08,1.08,0,1,0,2.15,0v-1.09Z" fill="#bcbcbc"/>
                <path id="Trazado_228692" data-name="Trazado 228692" d="M1017.34,278.46v1.09a1.08,1.08,0,1,0,2.15,0v-1.09Z" fill="#bcbcbc"/>
                <path id="Trazado_228693" data-name="Trazado 228693" d="M1025.78,276.73v-6.14a3.73,3.73,0,0,0-3.74-3.74H969.31a3.74,3.74,0,0,0-3.74,3.74v6.14Z" fill="#d1f3f7"/>
                <g id="Grupo_124556" data-name="Grupo 124556">
                  <path id="Trazado_228694" data-name="Trazado 228694" d="M1021.47,278.44a.68.68,0,0,1-.68.68H971a.69.69,0,0,1-.69-.68h0a.68.68,0,0,1,.69-.68h49.76a.67.67,0,0,1,.68.68Z" fill="#fff"/>
                  <path id="Trazado_228695" data-name="Trazado 228695" d="M970.38,278.62a.68.68,0,0,0,.65.5h49.76a.68.68,0,0,0,.65-.5Z" fill="#d1f3f7"/>
                </g>
                <rect id="Rectángulo_34449" data-name="Rectángulo 34449" width="15.63" height="3.79" transform="translate(987.24 270.25)" fill="#0f416d"/>
                <rect id="Rectángulo_34450" data-name="Rectángulo 34450" width="15.12" height="3.28" transform="translate(987.49 270.5)" fill="#60e6b9"/>
                <g id="Grupo_124557" data-name="Grupo 124557">
                  <circle id="Elipse_4606" data-name="Elipse 4606" cx="3.11" cy="3.11" r="3.11" transform="translate(974.68 268.97)" fill="#566472"/>
                  <path id="Trazado_228696" data-name="Trazado 228696" d="M974.69,272.23a3.11,3.11,0,0,0,6.21,0Z" fill="#0f416d"/>
                  <path id="Trazado_228697" data-name="Trazado 228697" d="M979.8,272.08a2,2,0,1,0-2,2A2,2,0,0,0,979.8,272.08Z" fill="#eff3f3"/>
                </g>
                <g id="Grupo_124558" data-name="Grupo 124558">
                  <circle id="Elipse_4607" data-name="Elipse 4607" cx="3.11" cy="3.11" r="3.11" transform="translate(1008.68 268.97)" fill="#566472"/>
                  <path id="Trazado_228698" data-name="Trazado 228698" d="M1008.69,272.23a3.1,3.1,0,1,0,6.2,0Z" fill="#0f416d"/>
                </g>
                <path id="Trazado_228699" data-name="Trazado 228699" d="M1013.77,272.08a2,2,0,1,0-2,2A2,2,0,0,0,1013.77,272.08Z" fill="#eff3f3"/>
              </g>
              <g id="Grupo_124564" data-name="Grupo 124564">
                <g id="Grupo_124560" data-name="Grupo 124560">
                  <path id="Trazado_228700" data-name="Trazado 228700" d="M979.28,255a3.67,3.67,0,1,0-3.66,3.66,3.67,3.67,0,0,0,3.66-3.66Z" fill="#566472"/>
                  <path id="Trazado_228701" data-name="Trazado 228701" d="M972,255.19a3.66,3.66,0,0,0,7.31,0Z" fill="#0f416d"/>
                  <path id="Trazado_228702" data-name="Trazado 228702" d="M978,255a2.36,2.36,0,1,0-2.36,2.36A2.36,2.36,0,0,0,978,255Z" fill="#eff3f3"/>
                </g>
                <g id="Grupo_124561" data-name="Grupo 124561">
                  <path id="Trazado_228703" data-name="Trazado 228703" d="M991.92,255a3.67,3.67,0,1,0-3.66,3.66,3.67,3.67,0,0,0,3.66-3.66Z" fill="#566472"/>
                  <path id="Trazado_228704" data-name="Trazado 228704" d="M984.6,255.19a3.66,3.66,0,0,0,7.31,0Z" fill="#0f416d"/>
                  <path id="Trazado_228705" data-name="Trazado 228705" d="M990.62,255a2.36,2.36,0,1,0-2.36,2.36,2.36,2.36,0,0,0,2.36-2.36Z" fill="#eff3f3"/>
                </g>
                <g id="Grupo_124562" data-name="Grupo 124562">
                  <path id="Trazado_228706" data-name="Trazado 228706" d="M1004.56,255a3.67,3.67,0,1,0-3.66,3.66,3.67,3.67,0,0,0,3.66-3.66Z" fill="#566472"/>
                  <path id="Trazado_228707" data-name="Trazado 228707" d="M997.24,255.19a3.66,3.66,0,0,0,7.31,0Z" fill="#0f416d"/>
                  <path id="Trazado_228708" data-name="Trazado 228708" d="M1003.26,255a2.36,2.36,0,1,0-2.36,2.36,2.36,2.36,0,0,0,2.36-2.36Z" fill="#eff3f3"/>
                </g>
                <g id="Grupo_124563" data-name="Grupo 124563">
                  <path id="Trazado_228709" data-name="Trazado 228709" d="M1017.2,255a3.67,3.67,0,1,0-3.66,3.66,3.67,3.67,0,0,0,3.66-3.66Z" fill="#566472"/>
                  <path id="Trazado_228710" data-name="Trazado 228710" d="M1009.88,255.19a3.66,3.66,0,0,0,7.31,0Z" fill="#0f416d"/>
                  <path id="Trazado_228711" data-name="Trazado 228711" d="M1015.9,255a2.37,2.37,0,1,0-2.36,2.36,2.37,2.37,0,0,0,2.36-2.36Z" fill="#eff3f3"/>
                </g>
              </g>
            </g>
            <path id="Trazado_228712" data-name="Trazado 228712" d="M968.3,304.48V283h21.49Zm45.91-21.5h-12.32l-24.77,24.77h12.32Z" fill="#f9f9f9" opacity="0.3"/>
          </g>
          <g id="Grupo_124570" data-name="Grupo 124570">
            <g id="Grupo_124569" data-name="Grupo 124569">
              <rect id="Rectángulo_34451" data-name="Rectángulo 34451" width="15.1" height="20.29" transform="translate(987.98 152.76)" fill="#86b0b6"/>
              <g id="Grupo_124568" data-name="Grupo 124568">
                <rect id="Rectángulo_34452" data-name="Rectángulo 34452" width="64.94" height="7.22" transform="translate(963.2 181.72)" fill="#d1f3f7"/>
                <rect id="Rectángulo_34453" data-name="Rectángulo 34453" width="67.07" height="7.22" transform="translate(962.14 181.01)" fill="#0f416d"/>
                <path id="Trazado_228713" data-name="Trazado 228713" d="M1029.21,181.39H962.14l26.13-18.96h14.81Z" fill="#d1f3f7"/>
                <g id="Grupo_124567" data-name="Grupo 124567">
                  <rect id="Rectángulo_34454" data-name="Rectángulo 34454" width="15.63" height="3.79" transform="translate(987.24 182.27)" fill="#d1f3f7"/>
                  <rect id="Rectángulo_34455" data-name="Rectángulo 34455" width="15.12" height="3.28" transform="translate(987.49 182.53)" fill="#60e6b9"/>
                </g>
                <circle id="Elipse_4608" data-name="Elipse 4608" cx="0.62" cy="0.62" r="0.62" transform="translate(984.62 183.58)" fill="#d1f3f7"/>
                <circle id="Elipse_4609" data-name="Elipse 4609" cx="0.62" cy="0.62" r="0.62" transform="translate(982.4 183.58)" fill="#d1f3f7"/>
                <circle id="Elipse_4610" data-name="Elipse 4610" cx="0.62" cy="0.62" r="0.62" transform="translate(1006.47 183.58)" fill="#d1f3f7"/>
                <circle id="Elipse_4611" data-name="Elipse 4611" cx="0.62" cy="0.62" r="0.62" transform="translate(1004.26 183.58)" fill="#d1f3f7"/>
              </g>
            </g>
            <path id="Trazado_228714" data-name="Trazado 228714" d="M1029.21,181.39l-7.89-5.73-5.72,5.73Z" fill="#f9f9f9" opacity="0.3"/>
            <path id="Trazado_228715" data-name="Trazado 228715" d="M1012.74,169.44l-7.56-5.48-17.43,17.43h13.04Z" fill="#f9f9f9" opacity="0.3"/>
            <path id="Trazado_228716" data-name="Trazado 228716" d="M993.55,162.43h-5.28l-26.13,18.96H974.6Z" fill="#f9f9f9" opacity="0.3"/>
          </g>
          <g id="Grupo_124575" data-name="Grupo 124575">
            <path id="Trazado_228717" data-name="Trazado 228717" d="M983.14,225.72h-.93l-1.76-2.57h4.45Z" fill="#0f416d"/>
            <g id="Grupo_124573" data-name="Grupo 124573">
              <g id="Grupo_124572" data-name="Grupo 124572">
                <path id="Trazado_228718" data-name="Trazado 228718" d="M968.06,229.9v16.5a2.42,2.42,0,0,0,2.42,2.42h19.65a2.41,2.41,0,0,0,2.41-2.42V229.9Z" fill="#c1382a"/>
                <g id="Grupo_124571" data-name="Grupo 124571">
                  <path id="Trazado_228719" data-name="Trazado 228719" d="M971.15,233.87a1.11,1.11,0,0,1-1.41.66l-4.83-1.74a1.1,1.1,0,0,1-.66-1.41h0a1.1,1.1,0,0,1,1.41-.66l4.82,1.74a1.1,1.1,0,0,1,.67,1.41Z" fill="#c1382a"/>
                  <path id="Trazado_228720" data-name="Trazado 228720" d="M989.46,233.87a1.11,1.11,0,0,0,1.41.66l4.83-1.74a1.11,1.11,0,0,0,.66-1.41h0a1.1,1.1,0,0,0-1.41-.66l-4.83,1.74a1.1,1.1,0,0,0-.66,1.41Z" fill="#c1382a"/>
                </g>
                <path id="Trazado_228721" data-name="Trazado 228721" d="M973.93,229.9v16.5c0,1.34.56,2.42,1.26,2.42h10.23c.7,0,1.26-1.08,1.26-2.42V229.9Z" fill="#e74c3c"/>
              </g>
              <path id="Trazado_228722" data-name="Trazado 228722" d="M993.13,229.84a.37.37,0,0,1-.37.37H968a.38.38,0,0,1-.37-.37h0a.38.38,0,0,1,.37-.37h24.77a.37.37,0,0,1,.37.37Z" fill="#d1f3f7"/>
            </g>
            <g id="Grupo_124574" data-name="Grupo 124574">
              <path id="Trazado_228723" data-name="Trazado 228723" d="M983.18,225.67h-1c-3.84,3-11.93,1.55-12.23,3.82H995.4C995.11,227.22,987,228.62,983.18,225.67Z" fill="#c1382a"/>
              <path id="Trazado_228724" data-name="Trazado 228724" d="M983,225.67h-.74c-2.75,3-8.55,1.55-8.76,3.82h18.26C991.58,227.22,985.77,228.61,983,225.67Z" fill="#e74c3c"/>
            </g>
          </g>
          <g id="Grupo_124581" data-name="Grupo 124581">
            <g id="Grupo_124578" data-name="Grupo 124578">
              <g id="Grupo_124577" data-name="Grupo 124577">
                <path id="Trazado_228725" data-name="Trazado 228725" d="M1001.88,231.79v15.09a1.89,1.89,0,0,0,1.89,1.89h15.36a1.89,1.89,0,0,0,1.89-1.89V231.79Z" fill="#f39c12"/>
                <g id="Grupo_124576" data-name="Grupo 124576">
                  <path id="Trazado_228726" data-name="Trazado 228726" d="M1004.29,236.16a.86.86,0,0,1-1.1.52l-3.77-1.36a.86.86,0,0,1-.52-1.1h0a.85.85,0,0,1,1.1-.51l3.77,1.35A.86.86,0,0,1,1004.29,236.16Z" fill="#f39c12"/>
                  <path id="Trazado_228727" data-name="Trazado 228727" d="M1018.61,236.16a.86.86,0,0,0,1.1.52l3.77-1.36a.86.86,0,0,0,.52-1.1h0a.86.86,0,0,0-1.1-.51l-3.78,1.35a.86.86,0,0,0-.51,1.1Z" fill="#f39c12"/>
                </g>
                <path id="Trazado_228728" data-name="Trazado 228728" d="M1006.46,231.79v15.09c0,1,.45,1.89,1,1.89h8c.54,0,1-.85,1-1.89V231.79Z" fill="#ffaf3b"/>
              </g>
              <path id="Trazado_228729" data-name="Trazado 228729" d="M1021.47,231.75a.28.28,0,0,1-.28.28h-19.37a.29.29,0,0,1-.28-.28h0a.29.29,0,0,1,.28-.29h19.37a.28.28,0,0,1,.28.29Z" fill="#d1f3f7"/>
            </g>
            <g id="Grupo_124580" data-name="Grupo 124580">
              <path id="Trazado_228730" data-name="Trazado 228730" d="M1011.9,227.25h-.73l-1.37-2.01h3.48Z" fill="#0f416d"/>
              <g id="Grupo_124579" data-name="Grupo 124579">
                <path id="Trazado_228731" data-name="Trazado 228731" d="M1011.93,227.21h-.8c-3,2.32-9.33,2.49-9.56,4.26h19.91C1021.25,229.7,1014.91,229.51,1011.93,227.21Z" fill="#f39c12"/>
                <path id="Trazado_228732" data-name="Trazado 228732" d="M1011.82,227.21h-.58c-2.15,2.32-6.68,2.49-6.85,4.26h14.27C1018.5,229.7,1014,229.51,1011.82,227.21Z" fill="#ffaf3b"/>
              </g>
            </g>
          </g>
          <g id="Grupo_124582" data-name="Grupo 124582">
            <path id="Trazado_228733" data-name="Trazado 228733" d="M827.71,73.29v71.42H831V88.17h85.78v56.54h3.32V73.29Z" fill="#d1f3f7"/>
            <rect id="Rectángulo_34456" data-name="Rectángulo 34456" width="100.78" height="4.17" rx="1.24" transform="translate(823.36 71.47)" fill="#0f416d"/>
          </g>
          <g id="Grupo_124592" data-name="Grupo 124592">
            <rect id="Rectángulo_34457" data-name="Rectángulo 34457" width="105.27" height="41.05" transform="translate(839.91 148.75)" fill="#d1f3f7"/>
            <rect id="Rectángulo_34458" data-name="Rectángulo 34458" width="102.44" height="38.22" transform="translate(841.32 150.16)" fill="#eaeaea"/>
            <rect id="Rectángulo_34459" data-name="Rectángulo 34459" width="93.95" height="29.73" transform="translate(845.57 154.41)" fill="#86b0b6"/>
            <path id="Trazado_228734" data-name="Trazado 228734" d="M849.5,167.65l4.2,3.47a2.77,2.77,0,0,0,1.53.55h7.61a2.75,2.75,0,0,0,1.53-.55l4.21-3.47Z" fill="#e5e5e5"/>
            <path id="Trazado_228735" data-name="Trazado 228735" d="M862.52,167.73s-1.54,2.53-2,3.26a4.48,4.48,0,0,1-1.28.68h3.63a2.75,2.75,0,0,0,1.53-.55l4.21-3.47Z" fill="#d1d1d1"/>
            <path id="Trazado_228736" data-name="Trazado 228736" d="M869,167.52a.21.21,0,0,1-.2.21H849.32a.21.21,0,0,1-.21-.21h0a.21.21,0,0,1,.21-.21h19.52a.21.21,0,0,1,.2.21Z" fill="#fff"/>
            <g id="Grupo_124583" data-name="Grupo 124583">
              <path id="Trazado_228737" data-name="Trazado 228737" d="M849.5,170.12l4.2,3.46a2.71,2.71,0,0,0,1.53.56h7.61a2.69,2.69,0,0,0,1.53-.56l4.21-3.46Z" fill="#e5e5e5"/>
              <path id="Trazado_228738" data-name="Trazado 228738" d="M862.52,170.19s-1.54,2.53-2,3.27a4.48,4.48,0,0,1-1.28.68h3.63a2.69,2.69,0,0,0,1.53-.56l4.21-3.46Z" fill="#d1d1d1"/>
              <path id="Trazado_228739" data-name="Trazado 228739" d="M869,170a.2.2,0,0,1-.2.2H849.32a.2.2,0,0,1-.21-.2h0a.21.21,0,0,1,.21-.21h19.52a.2.2,0,0,1,.2.21Z" fill="#fff"/>
            </g>
            <g id="Grupo_124584" data-name="Grupo 124584">
              <path id="Trazado_228740" data-name="Trazado 228740" d="M849.5,172.58l4.2,3.47a2.71,2.71,0,0,0,1.53.56h7.61a2.69,2.69,0,0,0,1.53-.56l4.21-3.47Z" fill="#e5e5e5"/>
              <path id="Trazado_228741" data-name="Trazado 228741" d="M862.52,172.66s-1.54,2.53-2,3.26a4.31,4.31,0,0,1-1.28.69h3.63a2.69,2.69,0,0,0,1.53-.56l4.21-3.47Z" fill="#d1d1d1"/>
              <path id="Trazado_228742" data-name="Trazado 228742" d="M869,172.45a.2.2,0,0,1-.2.21H849.32a.21.21,0,0,1-.21-.21h0a.2.2,0,0,1,.21-.2h19.52a.2.2,0,0,1,.2.2Z" fill="#fff"/>
            </g>
            <g id="Grupo_124585" data-name="Grupo 124585">
              <path id="Trazado_228743" data-name="Trazado 228743" d="M849.5,175.05l4.2,3.47a2.77,2.77,0,0,0,1.53.55h7.61a2.75,2.75,0,0,0,1.53-.55l4.21-3.47Z" fill="#e5e5e5"/>
              <path id="Trazado_228744" data-name="Trazado 228744" d="M862.52,175.13s-1.54,2.53-2,3.26a4.48,4.48,0,0,1-1.28.68h3.63a2.75,2.75,0,0,0,1.53-.55l4.21-3.47Z" fill="#d1d1d1"/>
              <path id="Trazado_228745" data-name="Trazado 228745" d="M869,174.92a.2.2,0,0,1-.2.21H849.32a.21.21,0,0,1-.21-.21h0a.2.2,0,0,1,.21-.2h19.52a.2.2,0,0,1,.2.2Z" fill="#fff"/>
            </g>
            <g id="Grupo_124586" data-name="Grupo 124586">
              <path id="Trazado_228746" data-name="Trazado 228746" d="M849.5,177.52l4.2,3.46a2.71,2.71,0,0,0,1.53.56h7.61a2.69,2.69,0,0,0,1.53-.56l4.21-3.46Z" fill="#e5e5e5"/>
              <path id="Trazado_228747" data-name="Trazado 228747" d="M862.52,177.59s-1.54,2.53-2,3.27a4.48,4.48,0,0,1-1.28.68h3.63a2.69,2.69,0,0,0,1.53-.56l4.21-3.46Z" fill="#d1d1d1"/>
              <path id="Trazado_228748" data-name="Trazado 228748" d="M869,177.39a.2.2,0,0,1-.2.2H849.32a.2.2,0,0,1-.21-.2h0a.21.21,0,0,1,.21-.21h19.52a.21.21,0,0,1,.2.21Z" fill="#fff"/>
            </g>
            <path id="Trazado_228749" data-name="Trazado 228749" d="M849.5,180l4.2,3.46a2.71,2.71,0,0,0,1.53.56h7.61a2.69,2.69,0,0,0,1.53-.56l4.21-3.46Z" fill="#e5e5e5"/>
            <g id="Grupo_124589" data-name="Grupo 124589">
              <g id="Grupo_124587" data-name="Grupo 124587">
                <path id="Trazado_228750" data-name="Trazado 228750" d="M873.71,165.62l2.49.62a2.89,2.89,0,0,0,2,.79h21.15a2.89,2.89,0,0,0,2-.79l2.48-.62Z" fill="#d3d3d3"/>
                <path id="Trazado_228751" data-name="Trazado 228751" d="M904,165.46a.2.2,0,0,1-.2.2H873.61a.2.2,0,0,1-.2-.2h0a.2.2,0,0,1,.2-.21h30.21a.2.2,0,0,1,.2.21Z" fill="#fff"/>
                <path id="Trazado_228752" data-name="Trazado 228752" d="M873.71,166.84l2.49.62a2.89,2.89,0,0,0,2,.79h21.15a2.89,2.89,0,0,0,2-.79l2.48-.62Z" fill="#d3d3d3"/>
                <path id="Trazado_228753" data-name="Trazado 228753" d="M904,166.68a.2.2,0,0,1-.2.2H873.61a.2.2,0,0,1-.2-.2h0a.2.2,0,0,1,.2-.21h30.21a.2.2,0,0,1,.2.21Z" fill="#fff"/>
                <path id="Trazado_228754" data-name="Trazado 228754" d="M873.71,168.06l2.49.62a2.89,2.89,0,0,0,2,.79h21.15a2.89,2.89,0,0,0,2-.79l2.48-.62Z" fill="#d3d3d3"/>
                <path id="Trazado_228755" data-name="Trazado 228755" d="M904,167.9a.2.2,0,0,1-.2.2H873.61a.2.2,0,0,1-.2-.2h0a.2.2,0,0,1,.2-.21h30.21a.2.2,0,0,1,.2.21Z" fill="#fff"/>
                <path id="Trazado_228756" data-name="Trazado 228756" d="M873.71,169.28l2.49.62a2.89,2.89,0,0,0,2,.79h21.15a2.89,2.89,0,0,0,2-.79l2.48-.62Z" fill="#d3d3d3"/>
                <path id="Trazado_228757" data-name="Trazado 228757" d="M904,169.12a.2.2,0,0,1-.2.2H873.61a.2.2,0,0,1-.2-.2h0a.2.2,0,0,1,.2-.21h30.21a.2.2,0,0,1,.2.21Z" fill="#fff"/>
              </g>
              <g id="Grupo_124588" data-name="Grupo 124588">
                <path id="Trazado_228758" data-name="Trazado 228758" d="M873.71,170.53l2.49.62a2.931,2.931,0,0,0,2,.78h21.15a2.93,2.93,0,0,0,2-.78l2.48-.62Z" fill="#d3d3d3"/>
                <path id="Trazado_228759" data-name="Trazado 228759" d="M904,170.36a.2.2,0,0,1-.2.2H873.61a.2.2,0,0,1-.2-.2h0a.2.2,0,0,1,.2-.2h30.21a.2.2,0,0,1,.2.2Z" fill="#fff"/>
                <path id="Trazado_228760" data-name="Trazado 228760" d="M873.71,171.75l2.49.61a2.89,2.89,0,0,0,2,.79h21.15a2.89,2.89,0,0,0,2-.79l2.48-.61Z" fill="#d3d3d3"/>
                <path id="Trazado_228761" data-name="Trazado 228761" d="M904,171.58a.2.2,0,0,1-.2.2H873.61a.2.2,0,0,1-.2-.2h0a.2.2,0,0,1,.2-.2h30.21a.2.2,0,0,1,.2.2Z" fill="#fff"/>
                <path id="Trazado_228762" data-name="Trazado 228762" d="M873.71,173l2.49.61a2.89,2.89,0,0,0,2,.79h21.15a2.89,2.89,0,0,0,2-.79l2.48-.61Z" fill="#d3d3d3"/>
                <path id="Trazado_228763" data-name="Trazado 228763" d="M904,172.8a.2.2,0,0,1-.2.2H873.61a.2.2,0,0,1-.2-.2h0a.2.2,0,0,1,.2-.2h30.21a.2.2,0,0,1,.2.2Z" fill="#fff"/>
                <path id="Trazado_228764" data-name="Trazado 228764" d="M873.71,174.19l2.49.61a2.89,2.89,0,0,0,2,.79h21.15a2.89,2.89,0,0,0,2-.79l2.48-.61Z" fill="#d3d3d3"/>
                <path id="Trazado_228765" data-name="Trazado 228765" d="M904,174a.2.2,0,0,1-.2.2H873.61a.2.2,0,0,1-.2-.2h0a.2.2,0,0,1,.2-.2h30.21a.2.2,0,0,1,.2.2Z" fill="#fff"/>
                <path id="Trazado_228766" data-name="Trazado 228766" d="M873.71,175.41l2.49.61a2.89,2.89,0,0,0,2,.79h21.15a2.89,2.89,0,0,0,2-.79l2.48-.61Z" fill="#d3d3d3"/>
                <path id="Trazado_228767" data-name="Trazado 228767" d="M904,175.24a.2.2,0,0,1-.2.2H873.61a.2.2,0,0,1-.2-.2h0a.2.2,0,0,1,.2-.2h30.21a.2.2,0,0,1,.2.2Z" fill="#fff"/>
                <path id="Trazado_228768" data-name="Trazado 228768" d="M873.71,176.63l2.49.61a2.89,2.89,0,0,0,2,.79h21.15a2.89,2.89,0,0,0,2-.79l2.48-.61Z" fill="#d3d3d3"/>
                <path id="Trazado_228769" data-name="Trazado 228769" d="M904,176.46a.2.2,0,0,1-.2.2H873.61a.2.2,0,0,1-.2-.2h0a.2.2,0,0,1,.2-.2h30.21a.2.2,0,0,1,.2.2Z" fill="#fff"/>
                <path id="Trazado_228770" data-name="Trazado 228770" d="M873.71,177.85l2.49.61a2.89,2.89,0,0,0,2,.79h21.15a2.89,2.89,0,0,0,2-.79l2.48-.61Z" fill="#d3d3d3"/>
                <path id="Trazado_228771" data-name="Trazado 228771" d="M904,177.68a.2.2,0,0,1-.2.2H873.61a.2.2,0,0,1-.2-.2h0a.2.2,0,0,1,.2-.2h30.21a.2.2,0,0,1,.2.2Z" fill="#fff"/>
                <path id="Trazado_228772" data-name="Trazado 228772" d="M873.71,179.07l2.49.61a2.89,2.89,0,0,0,2,.79h21.15a2.89,2.89,0,0,0,2-.79l2.48-.61Z" fill="#d3d3d3"/>
                <path id="Trazado_228773" data-name="Trazado 228773" d="M904,178.9a.2.2,0,0,1-.2.2H873.61a.2.2,0,0,1-.2-.2h0a.2.2,0,0,1,.2-.2h30.21a.2.2,0,0,1,.2.2Z" fill="#fff"/>
                <path id="Trazado_228774" data-name="Trazado 228774" d="M873.71,180.29l2.49.61a2.89,2.89,0,0,0,2,.79h21.15a2.89,2.89,0,0,0,2-.79l2.48-.61Z" fill="#d3d3d3"/>
                <path id="Trazado_228775" data-name="Trazado 228775" d="M904,180.12a.2.2,0,0,1-.2.2H873.61a.2.2,0,0,1-.2-.2h0a.2.2,0,0,1,.2-.2h30.21a.2.2,0,0,1,.2.2Z" fill="#fff"/>
                <path id="Trazado_228776" data-name="Trazado 228776" d="M873.71,181.5l2.49.62a2.89,2.89,0,0,0,2,.79h21.15a2.89,2.89,0,0,0,2-.79l2.48-.62Z" fill="#d3d3d3"/>
                <path id="Trazado_228777" data-name="Trazado 228777" d="M904,181.34a.2.2,0,0,1-.2.2H873.61a.2.2,0,0,1-.2-.2h0a.2.2,0,0,1,.2-.2h30.21a.2.2,0,0,1,.2.2Z" fill="#fff"/>
                <path id="Trazado_228778" data-name="Trazado 228778" d="M873.71,182.72l2.49.62a2.89,2.89,0,0,0,2,.79h21.15a2.89,2.89,0,0,0,2-.79l2.48-.62Z" fill="#d3d3d3"/>
                <path id="Trazado_228779" data-name="Trazado 228779" d="M904,182.56a.2.2,0,0,1-.2.2H873.61a.2.2,0,0,1-.2-.2h0a.2.2,0,0,1,.2-.2h30.21a.2.2,0,0,1,.2.2Z" fill="#fff"/>
              </g>
            </g>
            <g id="Grupo_124590" data-name="Grupo 124590">
              <path id="Trazado_228780" data-name="Trazado 228780" d="M907.44,170.49l2.49.62a2.91,2.91,0,0,0,2,.79h21.15a2.93,2.93,0,0,0,2-.79l2.49-.62Z" fill="#d3d3d3"/>
              <path id="Trazado_228781" data-name="Trazado 228781" d="M937.75,170.33a.2.2,0,0,1-.2.2H907.34a.2.2,0,0,1-.2-.2h0a.2.2,0,0,1,.2-.21h30.21a.2.2,0,0,1,.2.21Z" fill="#fff"/>
              <path id="Trazado_228782" data-name="Trazado 228782" d="M907.44,171.71l2.49.62a2.91,2.91,0,0,0,2,.79h21.15a2.93,2.93,0,0,0,2-.79l2.49-.62Z" fill="#d3d3d3"/>
              <path id="Trazado_228783" data-name="Trazado 228783" d="M937.75,171.54a.2.2,0,0,1-.2.21H907.34a.2.2,0,0,1-.2-.21h0a.2.2,0,0,1,.2-.2h30.21A.2.2,0,0,1,937.75,171.54Z" fill="#fff"/>
              <path id="Trazado_228784" data-name="Trazado 228784" d="M907.44,172.93l2.49.62a2.91,2.91,0,0,0,2,.79h21.15a2.93,2.93,0,0,0,2-.79l2.49-.62Z" fill="#d3d3d3"/>
              <path id="Trazado_228785" data-name="Trazado 228785" d="M937.75,172.76a.2.2,0,0,1-.2.21H907.34a.2.2,0,0,1-.2-.21h0a.2.2,0,0,1,.2-.2h30.21A.2.2,0,0,1,937.75,172.76Z" fill="#fff"/>
              <path id="Trazado_228786" data-name="Trazado 228786" d="M907.44,174.15l2.49.62a2.91,2.91,0,0,0,2,.79h21.15a2.93,2.93,0,0,0,2-.79l2.49-.62Z" fill="#d3d3d3"/>
              <path id="Trazado_228787" data-name="Trazado 228787" d="M937.75,174a.2.2,0,0,1-.2.21H907.34a.2.2,0,0,1-.2-.21h0a.2.2,0,0,1,.2-.2h30.21A.2.2,0,0,1,937.75,174Z" fill="#fff"/>
              <path id="Trazado_228788" data-name="Trazado 228788" d="M907.44,175.37l2.49.62a2.91,2.91,0,0,0,2,.79h21.15a2.93,2.93,0,0,0,2-.79l2.49-.62Z" fill="#d3d3d3"/>
              <path id="Trazado_228789" data-name="Trazado 228789" d="M937.75,175.2a.2.2,0,0,1-.2.21H907.34a.2.2,0,0,1-.2-.21h0a.2.2,0,0,1,.2-.2h30.21A.2.2,0,0,1,937.75,175.2Z" fill="#fff"/>
              <path id="Trazado_228790" data-name="Trazado 228790" d="M907.44,176.59l2.49.62a2.91,2.91,0,0,0,2,.79h21.15a2.93,2.93,0,0,0,2-.79l2.49-.62Z" fill="#d3d3d3"/>
              <path id="Trazado_228791" data-name="Trazado 228791" d="M937.75,176.42a.2.2,0,0,1-.2.21H907.34a.2.2,0,0,1-.2-.21h0a.2.2,0,0,1,.2-.2h30.21A.2.2,0,0,1,937.75,176.42Z" fill="#fff"/>
              <path id="Trazado_228792" data-name="Trazado 228792" d="M907.44,177.81l2.49.62a2.91,2.91,0,0,0,2,.79h21.15a2.93,2.93,0,0,0,2-.79l2.49-.62Z" fill="#d3d3d3"/>
              <path id="Trazado_228793" data-name="Trazado 228793" d="M937.75,177.64a.2.2,0,0,1-.2.21H907.34a.2.2,0,0,1-.2-.21h0a.2.2,0,0,1,.2-.2h30.21A.2.2,0,0,1,937.75,177.64Z" fill="#fff"/>
              <path id="Trazado_228794" data-name="Trazado 228794" d="M907.44,179l2.49.62a2.91,2.91,0,0,0,2,.78h21.15a2.93,2.93,0,0,0,2-.78l2.49-.62Z" fill="#d3d3d3"/>
              <path id="Trazado_228795" data-name="Trazado 228795" d="M937.75,178.86a.2.2,0,0,1-.2.21H907.34a.2.2,0,0,1-.2-.21h0a.2.2,0,0,1,.2-.2h30.21a.2.2,0,0,1,.2.2Z" fill="#fff"/>
              <path id="Trazado_228796" data-name="Trazado 228796" d="M907.44,180.25l2.49.62a2.91,2.91,0,0,0,2,.78h21.15a2.93,2.93,0,0,0,2-.78l2.49-.62Z" fill="#d3d3d3"/>
              <path id="Trazado_228797" data-name="Trazado 228797" d="M937.75,180.08a.21.21,0,0,1-.2.21H907.34a.21.21,0,0,1-.2-.21h0a.2.2,0,0,1,.2-.2h30.21A.2.2,0,0,1,937.75,180.08Z" fill="#fff"/>
              <path id="Trazado_228798" data-name="Trazado 228798" d="M907.44,181.47l2.49.62a2.91,2.91,0,0,0,2,.78h21.15a2.93,2.93,0,0,0,2-.78l2.49-.62Z" fill="#d3d3d3"/>
              <path id="Trazado_228799" data-name="Trazado 228799" d="M937.75,181.3a.2.2,0,0,1-.2.2H907.34a.2.2,0,0,1-.2-.2h0a.2.2,0,0,1,.2-.2h30.21A.2.2,0,0,1,937.75,181.3Z" fill="#fff"/>
              <path id="Trazado_228800" data-name="Trazado 228800" d="M907.44,182.69l2.49.62a2.91,2.91,0,0,0,2,.78h21.15a2.93,2.93,0,0,0,2-.78l2.49-.62Z" fill="#d3d3d3"/>
              <path id="Trazado_228801" data-name="Trazado 228801" d="M937.75,182.52a.2.2,0,0,1-.2.2H907.34a.2.2,0,0,1-.2-.2h0a.2.2,0,0,1,.2-.2h30.21A.2.2,0,0,1,937.75,182.52Z" fill="#fff"/>
            </g>
            <path id="Trazado_228802" data-name="Trazado 228802" d="M862.52,180.06s-1.54,2.53-2,3.26a4.311,4.311,0,0,1-1.28.69h3.63a2.69,2.69,0,0,0,1.53-.56l4.21-3.46Z" fill="#d1d1d1"/>
            <path id="Trazado_228803" data-name="Trazado 228803" d="M869,179.86a.2.2,0,0,1-.2.2H849.32a.2.2,0,0,1-.21-.2h0a.21.21,0,0,1,.21-.21h19.52a.2.2,0,0,1,.2.21Z" fill="#fff"/>
            <path id="Trazado_228804" data-name="Trazado 228804" d="M884.31,150.16H841.32v38.23h4.77Z" fill="#f9f9f9" opacity="0.3"/>
            <path id="Trazado_228805" data-name="Trazado 228805" d="M862.31,188.39h9.26l38.22-38.23h-9.26Z" fill="#f9f9f9" opacity="0.3"/>
            <path id="Trazado_228806" data-name="Trazado 228806" d="M943.76,153.94v-3.78h-7.84L897.7,188.39h11.62Z" fill="#f9f9f9" opacity="0.3"/>
            <g id="Grupo_124591" data-name="Grupo 124591">
              <path id="Trazado_228807" data-name="Trazado 228807" d="M898.21,186.1a1.29,1.29,0,0,1-1.29,1.29h-10.1a1.29,1.29,0,0,1-1.29-1.29h0a1.28,1.28,0,0,1,1.29-1.29h10.1a1.28,1.28,0,0,1,1.29,1.29Z" fill="#fd8800"/>
              <path id="Trazado_228808" data-name="Trazado 228808" d="M885.53,186v.06a1.29,1.29,0,0,0,1.29,1.29h10.1a1.29,1.29,0,0,0,1.29-1.29V186Z" fill="#f76303"/>
            </g>
          </g>
          <g id="Grupo_124596" data-name="Grupo 124596">
            <g id="Grupo_124593" data-name="Grupo 124593">
              <path id="Trazado_228809" data-name="Trazado 228809" d="M835.79,20.88c0-.39-.47-.7-1-.7h0c-.58,0-1,.31-1,.7V40.12c0,.39.47.7,1,.7h0c.58,0,1-.31,1-.7Z" fill="#474747"/>
              <circle id="Elipse_4612" data-name="Elipse 4612" cx="10.38" cy="10.38" r="10.38" transform="translate(824.36 27.55)" fill="#474747"/>
              <circle id="Elipse_4613" data-name="Elipse 4613" cx="10.13" cy="10.13" r="10.13" transform="translate(821.504 32.551) rotate(-22.7)" fill="#232323"/>
              <circle id="Elipse_4614" data-name="Elipse 4614" cx="7.34" cy="7.34" r="7.34" transform="translate(827.4 30.59)" fill="#474747"/>
              <path id="Trazado_228810" data-name="Trazado 228810" d="M835.86,23.27v-9a1.12,1.12,0,1,0-2.24,0v9Z" fill="#0f416d"/>
            </g>
            <g id="Grupo_124595" data-name="Grupo 124595">
              <g id="Grupo_124594" data-name="Grupo 124594">
                <path id="Trazado_228811" data-name="Trazado 228811" d="M854.28,31.6l.4-11.42c.16-4.72-.19-6.82-.86-6.82s-1,2.1-.85,6.82l.4,11.43c-1.15.36-2,2-2,3.84,0,2.17,1.13,3.92,2.52,3.92s2.53-1.75,2.53-3.92C856.4,33.5,855.48,31.9,854.28,31.6Z" fill="#86b0b6"/>
                <path id="Trazado_228812" data-name="Trazado 228812" d="M852.61,38.23a1.74,1.74,0,0,0,1.26.73c1,0,2.12-1.38,2.12-3.36a4.11,4.11,0,0,0-.92-2.71,12.759,12.759,0,0,0-2.46,5.34Z" fill="#bdc3c7"/>
                <path id="Trazado_228813" data-name="Trazado 228813" d="M863.38,30.25h-1.86L861.87,19c.16-4.72-.19-5.43-.86-5.43s-1,.71-.85,5.43l.35,11.22h-1.76a.9.9,0,0,0-.83.95v7.25a.9.9,0,0,0,.83.95h4.63a.9.9,0,0,0,.82-.95V31.2a.9.9,0,0,0-.82-.95Zm-3.68,7.9a.51.51,0,0,1-1,0V32.09a.51.51,0,0,1,1,0Zm1.82,0a.51.51,0,0,1-1.02,0V32.09a.51.51,0,1,1,1.02,0Zm1.93,0a.51.51,0,0,1-1.02,0V32.09a.51.51,0,1,1,1.02,0Z" fill="#86b0b6"/>
                <path id="Trazado_228814" data-name="Trazado 228814" d="M869.75,31.81h-.06l.4-11.42c.16-4.72-.19-6.82-.85-6.82s-1,2.1-.85,6.82l.39,11.44h0c-2.13.14-3.77,1.11-3.77,2.3s1.93,4.26,4.31,4.26,4.32-3,4.32-4.26S871.92,31.94,869.75,31.81Z" fill="#86b0b6"/>
                <path id="Trazado_228815" data-name="Trazado 228815" d="M848.09,31.76l.38-11.34c.16-4.89-.19-7.06-.85-7.06s-1,2.17-.85,7.06l.38,11.33c-.56.14-1,.5-1,.94v6.52c.8,0,.63-6.7,1.41-6.7s.9,6.7,1.4,6.7V32.69C849,32.27,848.62,31.91,848.09,31.76Z" fill="#86b0b6"/>
                <path id="Trazado_228816" data-name="Trazado 228816" d="M852.86,21h1.93v-.77c.13-3.93-.08-6.22-.64-6.79a.48.48,0,0,0-.36-.17.51.51,0,0,0-.36.17c-.55.57-.76,2.86-.63,6.79Z" fill="#0f416d"/>
                <path id="Trazado_228817" data-name="Trazado 228817" d="M860.08,21H862V19c.13-3.92-.1-5-.48-5.38a.67.67,0,0,0-.52-.21.66.66,0,0,0-.51.21c-.39.4-.61,1.46-.48,5.38Z" fill="#0f416d"/>
                <path id="Trazado_228818" data-name="Trazado 228818" d="M868.27,21h1.94v-.58c.14-3.93-.08-6.21-.63-6.79a.47.47,0,0,0-.72,0c-.56.58-.77,2.86-.63,6.79Z" fill="#0f416d"/>
                <path id="Trazado_228819" data-name="Trazado 228819" d="M846.64,21h2v-.53c.14-4.09-.08-6.46-.64-7a.46.46,0,0,0-.7,0c-.56.58-.78,2.95-.64,7Z" fill="#0f416d"/>
              </g>
              <path id="Trazado_228820" data-name="Trazado 228820" d="M873,33.89c0,1-1.67,1.8-3.73,1.8s-3.74-.81-3.74-1.8,1.68-1.81,3.74-1.81S873,32.89,873,33.89Z" fill="#bdc3c7"/>
            </g>
          </g>
          <g id="Grupo_124598" data-name="Grupo 124598">
            <g id="Grupo_124597" data-name="Grupo 124597">
              <path id="Trazado_228821" data-name="Trazado 228821" d="M818,13.4c-.77,0-1.38,1.09-1.36,2.41s.66,2.39,1.43,2.38,1.37-1.09,1.36-2.41S818.79,13.39,818,13.4Zm.05,3.47c-.52,0-1-.65-1-1.47s.4-1.5.92-1.51,1,.66,1,1.48-.38,1.5-.9,1.5Z" fill="#0f416d"/>
              <path id="Trazado_228822" data-name="Trazado 228822" d="M822.4,33.75l-4.35-16.66h0l-11.7,3.05.88,3.36-3.76,7.56a2.592,2.592,0,0,0,4.64,2.31l1.11-2.23,1.48,5.68a6.052,6.052,0,0,0,11.71-3.06Z" fill="#c1382a"/>
            </g>
            <circle id="Elipse_4615" data-name="Elipse 4615" cx="0.79" cy="0.79" r="0.79" transform="translate(815.41 19.13)" fill="#fff"/>
            <circle id="Elipse_4616" data-name="Elipse 4616" cx="0.79" cy="0.79" r="0.79" transform="translate(816.57 23.94)" fill="#fff"/>
            <circle id="Elipse_4617" data-name="Elipse 4617" cx="0.79" cy="0.79" r="0.79" transform="translate(817.73 28.74)" fill="#fff"/>
            <path id="Trazado_228823" data-name="Trazado 228823" d="M820.46,34.34a.79.79,0,1,1-.79-.79A.79.79,0,0,1,820.46,34.34Z" fill="#fff"/>
            <circle id="Elipse_4618" data-name="Elipse 4618" cx="0.79" cy="0.79" r="0.79" transform="translate(812.8 22.54)" fill="#fff"/>
            <circle id="Elipse_4619" data-name="Elipse 4619" cx="0.79" cy="0.79" r="0.79" transform="translate(806.17 29.29)" fill="#fff"/>
            <circle id="Elipse_4620" data-name="Elipse 4620" cx="0.79" cy="0.79" r="0.79" transform="translate(813.95 27.34)" fill="#fff"/>
            <circle id="Elipse_4621" data-name="Elipse 4621" cx="0.79" cy="0.79" r="0.79" transform="translate(815.11 32.15)" fill="#fff"/>
            <circle id="Elipse_4622" data-name="Elipse 4622" cx="0.79" cy="0.79" r="0.79" transform="translate(816.27 36.96)" fill="#fff"/>
            <circle id="Elipse_4623" data-name="Elipse 4623" cx="0.79" cy="0.79" r="0.79" transform="translate(808.6 20.71)" fill="#fff"/>
            <circle id="Elipse_4624" data-name="Elipse 4624" cx="0.79" cy="0.79" r="0.79" transform="translate(809.76 25.52)" fill="#fff"/>
            <circle id="Elipse_4625" data-name="Elipse 4625" cx="0.79" cy="0.79" r="0.79" transform="translate(810.91 30.32)" fill="#fff"/>
            <circle id="Elipse_4626" data-name="Elipse 4626" cx="0.79" cy="0.79" r="0.79" transform="translate(812.07 35.13)" fill="#fff"/>
          </g>
          <g id="Grupo_124599" data-name="Grupo 124599">
            <path id="Trazado_228824" data-name="Trazado 228824" d="M881.67,12.94c-.76,0-1.4,1.05-1.42,2.37s.59,2.41,1.36,2.42S883,16.67,883,15.35,882.44,13,881.67,12.94Zm0,3.47c-.52,0-.93-.68-.92-1.5s.44-1.48,1-1.48.93.68.92,1.5-.52,1.49-1.04,1.48Z" fill="#0f416d"/>
            <rect id="Rectángulo_34460" data-name="Rectángulo 34460" width="16.39" height="16.39" rx="2.57" transform="translate(870.053 27.252) rotate(-45)" fill="#60e6b9"/>
            <circle id="Elipse_4627" data-name="Elipse 4627" cx="0.79" cy="0.79" r="0.79" transform="translate(880.87 18.28)" fill="#fff"/>
            <circle id="Elipse_4628" data-name="Elipse 4628" cx="0.79" cy="0.79" r="0.79" transform="translate(877.01 22.14)" fill="#fff"/>
            <path id="Trazado_228825" data-name="Trazado 228825" d="M874.72,26.79a.79.79,0,1,1-.79-.79.79.79,0,0,1,.79.79Z" fill="#fff"/>
            <circle id="Elipse_4629" data-name="Elipse 4629" cx="0.79" cy="0.79" r="0.79" transform="translate(884.73 22.14)" fill="#fff"/>
            <circle id="Elipse_4630" data-name="Elipse 4630" cx="0.79" cy="0.79" r="0.79" transform="translate(880.87 26)" fill="#fff"/>
            <circle id="Elipse_4631" data-name="Elipse 4631" cx="0.79" cy="0.79" r="0.79" transform="translate(877.01 29.87)" fill="#fff"/>
            <circle id="Elipse_4632" data-name="Elipse 4632" cx="0.79" cy="0.79" r="0.79" transform="translate(888.6 26)" fill="#fff"/>
            <circle id="Elipse_4633" data-name="Elipse 4633" cx="0.79" cy="0.79" r="0.79" transform="translate(884.73 29.87)" fill="#fff"/>
            <circle id="Elipse_4634" data-name="Elipse 4634" cx="0.79" cy="0.79" r="0.79" transform="translate(880.87 33.73)" fill="#fff"/>
          </g>
        </g>
        <ellipse id="Elipse_4635" data-name="Elipse 4635" cx="11.91" cy="18.56" rx="11.91" ry="18.56" transform="translate(798.96 156.02)" fill="#fff"/>
        <ellipse id="Elipse_4636" data-name="Elipse 4636" cx="7.92" cy="12.34" rx="7.92" ry="12.34" transform="translate(816.5 193.17)" fill="#fff"/>
        <ellipse id="Elipse_4637" data-name="Elipse 4637" cx="11.91" cy="18.56" rx="11.91" ry="18.56" transform="translate(973.21 112.51)" fill="#fff"/>
        <ellipse id="Elipse_4638" data-name="Elipse 4638" cx="11.91" cy="18.56" rx="11.91" ry="18.56" transform="translate(874.26 146.65)" fill="#fff"/>
        <ellipse id="Elipse_4639" data-name="Elipse 4639" cx="11.91" cy="18.56" rx="11.91" ry="18.56" transform="translate(892.38 189.14)" fill="#fff"/>
        <ellipse id="Elipse_4640" data-name="Elipse 4640" cx="8.4" cy="13.1" rx="8.4" ry="13.1" transform="translate(846.99 53.55)" fill="#fff"/>
        <ellipse id="Elipse_4641" data-name="Elipse 4641" cx="7.92" cy="12.34" rx="7.92" ry="12.34" transform="translate(1008.17 168.28)" fill="#fff"/>
      </g>
      <g id="Grupo_124611" data-name="Grupo 124611">
        <path id="Trazado_228826" data-name="Trazado 228826" d="M1071.52,255.37h31.35l.52-2.78h0l1.63-8.74,4.27-22.6-.23-1.21-3.63-19.11-.48-2.53-.49-2.55-19.86-.1h0l-2.14.37-5.61,1-1.19.22h-.14l-2,24.36S1072.46,238.91,1071.52,255.37Z" fill="#524660"/>
        <path id="Trazado_228827" data-name="Trazado 228827" d="M1088.3,201.27l6.27,31.41,6.82,4.16s.86,6.86,2,15.75h0c.11.91.23,1.84.35,2.78H1138c.46-13.49.92-29.81.38-34.62a.77.77,0,0,0,0-.15l-.28-2.29c-.23-1.73-.51-3.45-.86-5.13-.17-.83-.37-1.64-.58-2.46a35.269,35.269,0,0,0-5-11.51,25.085,25.085,0,0,0-2.57-3.23h-9.74L1105,198.4l-12.47,2.16Z" fill="#615370"/>
        <path id="Trazado_228828" data-name="Trazado 228828" d="M1130.88,228c.32,5.52.49,11.13.5,16.67l-.39,10.7h1.6l.39-10.68c0-5.6-.17-11.24-.5-16.79l-1-17.54-1.6.09Z" fill="#524660"/>
        <g id="Grupo_124605" data-name="Grupo 124605">
          <path id="Trazado_228829" data-name="Trazado 228829" d="M1121.47,86.1v.06a17,17,0,1,1-33-5.55.68.68,0,0,1,0-.13,16.91,16.91,0,0,1,5.4-7.58l.53-.41a16.891,16.891,0,0,1,10-3.29c5.93,0,13.3,2.77,15.77,8C1121.05,78.81,1121.47,84.19,1121.47,86.1Z" fill="#172f59"/>
          <path id="Trazado_228830" data-name="Trazado 228830" d="M1117.94,96.39s-3.94,7-3.07,10.18,1.6,2.8,1.6,2.8a9.11,9.11,0,0,1-5.61-2.12c-2.6-2.2.32-7.36.32-7.36Z" fill="#172f59"/>
          <path id="Trazado_228831" data-name="Trazado 228831" d="M1130.83,124.48s1.59,6.34-20.33,6.93-25.83-6.27-25.83-6.27,10.86-4.69,11.74-5.57c.54-.54.39-2.31.18-6.08-.12-2.42-.27-4.35-.27-4.35l4-3.67,11.76-10.81s.91,22.14,1.3,24.48S1130.83,124.48,1130.83,124.48Z" fill="#f6a49d"/>
          <path id="Trazado_228832" data-name="Trazado 228832" d="M1107.24,102.74c-4.8,8.28-8.9,10.27-10.65,10.75-.12-2.42-.27-4.35-.27-4.35l4-3.67Z" fill="#d47c74"/>
          <path id="Trazado_228833" data-name="Trazado 228833" d="M1112.42,95c-3.84,10.92-13.79,17-20.11,15.14-4.1-1.19-6.53-5.4-6.59-12.71V95.21c.06-1.16.17-2.37.34-3.66v-.07l.06-.5c.18-1.33.42-2.73.72-4.19.15-.74.33-1.54.52-2.35.1-.39.19-.78.29-1.17a27.355,27.355,0,0,1,2.5-6.89s11-1.85,15.39-1.26C1111.8,76,1113.55,91.78,1112.42,95Z" fill="#f6a49d"/>
          <path id="Trazado_228834" data-name="Trazado 228834" d="M1105.64,86.76h0c-.12-.06-.27-.12-.43-.21a4.763,4.763,0,0,0-.55-.24c-.2-.08-.4-.2-.63-.27l-.67-.26h0l-.7-.21h0a5.877,5.877,0,0,0-.73-.14,5,5,0,0,0-.76-.08h-.75a1.67,1.67,0,0,1-.72-.16c-.38-.29-.38-.84.61-1.34h0a4,4,0,0,1,.86-.12,4.811,4.811,0,0,1,1,0,6.58,6.58,0,0,1,1,.25h0a8.586,8.586,0,0,1,.86.41h0c.25.17.49.36.7.53a4.831,4.831,0,0,1,.55.57,2.909,2.909,0,0,1,.39.54c.11.17.18.33.25.45h0a.2.2,0,0,1-.28.28Z" fill="#172f59"/>
          <path id="Trazado_228835" data-name="Trazado 228835" d="M1092.42,84.4a1.7,1.7,0,0,1-.68,0h0a6.828,6.828,0,0,0-.68-.13,5.364,5.364,0,0,0-.7-.09h-1.38l-.66.09a4.132,4.132,0,0,0-.63.12h-.22c.1-.39.19-.78.29-1.17a1.184,1.184,0,0,1,.19-.11c.23-.11.48-.23.75-.33h0a7.225,7.225,0,0,1,.86-.2h0a4.819,4.819,0,0,1,.93,0,4.13,4.13,0,0,1,.92.16,3.32,3.32,0,0,1,.76.29h0C1092.94,83.71,1092.83,84.21,1092.42,84.4Z" fill="#172f59"/>
          <path id="Trazado_228836" data-name="Trazado 228836" d="M1091.32,89.53c-.19,1.12-.82,1.93-1.38,1.82s-.87-1.12-.67-2.24.82-1.93,1.39-1.82S1091.52,88.41,1091.32,89.53Z" fill="#4f1d30"/>
          <path id="Trazado_228837" data-name="Trazado 228837" d="M1103.23,90.73c-.24,1.11-.9,1.9-1.46,1.76s-.82-1.15-.57-2.26.9-1.9,1.46-1.76S1103.48,89.62,1103.23,90.73Z" fill="#4f1d30"/>
          <path id="Trazado_228838" data-name="Trazado 228838" d="M1088.52,101a14.72,14.72,0,0,0,10,1,6.12,6.12,0,0,1-6,3.34C1089,105,1088.52,101,1088.52,101Z" fill="#fff"/>
          <path id="Trazado_228839" data-name="Trazado 228839" d="M1105.34,96c.57,2,4.05,2.38,7.78,1s6.1-4,5.73-6.1c-.48-2.73-4-2.37-7.77-1S1104.78,94.06,1105.34,96Z" fill="#f6a49d"/>
          <path id="Trazado_228840" data-name="Trazado 228840" d="M1092.2,98.19a15.857,15.857,0,0,0,1.73-.1l-.06-.49c-1,.13-2.83.2-3.3-.15-.1-.25.77-1.5,1.35-2.32a13.879,13.879,0,0,0,2.09-3.65,20.821,20.821,0,0,0,.37-5.74h-.49a20.7,20.7,0,0,1-.35,5.58,14.073,14.073,0,0,1-2,3.49c-1.09,1.55-1.81,2.57-1.24,3a3.7,3.7,0,0,0,1.9.38Z" fill="#d47c74"/>
          <path id="Trazado_228841" data-name="Trazado 228841" d="M1111.85,92.71a3.71,3.71,0,0,1,4.58-.46l.28-.41a4.27,4.27,0,0,0-5.2.52Z" fill="#d47c74"/>
          <path id="Trazado_228842" data-name="Trazado 228842" d="M1111.43,95.74c.14-.07,3.44-1.56,3.7-4.27h-.49c-.23,2.42-3.37,3.84-3.4,3.86Z" fill="#d47c74"/>
          <g id="Grupo_124604" data-name="Grupo 124604">
            <g id="Grupo_124602" data-name="Grupo 124602" opacity="0.4">
              <path id="Trazado_228843" data-name="Trazado 228843" d="M1106,98.06c-.13,1.63-1.86,2.71-3.87,2.4s-3.52-1.88-3.39-3.52,1.85-2.71,3.86-2.4S1106.16,96.42,1106,98.06Z" fill="#d47c74"/>
            </g>
            <g id="Grupo_124603" data-name="Grupo 124603" opacity="0.4">
              <path id="Trazado_228844" data-name="Trazado 228844" d="M1086.39,97.43a5,5,0,0,1-.67,0V95.21c.06-1.16.17-2.37.34-3.66a3.53,3.53,0,0,1,3.46,2.6C1089.83,95.78,1088.41,97.25,1086.39,97.43Z" fill="#d47c74"/>
            </g>
          </g>
          <path id="Trazado_228845" data-name="Trazado 228845" d="M1113.81,87.64l-.07.46s-2.23,4.56-4.62,5.08-1-3.47-.92-6.9a4.62,4.62,0,0,0-1.46-3.54c-1.44-1.35-3.93-1.91-7.31-1a15.22,15.22,0,0,1-2.69.5c-2.84-.38-5.41-1-6.8-2.13l-.13-.1a5.86,5.86,0,0,1-.8-.77,17.061,17.061,0,0,1,4.92-6.38l6,.84c3.45.48,6.14.87,6.2.89h.07a12,12,0,0,1,7.61,13.05Z" fill="#172f59"/>
          <path id="Trazado_228846" data-name="Trazado 228846" d="M1092.85,78.93s-3.79.29-4.8,3.63l-1,3.35s-3.15-2.6-1.51-5.63C1088.61,74.61,1092.85,78.93,1092.85,78.93Z" fill="#172f59"/>
          <path id="Trazado_228847" data-name="Trazado 228847" d="M1109.91,82.63s-1.26.08-3.17.11a73.859,73.859,0,0,1-10-.46c-2.84-.38-5.41-1-6.8-2.13l-.13-.1a5.86,5.86,0,0,1-.8-.77c-3.64-4.19.59-11.25,6.29-9.33a16.7,16.7,0,0,1,3.79,2.8c.27.34.55.67.82,1C1106.2,81.19,1109.91,82.63,1109.91,82.63Z" fill="#172f59"/>
        </g>
        <path id="Trazado_228848" data-name="Trazado 228848" d="M1129.18,122.94l1.1,16.51,2,30.05,4.66,7.72,3.27,5.42,4,6.54s16.17-7.64,15.84-8.38c-.84-1.88-1.84-4.39-3-7.22-5.44-13-13.63-33.39-16.81-39.7-.22-.43-.42-.8-.58-1.1C1135.23,125.19,1129.18,122.94,1129.18,122.94Z" fill="#f6a49d"/>
        <path id="Trazado_228849" data-name="Trazado 228849" d="M1073.25,211.2l.91.35a63.879,63.879,0,0,0,8.61,2.59h0c16.84,3.81,34.09,1.07,44.38-1.42,2-.49,3.8-1,5.23-1.39,1.78-.52,3-1,3.71-1.17l.5-.18c.57-6.72-.09-18.87-1.22-32h0c-.11-1.3-.23-2.62-.35-3.94h0c-1.72-18.78-4.21-38.63-5.29-47-.15-1.18-.28-2.13-.37-2.82l-.17-1.27-4.22-.83-4.17-.82-6-1.16h-.09l-.17.07a25.35,25.35,0,0,1-20.13.44,1,1,0,0,1-.22-.09L1086.6,122l-4.17.79-6.21,1.52v.12c.14,1.68,0,22,1.06,39.43h0c.14,2.21.26,4.39.36,6.46h0c.19,3.8.32,7.29.37,10.19C1078.26,195.31,1073.25,211.2,1073.25,211.2Z" fill="#0059d6"/>
        <path id="Trazado_228850" data-name="Trazado 228850" d="M1129.19,122.94s5.06,1,9.13,6.6,21.44,39.33,21.44,39.33l-23.12,12.48-6.47-10.63Z" fill="#0059d6"/>
        <g id="Grupo_124606" data-name="Grupo 124606">
          <path id="Trazado_228851" data-name="Trazado 228851" d="M1020.89,145.25s-6.42,8.45-6.19,8.66c3.87,3.39,32.56,31.8,34,33,8.64,6.58,16.45,2.57,18.9-3.39a18.581,18.581,0,0,0,.66-1.9.241.241,0,0,0,0-.08,14.413,14.413,0,0,0,.44-2c.57-3.41-5.16-8.16-13.31-12.9C1043.59,159.66,1020.89,145.25,1020.89,145.25Z" fill="#f6a49d"/>
          <path id="Trazado_228852" data-name="Trazado 228852" d="M1026.53,149.25l-6.34,7.65s-2.67-1.18-5.1-2a12.08,12.08,0,0,0-3.14-.7c-3.18,0-14.38-1-15.23-1.71a4,4,0,0,1-1.13-2.07,5.09,5.09,0,0,1-2.32-1.09c-.71-.75-.3-2.75-.3-2.75s-2.22-.63-1.58-2.16,3.22-1.48,3.22-1.48.06-1.4,2.08-1.94,12.08,1.06,13.46-.15-2.25-2-3.59-3.13a9,9,0,0,1-2.12-3.25A48.942,48.942,0,0,1,1015,139a44.525,44.525,0,0,1,5.13,4.08c2.43,2.18,4.72,4.46,5.78,5.53Z" fill="#f6a49d"/>
        </g>
        <g id="Grupo_124607" data-name="Grupo 124607">
          <path id="Trazado_228853" data-name="Trazado 228853" d="M1052,174.42c4.89,6.64,8.9,12.09,9.34,12.7a20.85,20.85,0,0,0,1.49,1.84l.18-.11a11.67,11.67,0,0,0,3.68-3.62l.29-.59h0c.07-.15.15-.3.22-.46h0c.2-.42.43-.86.65-1.32.47-.93.95-1.93,1.45-2.94h0c.13-.26.25-.52.38-.79l.73-1.5v-.11l.39-.82c.17-.35.35-.7.51-1.05s.34-.7.5-1c.61-1.25,1.2-2.51,1.79-3.72.15-.32.31-.64.46-1l.24-.52.24-.51.58-1.21c.57-1.19,1.1-2.31,1.57-3.32l.78-1.66c.08-.17.16-.33.23-.5.34-.71.63-1.31.84-1.77.14-.28.24-.51.32-.68h0c.11-.24.18-.36.18-.36l.88-2.2-3.79-32.79h0a18,18,0,0,0-4.41,3.55h0a4.441,4.441,0,0,0-.26.43l-.11.2v.07h0c-.06.15-.17.4-.33.76h0c-.1.2-.2.47-.34.78h0c-1.25,2.93-4.31,10.28-7.49,17.87-.19.46-.39.91-.58,1.38l-.29.69c-.2.46-.39.92-.58,1.38-.29.68-.58,1.37-.86,2.05l-.57,1.35-.56,1.32-.27.65c-.19.44-.36.87-.54,1.28-.36.85-.71,1.66-1,2.45l-1.55,3.66c-.38.87-.72,1.67-1,2.37-.16.38-.32.73-.45,1.05-.42.95-.74,1.63-.92,2a.942.942,0,0,1-.12.3l-.1.24c-.11.25-.21.48-.31.73C1053,172.21,1052.46,173.35,1052,174.42Z" fill="#f6a49d"/>
          <path id="Trazado_228854" data-name="Trazado 228854" d="M1079,159.74c-.21.46-.61,1.32-1.16,2.46-.29.63-.64,1.36-1,2.15-.63,1.34-1.36,2.89-2.15,4.53-.16.34-.31.68-.48,1a10.336,10.336,0,0,0-.46,1l-1.78,3.72c-.34.7-.68,1.4-1,2.1-.54,1.1-1.05,2.18-1.56,3.22-4-3.75-10.63-10-14-13.2,3.69-8.49,12.94-30.76,15.35-36.45h0a9.639,9.639,0,0,1,4.41-3.58h0Z" fill="#d47c74"/>
          <path id="Trazado_228855" data-name="Trazado 228855" d="M1054.34,162.39l2,1.94c3.34,3.17,10,9.5,14.07,13.28a41.878,41.878,0,0,0,3.36,3c1.07-1.27,7.24-14.56,7.24-14.56l-1-8.92-3.79-32.79h0a9.59,9.59,0,0,0-4.41,3.58h0a3.765,3.765,0,0,0-.26.43l-.11.2v.07h0c-.82,1.64-6.27,12.13-10.71,20.65C1057.47,155.47,1054.34,162.39,1054.34,162.39Z" fill="#0059d6"/>
        </g>
        <rect id="Rectángulo_34462" data-name="Rectángulo 34462" width="42.54" height="114.07" transform="translate(1082.43 141.3)" fill="#99bdef"/>
        <path id="Trazado_228856" data-name="Trazado 228856" d="M1120.8,121.29v37.95h4.17V122.11Z" fill="#99bdef"/>
        <path id="Trazado_228857" data-name="Trazado 228857" d="M1082.43,122.82v40.36h4.17V122.03Z" fill="#99bdef"/>
        <path id="Trazado_228858" data-name="Trazado 228858" d="M1102,147.39h3.43a11.5,11.5,0,0,1,11.5,11.5v6.35h-26.42v-6.35a11.5,11.5,0,0,1,11.5-11.5Z" transform="translate(2207.4 312.63) rotate(180)" fill="#5eb9f7"/>
        <path id="Trazado_228859" data-name="Trazado 228859" d="M1082.43,198.68l-9.58,56.69h10.66l-.66-59.15Z" fill="#99bdef"/>
        <rect id="Rectángulo_34463" data-name="Rectángulo 34463" width="62.21" height="8.13" transform="translate(1137.71 198.99) rotate(180)" fill="#5eb9f7"/>
        <path id="Trazado_228860" data-name="Trazado 228860" d="M1145.46,176.56l10.43-5.57,1.2,2.85Z" fill="#d47c74"/>
        <g id="Grupo_124608" data-name="Grupo 124608">
          <path id="Trazado_228861" data-name="Trazado 228861" d="M1103.81,207.64s5.13,9.29,5.41,9.17c4.67-2.17,43.21-18.24,44.87-19.14,9.51-5.24,9-14,4.55-18.65a15.987,15.987,0,0,0-1.47-1.38h-.06a18.044,18.044,0,0,0-1.68-1.23c-2.89-1.89-7.38-.59-9.45.23-1.63.63-8.32,5.94-16,11.48C1118.9,196.13,1103.81,207.64,1103.81,207.64Z" fill="#f6a49d"/>
          <path id="Trazado_228862" data-name="Trazado 228862" d="M1109.75,204.1l4.43,8.9s-2.16,2-3.88,3.87a12.361,12.361,0,0,0-1.9,2.58c-1.28,2.92-6.76,12.73-7.73,13.23a4,4,0,0,1-2.36.2,5,5,0,0,1-1.93,1.68c-1,.35-2.63-.84-2.63-.84s-1.48,1.78-2.62.57-.05-3.54-.05-3.54-1.26-.63-.93-2.69c.34-2.21,5.86-10.62,5.31-12.37s-2.77,1.24-4.31,2a8.89,8.89,0,0,1-3.83.62,48.571,48.571,0,0,1,8.43-7.84,44.57,44.57,0,0,1,5.81-3c3-1.34,6-2.51,7.39-3Z" fill="#f6a49d"/>
        </g>
        <g id="Grupo_124610" data-name="Grupo 124610">
          <path id="Trazado_228863" data-name="Trazado 228863" d="M1086.11,79.18h.12l.84-.12h.34l.75-.1.75-.07h.22c.89-.09,1.75-.15,2.6-.18h1a44.08,44.08,0,0,1,9,.73q.91.18,1.8.39l1.06.26,1.28.37.24.07h.16c.74.23,1.45.48,2.13.74l.74.29c.72.29,1.41.6,2.07.91h0l1.26.64c.44.23.87.46,1.27.69h0l.48.28a23.177,23.177,0,0,1,2,1.3c.31.21.6.42.88.63l.41.31c.78.59,1.43,1.14,2,1.62.1.1.21.19.3.29a19.011,19.011,0,0,1,1.4,1.42v.06L1122.48,77a1.441,1.441,0,0,0-.44-1.41l-1.67-1.51a1.39,1.39,0,0,1-.41-1.51l.84-2.52a.609.609,0,0,0,0-.18,1.19,1.19,0,0,0-.22-.86.869.869,0,0,0-.13-.14,1.382,1.382,0,0,0-.52-.32l-1.51-.5c-5.41-1.7-3.17-2-12.26-3.32-.81-.12-1.61-.21-2.38-.28a37.539,37.539,0,0,0-10,.52l-.33.07a2.472,2.472,0,0,0-.29.06l-1.05.22-.44.11a1.17,1.17,0,0,0-.93,1.32,1,1,0,0,1,0,.34c-.06.49-1,1.45-1.65,2a2,2,0,0,0-.61,1l-.84,3.23h0l-.85,3.29Z" fill="#99bdef"/>
          <path id="Trazado_228864" data-name="Trazado 228864" d="M1107.06,70.88c3.81.85,8.2,2.37,10.3,3.85s1.73,8.2.19,11.55a23.993,23.993,0,0,1,3.7,3.39L1122.48,77a1.42,1.42,0,0,0-.44-1.41l-1.67-1.51a1.43,1.43,0,0,1-.41-1.51l.84-2.51a1.21,1.21,0,0,0-.82-1.51l-1.51-.5c-.5,1.89-.71,2.88-1.46,3.77C1116.13,72.86,1111.14,71.71,1107.06,70.88Z" fill="#5eb9f7"/>
          <g id="Grupo_124609" data-name="Grupo 124609" opacity="0.4">
            <path id="Trazado_228865" data-name="Trazado 228865" d="M1087.63,73.31h0a11.538,11.538,0,0,1,2.88-3.35c2.19-1.4,9.55-1.5,9.55-1.5a36.445,36.445,0,0,1-5.63-1.34c-1.31-.47,4.22-1.69,9.39-2.68a37.541,37.541,0,0,0-10,.52l-.33.07a2.463,2.463,0,0,0-.29.06l-1.05.22-.44.11a1.17,1.17,0,0,0-.93,1.32,1,1,0,0,1,0,.34c-.06.49-1,1.45-1.65,2a2,2,0,0,0-.61,1Z" fill="#fff"/>
          </g>
          <path id="Trazado_228866" data-name="Trazado 228866" d="M1086.11,79.18c15.91-2.41,26.34,3.19,31.44,7.1a23.452,23.452,0,0,1,3.7,3.39l.67-2.58a24.049,24.049,0,0,0-3.7-3.39c-5.11-3.91-15.53-9.52-31.44-7.1Z" fill="#58abdd"/>
        </g>
      </g>
    </g>
  </g>
</svg>
